<?xml version="1.0" encoding="utf-8"?>
<!-- Generator: Adobe Illustrator 24.1.2, SVG Export Plug-In . SVG Version: 6.00 Build 0)  -->
<svg version="1.1" id="Layer_1" xmlns="http://www.w3.org/2000/svg" xmlns:xlink="http://www.w3.org/1999/xlink" x="0px" y="0px"
	 viewBox="0 0 59.9 33.8" style="enable-background:new 0 0 59.9 33.8;" xml:space="preserve">
<style type="text/css">
	.st0{fill:#009DC7;}
</style>
<g id="Group_45" transform="translate(1.093 1)">
	<g id="Path_2726">
		<path class="st0" d="M48.1,11.6l5.7-0.6c0-0.4,0-0.8,0-1.2c0-0.4,0.3-0.8,0.7-0.8c0,0,0.1,0,0.1,0c0.4,0,0.8,0.3,0.8,0.8
			c0,0,0,0,0,0.1c0,0.3,0,0.7,0,1c0.5-0.1,1-0.1,1.5-0.2c0.5-0.1,0.9,0.1,1,0.5c0.1,0.3,0.1,0.6,0,0.9c-0.2,3.6-1.1,7.1-2.7,10.4
			c0,0.1-0.1,0.1-0.1,0.2c-0.6,0.9-0.9,1.9-1,2.9c0,0.3-0.5,2.9-0.6,3.2c0.2,0,0.8,0.1,1,0.2c0.6,0.1,1.1,0.4,1.5,0.8
			c0.3,0.3,0.4,0.7,0.1,1.1c-0.3,0.3-0.7,0.4-1.1,0.1c-0.7-0.6-1.6-0.7-2.4-0.4c-0.8,0.3-1.7,0.6-2.5,0.9c-0.9,0.4-2,0.5-3,0.2
			c-0.4-0.2-0.8-0.4-1.2-0.7c-0.7-0.6-1.6-0.8-2.5-0.4c-0.8,0.3-1.6,0.6-2.3,0.9c-1,0.4-2.1,0.5-3.1,0.2c-0.5-0.2-0.9-0.4-1.3-0.7
			c-0.6-0.5-1.4-0.7-2.2-0.4c-0.8,0.2-1.5,0.6-2.2,0.8c-0.6,0.2-1.2,0.4-1.9,0.5c-1,0.2-2-0.1-2.7-0.7c-0.8-0.7-1.9-0.9-2.8-0.5
			c-0.8,0.3-1.5,0.6-2.3,0.9c-0.9,0.4-2,0.5-3,0.1c-0.4-0.2-0.8-0.4-1.1-0.6c-0.7-0.6-1.6-0.8-2.5-0.5c-0.8,0.3-1.6,0.6-2.4,0.9
			c-0.9,0.4-1.9,0.5-2.9,0.3c-0.5-0.2-1-0.4-1.5-0.8c-0.6-0.5-1.5-0.7-2.3-0.5c-0.8,0.3-1.6,0.6-2.4,0.9c-0.9,0.4-2,0.6-3,0.4
			c-0.6-0.1-1.1-0.4-1.5-0.8c-0.3-0.2-0.4-0.7-0.2-1.1c0,0,0,0,0,0c0.3-0.3,0.8-0.4,1.1-0.1c0.5,0.4,0.7,0.5,1.1,0.5v-5.1h-1
			c-0.2,0-0.4,0-0.6,0c-0.4,0-0.8-0.3-0.8-0.7c0,0,0-0.1,0-0.1c0-1.3,0-2.6,0-3.9c0-0.9,0-1.8,0-2.7c0-0.4,0.3-0.8,0.7-0.8
			c0,0,0,0,0,0C2.8,16.5,4.9,16.3,7,16c1.7-0.2,3.4-0.4,5-0.5c0,0,0.1,0,0.2,0c-0.1-0.5-0.2-0.9-0.3-1.4C11,9.7,10.2,5.4,9.3,1.1
			C9.2,0.7,9.4,0.3,9.8,0.2c0.1,0,0.1,0,0.2,0c1.6,0,3.1,0,4.7,0c0.2,0,0.4,0.1,0.6,0.2c2.5,1.6,5.1,3.2,7.6,4.7
			c0.2,0.1,0.4,0.2,0.6,0.2c3.6,0,7.1,0,10.7,0c1.9-0.1,3.5,1.2,3.9,3.1c0.3,1.3,0.6,2.6,0.9,3.9c0,0.2,0.1,0.3,0.3,0.2
			c1.6-0.2,3.3-0.4,4.9-0.5c0.7-0.1,1.3-0.2,2-0.2c0.3,0,0.4-0.1,0.3-0.4c0-0.7,0-1.5,0-2.2c0-0.6,0.3-0.9,0.8-0.9s0.8,0.4,0.8,0.9
			C48.1,10,48.1,10.8,48.1,11.6z M1.4,23.5h24c9,0,18,0,27,0c0.2,0,0.4-0.1,0.5-0.3c0.1-0.3,0.3-0.6,0.5-0.8
			c1.4-2.7,2.2-5.5,2.6-8.5c0.1-0.5,0.1-1.1,0.2-1.6l-54.8,6V23.5z M20.2,5.3c-0.1-0.1-0.1-0.1-0.2-0.1c-1.8-1.1-3.6-2.3-5.4-3.4
			c-0.1-0.1-0.3-0.1-0.4-0.1c-0.9,0-1.7,0-2.6,0h-0.7l2.8,13.6l5.5-0.6c0-0.1,0.2-1.3,0.6-3.4c0-1.1,0.9-2,1.9-2
			c0.2,0,0.4,0,0.6,0.1c5.2,0.7,14.8,2,14.8,2s-0.8-3.3-0.9-3.4c-0.4-0.7-1.2-1.1-2-1.1H16.3c-0.1,0-0.2,0-0.4,0
			c-0.4,0-0.7-0.4-0.7-0.8c0-0.1,0-0.1,0.1-0.2c0.1-0.3,0.5-0.5,0.8-0.5C17.5,5.3,18.8,5.3,20.2,5.3L20.2,5.3z M52.6,25.1H3.8v5
			c0.8-0.3,1.6-0.6,2.4-0.9c1.4-0.6,3-0.3,4.2,0.7c0.3,0.2,0.6,0.4,1,0.4c0.6,0.1,1.3,0,1.8-0.3c0.8-0.3,1.6-0.6,2.4-0.9
			c1.2-0.5,2.6-0.3,3.6,0.6c0.7,0.7,1.8,0.9,2.8,0.5c0.8-0.3,1.5-0.6,2.3-0.9c1.5-0.7,3.2-0.4,4.4,0.6c0.3,0.2,0.6,0.3,0.9,0.4
			c0.6,0.1,1.3,0,1.9-0.3c0.7-0.3,1.4-0.6,2.1-0.8c1.4-0.6,3.1-0.3,4.2,0.7c0.5,0.4,1.1,0.6,1.7,0.4c0.4-0.1,0.7-0.2,1.1-0.3
			c0.8-0.3,1.5-0.6,2.3-0.9c1.4-0.5,2.9-0.2,4,0.7c0.5,0.5,1.3,0.6,2,0.4c1-0.3,1.9-0.7,2.9-1.1c0.1,0,0.1-0.1,0.2-0.1
			C52.1,28.5,52.4,25.7,52.6,25.1L52.6,25.1z M20.8,14.5l16.6-1.8c-3.5-0.4-11.1-1.4-15.2-1.9c-0.6-0.1-0.8,0.1-0.9,0.6
			C21.1,12.6,21,13.5,20.8,14.5z"/>
		<path class="st0" d="M29.8,32.8c-1,0-2-0.4-2.8-1c-0.5-0.4-1.2-0.6-1.7-0.3c-0.4,0.1-0.7,0.3-0.9,0.4c-0.5,0.2-0.9,0.4-1.4,0.5
			c-1.1,0.5-2.4,0.5-3.6,0.1c-0.5-0.2-1-0.5-1.5-0.8c-0.4-0.4-1-0.5-1.5-0.3c-0.5,0.2-0.9,0.3-1.3,0.5c-0.4,0.1-0.7,0.3-1.1,0.4
			c-1,0.5-2.3,0.6-3.4,0.3c-0.7-0.2-1.3-0.5-1.8-0.9c-0.4-0.4-0.9-0.5-1.3-0.3c-0.5,0.2-1,0.4-1.5,0.6c-0.3,0.1-0.5,0.2-0.8,0.3
			c-1.1,0.5-2.3,0.6-3.5,0.4c-0.8-0.2-1.4-0.5-2-1c-0.3-0.2-0.6-0.6-0.6-1.1c-0.1-0.5,0-0.9,0.3-1.3l0.1-0.1
			c0.5-0.6,1.3-0.8,1.9-0.5v-2.6l-0.1,0c-0.1,0-0.3,0-0.4,0c-0.4,0-0.8-0.1-1.2-0.4c-0.4-0.3-0.6-0.7-0.6-1.2c0-0.1,0-0.2,0-0.2
			v-6.6c-0.1-0.9,0.7-1.8,1.6-1.8L11,14.6c0-0.1,0-0.2-0.1-0.3L8.3,1.3C8.1,0.4,8.6-0.5,9.5-0.8c0.2,0,0.3-0.1,0.5-0.1
			c1.5,0,3.1,0,4.7,0c0.4,0,0.8,0.2,1.1,0.4c1.2,0.7,2.4,1.5,3.7,2.3c1.3,0.8,2.6,1.6,3.9,2.4c0,0,0.1,0,0.1,0c2.9,0,5.8,0,8.8,0
			h1.9c2.3-0.1,4.4,1.6,4.8,3.9l0.3,1.3c0.2,0.7,0.3,1.3,0.5,2c1.4-0.2,2.9-0.3,4.3-0.5l0.5-0.1c0.3,0,0.6-0.1,0.9-0.1
			c0-0.5,0-1,0-1.5l0-0.1c0-0.6,0.2-1.1,0.5-1.4c0.3-0.3,0.8-0.5,1.2-0.5c1,0,1.7,0.8,1.8,1.9l0,1.2l3.7-0.4V9.8
			c0-0.4,0.1-0.9,0.4-1.2c0.3-0.4,0.7-0.6,1.2-0.6c0.1,0,0.2,0,0.2,0c0,0,0,0,0,0c0.4,0,0.9,0.2,1.2,0.5c0.3,0.3,0.5,0.8,0.5,1.2
			c0.1,0,0.3,0,0.4,0c1.3-0.1,1.9,0.6,2,1.3c0.1,0.4,0.1,0.8,0.1,1.2c-0.2,3.7-1.2,7.3-2.8,10.7c-0.1,0.1-0.1,0.2-0.2,0.3
			c-0.5,0.7-0.8,1.6-0.9,2.4c0,0.2-0.2,1.4-0.4,2.3c0,0,0,0,0,0c0.7,0.2,1.4,0.5,1.9,1c0.3,0.3,0.6,0.7,0.6,1.2
			c0.1,0.5-0.1,0.9-0.4,1.3c-0.6,0.8-1.7,0.9-2.5,0.3c-0.4-0.4-1-0.4-1.4-0.2c-0.5,0.2-0.9,0.3-1.3,0.5c-0.4,0.2-0.8,0.3-1.3,0.5
			c-1.1,0.5-2.4,0.5-3.6,0.2c-0.6-0.2-1.1-0.5-1.5-0.8c-0.4-0.4-1-0.5-1.5-0.3c-0.5,0.2-0.9,0.4-1.4,0.5c-0.3,0.1-0.6,0.3-1,0.4
			c-1.1,0.5-2.5,0.6-3.7,0.2c-0.6-0.2-1.2-0.5-1.6-0.9c-0.4-0.3-0.8-0.4-1.2-0.3c-0.4,0.1-0.8,0.3-1.1,0.4c-0.4,0.1-0.7,0.3-1.1,0.4
			c-0.6,0.2-1.3,0.4-2,0.5C30.4,32.8,30.1,32.8,29.8,32.8z M0.6,30.5C0.6,30.5,0.6,30.5,0.6,30.5C0.6,30.5,0.6,30.5,0.6,30.5z
			 M55.3,30.5C55.3,30.5,55.3,30.5,55.3,30.5C55.3,30.5,55.3,30.5,55.3,30.5z M0.8,30.1C0.8,30.1,0.8,30.1,0.8,30.1
			C0.8,30.1,0.8,30.1,0.8,30.1z M44.3,27.8c1.2,0,2.3,0.4,3.2,1.3c0.3,0.2,0.7,0.3,1,0.2c0.7-0.2,1.4-0.5,2.2-0.8l0.3-0.1
			c0.1-0.3,0.1-0.9,0.2-1.4c0-0.3,0.1-0.6,0.1-0.9H4.8v2.5c0.4-0.1,0.7-0.3,1.1-0.4c1.7-0.7,3.7-0.4,5.1,0.9
			c0.1,0.1,0.3,0.2,0.5,0.2c0.4,0.1,0.8,0,1.2-0.2l0.1,0c0.3-0.1,0.6-0.2,0.9-0.4c0.5-0.2,1-0.4,1.5-0.5c1.5-0.6,3.3-0.3,4.6,0.7
			c0.5,0.5,1.2,0.6,1.7,0.3c0.4-0.2,0.8-0.3,1.2-0.5c0.4-0.1,0.7-0.3,1.1-0.4c1.8-0.8,3.9-0.5,5.4,0.8c0.1,0.1,0.3,0.1,0.4,0.2
			c0.4,0.1,0.8,0,1.2-0.2l0.1,0c0.3-0.1,0.6-0.2,0.9-0.4c0.4-0.2,0.8-0.3,1.2-0.4c1.7-0.7,3.8-0.4,5.2,0.9c0.2,0.2,0.5,0.3,0.8,0.2
			c0.4-0.1,0.7-0.2,1-0.3c0.3-0.1,0.6-0.2,0.9-0.4c0.4-0.2,0.9-0.4,1.4-0.5C43.1,27.9,43.7,27.8,44.3,27.8z M52.1,22.8
			C52.1,22.8,52.1,22.9,52.1,22.8C52.1,22.9,52.1,22.8,52.1,22.8z M2.4,22.5h23c8.9,0,17.8,0,26.8,0c0.1-0.1,0.1-0.2,0.2-0.3
			c0.1-0.1,0.1-0.2,0.2-0.3c1.3-2.6,2.2-5.3,2.5-8.2c0-0.1,0-0.3,0-0.4L2.4,19.1V22.5z M12.2,2.7l2.4,11.5l3.8-0.4
			c0.1-0.6,0.2-1.5,0.4-2.6c0-1.6,1.3-2.9,2.9-2.9c0.3,0,0.5,0,0.8,0.1c3.9,0.5,10.4,1.4,13.3,1.8c-0.2-0.8-0.4-1.6-0.5-1.8
			c-0.2-0.4-0.6-0.5-1-0.5l-18,0c-0.1,0-0.3,0-0.4,0c-0.5-0.1-0.9-0.3-1.2-0.7c-0.3-0.4-0.4-0.8-0.4-1.3c0-0.2,0.1-0.3,0.1-0.5
			c0.3-0.7,1-1.2,1.8-1.1c0.2,0,0.4,0,0.6,0c-0.9-0.5-1.7-1.1-2.6-1.6c-0.6,0-1.1,0-1.7,0L12.2,2.7z M22.3,11.8
			c-0.1,0.6-0.2,1.1-0.3,1.6c0,0,0,0,0,0l6.9-0.8C26.5,12.3,24.1,12,22.3,11.8z M37.6,12.4l0,0.9l0.7-0.1C38.1,13,38,12.8,38,12.5
			c0,0,0,0,0-0.1L37.6,12.4z M20.3,5.2l0.1,0.7h1.8c-0.5-0.3-1.1-0.7-1.6-1L20.3,5.2z M14.2,2.7C14.2,2.7,14.3,2.7,14.2,2.7
			C14.2,2.7,14.2,2.7,14.2,2.7z"/>
	</g>
</g>
</svg>
