<?xml version="1.0" encoding="utf-8"?>
<!-- Generator: Adobe Illustrator 24.1.2, SVG Export Plug-In . SVG Version: 6.00 Build 0)  -->
<svg version="1.1" id="Layer_1" xmlns="http://www.w3.org/2000/svg" xmlns:xlink="http://www.w3.org/1999/xlink" x="0px" y="0px"
	 viewBox="0 0 51.7 51.7" style="enable-background:new 0 0 51.7 51.7;" xml:space="preserve">
<style type="text/css">
	.st0{fill:#FFFFFF;}
</style>
<g id="Group_552" transform="translate(0.589 0.588)">
	<g id="Path_4445">
		<path class="st0" d="M14.7,24.9c0-0.4,0.2-0.9,0.6-1.2c2-1.9,3.9-3.9,5.8-5.8c1-1,2-2,3.1-3.1c0.5-0.6,1.5-0.7,2.1-0.2
			c0.1,0.1,0.1,0.1,0.2,0.2c3,3,5.9,5.9,8.9,8.9c0.7,0.5,0.8,1.4,0.3,2.1c-0.1,0.1-0.2,0.2-0.3,0.3c-1,1-2.1,2-3.1,3
			c-0.7,0.7-1.4,1.5-2.1,2.2c-0.8,0.8-1.7,1.6-2.5,2.4c-0.5,0.5-1,1-1.5,1.4c-0.6,0.5-1.4,0.4-1.9-0.1c-2-2-4.1-4.1-6.1-6.1
			c-1-1-2-2-3-3C14.9,25.7,14.7,25.3,14.7,24.9z M18.3,24.8l7.1,7.1l7-7l-7.1-7.1L18.3,24.8z"/>
		<path class="st0" d="M25.3,36c-0.5,0-1-0.2-1.3-0.5l-9.1-9.1c-0.4-0.4-0.6-0.9-0.6-1.5l0,0c0-0.6,0.3-1.1,0.7-1.5
			c1.9-1.9,3.9-3.9,5.8-5.8c1-1,2-2,3.1-3.1c0.3-0.4,0.8-0.6,1.3-0.7c0.5-0.1,1,0.1,1.5,0.4c0.1,0.1,0.2,0.2,0.3,0.3l8.9,8.9
			c0.4,0.3,0.7,0.7,0.7,1.3c0.1,0.5-0.1,1.1-0.4,1.5c-0.1,0.2-0.3,0.3-0.4,0.4c-0.4,0.4-0.9,0.8-1.3,1.3c-0.6,0.6-1.1,1.1-1.7,1.7
			c-0.4,0.4-0.7,0.7-1.1,1.1c-0.3,0.4-0.7,0.7-1,1c-0.6,0.6-1.2,1.2-1.8,1.7l-1.1,1.1c-0.3,0.3-0.7,0.7-1.1,1
			C26.2,35.9,25.8,36,25.3,36z M15.2,24.9c0,0.3,0.1,0.5,0.3,0.7l9.1,9.1c0.3,0.3,0.9,0.3,1.2,0c0.3-0.3,0.7-0.6,1-1l1.1-1.1
			c0.6-0.6,1.2-1.1,1.8-1.7c0.3-0.3,0.7-0.7,1-1c0.4-0.4,0.7-0.8,1.1-1.1c0.6-0.6,1.1-1.1,1.7-1.7c0.5-0.4,0.9-0.9,1.4-1.3
			c0.1-0.1,0.2-0.2,0.3-0.3c0.2-0.2,0.2-0.5,0.2-0.8s-0.2-0.5-0.4-0.7l-9-8.9C26.1,15.1,26,15,26,15c-0.2-0.2-0.5-0.2-0.7-0.2
			c-0.3,0-0.5,0.2-0.7,0.4c-1.1,1.1-2.1,2.1-3.1,3.1c-1.9,1.9-3.9,3.9-5.9,5.8C15.4,24.3,15.3,24.6,15.2,24.9z M25.4,32.6l-7.8-7.8
			l7.7-7.7l7.8,7.8L25.4,32.6z M19,24.8l6.3,6.4l6.3-6.3l-6.4-6.4L19,24.8z"/>
	</g>
	<g id="Path_4446">
		<path class="st0" d="M25.2,10.1c-1,1-1.9,1.9-2.8,2.8c-0.3,0.3-0.6,0.5-0.9,0.6c-0.6,0.2-1.3-0.1-1.6-0.6
			c-0.4-0.6-0.3-1.3,0.2-1.8c0.8-0.8,1.6-1.6,2.4-2.4c0.5-0.5,1.1-1.1,1.6-1.6c0.5-0.6,1.5-0.7,2.1-0.2c0.1,0.1,0.1,0.1,0.2,0.2
			c1.3,1.3,2.6,2.6,3.9,3.9c0.6,0.5,0.6,1.5,0.1,2.1c-0.1,0.2-0.3,0.3-0.5,0.4c-0.6,0.2-1.2,0.1-1.7-0.4c-0.9-0.9-1.7-1.7-2.6-2.6
			C25.4,10.3,25.3,10.2,25.2,10.1z"/>
		<path class="st0" d="M21.1,14.1c-0.7,0-1.3-0.3-1.6-0.9c-0.5-0.7-0.4-1.7,0.3-2.4c0.5-0.6,1.1-1.1,1.7-1.7l2.3-2.3
			c0.7-0.8,1.9-0.9,2.8-0.2c0.1,0.1,0.2,0.2,0.2,0.2L28,8.1c0.8,0.8,1.7,1.7,2.5,2.5c0.4,0.3,0.6,0.8,0.6,1.3c0,0.5-0.2,1-0.5,1.4
			c-0.2,0.2-0.4,0.4-0.7,0.5c-0.8,0.3-1.7,0.1-2.2-0.5c-0.8-0.8-1.7-1.7-2.5-2.5l-0.3,0.3c-0.7,0.7-1.4,1.4-2.1,2.1
			c-0.3,0.3-0.7,0.6-1.1,0.7C21.5,14,21.3,14.1,21.1,14.1z M25.2,7.1c-0.3,0-0.6,0.1-0.7,0.3l-2.4,2.4c-0.6,0.6-1.1,1.1-1.6,1.7
			c-0.3,0.3-0.4,0.8-0.1,1.1c0.2,0.4,0.7,0.5,1.1,0.4c0.2-0.1,0.5-0.3,0.7-0.5c0.7-0.7,1.4-1.4,2.1-2.1l1.1-1.2l0.3,0.5
			c0.1,0.1,0.2,0.2,0.2,0.3c0.8,0.9,1.7,1.7,2.6,2.6c0.3,0.3,0.7,0.4,1.1,0.3c0.1-0.1,0.2-0.1,0.3-0.2c0.2-0.2,0.3-0.4,0.2-0.7
			s-0.1-0.5-0.3-0.7c-0.9-0.9-1.7-1.7-2.5-2.5L26,7.5c-0.1-0.1-0.1-0.1-0.1-0.2C25.7,7.2,25.4,7.1,25.2,7.1z"/>
	</g>
	<g id="Path_4447">
		<path class="st0" d="M25.3,40.4l2.6-2.6c0.2-0.2,0.3-0.3,0.5-0.5c0.6-0.5,1.4-0.6,2,0c0.6,0.5,0.6,1.5,0.1,2c0,0,0,0,0,0
			c-1.4,1.4-2.7,2.8-4.1,4.1c-0.5,0.6-1.4,0.6-2,0c0,0,0,0,0,0c-1.4-1.4-2.8-2.7-4.1-4.1c-0.5-0.6-0.5-1.4,0-2
			c0.5-0.6,1.4-0.6,2-0.1c0.9,0.9,1.8,1.8,2.7,2.7C25.1,40.1,25.2,40.2,25.3,40.4z"/>
		<path class="st0" d="M25.3,44.4c-0.5,0-1-0.2-1.3-0.5c-1.4-1.4-2.8-2.7-4.1-4.1c-0.7-0.8-0.7-2,0-2.7c0.7-0.8,1.9-0.8,2.7-0.1
			c0.7,0.6,1.3,1.3,2,2l0.7,0.7c0,0,0,0,0,0l2.2-2.2c0.2-0.2,0.3-0.3,0.5-0.5c0.7-0.7,1.9-0.7,2.7,0c0.4,0.4,0.6,0.8,0.6,1.3
			c0,0.5-0.2,1-0.5,1.4c-1.4,1.4-2.8,2.8-4.2,4.2C26.3,44.2,25.8,44.4,25.3,44.4z M21.3,37.5c-0.2,0-0.5,0.1-0.7,0.3
			c-0.4,0.4-0.4,0.9,0,1.3c1.3,1.4,2.7,2.7,4.1,4.1c0.4,0.3,0.9,0.3,1.3,0c1.4-1.4,2.8-2.7,4.1-4.1c0.2-0.2,0.3-0.4,0.3-0.7
			s-0.1-0.5-0.3-0.7c-0.4-0.3-1-0.3-1.3,0c-0.2,0.2-0.3,0.3-0.5,0.5l-2.9,3l-0.5-0.6c-0.1-0.1-0.1-0.1-0.2-0.2l-0.7-0.7
			c-0.6-0.7-1.3-1.3-2-1.9C21.7,37.5,21.5,37.5,21.3,37.5z"/>
	</g>
	<g id="Path_4448">
		<path class="st0" d="M40.4,25.2c-1.1-1.1-2.1-2-3.1-3c-0.6-0.5-0.6-1.5-0.1-2.1c0,0,0.1-0.1,0.1-0.1c0.6-0.5,1.4-0.5,2,0
			c1.4,1.4,2.7,2.7,4.1,4.1c0.6,0.5,0.6,1.4,0.1,2c0,0,0,0,0,0c-1.3,1.4-2.7,2.7-4.1,4.1c-0.6,0.5-1.5,0.5-2.1-0.1
			c-0.5-0.6-0.5-1.5,0-2c0.9-0.9,1.8-1.8,2.7-2.7C40.2,25.4,40.3,25.3,40.4,25.2z"/>
		<path class="st0" d="M38.4,31.2c-0.5,0-1.1-0.2-1.4-0.6c-0.7-0.8-0.7-2,0.1-2.7c0.8-0.8,1.5-1.5,2.3-2.3l0.3-0.3L39,24.5
			c-0.7-0.7-1.3-1.3-2-2c-0.8-0.7-0.8-1.9-0.1-2.7c0,0,0.1-0.1,0.1-0.1c0.7-0.7,1.9-0.7,2.7,0c1.4,1.4,2.8,2.7,4.1,4.1
			c0.4,0.3,0.6,0.8,0.6,1.3c0,0.5-0.2,1-0.5,1.4c-1.4,1.4-2.8,2.8-4.1,4.1C39.4,31,38.9,31.2,38.4,31.2z M38.4,20.2
			c-0.2,0-0.5,0.1-0.6,0.3c-0.4,0.4-0.4,1.1,0,1.4c0.7,0.7,1.3,1.3,2,2l1.5,1.5l-0.6,0.3c-0.1,0.1-0.2,0.1-0.3,0.2l-0.4,0.4
			c-0.8,0.8-1.5,1.5-2.3,2.3c-0.4,0.4-0.4,0.9,0,1.3c0.4,0.4,1,0.4,1.4,0.1c1.3-1.3,2.7-2.7,4-4c0.2-0.2,0.3-0.5,0.3-0.7
			c0-0.2-0.1-0.5-0.3-0.6c-1.4-1.4-2.7-2.8-4.1-4.1C38.8,20.3,38.6,20.2,38.4,20.2z"/>
	</g>
	<g id="Path_4449">
		<path class="st0" d="M10.2,25.3c1,1,1.9,2,2.9,2.9c0.6,0.5,0.7,1.5,0.2,2.1c0,0.1-0.1,0.1-0.2,0.2c-0.6,0.5-1.4,0.5-2-0.1
			c-1.1-1-2.1-2.1-3.2-3.1c-0.3-0.3-0.6-0.6-0.9-0.9c-0.6-0.5-0.7-1.5-0.1-2.1c0,0,0.1-0.1,0.1-0.1c1.3-1.3,2.6-2.6,3.9-3.9
			c0.5-0.6,1.5-0.6,2-0.1c0.2,0.2,0.3,0.4,0.4,0.6c0.2,0.6,0,1.2-0.4,1.6C12.1,23.4,11.1,24.3,10.2,25.3z"/>
		<path class="st0" d="M12.1,31.3c-0.5,0-1-0.2-1.4-0.6c-0.7-0.7-1.4-1.4-2.1-2.1l-1.9-1.9c-0.4-0.3-0.6-0.8-0.6-1.3
			c0-0.5,0.1-1,0.5-1.4c0.1-0.1,0.1-0.1,0.2-0.2c0.7-0.7,1.4-1.4,2-2c0.6-0.6,1.2-1.2,1.8-1.8c0.3-0.4,0.8-0.6,1.3-0.6
			c0.5,0,1,0.2,1.4,0.5c0.2,0.2,0.4,0.5,0.5,0.8c0.3,0.8,0.1,1.6-0.6,2.2l-2.5,2.5l0.5,0.5c0.7,0.7,1.4,1.4,2.1,2.1
			c0.4,0.3,0.6,0.8,0.7,1.3c0.1,0.5-0.1,1-0.4,1.5c-0.1,0.1-0.1,0.2-0.2,0.2C13.1,31.2,12.6,31.3,12.1,31.3z M12.1,20.3
			C12.1,20.3,12,20.3,12.1,20.3c-0.3,0-0.5,0.1-0.7,0.3c-0.6,0.6-1.2,1.2-1.8,1.8c-0.7,0.7-1.4,1.4-2.1,2.1c-0.1,0-0.1,0.1-0.1,0.1
			c-0.2,0.2-0.3,0.4-0.2,0.7c0,0.3,0.1,0.5,0.3,0.7L9.4,28c0.7,0.7,1.4,1.4,2.1,2.1c0.4,0.4,0.9,0.4,1.3,0c0,0,0.1-0.1,0.1-0.1
			c0.2-0.2,0.2-0.5,0.2-0.7c0-0.3-0.2-0.5-0.4-0.7c-0.7-0.7-1.4-1.4-2.1-2.1l-1.2-1.2l3.2-3.2c0.3-0.3,0.4-0.7,0.3-1.1
			c-0.1-0.2-0.1-0.3-0.3-0.4C12.5,20.4,12.3,20.3,12.1,20.3z"/>
	</g>
	<g id="Path_4450">
		<path class="st0" d="M25.2,3.4l-2.4,2.4c-0.2,0.2-0.4,0.4-0.7,0.7c-0.6,0.6-1.5,0.6-2,0c-0.6-0.5-0.6-1.5-0.1-2c0,0,0,0,0,0
			c1.4-1.4,2.7-2.7,4.1-4.1c0.5-0.5,1.4-0.6,2,0c1.3,1.2,2.7,2.4,4,3.7c0.6,0.5,0.7,1.5,0.1,2.1c0,0,0,0,0,0
			c-0.5,0.6-1.5,0.6-2.1,0.1c0,0,0,0,0,0C27.2,5.2,26.3,4.3,25.2,3.4z"/>
		<path class="st0" d="M21.1,7.4c-0.5,0-1-0.2-1.4-0.6c-0.4-0.4-0.6-0.8-0.6-1.3c0-0.5,0.2-1,0.5-1.4c1.4-1.4,2.8-2.8,4.1-4.1
			c0.7-0.7,1.9-0.7,2.7,0c1.3,1.2,2.7,2.4,4,3.7c0.4,0.3,0.6,0.8,0.6,1.3c0,0.5-0.1,1-0.5,1.4C30.3,6.8,29.8,7,29.3,7
			c-0.5,0-1-0.2-1.4-0.5c-0.7-0.6-1.4-1.3-2.1-2l-0.5-0.4L23,6.3c-0.2,0.2-0.4,0.4-0.5,0.5C22.1,7.2,21.6,7.4,21.1,7.4z M25.2,0.4
			c-0.2,0-0.5,0.1-0.6,0.3c-1.4,1.4-2.7,2.7-4.1,4.1c-0.2,0.2-0.3,0.4-0.3,0.7s0.1,0.5,0.3,0.7c0.4,0.4,1,0.4,1.3,0
			C22,6,22.2,5.8,22.3,5.6l2.9-2.9l1.2,1.1c0.7,0.7,1.4,1.3,2.1,2C28.7,5.9,29,6,29.2,6c0.3,0,0.5-0.1,0.7-0.3
			c0.2-0.2,0.3-0.5,0.3-0.7c0-0.3-0.1-0.5-0.3-0.7c-1.3-1.2-2.7-2.5-4-3.7C25.7,0.5,25.4,0.4,25.2,0.4z"/>
	</g>
	<g id="Path_4451">
		<path class="st0" d="M47.1,25.2c-0.7-0.7-1.3-1.3-2-2c-0.4-0.4-0.7-0.7-1.1-1.1c-0.6-0.6-0.6-1.5,0-2.1s1.5-0.6,2.1,0c0,0,0,0,0,0
			c1.3,1.3,2.7,2.7,4,4c0.6,0.5,0.6,1.4,0.1,2c0,0,0,0-0.1,0.1c-1.2,1.3-2.4,2.6-3.6,3.9c-0.5,0.6-1.4,0.7-2,0.2c0,0-0.1,0-0.1-0.1
			c-0.6-0.6-0.6-1.5-0.1-2.1c0,0,0,0,0.1-0.1C45.3,27.2,46.2,26.2,47.1,25.2z"/>
		<path class="st0" d="M45.5,31.2c-0.4,0-0.9-0.1-1.2-0.4c0,0-0.1-0.1-0.1-0.1c-0.4-0.4-0.6-0.9-0.6-1.4c0-0.5,0.2-1,0.5-1.4
			c0.8-0.9,1.6-1.7,2.4-2.6l-1.9-1.8c-0.3-0.3-0.6-0.6-0.9-0.9c-0.4-0.4-0.6-0.8-0.6-1.4s0.2-1,0.6-1.4c0.8-0.8,2-0.8,2.8,0
			c1.4,1.4,2.7,2.7,4,4.1c0.8,0.7,0.8,1.9,0.1,2.7l-0.1,0.1c-1.2,1.3-2.4,2.6-3.6,3.9c-0.3,0.4-0.8,0.6-1.3,0.7
			C45.6,31.2,45.5,31.2,45.5,31.2z M45,20.2C45,20.2,45,20.2,45,20.2c-0.3,0-0.5,0.1-0.7,0.3c-0.2,0.2-0.3,0.4-0.3,0.7
			s0.1,0.5,0.3,0.7c0.3,0.3,0.6,0.6,0.9,0.9l2.5,2.5l-0.3,0.4c-0.9,1-1.8,1.9-2.6,2.9c-0.2,0.3-0.3,0.5-0.3,0.8
			c0,0.3,0.1,0.5,0.3,0.7c0.3,0.2,0.5,0.3,0.8,0.3c0.3,0,0.5-0.2,0.6-0.4c1.2-1.3,2.4-2.6,3.6-3.9c0.4-0.4,0.4-1,0-1.4
			c-1.3-1.4-2.7-2.7-4-4C45.5,20.3,45.3,20.2,45,20.2z"/>
	</g>
	<g id="Path_4452">
		<path class="st0" d="M3.4,25.3c0.3,0.3,0.7,0.7,1,1c0.7,0.7,1.4,1.3,2,2c0.6,0.5,0.7,1.5,0.1,2.1c-0.2,0.2-0.4,0.3-0.7,0.4
			c-0.5,0.2-1,0.1-1.4-0.3c-1.4-1.4-2.8-2.8-4.2-4.1c-0.5-0.5-0.6-1.4,0-2c1.2-1.4,2.5-2.7,3.7-4c0.5-0.6,1.5-0.6,2.1-0.1
			c0.6,0.5,0.6,1.5,0.1,2.1c-0.8,0.9-1.6,1.7-2.4,2.6C3.6,25,3.5,25.1,3.4,25.3z"/>
		<path class="st0" d="M5.4,31.3c-0.5,0-0.9-0.2-1.3-0.5C2.7,29.4,1.4,28,0,26.6c-0.7-0.7-0.8-1.9,0-2.7c1.2-1.4,2.5-2.7,3.7-4
			C4,19.6,4.5,19.3,5,19.3c0.5,0,1,0.2,1.4,0.5C6.8,20.2,7,20.7,7,21.2c0,0.5-0.2,1-0.5,1.4c-0.5,0.6-1.1,1.2-1.6,1.8l-0.8,0.9l0,0
			c0.2,0.2,0.5,0.4,0.7,0.6l0.4,0.4c0.5,0.5,1.1,1.1,1.6,1.6c0.4,0.3,0.6,0.8,0.6,1.3c0,0.5-0.1,1-0.5,1.4c-0.2,0.3-0.6,0.5-0.9,0.6
			C5.8,31.3,5.6,31.3,5.4,31.3z M5.1,20.3C5.1,20.3,5,20.3,5.1,20.3c-0.3,0-0.5,0.1-0.7,0.3c-1.2,1.3-2.5,2.7-3.7,4
			c-0.3,0.4-0.3,0.9,0,1.3c1.4,1.4,2.8,2.8,4.2,4.1c0.2,0.2,0.6,0.3,0.9,0.2c0.2-0.1,0.3-0.2,0.5-0.3c0.2-0.2,0.3-0.4,0.2-0.7
			c0-0.3-0.1-0.5-0.3-0.7C5.5,28.1,5,27.5,4.5,27l-0.4-0.4c-0.2-0.2-0.4-0.4-0.7-0.6l-0.7-0.7l1.4-1.6c0.5-0.6,1.1-1.2,1.6-1.8
			C5.9,21.7,6,21.5,6,21.3c0-0.3-0.1-0.5-0.3-0.7C5.5,20.4,5.3,20.3,5.1,20.3z"/>
	</g>
	<g id="Path_4453">
		<path class="st0" d="M25.3,47.1c1-1,2.1-2.1,3.1-3.1c0.4-0.4,0.9-0.5,1.4-0.4c0.8,0.2,1.2,1,1.1,1.7c-0.1,0.3-0.2,0.5-0.4,0.7
			c-1.1,1.2-2.3,2.3-3.5,3.5c-0.2,0.2-0.4,0.4-0.6,0.6c-0.6,0.6-1.4,0.6-2,0c-1.4-1.2-2.7-2.5-4-3.7c-0.6-0.6-0.6-1.5-0.1-2.1
			s1.5-0.6,2.1-0.1c0.9,0.8,1.7,1.6,2.6,2.4C25,46.9,25.1,47,25.3,47.1z"/>
		<path class="st0" d="M25.3,51.1c-0.5,0-1-0.2-1.3-0.5c-1.3-1.2-2.7-2.5-4-3.7c-0.4-0.4-0.6-0.8-0.6-1.4c0-0.5,0.2-1,0.5-1.4
			c0.4-0.4,0.8-0.6,1.4-0.6c0.5,0,1,0.2,1.4,0.5c0.6,0.5,1.2,1.1,1.8,1.7l0.8,0.7l0.4-0.4c0.8-0.8,1.6-1.6,2.4-2.4
			c0.5-0.5,1.2-0.7,1.9-0.5c0.5,0.1,0.9,0.4,1.2,0.9s0.3,1,0.2,1.5c-0.1,0.4-0.3,0.7-0.5,0.9c-0.8,0.8-1.6,1.6-2.4,2.4l-1.3,1.3
			c-0.1,0.1-0.3,0.3-0.4,0.4C26.3,50.9,25.8,51.1,25.3,51.1z M21.3,44.5C21.3,44.5,21.3,44.5,21.3,44.5c-0.3,0-0.5,0.1-0.7,0.3
			s-0.3,0.4-0.3,0.7s0.1,0.5,0.3,0.7c1.3,1.2,2.7,2.5,4,3.7c0.4,0.4,1,0.4,1.3,0c0.1-0.1,0.3-0.3,0.4-0.4l1.3-1.3
			c0.8-0.8,1.6-1.6,2.4-2.4c0.1-0.1,0.2-0.3,0.3-0.5c0.1-0.2,0-0.5-0.1-0.7s-0.3-0.4-0.6-0.4c-0.3-0.1-0.7,0-0.9,0.2
			c-0.8,0.8-1.6,1.6-2.4,2.4l-1.1,1.1l-1.5-1.4c-0.6-0.6-1.2-1.1-1.8-1.7C21.7,44.6,21.5,44.5,21.3,44.5z"/>
	</g>
</g>
</svg>
