<?xml version="1.0" encoding="utf-8"?>
<!-- Generator: Adobe Illustrator 24.1.2, SVG Export Plug-In . SVG Version: 6.00 Build 0)  -->
<svg version="1.1" id="Layer_1" xmlns="http://www.w3.org/2000/svg" xmlns:xlink="http://www.w3.org/1999/xlink" x="0px" y="0px"
	 viewBox="0 0 58.7 71.2" style="enable-background:new 0 0 58.7 71.2;" xml:space="preserve">
<style type="text/css">
	.st0{fill:#FFFFFF;}
	.st1{fill:none;}
	.st2{fill:#483F18;}
	.st3{clip-path:url(#SVGID_2_);}
	.st4{fill:#4E2610;}
	.st5{clip-path:url(#SVGID_4_);}
	.st6{fill:#007AB3;}
	.st7{clip-path:url(#SVGID_6_);}
	.st8{fill:#009DDD;}
	.st9{fill:#63AD31;}
	.st10{fill:#FFE900;}
	.st11{fill:#E2041D;}
	.st12{fill:#E3001B;}
	.st13{fill:#A4D873;}
	.st14{fill:#82BA56;}
</style>
<g>
	<path id="Path_2917" class="st0" d="M48.6,9.1H9.4v53h39.2V9.1"/>
	<path class="st1" d="M38.8,41.2c-1.3,0.8-3,0.6-4-0.5c0,0-0.9,0.9-3.3-0.7c0,0-1.6,2-4.3-0.4l-1,0.4h-2l-0.8-0.3l-0.4-0.4L22.7,39
		l-1-0.2l-1.4-0.3l-1.4,0.4l-1.4,0.3l-1.9-0.6l-0.6-1.3l0.3-1.6l0.8-1l0.8-0.8l0.8-0.4l1-0.4l-0.9-1l-0.2-1.8l0.3-1.2
		c0,0,1.5-2.5,3.8-2.5c0,0,1.5-2.7,3.5-2.6c2.1,0.2,4.1,0.8,5,2.4c0,0,4-2.5,6.8,0.2l1.3,2.5c0,0,2.8-0.8,2.2,2.2
		c0.9,1.2,0.6,2.9-0.6,3.9v1.4c0,0,3.7,2.2,2,4.6c-0.4,0.4-0.8,0.6-1.4,0.5C39.9,41.8,39.3,41.6,38.8,41.2z"/>
	<path id="Path_2922" class="st2" d="M31.7,54.8c0,0-2.3-9,0.7-14c0.8,0.5,1.7,0.6,2.6,0.3c1,1,2.6,1.2,3.9,0.5c0,0,2.6,1.6,3.7-0.1
		c0,0,1.4-2.6-2.2-4.7c0,0,0.6-5.5-6.8-5c-1-0.7-2.3-0.8-3.4-0.2l0.1,0.4c0,0,2.1-0.8,3.2,0.3c0,0,6.9-1,6.2,4.7c0,0,3.5,1.8,2,4
		c0,0-0.9,1.5-3-0.3c-1.2,1-2.9,0.8-3.9-0.3c-0.6,0.4-1.4,0.3-2-0.1c0,0-0.2-1.2,1.4-1.7c0,0,2.7-0.4,3.3-2l-0.2-0.1
		c-0.6,0.9-1.6,1.4-2.6,1.4c0.9-1.1,1.5-2.4,1.8-3.7l-0.3-0.1c-0.4,1.5-1.3,2.9-2.6,3.9c-1.9,1.3-1.6,1.9-1.6,1.9l-0.8-0.8H31
		c0.6,1.1,0.4,2.4-0.4,3.4l0.1-1.4l0.9-0.6l-0.3-0.8l-0.8,0.6c0,0-1.3,0.5-3.4-1.1c0,0-2.6,1.4-3.7,0.1c0,0,1.4-0.2,1.9-1
		c0.5,0.3,1.2,0.4,1.8,0.4v-0.2c-0.7,0-1.4-0.4-1.8-1.1c0,0-1.6,2.2-5,0.8c0,0-2.8,1.1-3.9,0.6c-1-0.4-1.5-1.5-1.2-2.5
		c0,0,0-0.1,0-0.1c0.7-1.4,2.1-2.5,3.6-2.7c1.6-2,4.3-2.7,6.6-1.8c0,0,1.2-3.5,4.2-0.9c0.8-0.8,2.2-0.9,3.1,0
		c0.1,0.1,0.1,0.1,0.2,0.2c0.7-0.1,1.5,0.2,1.9,0.8l0.4,0.1c-0.4-0.8-1.2-1.4-2.1-1.3l-0.4-0.4l0.7-0.8c1-0.1,2-0.6,2.7-1.4L35.9,28
		c0,0-1.2,1.1-2.1,0.7l0.9-1.8l-0.2-0.1c-0.7,1.1-1.5,2.2-2.3,3.2c-0.9-0.5-2-0.4-2.7,0.3c-1.1-1.1-2.9-1.1-4-0.1
		c-0.4-0.5-0.8-1-1.2-1.5c-0.5-0.7-1.1-1.3-1.7-1.8c0.2,0.5,0.5,1,0.8,1.4l0,0.2l-0.2,0.1l-2.8-0.9l-0.1,0.1c1,0.5,2,0.9,3.1,1.3
		l0.1,0c0.6,0.5,1,1.1,1.4,1.8c-2.4-0.4-4.8,0.4-6.5,2.2c0,0-3.2,0.7-3.9,3.4c-0.3,1.3,0.5,2.7,1.8,3c0.1,0,0.3,0.1,0.4,0.1
		c0.8,0,1.7-0.1,2.5-0.4c0.4-0.1,0.8-0.2,1.2-0.3c0.6-0.2,0.8,0.4,2.2,0.5c0,0,1.5,2.1,4.4,0.6l0.3,0.2c0,0,0.1,4.7,0,5.2
		c-0.1,0.5-1.2-2.6-1.2-3c0.5,0,1,0.1,1.4,0.5c0.6,0.6,0.1-1,0.1-1c-0.6-0.3-1.2-0.4-1.8-0.3c-0.3-0.4-0.5-0.8-0.7-1.3
		c-0.1-0.4-0.8-0.1-0.8-0.1l0.5,1.3c-1.9,0-3.7-1.1-4.6-2.8l-0.9,0.3c1.4,2,3.6,3.2,6,3.4c0.3,1.6,1,3,2.1,4.3l-0.5,6.2
		c-0.3,1.3-1.1,2.4-2.3,3.1C24.6,55.8,26.9,56.2,31.7,54.8L31.7,54.8z"/>
	<path id="Path_2923" class="st2" d="M39.7,34.9c0,0,2.1-1.1,0.4-3.3c0,0,1.2-2.6-2.1-2c0,0-1.4-6.7-7.8-2.5c-0.8-0.4-1.6-0.7-2.5-1
		l0.1-0.3l1.6,0.2c0,0-4.3-4.3-7.3,1c-1.3,0.1-2.5,0.7-3.4,1.6c0,0-2,2.7,0.2,4.4l-0.7,0.4c0,0-1.9-2.6-0.3-4.8
		c0.8-1.3,2.1-2,3.6-2.1c0,0,3-5.6,8.8-0.5c0,0,5.9-3,8.3,3c1.1-0.2,2.2,0.6,2.3,1.8c0,0.3,0,0.6-0.1,0.9c1,1.4,0.7,3.3-0.7,4.2
		c-0.1,0-0.1,0.1-0.2,0.1L39.7,34.9L39.7,34.9z"/>
	<path id="Path_2924" class="st2" d="M30.5,23.6l-0.9,1.8l1.7-1.7l0.2-0.2l0.6,0.3l-2.1,1.9l-0.8-0.5l0.5-1.6
		c-0.5,0-0.9-0.1-1.4-0.3l-0.1,1.2l-0.3-0.2l0-1.2c-0.5-0.3-1-0.6-1.5-1l0,0.2c0,0,1.1,0.9,1.1,1.8l-0.8-0.2c0,0,0.6-0.4-0.4-1.5
		c0,0-0.2,2.1-2.9,1.5c0,0-3.1,2.6-5.5,0.3s0.9-6.6,0.9-6.6c0.7-0.9,1.6-1.6,2.7-1.9c0.6-1.5,2.1-2.4,3.7-2.4c0,0,1.8-1.4,6-0.4
		c2.3,0.4,4.1,2.2,4.5,4.6c0,0,4.9,1.3,5,5.7c0.8,0.4,1.2,1.5,0.7,2.3c-0.1,0.2-0.3,0.4-0.4,0.5c0,0-1.6,1.4-4.7-0.9
		c0,0-1.8,0.6-4.1-1.3c-0.6-0.4-1.3-0.6-2-0.5c-1.4,0,0-0.5,0-0.5c1.1,0,2.1,0.4,3,1c0.8,1,2.1,1.3,3.3,0.8c0,0,2,2.1,3.8,1.1
		S40,23.8,40,23.8s0.8-3.8-5.1-5.8c0,0,1.1-2.4-4.1-4.3s-0.1-0.1-0.1-0.1s-3.6-1-5.5,0.6c-1.6-0.3-3.1,0.8-3.3,2.3
		c0,0-0.5-0.5-3,1.7c0,0-2.8,3.4-0.7,5.8c0,0,1.6,2.3,4.9-0.5c0,0,2,0.5,2.3-0.7c0,0,0.8-1-1.8-1.9c0,0,0.9-0.7,3.1,0.9
		c0.9,0.8,2,1.2,3.1,1.1l1.4,0.2L30.5,23.6L30.5,23.6z"/>
	<g id="Group_534" transform="translate(7.901 45.843)">
		<g>
			<defs>
				<path id="SVGID_1_" d="M41.3,6.3C36,5.9,30.8,6.6,25.8,8.4c-4.1,1.7-8.5,2.4-12.8,2.1C8.8,10.3,4.7,8.9,1.2,6.4L1.1,11
					c0,0,3.6,2.6,12.6,1.6c2.8-0.1,5.5-0.5,8.2-1.1c3.8-0.9,7.8-1.1,11.7-0.4c2.8,0.5,5.4,1.6,7.7,3.3L41.3,6.3"/>
			</defs>
			<clipPath id="SVGID_2_">
				<use xlink:href="#SVGID_1_"  style="overflow:visible;"/>
			</clipPath>
			<g id="Group_533" transform="translate(0 0)" class="st3">
				<path id="Path_2925" class="st4" d="M40.7,16.2H1.5V6.1h39.2V16.2z"/>
			</g>
		</g>
	</g>
	<g id="Group_536" transform="translate(25.538 50.484)">
		<g>
			<defs>
				<path id="SVGID_3_" d="M23.4,12.3c0,0-5.5-7.5-19.8-4.9c0,0,13,0.1,15.5,4.9L23.4,12.3"/>
			</defs>
			<clipPath id="SVGID_4_">
				<use xlink:href="#SVGID_3_"  style="overflow:visible;"/>
			</clipPath>
			<g id="Group_535" class="st5">
				<path id="Path_2927" class="st6" d="M23.1,11.6l-39.2,0V1.4l39.2,0V11.6z"/>
			</g>
		</g>
	</g>
	<g id="Group_538" transform="translate(7.961 51.314)">
		<g>
			<defs>
				<path id="SVGID_5_" d="M1.2,6.9c0,0,1.3,1.1,10.2,0.6c3.6-0.5,7.2-0.6,10.8-0.5c0,0,8.9,0.4,13.2,4.4l-8.9,0.2
					c0,0-0.9-2.1-8.4-3.3C15,8,11.9,8.5,9,9.6c0,0-6,1.7-7.5,1.2L1.2,6.9"/>
			</defs>
			<clipPath id="SVGID_6_">
				<use xlink:href="#SVGID_5_"  style="overflow:visible;"/>
			</clipPath>
			<g id="Group_537" transform="translate(0)" class="st7">
				<path id="Path_2929" class="st8" d="M40.7,10.7H1.4V0.6h39.2V10.7z"/>
			</g>
		</g>
	</g>
	<g id="Group_539" transform="translate(0 0)">
		<path id="Path_2931" class="st9" d="M9.4,50.7V27.6C10.2,16.7,19.8,8.5,30.7,9.3c0.1,0,0.2,0,0.4,0c0,0,8.3,0.8,13,6.9
			s4.6,11,4.6,11v24c4.2-3.8,7.3-8.7,8.9-14.2C59,32.2,59,27,57.8,22.1C56.3,16,52.9,10.6,48,6.6C43,2.5,36.7,0.1,30.2,0
			c-5.9-0.1-11.8,1.5-16.8,4.7C4.8,10,1.7,19.6,1.7,19.6c-1.8,5.3-2.1,11-0.9,16.4C2.3,41.6,5.2,46.7,9.4,50.7"/>
	</g>
	<g>
		<path class="st10" d="M4.9,31.7l2.3-0.1l0-0.7L3.9,31l0,0l0-0.6l-0.5,0l0,0.6l-0.5,0l0,0.7l1.1,0c-0.2,0.2-0.3,0.4-0.4,0.6
			c-0.1,0.3-0.1,0.6-0.1,0.9c0,0.4,0.1,0.7,0.3,1c0.1,0.3,0.4,0.4,0.7,0.4c0.1,0,0.3-0.1,0.3-0.2C5,34.5,5,34.3,5,34.1
			c0-0.2-0.1-0.3-0.1-0.5c-0.1-0.1-0.1-0.2-0.1-0.4c0-0.1,0-0.2,0.1-0.2c0,0,0.2,0.1,0.4,0.4c0.1,0.2,0.3,0.4,0.4,0.5l0.3-0.6
			c-0.2-0.2-0.3-0.4-0.5-0.7c-0.2-0.3-0.4-0.4-0.6-0.4c-0.2,0-0.3,0.1-0.4,0.3c-0.1,0.2-0.2,0.4-0.2,0.6c0,0.1,0.1,0.3,0.1,0.4
			c0.1,0.1,0.1,0.2,0.1,0.4l0,0c-0.1,0-0.3-0.1-0.4-0.2C4,33.6,4,33.4,4,33.3C4,32.6,4.3,32,4.9,31.7z"/>
		<path class="st10" d="M4.3,25.7l-0.5,0l-0.1,0.9l-0.7-0.1L3,27.1l1.1,0.1c-0.3,0.3-0.5,0.7-0.6,1.2c-0.1,0.4,0,0.8,0.3,1.1
			c0.2,0.2,0.4,0.4,0.7,0.4c0.2,0,0.5-0.1,0.7-0.3c0.2-0.2,0.4-0.5,0.4-0.8l0-0.2l-0.6-0.3c0,0.1,0.1,0.2,0.1,0.4
			c0,0.1-0.1,0.3-0.2,0.4c-0.1,0.1-0.2,0.1-0.4,0.1c-0.4,0-0.6-0.4-0.6-1c0-0.3,0.2-0.5,0.4-0.7c0.2-0.2,0.4-0.3,0.6-0.3
			c1.5,0.1,2.2,0.2,2.3,0.2l0.1-0.7l-3.3-0.3L4.3,25.7z"/>
		<path class="st10" d="M8.7,14.3L9,13.7l-0.2-0.1L13,9.3l-0.3-0.3l-4.2,4.4l0.3,0.3l-0.2-0.1L8.3,14l-0.4-0.3l-0.4,0.6L8,14.7
			c-0.2,0.1-0.4,0.3-0.6,0.5c0,0-0.1,0.1-0.2,0.2l-0.1,0l-2.4,5.6l0.1,0l-0.1,0.7l-0.4-0.1l-0.1,0.7l1.1,0.2c-0.5,0.4-0.9,0.9-1,1.6
			c-0.1,0.4-0.1,0.7,0,1.1c0,0.3,0.2,0.6,0.5,0.8l0.4-0.3c0-0.3,0-0.5,0-0.5c0-0.1,0.1-0.2,0.1-0.2l0.2-0.1c0.1,0,0.2,0.1,0.2,0.2
			c0,0,0.1,0.1,0.1,0.3l0.4-0.4C6,24,5.7,23.3,5.6,23c0.3-0.2,0.6-0.3,0.6-0.3l1.3,0.3c-0.1,0.1-0.2,0.3-0.2,0.4
			c-0.1,0.2-0.2,0.6-0.5,1.3c-0.1,0.3-0.2,0.5-0.4,0.8c-0.1,0.2-0.3,0.3-0.5,0.2c0,0-0.1,0-0.2-0.1l-0.2-0.1l-0.2,0.7
			c0.3,0.2,0.7,0.2,1,0.1c0.3-0.2,0.5-0.4,0.6-0.7c0.1-0.2,0.3-0.6,0.5-1.3c0.1-0.3,0.2-0.6,0.4-0.9c0.1-0.1,0.2-0.2,0.3-0.3l0.2,0
			l0-0.1c0.1,0,0.1-0.1,0.2-0.1h0l-0.1-0.3l0-0.1l-0.1,0l0-0.1c0,0-0.1,0-0.1,0l-3-0.7l0,0L5.4,21l-0.1,0L6,19.4
			c0.1,0.3,0.3,0.6,0.6,0.8c0.2,0.1,0.4,0.1,0.6,0c0.2-0.1,0.4-0.3,0.5-0.6c0.1-0.3,0.2-0.5,0.1-0.8c0.1-0.1,0.2-0.1,0.3,0
			c0.1,0.1,0.2,0.2,0.2,0.4c0,0.2,0,0.4-0.1,0.6c-0.2,0.3-0.4,0.6-0.8,0.7c-0.3,0.1-0.6,0.2-0.9,0.1c-0.3-0.1-0.5-0.2-0.8-0.3
			l-0.3,0.6c0.4,0.2,0.8,0.3,1.2,0.3c0.4,0,0.8-0.1,1.1-0.3c0.4-0.2,0.8-0.6,0.9-1C9,19.4,9,19,9,18.7c0-0.3-0.2-0.6-0.5-0.7
			c-0.2-0.1-0.3-0.1-0.5,0c-0.2,0.1-0.4,0.2-0.5,0.3l-0.1,0.4c0.1,0.2,0.1,0.4,0,0.5c0,0.1-0.1,0.2-0.2,0.2l-0.3,0
			c-0.3-0.1-0.4-0.4-0.4-0.7c0.4-0.1,0.7-0.3,0.9-0.6c0.2-0.3,0.4-0.7,0.6-1.1c0.2,0.3,0.5,0.5,0.8,0.7c0.4,0.2,0.9,0.3,1.4,0.2
			l0.1-0.7c-0.3,0-0.7,0-1-0.1c-0.5-0.2-0.9-0.6-1.2-1l-0.4,0.2c-0.2,0.4-0.3,0.7-0.3,0.7c-0.1,0.2-0.2,0.5-0.4,0.6
			c-0.1,0.2-0.3,0.3-0.6,0.3l1.1-2.5l0-0.1c0.1-0.2,0.4-0.4,0.7-0.5c0.2-0.1,0.3-0.1,0.3-0.1l2.4,1.6l0.4-0.6L8.7,14.3L8.7,14.3z
			 M4.8,24.9c-0.1-0.3-0.1-0.7,0-1v0c0.1-0.2,0.2-0.4,0.3-0.6c0.2,0.3,0.3,0.6,0.4,0.9C5.1,24.3,4.9,24.6,4.8,24.9z"/>
		<path class="st10" d="M13.6,11c-0.2-0.2-0.4-0.3-0.6-0.4c-0.3,0-0.6,0-0.8,0.1c-0.3,0.1-0.6,0.2-0.8,0.5c-0.2,0.2-0.4,0.5-0.5,0.7
			c-0.1,0.2-0.1,0.5,0.1,0.7c0.2,0.1,0.4,0.2,0.6,0.2l0.3-0.6c-0.1,0-0.2,0-0.3-0.1c-0.1-0.1-0.1-0.3,0-0.5c0.3-0.3,0.7-0.5,1.2-0.4
			c0.2,0.1,0.4,0.2,0.6,0.4c0.2,0.1,0.2,0.3,0.1,0.6c-0.1,0.3-0.2,0.5-0.4,0.7l-0.2,0.2c-0.1,0-0.1,0.1-0.2,0.1
			c-0.1,0-0.2,0.1-0.2,0.1c-0.3,0.1-0.6,0.1-0.8,0c0,0-0.2-0.1-0.7-0.2c-0.3-0.1-0.7-0.2-1-0.4l-0.4,0.6c0.4,0.1,0.7,0.3,1.1,0.4
			c0.3,0.1,0.5,0.2,0.6,0.2c0.4,0.1,0.8,0.1,1.1,0c0.4-0.1,0.8-0.4,1.1-0.7l0,0C13.8,13,14,12.5,14,12C14,11.6,13.9,11.3,13.6,11z"
			/>
		<path class="st10" d="M19.5,5.9l0.7-0.3L20,5.1l-0.6,0.3C19,5,18.5,4.7,17.9,4.7c-0.7-0.1-1.3,0.1-2,0.3c-0.3,0.1-0.7,0.3-1,0.6
			c-0.4,0.3-0.5,0.6-0.4,0.8c0.1,0.2,0.3,0.3,0.7,0.2c0.3,0,0.6-0.1,0.9-0.2c0.2-0.1,0.4-0.2,0.6-0.2C17,6,17.2,6,17.2,6.1
			c0,0.1-0.1,0.1-0.1,0.2l0-0.1l-4.3,2.5L13,9.2l3.1-1.8l0.3,0.5c-0.5-0.1-0.9,0-1.3,0.2c-0.3,0.2-0.6,0.5-0.7,0.9
			c-0.1,0.3-0.1,0.6,0.1,0.9c0.2,0.3,0.6,0.5,0.9,0.4l0.2-0.5c-0.3,0-0.5-0.1-0.5-0.2c-0.2-0.4,0-0.7,0.5-1c0.2-0.1,0.4-0.1,0.6-0.1
			c0.2,0,0.4,0.1,0.6,0.2l0.1,0.1c-0.1,0.1-0.2,0.3-0.3,0.5c-0.3,0.5-0.3,0.8-0.2,1c0.1,0.1,0.2,0.2,0.3,0.2c0.2,0,0.3,0,0.5-0.1
			c0.2-0.1,0.3-0.2,0.4-0.4l-0.4-0.2l-0.2,0.1l-0.1,0c-0.1-0.1,0-0.3,0.2-0.7c0.1-0.2,0.3-0.5,0.5-0.6c0.1-0.1,0.2-0.1,0.3,0
			l0.9,1.6c-0.2,0-0.4,0-0.6,0.1l-0.5,0.3c0,0-0.2,0.1-0.5,0.3c-0.2,0.1-0.5,0.2-0.7,0.3c-0.2,0.1-0.4,0-0.5-0.2
			c-0.1-0.2-0.2-0.5-0.2-0.7l-0.6,0.1c0,0.3,0,0.6,0.1,0.8c0.2,0.3,0.5,0.5,0.8,0.6c0.4,0,0.7-0.1,1-0.3c0.2-0.1,0.3-0.2,0.4-0.2
			c0.2-0.1,0.3-0.2,0.4-0.2c0.2-0.1,0.5-0.2,0.8-0.2c0.2,0.1,0.4,0.2,0.5,0.4l0,0l0.6-0.3l-1.5-2.6c-0.1-0.1-0.3-0.2-0.4-0.2
			c-0.2,0-0.4,0-0.6,0.1L16.7,7l0,0l0.6-0.4l-0.1-0.2l0.5-0.1c0.1-0.2,0.1-0.4,0.1-0.6c-0.1-0.4-0.6-0.4-1.3-0.2
			c-0.1,0-0.4,0.1-0.7,0.2C15.6,6,15.4,6,15.2,6.2c0-0.1,0.1-0.2,0.4-0.4c0.2-0.1,0.4-0.2,0.6-0.3c0.5-0.2,1-0.3,1.5-0.2
			c0.4,0,0.8,0.2,1.1,0.5L17.9,6L18,6.4l0.8-0.3l1.2,3.1l0.6-0.2L19.5,5.9L19.5,5.9z"/>
		<path class="st10" d="M29.1,3.6l-0.7,0l0-0.5l-0.7,0l0,0.7c-0.2-0.1-0.4-0.2-0.7-0.2c0,0,0,0,0,0l0,0l-0.2,0c-0.2,0-0.3,0-0.5,0
			l0,0.1l-3.5,0.6l0.1,0.5l3-0.5l0,0.1c-0.9,0.3-1.7,0.8-2.4,1.4l0.5,0.4c0.4-0.1,0.9,0,1.3,0.1c0.4,0.1,0.8,0.3,1.1,0.6l0.1,0.6
			L27,7.4l-0.6-3.2L27.1,4l0,0c0.2,0,0.3,0.1,0.4,0.2c0.2,0.1,0.2,0.2,0.2,0.2l0.1,2.9l0.7,0l-0.1-3.3l0,0l0.7,0L29.1,3.6z
			 M24.6,5.6c0.4-0.3,0.9-0.5,1.3-0.7L26.1,6C25.6,5.8,25.1,5.7,24.6,5.6z"/>
		<polygon class="st10" points="29.1,5.5 31.2,7.2 31.2,7.2 31.8,6.9 29.7,5.1 		"/>
		<polygon class="st10" points="30.6,5.2 30.6,5.2 30.6,5.2 		"/>
		<path class="st10" d="M30.6,5.2c0.3,0,0.5,0,0.8-0.1c0.2-0.1,0.3-0.3,0.3-0.5c0-0.3-0.1-0.5-0.3-0.6c-0.2-0.2-0.6-0.3-0.9-0.3
			c-0.3,0-0.5,0-0.8,0.1c-0.2,0.1-0.3,0.3-0.3,0.5c0,0.3,0.1,0.5,0.3,0.6C30,5.1,30.3,5.2,30.6,5.2z M30.5,4.2L30.5,4.2
			c0.1,0,0.2,0,0.3,0.1L31,4.5c0,0.1-0.1,0.2-0.3,0.2c-0.1,0-0.2-0.1-0.3-0.1l-0.1-0.2C30.2,4.2,30.3,4.2,30.5,4.2z"/>
		<path class="st10" d="M49.3,11.3l-0.5-0.5l-0.7,0.8l0,0c0-0.4-0.2-0.7-0.4-1c-0.3-0.3-0.6-0.4-1-0.3c0-0.5-0.2-1-0.6-1.3
			c0,0-0.1-0.1-0.2-0.2c-0.1-0.1-0.2-0.2-0.3-0.3l-0.2,0.2l0.1-0.2l-3.8-2.3l0,0.1l-2.4-1l0,0l0,0l-0.4-0.2l0,0l-0.2-0.1l0.2-0.5
			l-0.7-0.2l-0.2,0.7c-0.2-0.2-0.3-0.3-0.6-0.4l0-0.1L32,3.7l-0.1,0.5l3.9,0.8l-0.1,0.5c-0.2-0.2-0.4-0.3-0.7-0.3
			c-0.2,0-0.4,0-0.6,0.1C34.3,5,34,4.8,33.7,4.8c-0.4-0.1-0.7-0.1-1.1,0.1c-0.2,0.1-0.4,0.4-0.5,0.7c-0.1,0.3,0.1,0.5,0.3,0.7
			c0.3,0.2,0.6,0.4,0.9,0.5l0.3-0.4c-0.2,0-0.5-0.1-0.7-0.3c-0.2-0.1-0.2-0.2-0.2-0.4c0-0.2,0.1-0.3,0.2-0.4
			c0.1-0.1,0.3-0.1,0.5-0.1c0.2,0,0.3,0.1,0.4,0.3c0.1,0.1,0.1,0.3,0.1,0.5l0.6,0c0-0.2,0.1-0.3,0.2-0.4l0.1,0
			c0.1,0,0.2,0.1,0.3,0.3c0.1,0.2,0.2,0.3,0.2,0.4l-0.4,1.8l0.7,0.1l0.6-3.2l0.6,0.2c0.1,0.1,0.3,0.2,0.4,0.4
			c0.1,0.2,0.2,0.3,0.2,0.3l-0.9,2.7l0.7,0.2l1-3.1l0,0L39,5.9l1.3,0.5c-0.3,0.1-0.7,0.2-1,0.3c-0.3,0.1-0.5,0.4-0.6,0.6
			c-0.1,0.2-0.2,0.5-0.2,0.7c0,0.3,0.1,0.6,0.2,0.9c0.2,0.3,0.5,0.6,0.8,0.7v0c0.4,0.2,0.8,0.1,1.1-0.1c-0.2-0.2-0.3-0.3-0.4-0.5
			c-0.1,0-0.2,0.1-0.3,0.1c-0.1,0-0.2,0-0.3-0.1c-0.2-0.1-0.4-0.3-0.4-0.6c-0.1-0.2-0.1-0.5,0-0.7c0.1-0.3,0.3-0.5,0.6-0.7
			c0.2-0.2,0.5-0.3,0.8-0.3c0.3,0,0.7,0,1,0l0.3,0.2l-0.9,1.6l0.3,0.6C42.1,9.1,43,9,43.7,9.3c-0.3,0.2-0.5,0.5-0.7,0.8
			c-0.2,0.4-0.4,0.8-0.4,1.2l0.6,0.3c0-0.4,0.2-0.7,0.3-1c0.1-0.2,0.3-0.4,0.4-0.6c0.2-0.2,0.4-0.3,0.7-0.4L44.4,9
			c-0.7-0.4-1.5-0.5-2.3-0.4c0.2-0.3,0.4-0.7,0.6-1h0l2.6,1.5l0,0c0.2,0.1,0.3,0.2,0.4,0.3c0.3,0.2,0.4,0.5,0.4,0.9
			c0,0.1,0,0.2-0.1,0.3c-0.1,0.1-0.3,0.1-0.5,0l-0.1-0.1c-0.1-0.1-0.1-0.2-0.1-0.3l-0.5,0.1c0,0.3,0.2,0.5,0.4,0.7
			c0.2,0.2,0.6,0.3,0.9,0.3c0,0.3,0.2,0.6,0.4,0.8c0.2,0.1,0.4,0.3,0.6,0.3l0-0.5c-0.1,0-0.2-0.1-0.3-0.1c-0.1-0.1-0.1-0.2-0.2-0.3
			c0-0.1,0-0.2,0-0.2c0.3-0.3,0.5-0.4,0.6-0.2l0.1,0.1c0.1,0.1,0.1,0.3,0.1,0.6c0,0.2,0,0.4-0.1,0.6L45.9,14l0.5,0.5l2.2-2.4
			l0.5,0.5l0.3-0.4L49,11.7L49.3,11.3z"/>
		<path class="st10" d="M51.4,22.6c0.1,0,0.2-0.1,0.2-0.3c0-0.1,0-0.3,0-0.4c0-0.1-0.1-0.3-0.2-0.4c0,0-0.1-0.1-0.2-0.1
			c-0.2,0-0.4,0.1-0.4,0.3c0,0.1,0,0.3,0,0.4l0,0c0,0.1,0.1,0.3,0.2,0.4C51.1,22.6,51.3,22.6,51.4,22.6z"/>
		<path class="st10" d="M55.5,30.6l0.5,0l0-0.7l-0.7,0c0.1-0.2,0.2-0.4,0.2-0.7l0.1,0l-0.8-6l-0.1,0l-1.2-3.9l-0.2,0.1l0.2-0.1
			l-2.3-4.6L50.9,15l0.2,0.5L51,15.5c0.1,0.4,0.2,0.7,0.3,1.1c0,0.3-0.1,0.5-0.4,0.7c-0.1,0-0.2,0-0.3,0c-0.1,0-0.2,0-0.3-0.1
			c-0.1-0.1-0.1-0.4,0-0.5c0.1-0.1,0.1-0.2,0.2-0.3L50,15.9c-0.1,0.2-0.2,0.4-0.2,0.7c-0.1,0.3,0,0.5,0.1,0.8
			c0.1,0.2,0.3,0.4,0.6,0.5c0.1,0,0.3,0.1,0.7,0.2c0.2,0,0.3,0.1,0.5,0.2c0,0.2,0,0.3,0,0.5c-0.1,0.2-0.1,0.3-0.2,0.5l-1.5,0.7
			l0.3,0.6l2.9-1.5l0.2,0.4l0,0l0.8,2.9l-0.1,0c-0.5-0.8-1-1.6-1.7-2.3c-0.1,0.1-0.2,0.3-0.3,0.5c0.1,0.4,0.1,0.9,0,1.3
			c-0.1,0.4-0.2,0.8-0.5,1.1l-0.6,0.2l0.2,0.6l3.1-0.9l0,0l0.2,0.6l0,0l0.3,2.8l-0.1,0c-0.3-0.9-0.7-1.7-1.2-2.4L53,24.4
			c0.1,0.5,0,0.9-0.2,1.3c-0.1,0.4-0.3,0.8-0.6,1l-0.6,0.1l0.1,0.6l2.6-0.3c0,0.3,0,0.6-0.2,0.8c-0.1,0.2-0.3,0.4-0.5,0.4l-0.2-0.1
			l-0.1-0.1c0-0.1,0.1-0.3,0.1-0.4l-0.4-0.3c-0.1,0.2-0.2,0.3-0.2,0.4c0,0.2,0,0.3,0,0.5c0,0,0,0.1,0.1,0.3c0.2,0.3,0.5,0.5,0.7,0.5
			c0.4,0,0.7-0.3,0.8-0.6c0.2-0.4,0.3-0.8,0.2-1.3l0.1,0l0,0l0.3,2c0,0.2-0.1,0.4-0.2,0.6c-0.1,0.2-0.2,0.2-0.2,0.2L51.8,30l0,0.7
			l3.2-0.1l0,0l0,0.7l0,0L55,33.9h-0.1c-0.2-0.9-0.5-1.8-0.9-2.7c-0.1,0.1-0.3,0.3-0.4,0.4c0,0.5-0.2,0.9-0.4,1.3
			c-0.2,0.4-0.5,0.7-0.8,0.9h-0.6l0,0.6l3.3,0.1h0l0,0.7l0.5,0l0.2-4.3l-0.1,0L55.5,30.6z M52,18.8c0.1-0.3,0-0.5-0.1-0.8
			c-0.1-0.2-0.2-0.3-0.4-0.4c0.2-0.3,0.3-0.6,0.2-0.9l0.9,1.8L52,18.8z M52.5,21.3c0.3,0.4,0.6,0.8,0.9,1.2l-1.1,0.3
			C52.5,22.4,52.6,21.8,52.5,21.3z M53,26.6c0.3-0.5,0.5-1,0.5-1.6c0.3,0.4,0.5,0.9,0.7,1.4l0,0L53,26.6z M53.2,33.9
			c0.4-0.4,0.6-0.9,0.8-1.4c0.2,0.5,0.4,1,0.4,1.5L53.2,33.9z"/>
		<path class="st10" d="M52.4,33.3c0.1,0,0.2-0.1,0.3-0.2c0.1-0.1,0.1-0.3,0.1-0.4c0-0.1,0-0.3-0.1-0.4c-0.1-0.1-0.2-0.2-0.3-0.2
			c-0.1,0-0.2,0.1-0.3,0.2c-0.1,0.1-0.1,0.3-0.1,0.4l0,0c0,0.2,0,0.3,0.1,0.4C52.2,33.2,52.3,33.3,52.4,33.3z"/>
	</g>
	<g>
		<path class="st11" d="M7.6,65.6H2.2v1h3.9c-1.1,0.3-2.2,0.7-3.2,1.2l-0.2,0.1l0.7,0.8h0.1l0.2,0c0.5,0,1.1,0.2,1.5,0.5l0,0
			c0.5,0.2,0.9,0.6,1.2,1v1h1.2v-4.6h0.8v0h4v0.9c-0.5-0.3-1-0.5-1.6-0.5c-0.6,0-1.1,0.2-1.6,0.5c-0.4,0.3-0.6,0.7-0.6,1.2
			c0,0.6,0.4,1.1,0.9,1.3l0.1,0l0.7-0.6l0.2-0.1l-0.2-0.1c-0.3-0.2-0.4-0.4-0.4-0.5c0-0.2,0.1-0.4,0.3-0.5c0.3-0.1,0.6-0.2,0.9-0.2
			c0.3,0,0.5,0.1,0.7,0.3c0.2,0.2,0.4,0.4,0.5,0.6l0.1,0.2l0.1,0.1v2h1.3v-4.6h1v-1L7.6,65.6L7.6,65.6z M6.4,67.5v1.2
			C5.9,68.4,5.5,68.1,5,68C5.4,67.8,5.9,67.6,6.4,67.5z"/>
		<path class="st11" d="M28.3,65.3L28.3,65.3c0-0.3,0.2-0.5,0.5-0.6c0.3-0.2,0.7-0.3,1.1-0.3c1.3,0.1,2.5,0.5,3.5,1.3l0.1,0.1
			l0.1-0.1l0,0l0.7-0.5l0.2-0.1L34.2,65c-0.6-0.4-1.3-0.8-2-1.1c-0.8-0.3-1.6-0.4-2.4-0.4c-0.7,0-1.3,0.2-1.9,0.5h0
			c-0.5,0.3-0.9,0.7-1.1,1.3l0,0.1l0.2,0.2h-9v1h0.7l0,0.1c0.2,0.4,0.4,0.9,0.6,1.3c0.3,0.5,0.7,1,1.2,1.3c0.6,0.4,1.3,0.6,2,0.6
			c0.5,0,1.1-0.2,1.5-0.5c0.3,0.3,0.5,0.5,0.8,0.8v1h1.2v-4.6h0.1v0h1.4v4.6h1.3v-4.6h1v-1h-1.3C28.5,65.5,28.4,65.4,28.3,65.3z
			 M23.4,66.5h1.4v1.9l-0.1-0.1v-0.2c0-0.5-0.3-1-0.7-1.2C23.9,66.7,23.7,66.6,23.4,66.5z M20.8,67.6l0,0.2l1.1,0.2l0.1,0l0-0.1
			c0-0.1,0.1-0.2,0.2-0.4c0.1-0.1,0.2-0.1,0.3-0.1c0.3,0,0.5,0.1,0.7,0.3c0.2,0.1,0.3,0.3,0.3,0.5c0,0.2-0.1,0.4-0.2,0.5
			c-0.2,0.2-0.4,0.2-0.7,0.2c-0.7,0-1.3-0.3-1.7-0.9c-0.4-0.4-0.6-0.9-0.8-1.4h1.6C21.2,66.8,20.9,67.1,20.8,67.6z"/>
		<path class="st11" d="M40.7,66.8c-1,0-2,0.4-2.9,1c0-0.1,0-0.2,0-0.3c0-0.3,0-0.6,0-0.9H42v-1h-6.5v0H34v0.8l-1.3,0.5
			c-0.1,0-0.2,0-0.3-0.1l0.7-0.3l0.2-0.1l-0.1-0.2c-0.3-0.4-0.7-0.7-1.2-0.7c-0.3,0-0.7,0.1-1,0.3l0,0c0,0,0,0,0,0c0,0,0,0,0,0l0,0
			c-0.3,0.2-0.4,0.5-0.4,0.8c0,0.2,0.1,0.5,0.3,0.6c0.1,0.1,0.3,0.2,0.5,0.3l-1.2,0.7l0.6,0.6l0,0l0,0c0.4,0.1,0.9,0.2,1.3,0.4h0
			c0.4,0.2,0.7,0.3,1.1,0.6h0c0.2,0.1,0.4,0.3,0.6,0.4v0.9h1.2v-4.6h1.1v0h0.2V69l0.9,0.7l0.1-0.1c0.6-0.8,1.4-1.4,2.3-1.7
			c-0.1,0.4-0.2,0.8-0.2,1.2c0,0.6,0.1,1.3,0.4,1.9l0,0.1l1-0.1l0.2,0l-0.1-0.2c-0.2-0.4-0.3-0.9-0.3-1.4c0-0.3,0-0.7,0.1-1v0
			c0.1-0.4,0.3-0.7,0.5-1l0.1-0.1L40.7,66.8L40.7,66.8z M34,69c-0.5-0.3-1.1-0.6-1.7-0.8c0.5-0.3,1.1-0.5,1.7-0.8V69z M31.9,66.5
			L31.9,66.5L31.9,66.5c0.1,0,0.2,0.1,0.3,0.1C32,66.6,31.9,66.6,31.9,66.5z"/>
		<path class="st11" d="M52.5,69.5c-0.2-0.1-0.4-0.2-0.7-0.2c-0.2,0-0.5,0.1-0.7,0.2h0c-0.2,0.1-0.3,0.3-0.3,0.5
			c0,0.2,0.1,0.4,0.3,0.5l0,0c0.2,0.1,0.4,0.2,0.7,0.2v0c0.2,0,0.5-0.1,0.7-0.2l0,0c0,0,0,0,0,0c0,0,0,0,0,0l0,0
			c0.2-0.1,0.3-0.3,0.3-0.5C52.9,69.8,52.7,69.6,52.5,69.5L52.5,69.5z M51.9,70.6L51.9,70.6C51.9,70.6,51.9,70.6,51.9,70.6
			L51.9,70.6L51.9,70.6z"/>
		<path class="st11" d="M55.5,65.6h-5.8v0h-1.9v-0.7h-1.2V66c-0.6-0.4-1.2-0.5-1.9-0.5c-0.5,0-0.9,0.1-1.3,0.3
			c-0.4,0.2-0.7,0.5-0.8,0.9l0,0.1l0.3,0.2L42,67.2l-0.2,0.1l0.1,0.2c0.3,0.5,0.6,1,0.9,1.5c0.4,0.5,0.9,1,1.4,1.4l0,0
			c0.6,0.5,1.4,0.8,2.2,0.8c0.6,0,1.3-0.1,1.8-0.5c0.5-0.2,0.9-0.7,0.9-1.3c0-0.3-0.2-0.7-0.4-0.9c-0.2-0.3-0.5-0.5-0.9-0.6v-1.3
			h1.9v0H53c-1.1,0.3-2.2,0.7-3.3,1.3l-0.2,0.1l0.1,0.1c0.1,0.2,0.4,0.4,0.6,0.6l0,0l0.1,0l0.2,0c0.5,0,1.1,0.2,1.5,0.5
			c0.5,0.2,0.9,0.6,1.2,1l0,0.8l0,0.1h1.2v-4.6h0.9V65.6z M47.7,66.4L47.7,66.4L47.7,66.4L47.7,66.4L47.7,66.4L47.7,66.4z
			 M53.3,67.5v1.2c-0.4-0.3-0.9-0.5-1.4-0.7C52.4,67.8,52.8,67.6,53.3,67.5z M44.9,66.3L44.9,66.3l0,0.2c0.2,0,0.4,0.1,0.6,0.2
			c-0.1,0.1-0.3,0.2-0.4,0.3c-0.1-0.2-0.3-0.3-0.5-0.4c0.1,0,0.2,0,0.3,0L44.9,66.3C44.9,66.3,44.9,66.3,44.9,66.3z M43.2,67.3
			L43.2,67.3l0.1,0l0.3,0c0.1,0,0.2,0,0.3,0l0.2,0l0.1,0.1l0,0.1l-0.3,0.2l-0.2,0.1l0.8,0.6l0.1,0.1l2-1.3c0.1,0.1,0.1,0.1,0.2,0.2
			v0.4c-0.3,0.1-0.6,0.2-0.9,0.4c-0.2,0.2-0.4,0.5-0.4,0.7c0,0.4,0.2,0.7,0.6,1l0.1,0.1l0.7-0.5l0.1-0.1l-0.1-0.1L46.5,69l0-0.1
			l0-0.1l0.1-0.1l0,0c0.1-0.1,0.3-0.1,0.4-0.1c0.2,0,0.4,0.1,0.5,0.2l0,0c0.1,0.1,0.2,0.3,0.2,0.4c0,0.2-0.2,0.4-0.4,0.5l0,0
			c-0.3,0.2-0.6,0.2-1,0.2C45.3,70.1,44.2,69.2,43.2,67.3L43.2,67.3z"/>
	</g>
	<path id="Path_2972" class="st12" d="M3.2,39.2h4.7l-3.8,2.7l1.5-4.4L7,42L3.2,39.2L3.2,39.2z"/>
	<path id="Path_2973" class="st12" d="M50.5,39.2h4.7l-3.8,2.7l1.5-4.4l1.4,4.5L50.5,39.2L50.5,39.2z"/>
	<g>
		<path class="st9" d="M33,31c-0.1-0.1-0.1-0.1-0.2-0.2c-0.8-0.8-2.2-0.8-3.1,0c-3.1-2.6-4.2,0.9-4.2,0.9c-2.4-1-5.1-0.2-6.6,1.8
			c-1.6,0.2-2.9,1.2-3.6,2.7c0,0,0,0.1,0,0.1c-0.4,1,0.1,2.1,1.2,2.5c1.1,0.5,3.9-0.6,3.9-0.6c3.4,1.4,5-0.8,5-0.8
			c0.4,0.6,1.1,1,1.8,1.1v0.2c-0.6,0-1.3-0.1-1.8-0.4c-0.4,0.7-1.9,1-1.9,1c1.1,1.2,3.7-0.1,3.7-0.1c2.1,1.6,3.4,1.1,3.4,1.1
			l0.7-0.5c-0.1-0.2-0.1-0.4-0.2-0.6h0.1l0.8,0.8c0,0-0.3-0.6,1.6-1.9c1.2-1,2.1-2.3,2.6-3.9l0.3,0.1c-0.3,1.4-0.9,2.7-1.8,3.7
			c1.1,0,2-0.5,2.6-1.4l0.2,0.1c-0.6,1.6-3.3,2-3.3,2c-1.6,0.5-1.4,1.7-1.4,1.7c0.6,0.4,1.4,0.4,2,0.1c1,1.1,2.8,1.3,3.9,0.3
			c2.1,1.8,3,0.3,3,0.3c1.5-2.1-2-4-2-4c0.7-5.7-6.2-4.7-6.2-4.7c-1.2-1.1-3.2-0.3-3.2-0.3l-0.1-0.4c1.1-0.6,2.4-0.6,3.4,0.2
			c0.4,0,0.8,0,1.2,0C34.3,31.2,33.6,30.9,33,31z"/>
		<path class="st13" d="M31.2,23.3L31.2,23.3c0.6,0.2,1.3,0.5,1.8,0.9c0.8,1,2.1,1.3,3.3,0.8c0,0,2,2.1,3.8,1.1
			c1.8-0.9-0.1-2.3-0.1-2.3s0.8-3.8-5.1-5.8c0,0,1.1-2.4-4.1-4.3c-0.1,0-0.2-0.1-0.4-0.1c-0.8-0.2-3.6-0.7-5.3,0.6
			c-1.6-0.3-3.1,0.8-3.3,2.3c0,0-0.5-0.5-3,1.7c0,0-2.8,3.4-0.7,5.8c0,0,1.6,2.3,4.9-0.5c0,0,2,0.5,2.3-0.7c0,0,0.8-1-1.8-1.9
			c0,0,0.9-0.7,3.1,0.9c0.9,0.8,2,1.2,3.1,1.1l0.8,0.1c0.2,0,0.3,0,0.5,0.1L31.2,23.3z"/>
		<path class="st14" d="M40.2,31.6c0,0,1.2-2.6-2.1-2c0,0-1.4-6.7-7.8-2.5c-0.8-0.4-1.6-0.7-2.5-1l0.1-0.3l1.6,0.2
			c0,0-4.3-4.3-7.3,1c-1.3,0.1-2.5,0.7-3.4,1.6c0,0-1.9,2.5,0,4.2c1.7-1.6,4-2.4,6.3-2c-0.3-0.7-0.8-1.3-1.4-1.8l-0.1,0
			c-1.1-0.3-2.1-0.7-3.1-1.3l0.1-0.1l2.8,0.9l0.2-0.1l0-0.2c-0.3-0.4-0.6-0.9-0.8-1.4c0.6,0.5,1.2,1.2,1.7,1.8
			c0.4,0.5,0.8,1,1.2,1.5c1.2-1,2.9-1,4,0.1c0.8-0.7,1.9-0.8,2.7-0.3c0.8-1,1.6-2.1,2.3-3.2l0.2,0.1l-0.9,1.8
			c0.8,0.4,2.1-0.7,2.1-0.7l0.2,0.1c-0.7,0.8-1.6,1.3-2.7,1.4l-0.7,0.8l0.4,0.4c0.8-0.1,1.6,0.4,2,1.1c3.1,0.2,4.4,1.7,4.8,3
			C40.5,34.4,41.5,33.3,40.2,31.6z"/>
	</g>
</g>
</svg>
