<?xml version="1.0" encoding="utf-8"?>
<!-- Generator: Adobe Illustrator 24.1.2, SVG Export Plug-In . SVG Version: 6.00 Build 0)  -->
<svg version="1.1" id="Layer_1" xmlns="http://www.w3.org/2000/svg" xmlns:xlink="http://www.w3.org/1999/xlink" x="0px" y="0px"
	 viewBox="0 0 42.1 40.6" style="enable-background:new 0 0 42.1 40.6;" xml:space="preserve">
<style type="text/css">
	.st0{fill:#009DC7;}
</style>
<g id="Group_553" transform="translate(0)">
	<path id="Path_4454" class="st0" d="M16.6,3h9c0-0.4,0-0.8,0-1.1c0-1.2,0.5-1.8,1.8-1.8c1.8,0,3.6,0,5.4,0c1.4,0,1.9,0.5,1.9,1.9
		c0,0.3,0,0.6,0,1.1h3.9c2.5,0,3.6,1.1,3.6,3.6c0,10.6,0,21.3,0,31.9c0,1.6-0.5,2.1-2,2.1c-12.7,0-25.4,0-38,0c-1.6,0-2-0.5-2-2
		C0,27.9,0,17.1,0,6.3C-0.1,4.7,1.1,3.2,2.8,3c0.2,0,0.3,0,0.5,0C4.6,3,6,3,7.5,3c0-0.5,0-0.9,0-1.3C7.4,0.9,8,0.1,8.8,0
		C8.9,0,9,0,9.1,0C11,0,13,0,15,0c0.8,0,1.5,0.6,1.6,1.4c0,0.1,0,0.1,0,0.2C16.6,2,16.6,2.4,16.6,3z M39.1,37.6V15.1h-36v22.4H39.1z
		"/>
	<path id="Path_4455" class="st0" d="M15.8,31.7c0.2-1.2,0.4-2.2,0.5-3.2c0-0.5-0.1-0.9-0.4-1.3c-0.5-0.7-1.2-1.3-1.8-1.9
		c-0.6-0.5-0.7-1.5-0.2-2.1c0.3-0.3,0.6-0.5,1.1-0.5c0.7-0.2,1.3-0.3,2-0.3c0.8,0,1.5-0.5,1.7-1.3c0.2-0.7,0.6-1.5,1-2.1
		c0.3-0.5,0.8-0.8,1.4-0.9c0.5,0.1,1,0.4,1.3,0.8c0.5,0.8,0.9,1.6,1.2,2.4c0.2,0.5,0.7,0.9,1.3,0.9c0.8,0.1,1.6,0.2,2.4,0.4
		c0.8,0.1,1.4,0.8,1.3,1.6c0,0.4-0.2,0.7-0.5,0.9c-0.6,0.7-1.2,1.3-1.8,1.9c-0.4,0.4-0.6,0.9-0.5,1.5c0.2,0.8,0.3,1.7,0.4,2.5
		c0,0.6-0.2,1.2-0.5,1.6c-0.5,0.3-1.2,0.3-1.7,0.1c-1-0.4-1.9-1.4-2.9-1.4c-0.9,0-1.8,1-2.8,1.4c-0.5,0.2-1.1,0.2-1.7,0
		C16.1,32.6,16,32,15.8,31.7z M21,23.4c-0.4,1.5-1.3,1.8-2.6,2c1.2,0.8,1.4,1.8,1.2,3.1c0.9-0.7,2.1-0.7,3,0
		c-0.3-1.2,0.1-2.5,1.2-3.3C22.5,25.4,21.3,24.6,21,23.4L21,23.4z"/>
</g>
</svg>
