<?xml version="1.0" encoding="utf-8"?>
<!-- Generator: Adobe Illustrator 24.1.2, SVG Export Plug-In . SVG Version: 6.00 Build 0)  -->
<svg version="1.1" id="Layer_1" xmlns="http://www.w3.org/2000/svg" xmlns:xlink="http://www.w3.org/1999/xlink" x="0px" y="0px"
	 viewBox="0 0 44.7 42" style="enable-background:new 0 0 44.7 42;" xml:space="preserve">
<style type="text/css">
	.st0{fill:#009DC7;}
</style>
<g>
	<path class="st0" d="M44.7,19c-0.1-1.3-0.2-2.5-0.4-3.8c-0.5-2.7-1.5-5.2-3-7.4c-1.2-1.9-2.8-3.6-4.5-5.1c-0.8-0.7-1.6-1.3-2.5-1.9
		c-0.8-0.5-1.5-0.1-1.7,0.2c-0.4,0.4-0.7,0.9-1,1.5c-0.3,0.7-0.1,1.3,0.5,1.7c0.9,0.6,1.8,1.2,2.6,2c1.2,1.2,2.3,2.5,3.2,3.9
		c1.9,2.8,2.8,6,2.9,9.3c0,0.2,0,0.4,0,0.7c0,0.3,0,0.6,0,0.9c-0.1,1.5-0.4,3-0.9,4.5c-1.5,4.8-5,8.8-9.6,10.9
		C28,37.4,25.6,38,23,38.1C13,38.5,4.5,30.7,4.1,20.7c-0.1-1.4,0-2.7,0.3-4.1c0.5-2.7,1.5-5.2,3-7.4C8.5,7.6,9.9,6.1,11.6,5
		c0.7-0.5,1.5-1,2.3-1.4c0.7-0.4,0.8-1.1,0.6-1.6c-0.3-0.6-0.6-1.2-1.1-1.6c-0.4-0.5-1.1-0.5-1.7-0.2C9.5,1.4,7.5,3,5.8,4.8
		c-4,4.5-6.1,10.5-5.6,16.6c0.1,2,0.5,3.9,1.2,5.8C4.6,36.1,13,42,22.5,42c0,0,0.1,0,0.1,0c2.7,0,5.3-0.5,7.8-1.5
		c1.9-0.7,3.6-1.7,5.2-2.9c1.5-1.1,2.8-2.5,4-3.9c1.4-1.6,2.5-3.5,3.4-5.5C44.3,25.4,44.9,22.2,44.7,19z"/>
	<path class="st0" d="M10.8,12.2c0,1.9,0,3.8,0,5.7l0,1.4c0,0.4,0,0.9,0,1.3c-0.2,2,0.3,4.1,1.4,5.8c1.2,1.8,2.7,3.3,4.4,4.4
		c1.6,1.1,3.3,2.1,5,2.9c0.3,0.1,0.5,0.2,0.8,0.2c0.3,0,0.6-0.1,0.9-0.2l0.3-0.2c0.7-0.3,1.4-0.7,2-1.1c2.2-1.2,4.2-2.7,5.9-4.5
		c1.7-1.9,2.7-4.3,2.6-6.9c0-0.9,0-1.8,0-2.7l0-0.4c0-0.6,0-1.3,0-1.9l0-4.4c0-0.8-0.5-1.2-1.1-1.3c-1.3-0.1-2.5-0.2-3.6-0.4
		c-1.5-0.2-2.9-0.7-4.1-1.4c-0.7-0.4-1.4-1-1.9-1.6c-0.1-0.1-0.5-0.5-1-0.4c-0.3,0-0.7,0.2-0.9,0.5c-0.2,0.2-0.4,0.4-0.6,0.5
		c-2.5,2-5.6,3.1-8.8,3.2C11.1,10.9,10.8,11.6,10.8,12.2z M22.5,11.1c1.7,1.2,3.6,2,5.6,2.4c0.5,0.1,1.1,0.2,1.6,0.4
		c0.3,0.1,0.6,0.1,0.9,0.2c0,0.3,0,0.6,0,0.9l0,1.4l0,1c0,1.3,0,2.5,0,3.8c0,1.6-0.5,3.1-1.6,4.3c-1.3,1.5-2.9,2.7-4.7,3.7
		c-0.3,0.2-0.7,0.4-1,0.6L22.7,30c-0.1,0.1-0.3,0.1-0.4,0c-2.5-1.1-4.7-2.7-6.5-4.8c-0.8-0.9-1.3-2.1-1.4-3.3c0-1.7,0-3.4,0-5.1
		c0-0.8,0-1.6,0-2.4c1.6-0.2,3.3-0.7,4.8-1.4C20.3,12.5,21.4,11.8,22.5,11.1z"/>
	<path class="st0" d="M18,19.5l-0.4,0l-0.3,0.3c0,0-0.1,0.1-0.1,0.1l-0.2,0.2c-0.2,0.2-0.3,0.3-0.5,0.5C16,20.9,16,21.2,16,21.4
		c0,0.3,0.1,0.6,0.4,0.9c1.1,1.1,2.1,2.2,3.2,3.3c0.1,0.1,0.4,0.4,0.9,0.4c0,0,0,0,0,0c0.3,0,0.6-0.1,0.9-0.4
		c1.9-1.9,3.8-3.8,5.7-5.7l0.7-0.7c0.5-0.5,1.1-1.1,1.6-1.6c0.1-0.1,0.4-0.4,0.4-0.9c0-0.3-0.1-0.6-0.4-0.9
		c-0.2-0.2-0.4-0.4-0.6-0.6c-0.3-0.3-0.6-0.5-0.9-0.5c-0.5,0-0.9,0.3-1,0.4c-2.1,2.1-4.3,4.3-6.4,6.4c-0.4-0.5-0.9-0.9-1.3-1.3
		l-0.3-0.3C18.8,19.8,18.5,19.5,18,19.5z"/>
</g>
</svg>
