<?xml version="1.0" encoding="utf-8"?>
<!-- Generator: Adobe Illustrator 24.1.2, SVG Export Plug-In . SVG Version: 6.00 Build 0)  -->
<svg version="1.1" id="Layer_1" xmlns="http://www.w3.org/2000/svg" xmlns:xlink="http://www.w3.org/1999/xlink" x="0px" y="0px"
	 viewBox="0 0 63.3 63" style="enable-background:new 0 0 63.3 63;" xml:space="preserve">
<style type="text/css">
	.st0{fill:#FFFFFF;}
	.st1{fill:#9E1D20;}
	.st2{clip-path:url(#SVGID_2_);}
	.st3{fill:none;}
	.st4{fill:#241E22;}
	.st5{fill:#30388D;}
	.st6{fill:#F36F22;}
</style>
<g>
	<g>
		<path class="st0" d="M6.5,12.2l-0.6-1.4c0,0,0,0,0,0L5.7,11l0.6,1.6C6.4,12.5,6.4,12.4,6.5,12.2C6.5,12.3,6.5,12.3,6.5,12.2
			C6.5,12.3,6.5,12.3,6.5,12.2z"/>
		<path class="st0" d="M11.7,7c-0.1,0-0.2-0.1-0.2-0.2l-0.3-1.2l-0.3,0.2l0.5,1.4C11.6,7.2,11.7,7.1,11.7,7C11.7,7,11.7,7,11.7,7
			C11.7,7,11.7,7,11.7,7z"/>
		<path class="st0" d="M4.1,13.4C4.1,13.4,4.1,13.4,4.1,13.4l0.8,1.1c0,0,0.1-0.1,0.1-0.1l-0.7-1.2C4.2,13.2,4.1,13.3,4.1,13.4z"/>
		<path class="st0" d="M8,8.6C8,8.6,8,8.6,8,8.6l0.5,1.6c0,0,0,0,0,0C8.7,9.8,9,9.5,9.3,9.2L8.8,7.7L8,8.6z"/>
		<path class="st0" d="M7.7,8.9L7.5,9.1c0,0,0,0,0,0L8,10.4c0,0.1,0,0.2-0.1,0.3c0,0-0.1,0-0.1,0c-0.1,0-0.2-0.1-0.2-0.1L7.2,9.4
			l-1.1,1.2c0.1,0,0.1,0.1,0.1,0.1L6.8,12c0.4-0.5,0.9-1,1.4-1.5c0,0,0,0-0.1-0.1L7.7,8.9z"/>
		<path class="st0" d="M9.7,6.8C9.7,6.8,9.7,6.8,9.7,6.8l0.4,1.6c0.3-0.3,0.7-0.6,1-0.9l-0.6-1.4L9.7,6.8z"/>
		<polygon class="st0" points="9.1,7.2 9.6,8.9 9.8,8.7 9.4,7 		"/>
		<path class="st0" d="M5.5,11.5c-0.4,0.4-0.7,0.8-1.1,1.2c0,0,0,0,0,0L5.2,14c0.3-0.4,0.5-0.7,0.8-1.1c0,0,0,0,0,0L5.5,11.5z"/>
		<path class="st0" d="M1,23.3c0.3,1.1,1,2.1,1.9,2.6c0.2,0.1,0.5,0.3,0.7,0.4c0,0,0.1-0.1,0.1-0.1c0,0,0,0,0,0L3.6,26
			c0,0,0-0.1,0-0.2c0-0.1,0.1-0.1,0.1-0.1l0.8-0.3l-1.1-0.6L2.6,25c-0.1,0-0.2,0-0.3-0.1c0-0.1,0-0.2,0.1-0.3l0.6-0.2
			C3,24.3,3,24.1,2.9,24c-0.1-0.2-0.2-0.5-0.3-0.7c0,0-0.1,0-0.1,0H1z"/>
		<path class="st0" d="M3.3,14.6c0,0,0,0.1-0.1,0.1c0,0,0.1,0,0.1,0.1l0.7,1c0.2-0.3,0.4-0.6,0.6-0.9l-0.8-1.1
			C3.7,14,3.5,14.3,3.3,14.6z"/>
		<path class="st0" d="M2.4,22.8c0-0.1,0-0.1,0-0.2c0,0,0,0,0,0l-1.5-0.3c0,0.2,0,0.3,0.1,0.5c0,0,0,0,0,0L2.4,22.8
			C2.4,22.9,2.4,22.9,2.4,22.8z"/>
		<path class="st0" d="M1.7,18l-0.7,1.6l1.3,0.6c0.1-0.4,0.2-0.8,0.3-1.2c-0.1-0.1-0.2-0.2-0.3-0.3C2.2,18.4,1.9,18.2,1.7,18z"/>
		<path class="st0" d="M2.9,15.3C2.9,15.3,3,15.3,2.9,15.3l0.8,1.1c0-0.1,0.1-0.2,0.1-0.3l-0.8-1.1C3,15.1,3,15.2,2.9,15.3z"/>
		<path class="st0" d="M2.7,15.7c-0.1,0.1-0.1,0.2-0.2,0.3c-0.1,0.2-0.3,0.4-0.3,0.6c0,0,0,0.1-0.1,0.1L3,17.9
			c0.1-0.4,0.3-0.7,0.5-1.1c0,0,0,0,0,0L2.7,15.7z"/>
		<path class="st0" d="M2,17.2c0,0.1-0.1,0.1-0.1,0.2c0,0-0.1,0.1-0.1,0.2c0.3,0.3,0.5,0.6,0.8,0.9c0,0,0.1,0.1,0.1,0.1
			c0-0.1,0-0.1,0.1-0.2c0,0,0-0.1,0-0.1L2,17.2C2,17.2,2,17.2,2,17.2z"/>
		<path class="st0" d="M13.7,3.7l-0.1,0.1c-0.1,0-0.1,0.1-0.2,0.1c0,0,0.1,0.1,0.1,0.1l0.4,1.3c0.3-0.2,0.7-0.5,1-0.7l-0.5-1.4
			C14.2,3.4,13.9,3.6,13.7,3.7z"/>
		<path class="st0" d="M12.5,4.6C12.5,4.6,12.5,4.6,12.5,4.6c-0.1,0.1-0.2,0.1-0.3,0.2c-0.2,0.1-0.4,0.3-0.6,0.4l0.3,1.6
			c0,0,0,0.1,0,0.1C12.2,6.6,12.6,6.3,13,6c0,0,0,0,0,0L12.5,4.6z"/>
		<path class="st0" d="M21.7,1.1l-0.1-0.7c0,0,0,0,0,0c-0.1,0-0.2,0-0.3,0c-0.3,0-0.7,0.1-1,0.2c-0.1,0-0.2,0.1-0.3,0.1l-0.2,1.4
			C20.6,2.1,21.2,1.8,21.7,1.1C21.7,1.1,21.7,1.1,21.7,1.1z"/>
		<path class="st0" d="M22.3,0.4c-0.1,0-0.2,0-0.3,0l0,0.3C22.1,0.6,22.2,0.5,22.3,0.4z"/>
		<path class="st0" d="M25,1.7c-0.1-0.1-0.2-0.2-0.3-0.3c0,0,0,0,0,0l-1.5,0.7l0.2,0.1L25,1.7C25,1.7,25,1.7,25,1.7z"/>
		<path class="st0" d="M38.2,59.1C38.2,59.1,38.2,59.1,38.2,59.1l-1.8,0l0.2,0.4c0,0,0,0,0,0l1.6-0.2C38.3,59.2,38.2,59.1,38.2,59.1
			z"/>
		<path class="st0" d="M26.4,3.6l-1.7,0.3L24.8,4c0,0,0.1-0.1,0.1-0.1h1.7C26.6,3.8,26.5,3.7,26.4,3.6C26.4,3.6,26.4,3.6,26.4,3.6z"
			/>
		<path class="st0" d="M26.1,3.1L26.1,3.1c-0.3-0.5-0.6-0.8-0.9-1.1c0,0.1-0.1,0.1-0.1,0.1l-1.4,0.5c0,0,0.1,0,0.1,0.1l0.6,0.9
			c0,0,0.1-0.1,0.1-0.1L26.1,3.1C26.2,3.2,26.2,3.1,26.1,3.1z"/>
		<path class="st0" d="M22.7,0.4C22.7,0.5,22.7,0.5,22.7,0.4c-0.3,0.5-0.6,0.9-1,1.3l0.9,0.4l1.8-0.9C23.9,0.8,23.3,0.5,22.7,0.4z"
			/>
		<path class="st0" d="M2.2,20.5l-1-0.5c0,0,0,0.1,0,0.1l1.1,0.6C2.2,20.6,2.2,20.6,2.2,20.5z"/>
		<path class="st0" d="M13,4.2c-0.1,0.1-0.2,0.1-0.3,0.2c0,0,0.1,0.1,0.1,0.1l0.4,1.3c0.1-0.1,0.2-0.1,0.2-0.2L13,4.2
			C13,4.2,13,4.2,13,4.2z"/>
		<path class="st0" d="M15,2.9C14.9,2.9,14.8,3,14.7,3c0,0,0,0,0,0.1l0.4,1.3c0.1,0,0.1-0.1,0.2-0.1c0,0,0,0-0.1-0.1L15,2.9z"/>
		<path class="st0" d="M16.8,1.9c-0.5,0.3-1,0.5-1.5,0.8l0.4,1.4c0.4-0.2,0.7-0.4,1.1-0.7c0,0,0,0,0,0V1.9z"/>
		<path class="st0" d="M19.3,1c-0.1,0.3-0.1,0.7-0.2,1.1c0,0,0,0.1,0,0.1c0.1,0,0.2-0.1,0.3-0.1l0.2-1.2c0,0-0.1,0-0.1,0
			C19.5,0.9,19.4,0.9,19.3,1z"/>
		<path class="st0" d="M17.9,1.6l-0.1,1.2c0,0,0,0,0,0c0.2,0,0.3-0.1,0.4-0.1c0.1-0.1,0.3-0.1,0.4-0.2c0,0,0.1,0,0.1,0
			c0-0.1,0-0.3,0-0.4c0-0.3,0.1-0.7,0.1-1c-0.4,0.1-0.8,0.3-1.1,0.4C17.8,1.4,17.9,1.5,17.9,1.6z"/>
		<path class="st0" d="M17.2,1.7v1.5c0.1,0,0.1-0.1,0.2-0.1l0.1-1.6c0,0,0,0,0,0C17.4,1.6,17.3,1.6,17.2,1.7
			C17.2,1.7,17.2,1.7,17.2,1.7z"/>
		<path class="st0" d="M14.1,58.4c0,0.1,0,0.1-0.1,0.1l-1,0.6c0,0,0,0,0,0c0.3,0.2,0.6,0.4,1,0.6c0,0,0,0,0,0l1.1-0.7
			C14.7,58.8,14.4,58.6,14.1,58.4z"/>
		<path class="st0" d="M4.3,47.7l-0.1-0.2c0,0-0.1,0.1-0.1,0.1L2.8,48c0,0.1,0.1,0.2,0.1,0.3c0,0,0,0,0,0l1.2-0.5
			C4.2,47.7,4.3,47.7,4.3,47.7z"/>
		<path class="st0" d="M5.2,49.1l-0.7-1.2c0,0.1,0,0.1-0.1,0.2l-1.2,0.5c0.2,0.3,0.4,0.7,0.6,1c0,0,0.1-0.1,0.1-0.1L5.2,49.1
			C5.2,49.1,5.2,49.1,5.2,49.1z"/>
		<path class="st0" d="M5.4,49.4C5.3,49.4,5.3,49.4,5.4,49.4L4,49.8c0,0,0,0-0.1,0c0,0,0,0,0,0C4,49.9,4.1,50,4.2,50.2c0,0,0,0,0,0
			l1.3-0.5L5.4,49.4z"/>
		<path class="st0" d="M4,47.3L3.3,46c0,0-0.1,0-0.1,0H1.8c0.3,0.5,0.5,1.1,0.8,1.6L4,47.3C4,47.3,4,47.3,4,47.3z"/>
		<path class="st0" d="M6.9,51.4c0,0-0.1,0-0.1,0l-1.6,0.2c0.1,0.1,0.2,0.2,0.3,0.4c0,0,0,0,0.1,0L7,51.6L6.9,51.4z"/>
		<path class="st0" d="M7.3,51.9C7.3,51.9,7.3,51.9,7.3,51.9l-1.6,0.5c0.2,0.3,0.5,0.6,0.7,0.9c0,0,0.1,0,0.1-0.1l1.6-0.5L7.3,51.9z
			"/>
		<path class="st0" d="M2.9,45.5C2.9,45.5,2.9,45.5,2.9,45.5l-1.4,0c0,0.1,0.1,0.1,0.1,0.2c0,0,0,0,0.1,0H3L2.9,45.5z"/>
		<path class="st0" d="M5.7,50C5.7,50,5.7,50,5.7,50l-1.3,0.5c0.2,0.3,0.4,0.6,0.6,0.8c0,0,0,0,0,0l1.4-0.2L5.7,50z"/>
		<path class="st0" d="M2.1,44.2L1,44c0.2,0.4,0.3,0.8,0.4,1.1c0,0,0,0.1,0,0.1h1.3L2.1,44.2z"/>
		<path class="st0" d="M2.6,39.6C2.6,39.6,2.6,39.6,2.6,39.6l-0.7-1.6l-0.1,0.2c0,0.1-0.1,0.1-0.2,0.1l0.9,1.5
			C2.5,39.7,2.6,39.7,2.6,39.6z"/>
		<path class="st0" d="M3.8,38.5C3.8,38.5,3.8,38.5,3.8,38.5c-0.1,0-0.2-0.1-0.2-0.2l-0.1-1.4c-0.4,0.2-0.7,0.5-1.1,0.8
			c-0.1,0-0.1,0-0.2,0c0,0,0,0,0,0l0.7,1.5C3.2,39,3.5,38.8,3.8,38.5z"/>
		<path class="st0" d="M4,38.3C4,38.4,3.9,38.4,4,38.3C3.9,38.4,3.9,38.4,4,38.3c0.1,0,0.1,0,0.2-0.1c0,0,0,0,0,0l0.1-1.6
			c-0.1,0-0.3,0.1-0.4,0.1c0,0,0,0,0,0L4,38.3z"/>
		<path class="st0" d="M2.1,43.6L2.1,43.6l-1.3-0.2c0,0.1,0,0.1,0,0.2c0,0,0,0,0,0l1.2,0.2C2.1,43.7,2.1,43.6,2.1,43.6z"/>
		<path class="st0" d="M9.2,54.9l0.3-0.4c0-0.1,0.1-0.1,0.2-0.1L8.3,53c0,0-0.1,0-0.1,0.1l-1.6,0.5c0.1,0.1,0.1,0.2,0.2,0.3
			c0,0,0,0,0,0c0,0,0,0,0.1,0c0,0,0.1-0.1,0.1-0.1l1.4-0.4c0.1,0,0.2,0,0.2,0.1c0,0.1,0,0.2-0.1,0.2l-1.3,0.4
			c0.3,0.3,0.5,0.6,0.8,0.8c0.2,0.2,0.3,0.3,0.5,0.5l0.6-0.3C9.2,55.1,9.2,55,9.2,54.9z"/>
		<path class="st0" d="M1.9,41.3C1.9,41.3,1.9,41.3,1.9,41.3C1.9,41.2,2,41.2,2,41.1c0-0.3,0.1-0.6,0.2-0.9c0,0,0,0,0,0l-0.9-1.4
			c-0.6,0.6-0.9,1.4-0.9,2.2C1.1,40.9,1.6,41,1.9,41.3z"/>
		<path class="st0" d="M2,42.5c-0.2-0.9-0.5-1.2-1.5-1.1c0,0,0,0,0,0c0,0.6,0.1,1.1,0.2,1.7c0,0,0.1,0,0.1,0l1.3,0.2
			C2.1,42.9,2.1,42.7,2,42.5z"/>
		<path class="st0" d="M23.8,59.9l0.7,1.2c0.2-0.2,0.5-0.5,0.7-0.8L24.6,59L23.8,59.9z"/>
		<path class="st0" d="M21.9,60.9l-0.5,1.5c0.1,0,0.1,0,0.2,0c0.1,0,0.2,0,0.3,0c0,0,0,0,0,0l0.2-1.4L21.9,60.9z"/>
		<path class="st0" d="M21.1,62.3l0.4-1.4l-1,0.1l-0.8,1.1c0,0-0.1,0-0.1,0.1c0.5,0.3,1,0.3,1.5,0.2C21.1,62.4,21,62.4,21.1,62.3z"
			/>
		<path class="st0" d="M9.9,54.6c0,0,0,0.1,0,0.1L9.7,55l0,0c0.1,0,0.1,0.1,0.1,0.2s-0.1,0.1-0.1,0.2l-0.8,0.4
			c0.4,0.4,0.8,0.8,1.2,1.1c0-0.1,0-0.2,0.1-0.2c0.4-0.2,0.8-0.4,1.2-0.4L9.9,54.6z"/>
		<path class="st0" d="M0.9,22l1.4,0.3c-0.1-0.4-0.1-0.8-0.1-1.2L1,20.5C0.9,21,0.8,21.5,0.9,22C0.8,22,0.9,22,0.9,22z"/>
		<path class="st0" d="M22.5,60.7c0,0,0.1,0.1,0.1,0.1l-0.2,1.3c0.7-0.2,1.3-0.5,1.8-0.9l-0.6-1.1L22.5,60.7z"/>
		<path class="st0" d="M25.7,57.4C25.7,57.4,25.7,57.4,25.7,57.4L25.7,57.4l-0.8-0.1l-0.2,1l0.6,1.5c0.2-0.3,0.3-0.6,0.4-0.9
			c0.1-0.3,0-0.6,0-1C25.7,57.8,25.7,57.6,25.7,57.4z"/>
		<path class="st0" d="M19.3,60.9c-0.2-0.1-0.3-0.1-0.5-0.1c-0.2-0.1-0.5-0.1-0.7-0.2c0,0.1,0,0.2-0.1,0.2l-0.9,0.7
			c0.3,0.1,0.7,0.3,1.1,0.4c0.2,0.1,0.3,0.1,0.5,0.2L19.3,60.9C19.3,60.9,19.3,60.9,19.3,60.9z"/>
		<path class="st0" d="M19.7,60.9l-0.5,1c0.1,0.1,0.1,0.1,0.2,0.1c0-0.1,0-0.1,0-0.1l0.6-0.8L19.7,60.9z"/>
		<path class="st0" d="M13.8,58.2c0,0-0.1-0.1-0.1-0.1c0,0,0,0-0.1,0.1l-1.2,0.6c0.1,0.1,0.2,0.1,0.3,0.2c0-0.1,0-0.1,0.1-0.2
			L13.8,58.2C13.8,58.2,13.8,58.2,13.8,58.2z"/>
		<path class="st0" d="M17.8,60.4C17.7,60.4,17.7,60.4,17.8,60.4l-0.2-0.1c0,0,0,0-0.1,0.1l-1.2,0.8c0.1,0.1,0.2,0.1,0.4,0.2
			L17.8,60.4C17.7,60.4,17.8,60.4,17.8,60.4z"/>
		<path class="st0" d="M10.3,57C10.3,57,10.3,57,10.3,57c0,0.1,0,0.1,0,0.1c0.1,0.1,0.1,0.1,0.2,0.2c0,0,0-0.1,0.1-0.1l1.3-0.5
			C11.5,56.5,11,56.6,10.3,57z"/>
		<path class="st0" d="M12.8,57.3c-0.1-0.1-0.3-0.3-0.4-0.4c0,0,0,0-0.1,0l-1.4,0.5c0.4,0.3,0.8,0.6,1.3,1c0-0.1,0-0.1,0.1-0.1
			l1.1-0.6C13.2,57.6,13,57.5,12.8,57.3z"/>
		<path class="st0" d="M16.1,59.6C16.1,59.6,16.1,59.6,16.1,59.6l-1.2,0.8c0.3,0.2,0.7,0.4,1,0.6c0,0,0,0,0,0l1.2-0.8
			C16.8,59.9,16.4,59.7,16.1,59.6z"/>
		<path class="st0" d="M15.5,59.2C15.5,59.3,15.5,59.3,15.5,59.2L14.3,60c0.1,0,0.2,0.1,0.2,0.1c0,0,0,0,0,0l1.2-0.7
			C15.6,59.3,15.6,59.3,15.5,59.2z"/>
		<path class="st0" d="M38.6,59.6l-1.7,0.2l0.9,1.3c0,0,0.1,0,0.1,0l1.4-0.7C39,60.1,38.8,59.9,38.6,59.6z"/>
		<path class="st0" d="M58.3,48.1C58.4,48.1,58.4,48.2,58.3,48.1l0.8,1.1c0.2-0.3,0.4-0.6,0.6-0.9l-0.8-1.1
			C58.7,47.5,58.5,47.8,58.3,48.1z"/>
		<path class="st0" d="M50.4,4.2C50.4,4.2,50.3,4.2,50.4,4.2l-1,0.6c0,0-0.1,0-0.1,0c0,0-0.1,0-0.1,0c0.1,0.1,0.2,0.1,0.3,0.2
			c0,0,0-0.1,0.1-0.1l1.1-0.6C50.5,4.3,50.5,4.2,50.4,4.2z"/>
		<path class="st0" d="M51,4.6l-1.2,0.6c0.4,0.3,0.7,0.5,1,0.8c0,0,0.1-0.1,0.1-0.1l1.2-0.4C51.8,5.3,51.4,4.9,51,4.6z"/>
		<path class="st0" d="M52.5,5.9l-1.3,0.4c0.1,0.1,0.2,0.2,0.3,0.2l1.3-0.5C52.7,6,52.6,6,52.5,5.9z"/>
		<path class="st0" d="M50,3.9c-0.3-0.2-0.7-0.5-1-0.7c0,0.1,0,0.2-0.1,0.2L48,4c0,0,0,0,0,0c0.4,0.2,0.8,0.5,1.1,0.7c0,0,0,0,0,0
			c-0.1-0.1,0-0.2,0.1-0.3L50,3.9z"/>
		<path class="st0" d="M55,8.1c-0.2-0.1-0.3-0.3-0.5-0.4c0,0-0.1,0-0.1,0c-0.1,0-0.1,0.1-0.2,0.1c0,0,0,0.1,0.1,0.2c0,0,0,0.1,0,0.2
			c0,0.1-0.1,0.1-0.1,0.1l-0.7,0.3c0.3,0.3,0.6,0.6,0.8,0.8c0,0,0,0,0,0l1.5-0.4C55.6,8.6,55.3,8.3,55,8.1z"/>
		<path class="st0" d="M56.2,9.2C56.2,9.3,56.2,9.3,56.2,9.2l-1.5,0.5c0.1,0.1,0.2,0.2,0.2,0.2l1.7-0.3C56.5,9.5,56.3,9.4,56.2,9.2z
			"/>
		<path class="st0" d="M39.9,60.8c-0.1-0.1-0.2-0.1-0.3-0.2c0,0,0,0-0.1,0l-1.4,0.7l0.2,0.2c0.1,0,0.1-0.1,0.1-0.1
			c0.2-0.1,0.4-0.2,0.6-0.3C39.3,61,39.6,60.9,39.9,60.8z"/>
		<path class="st0" d="M53.9,7.7c0.1-0.2,0.2-0.2,0.3-0.3c-0.1-0.1-0.2-0.2-0.3-0.2c-0.3-0.3-0.6-0.5-0.9-0.8l-1.3,0.5
			c0.5,0.5,1,0.9,1.5,1.4c0,0,0,0,0,0L53.9,8C53.9,7.9,53.9,7.7,53.9,7.7z"/>
		<path class="st0" d="M48.8,3.1c-0.1-0.1-0.2-0.2-0.4-0.2c0,0.1,0,0.1-0.1,0.2l-1,0.6c0,0,0,0,0,0c0.1,0,0.2,0.1,0.3,0.1
			c0,0,0-0.1,0.1-0.1L48.8,3.1C48.8,3.1,48.8,3.1,48.8,3.1z"/>
		<path class="st0" d="M39.2,1.9l0.5,1c0.4-0.2,0.7-0.4,1.1-0.5c0,0,0,0,0-0.1l0.1-1.4C40.2,1,39.6,1.3,39.2,1.9z"/>
		<path class="st0" d="M38.9,2c-0.4,0.1-0.7,0.4-0.9,0.7c0.1,0,0.2,0.1,0.2,0.1l0.4,1.3l0.9-1.1c0,0,0,0,0-0.1L38.9,2z"/>
		<path class="st0" d="M41.5,0.9c-0.1,0-0.2,0-0.3,0l-0.1,1.4c0,0,0.1,0,0.1,0c0,0,0-0.1,0-0.2L41.5,0.9z"/>
		<path class="st0" d="M43.5,0.8c-0.1,0-0.2,0-0.4,0c-0.4-0.1-0.7-0.1-1.1-0.2c0,0,0,0,0,0.1c0,0.1-0.1,0.1-0.1,0.1l-0.3,1.3
			C42,2.1,42.4,2,42.8,2.1c0,0,0,0,0-0.1L43.5,0.8C43.5,0.9,43.5,0.9,43.5,0.8z"/>
		<path class="st0" d="M46.5,1.7c0,0.1,0,0.1-0.1,0.2l-1.1,0.8c0.1,0,0.2,0.1,0.3,0.1c0,0,0,0,0,0L46.9,2
			C46.8,1.9,46.6,1.8,46.5,1.7z"/>
		<path class="st0" d="M38.3,4.8L37.8,3c-0.1,0.2-0.2,0.5-0.3,0.7c-0.1,0.2-0.2,0.5-0.3,0.7c0,0,0,0,0,0c0.1,0.1,0.4,0.4,1.2,0.9
			L38.4,5C38.4,4.9,38.3,4.9,38.3,4.8z"/>
		<path class="st0" d="M48.2,2.7c-0.3-0.2-0.7-0.4-1-0.6c0,0.1,0,0.1-0.1,0.2L46.1,3c0.1,0.1,0.3,0.1,0.4,0.2
			c0.2,0.1,0.4,0.2,0.7,0.3c0-0.1,0-0.2,0.1-0.2L48.2,2.7C48.2,2.7,48.2,2.7,48.2,2.7z"/>
		<path class="st0" d="M45.7,1.4c-0.6-0.2-1.2-0.4-1.8-0.5c0,0.1,0,0.1,0,0.2l-0.6,1.1c0.1,0,0.2,0,0.3,0c0,0,0,0,0,0L44,1.1
			C44,1,44.1,0.9,44.2,1c0.1,0,0.1,0.2,0.1,0.3l-0.5,1c0.4,0.1,0.7,0.2,1,0.3l1.2-1C46,1.5,45.8,1.4,45.7,1.4z"/>
		<path class="st0" d="M60.4,23.7c-0.2,0.3-0.5,0.5-0.9,0.8c0,0,0.1,0.1,0.1,0.1l0.1,1.5c0.4-0.3,0.8-0.5,1.2-0.8c0,0,0,0,0,0
			L60.4,23.7z"/>
		<path class="st0" d="M61.5,19.5l-0.5-0.4c0,0,0,0,0,0C61,19.4,61.1,19.4,61.5,19.5C61.5,19.5,61.5,19.5,61.5,19.5z"/>
		<path class="st0" d="M60.8,23.2c-0.1,0.1-0.1,0.2-0.2,0.3c0.1,0,0.1,0.1,0.2,0.1l0.4,1.4c0.1-0.1,0.2-0.2,0.3-0.3c0,0,0,0,0,0
			L60.8,23.2z"/>
		<path class="st0" d="M59,24.8v1.6h0c0.1,0,0.2-0.1,0.3-0.1l-0.1-1.6C59.2,24.7,59.1,24.8,59,24.8z"/>
		<path class="st0" d="M61.3,21.7c-0.1,0.4-0.2,0.8-0.4,1.1c0.1,0,0.1,0,0.2,0.1l0.6,1.4c0.4-0.5,0.7-1,0.8-1.7L61.3,21.7
			C61.3,21.7,61.3,21.7,61.3,21.7z"/>
		<path class="st0" d="M62.5,20.2C62.5,20.2,62.5,20.2,62.5,20.2c-0.1,0-0.1,0-0.2,0l-0.4-0.3c0,0.1-0.1,0.1-0.2,0.1c0,0,0,0-0.1,0
			c-0.1,0-0.2,0-0.3,0c-0.1,0-0.2,0-0.3,0l0.2,1.5l1.4,1.1l0.1-0.1L62.5,20.2C62.5,20.2,62.5,20.2,62.5,20.2z"/>
		<path class="st0" d="M60,14.5c-0.2-0.3-0.4-0.6-0.6-0.9c0,0,0,0,0,0L58,13.9c0,0,0,0,0,0c0.1,0.1,0.1,0.2,0.2,0.3
			c0.2,0.3,0.4,0.5,0.5,0.8c0-0.1,0.1-0.1,0.1-0.1L60,14.5z"/>
		<path class="st0" d="M59.1,13C59.1,13,59.1,13,59.1,13l-1.5,0.4c0.1,0.1,0.1,0.1,0.1,0.2c0-0.1,0.1-0.1,0.1-0.1l1.3-0.3
			C59.2,13.2,59.1,13.1,59.1,13z"/>
		<path class="st0" d="M57.9,11.3c-0.1-0.1-0.1-0.2-0.2-0.3c0,0,0,0,0,0l-1.6,0.4c0.1,0.1,0.2,0.2,0.3,0.4c0-0.1,0.1-0.2,0.2-0.2
			L57.9,11.3z"/>
		<path class="st0" d="M58.2,11.7C58.2,11.7,58.2,11.7,58.2,11.7L56.6,12c0,0,0,0,0,0c0,0,0,0-0.1,0c0.3,0.4,0.6,0.8,0.9,1.2
			c0,0,0.1-0.1,0.1-0.1l1.4-0.4C58.7,12.3,58.4,12,58.2,11.7z"/>
		<path class="st0" d="M61.4,17.4c0,0,0-0.1-0.1-0.1H60c0,0,0,0.1,0.1,0.1c0,0,0.1,0.1,0.1,0.1c0,0,0.1,0,0.1,0L61.4,17.4
			C61.5,17.5,61.4,17.4,61.4,17.4z"/>
		<path class="st0" d="M62.2,19.1c-0.2-0.4-0.4-0.9-0.5-1.3h-1.2c0.1,0.2,0.3,0.5,0.4,0.7l1.6,1.2C62.3,19.5,62.3,19.3,62.2,19.1z"
			/>
		<path class="st0" d="M60.3,14.9l-1.4,0.4c0,0-0.1,0-0.1,0c0,0.1,0.1,0.1,0.1,0.2c0,0,0.1,0,0.1,0l1.4-0.3
			C60.4,15.1,60.3,15,60.3,14.9z"/>
		<path class="st0" d="M60.6,15.6C60.6,15.6,60.6,15.6,60.6,15.6l-1.4,0.3c0.2,0.4,0.4,0.7,0.7,1.1c0,0,0.1-0.1,0.1-0.1h1.2
			C61,16.5,60.8,16,60.6,15.6z"/>
		<path class="st0" d="M56.9,10C56.9,10,56.9,10,56.9,10l-1.6,0.3c0.2,0.3,0.4,0.6,0.7,0.9c0,0,0,0,0.1,0l1.5-0.4
			C57.3,10.5,57.1,10.2,56.9,10z"/>
		<path class="st0" d="M46.3,59.5l-0.1,1.6c0.5-0.3,1-0.6,1.5-0.9l-0.3-1.4L46.3,59.5z"/>
		<path class="st0" d="M61.9,39.9c-0.1-0.6-0.4-1.1-0.7-1.6c0,0.1-0.1,0.1-0.2,0.1l-1,0.1c0,0,0,0,0,0c0,0,0,0,0,0l-0.2,0.3
			c0.3,0.3,0.5,0.6,0.6,0.9c0,0,0,0,0.1,0L61.9,39.9z"/>
		<path class="st0" d="M47.7,58.7l0.3,1.4c0.1-0.1,0.2-0.1,0.3-0.2l-0.4-1.3L47.7,58.7z"/>
		<path class="st0" d="M48.2,58.4C48.2,58.4,48.2,58.4,48.2,58.4l0.5,1.4c0.3-0.2,0.7-0.4,1-0.6l-0.4-1.4L48.2,58.4z"/>
		<path class="st0" d="M51.2,55.9c0.1,0,0.2,0,0.2,0.1l0.4,1.3c0.1-0.1,0.2-0.2,0.3-0.2l-0.5-1.5L51.2,55.9z"/>
		<path class="st0" d="M60.2,38c0,0,0.1,0.1,0.1,0.1l0.8-0.1c0,0,0,0,0,0c-0.3-0.4-0.7-0.7-1.2-1c0,0-0.1,0-0.1,0.1l-1,0.3
			c0,0,0,0,0,0c0,0,0,0-0.1,0l-0.2,0.2l1.2,0.7l0.2-0.3C60,38,60.1,38,60.2,38z"/>
		<path class="st0" d="M49.6,57.4l0.4,1.5c0,0,0,0,0,0l0.2-0.1c0,0,0,0,0,0l-0.6-1.4L49.6,57.4z"/>
		<path class="st0" d="M51.5,57.5l-0.4-1.4c0,0,0-0.1,0-0.1L50,57c0,0,0,0,0,0l0.6,1.4C50.9,58.1,51.2,57.9,51.5,57.5
			C51.5,57.6,51.5,57.6,51.5,57.5z"/>
		<path class="st0" d="M40.9,62.6c0.7,0,1.4-0.1,2.2-0.3c0,0,0,0,0,0l0.2-1.3c-0.4,0.1-0.7,0.2-1.1,0.3C41.4,61.4,41.1,62,40.9,62.6
			z"/>
		<path class="st0" d="M43.7,61l-0.2,1.3c0.1,0,0.1,0,0.2,0l0.2-1.4c-0.1,0-0.1,0.1-0.2,0.1C43.6,60.9,43.7,60.9,43.7,61z"/>
		<path class="st0" d="M41.1,61.3c-0.7-0.4-1.2-0.1-1.9,0.3c-0.2,0.1-0.4,0.2-0.6,0.3c0.6,0.4,1.2,0.7,1.8,0.8c0,0,0,0,0-0.1
			c0.2-0.4,0.4-0.9,0.8-1.2C41.2,61.3,41.2,61.3,41.1,61.3z"/>
		<path class="st0" d="M45.6,60C45.6,60.1,45.6,60.1,45.6,60l0,1.4c0.1,0,0.1-0.1,0.2-0.1c0,0,0,0,0,0l0.1-1.4
			C45.8,60,45.7,60,45.6,60z"/>
		<path class="st0" d="M44.2,60.8L44.1,62c0.4-0.1,0.8-0.3,1.1-0.4v-1.4c-0.3,0.2-0.7,0.3-1,0.4C44.2,60.7,44.2,60.7,44.2,60.8z"/>
		<path class="st0" d="M60.6,40.3C60.6,40.3,60.7,40.3,60.6,40.3l1.5,0.4c0-0.1,0-0.2,0-0.3c0,0,0,0,0,0l-1.5-0.2
			C60.6,40.2,60.6,40.2,60.6,40.3z"/>
		<path class="st0" d="M59.2,36.7l-0.1,0.1l0.3-0.1C59.3,36.8,59.3,36.8,59.2,36.7z"/>
		<path class="st0" d="M60.8,42.4C60.8,42.4,60.8,42.4,60.8,42.4l1.1,0.6c0,0,0-0.1,0-0.1c0,0,0,0-0.1,0L60.8,42.4z"/>
		<path class="st0" d="M59.4,46.2c0.1,0,0.1,0,0.2,0.1l0.7,1c0.2-0.4,0.4-0.7,0.6-1.1l-0.9-1C59.8,45.5,59.6,45.8,59.4,46.2z"/>
		<path class="st0" d="M60.7,40.7c0,0.4,0.1,0.7,0.1,1.1c0,0.1,0,0.1,0,0.2c0,0,0,0,0.1,0l1.1,0.6c0.1-0.5,0.1-1,0.1-1.5
			c0,0,0,0,0,0L60.7,40.7z"/>
		<path class="st0" d="M58,48.6l0.7,1.2c0-0.1,0.1-0.1,0.1-0.2l-0.8-1.1C58.1,48.5,58.1,48.5,58,48.6z"/>
		<path class="st0" d="M59.3,46.5c0,0.1-0.1,0.2-0.1,0.3c0,0,0.1,0,0.1,0.1l0.7,1c0-0.1,0.1-0.1,0.1-0.2c0,0,0,0,0,0L59.3,46.5z"/>
		<path class="st0" d="M60.7,42.8c-0.1,0.4-0.2,0.8-0.4,1.2c0,0,0.1,0,0.1,0.1l0.8,1.1c0,0,0-0.1,0.1-0.1c0.1-0.2,0.2-0.3,0.2-0.5
			c0.1-0.2,0.1-0.4,0.2-0.7c0-0.2,0.1-0.3,0.1-0.5c0,0,0,0-0.1,0L60.7,42.8z"/>
		<path class="st0" d="M51.9,55.4C51.9,55.4,52,55.4,51.9,55.4l0.6,1.5c0.3-0.2,0.6-0.5,0.9-0.7l-0.6-1.5L51.9,55.4z"/>
		<path class="st0" d="M60.1,44.7C60.1,44.8,60.1,44.8,60.1,44.7l1,1c0-0.1,0.1-0.1,0.1-0.2l-0.9-1.2C60.2,44.5,60.1,44.6,60.1,44.7
			z"/>
		<path class="st0" d="M55,54.2l-0.5-1.4c-0.3,0.3-0.6,0.6-0.8,0.9l0.5,1.6c0.3-0.3,0.6-0.6,0.9-1C55.1,54.4,55,54.3,55,54.2z"/>
		<path class="st0" d="M56.9,50.1c0.1,0,0.2,0,0.2,0.1l0.5,1.2c0.3-0.4,0.6-0.9,0.9-1.3l-0.7-1.2C57.5,49.3,57.2,49.7,56.9,50.1z"/>
		<path class="st0" d="M55,52.4c0,0.1-0.1,0.1-0.1,0.2c0,0,0,0,0.1,0.1l0.5,1.4c0,0,0,0,0,0c0,0,0.1-0.1,0.1-0.1L55,52.4
			C55,52.5,54.9,52.5,55,52.4z"/>
		<path class="st0" d="M53,54.4l0.6,1.5c0.1-0.1,0.2-0.2,0.3-0.3l-0.5-1.5L53,54.4z"/>
		<path class="st0" d="M56.7,52.3L56.2,51c-0.3,0.4-0.7,0.8-1.1,1.2c0.1,0,0.2,0,0.2,0.1l0.4,1.3c0.4-0.4,0.7-0.8,1.1-1.3
			C56.8,52.4,56.7,52.4,56.7,52.3z"/>
		<path class="st0" d="M56.7,50.4c-0.1,0.1-0.2,0.3-0.3,0.4c0,0,0.1,0,0.1,0.1l0.6,1.3c0.1-0.1,0.2-0.2,0.2-0.3L56.7,50.4
			C56.7,50.4,56.7,50.4,56.7,50.4z"/>
		<path class="st1" d="M59.4,36.3c-0.5-0.2-1-0.3-1.5-0.4c-0.2,0-0.5-0.1-0.7-0.1c-0.1,0-0.2,0.1-0.2,0.2c0,0.1,0.1,0.2,0.2,0.2
			c0.2,0.1,0.5,0.1,0.7,0.1c0.4,0.1,0.7,0.1,1.1,0.2l-0.7,0.8l-1.5-0.1c-0.1,0-0.2,0.1-0.2,0.2c0,0.1,0.1,0.2,0.2,0.2l1.5,0.1
			c0,0,0,0,0.1,0l1.3,0.8l-0.1,0.1c-0.1,0.1,0,0.2,0,0.3c0.9,0.7,0.9,1.7,0.9,2.8c0,0.2,0,0.4,0,0.7c0,0-0.1,0.1-0.1,0.1
			c-1.2,4.6-4.1,8.1-7.1,11.1c0,0,0,0.1,0,0.1l-0.6,0.4c0,0-0.1,0.1-0.1,0.2l-3.4,2.8c0,0,0,0.1-0.1,0.1l-1.8,1.2
			c0,0-0.1,0.1-0.1,0.1c0,0,0,0,0,0L46,59.3c-0.1,0-0.1,0.1-0.1,0.2l0,0.1c0,0-0.1,0-0.1,0c-0.2,0.1-0.3,0.1-0.5,0.2
			c-1.1,0.5-2.1,0.9-3.2,1.1c-0.3,0-0.5,0.1-0.7,0.3c0-0.1,0-0.2-0.1-0.3c-0.3-0.2-0.6-0.2-0.9-0.2c0,0,0-0.1-0.1-0.1
			c-1.2-0.7-1.8-1.8-2.5-3c-0.2-0.3-0.3-0.7-0.5-1c-0.1-0.1-0.2-0.1-0.3-0.1c-0.1,0.1-0.1,0.2-0.1,0.3c0.2,0.3,0.4,0.7,0.5,1
			c0.2,0.3,0.3,0.6,0.5,0.9h-1.5c0,0,0,0,0-0.1l-0.2-1.4c0-0.1-0.1-0.2-0.2-0.2c-0.1,0-0.2,0.1-0.2,0.2l0.2,1.4c0,0,0,0,0,0
			c-0.1,0-0.1,0-0.2,0.1c0,0.1,0,0.1,0,0.2l1.7,2.5c0,0,0.1,0.1,0.2,0.1c0,0,0.1,0,0.1,0l0.3,0.4c0,0.1,0.1,0.1,0.2,0.1
			c0,0,0.1,0,0.1,0c0,0,0,0,0,0c0,0,0,0.1,0.1,0.1c0.9,0.7,1.8,0.9,2.7,0.9c0.7,0,1.4-0.1,2.1-0.3c2.7-0.6,4.9-2.1,7.1-3.6l0.2-0.1
			c0.1,0,0.1-0.1,0.1-0.2c0,0,0,0,0,0c3.4-2.3,6.3-5.3,8.7-9.1c0,0,0,0,0-0.1c0.8-1.2,1.5-2.6,2.2-4c0-0.1,0-0.2,0-0.2l-0.1-0.1
			c0,0,0,0,0,0c0-0.1,0.1-0.2,0.1-0.2c0.1-0.2,0.2-0.4,0.3-0.6c0.1-0.2,0.1-0.4,0.2-0.7c0.3-1.2,0.6-2.4,0.4-3.7
			C62.1,38.4,61.1,37.1,59.4,36.3z M36.7,59.4l-0.2-0.4h1.8c0,0,0,0,0,0c0,0.1,0.1,0.1,0.1,0.2L36.7,59.4
			C36.7,59.4,36.7,59.4,36.7,59.4z M37.9,61.1C37.8,61.1,37.8,61.1,37.9,61.1l-1-1.3l1.7-0.2c0.2,0.3,0.4,0.5,0.7,0.8L37.9,61.1z
			 M38.3,61.6l-0.2-0.2l1.4-0.7c0,0,0,0,0.1,0c0.1,0.1,0.2,0.1,0.3,0.2c-0.3,0.1-0.5,0.2-0.8,0.4c-0.2,0.1-0.4,0.2-0.6,0.3
			C38.4,61.5,38.4,61.5,38.3,61.6z M40.5,62.6c-0.6-0.1-1.2-0.3-1.8-0.8c0.2-0.1,0.4-0.2,0.6-0.3c0.6-0.3,1.2-0.6,1.9-0.3
			c0,0,0.1,0,0.1,0C40.9,61.6,40.7,62.1,40.5,62.6C40.5,62.5,40.5,62.6,40.5,62.6z M43.1,62.3C43.1,62.3,43.1,62.3,43.1,62.3
			c-0.8,0.2-1.6,0.3-2.2,0.3c0.3-0.6,0.6-1.2,1.3-1.3c0.4-0.1,0.8-0.2,1.1-0.3L43.1,62.3z M43.7,62.2c-0.1,0-0.1,0-0.2,0l0.2-1.3
			c0,0,0-0.1,0-0.1c0.1,0,0.1-0.1,0.2-0.1L43.7,62.2z M45.2,61.6c-0.4,0.2-0.7,0.3-1.1,0.4l0.2-1.3c0,0,0-0.1,0-0.1
			c0.3-0.1,0.7-0.3,1-0.4V61.6z M45.8,61.4c-0.1,0-0.1,0.1-0.2,0.1v-1.4c0,0,0,0,0,0c0.1,0,0.2-0.1,0.3-0.1L45.8,61.4
			C45.8,61.3,45.8,61.3,45.8,61.4z M62,40.3c0,0.1,0,0.2,0,0.3l-1.4-0.4c0,0-0.1,0-0.1,0c0-0.1,0-0.1,0-0.2L62,40.3
			C62,40.3,62,40.3,62,40.3z M59.2,36.7c0,0,0.1,0,0.1,0.1l-0.3,0.1L59.2,36.7z M58.5,37.6l0.2-0.2c0,0,0,0,0.1,0c0,0,0,0,0,0l1-0.3
			c0,0,0.1,0,0.1-0.1c0.5,0.3,0.9,0.6,1.2,1c0,0,0,0,0,0l-0.8,0.1c0,0,0-0.1-0.1-0.1c-0.1-0.1-0.2,0-0.3,0l-0.2,0.3L58.5,37.6z
			 M60.4,39.7c-0.1-0.3-0.3-0.6-0.6-0.9l0.2-0.3c0,0,0,0,0,0c0,0,0,0,0,0l1-0.1c0.1,0,0.2-0.1,0.2-0.1c0.3,0.5,0.6,1,0.7,1.6
			L60.4,39.7C60.5,39.7,60.5,39.7,60.4,39.7z M46.2,61.2l0.1-1.6l1.1-0.6l0.3,1.4C47.2,60.6,46.7,60.9,46.2,61.2z M48,60.1l-0.3-1.4
			l0.1-0.1l0.4,1.3C48.2,60,48.1,60,48,60.1z M48.7,59.7l-0.5-1.4c0,0,0,0,0,0l1-0.7l0.4,1.4C49.3,59.3,49,59.5,48.7,59.7z
			 M50.2,58.7L50,58.8c0,0,0,0,0,0l-0.4-1.5l0.1-0.1L50.2,58.7C50.3,58.7,50.2,58.7,50.2,58.7z M50.6,58.4L50,57c0,0,0,0,0,0
			l1.1-0.9c0,0,0,0.1,0,0.1l0.4,1.4c0,0,0,0.1,0.1,0.1C51.2,57.9,50.9,58.1,50.6,58.4z M51.8,57.4l-0.4-1.3c0-0.1-0.1-0.2-0.2-0.1
			l0.4-0.3l0.5,1.5C52.1,57.2,51.9,57.3,51.8,57.4z M52.5,56.9L52,55.5c0,0,0-0.1-0.1-0.1l0.9-0.7l0.6,1.5
			C53,56.4,52.8,56.7,52.5,56.9z M53.6,55.9L53,54.4l0.3-0.3l0.5,1.5C53.8,55.7,53.7,55.8,53.6,55.9z M54.2,55.3l-0.5-1.6
			c0.3-0.3,0.6-0.6,0.8-0.9l0.5,1.4c0,0.1,0.1,0.1,0.2,0.1C54.8,54.7,54.5,55,54.2,55.3z M55.4,54.2C55.4,54.1,55.4,54.1,55.4,54.2
			l-0.5-1.5c0,0,0-0.1-0.1-0.1c0-0.1,0.1-0.1,0.1-0.2c0,0,0,0.1,0,0.1L55.4,54.2C55.4,54.1,55.4,54.1,55.4,54.2z M55.8,53.7
			l-0.4-1.3c0-0.1-0.1-0.2-0.2-0.1c0.4-0.4,0.7-0.8,1.1-1.2l0.6,1.3c0,0.1,0.1,0.1,0.1,0.1C56.5,52.9,56.1,53.3,55.8,53.7z
			 M57.1,52.1l-0.6-1.3c0,0,0-0.1-0.1-0.1c0.1-0.1,0.2-0.2,0.3-0.4c0,0,0,0,0,0l0.6,1.4C57.2,51.9,57.1,52,57.1,52.1z M57.6,51.5
			l-0.5-1.2c0-0.1-0.1-0.1-0.2-0.1c0.3-0.4,0.6-0.8,0.9-1.2l0.7,1.2C58.2,50.6,57.9,51,57.6,51.5z M58.7,49.8L58,48.6
			c0,0,0.1-0.1,0.1-0.1l0.8,1.1C58.8,49.6,58.8,49.7,58.7,49.8z M59.1,49.2l-0.7-1c0,0-0.1-0.1-0.1-0.1c0.2-0.3,0.4-0.7,0.6-1
			l0.8,1.1C59.5,48.6,59.3,48.9,59.1,49.2z M59.9,47.9l-0.7-1c0,0,0-0.1-0.1-0.1c0.1-0.1,0.1-0.2,0.1-0.3l0.8,1.1c0,0,0,0,0,0
			C60,47.7,59.9,47.8,59.9,47.9z M60.2,47.3l-0.7-1c0-0.1-0.1-0.1-0.2-0.1c0.2-0.3,0.3-0.7,0.5-1.1l0.9,1
			C60.7,46.5,60.5,46.9,60.2,47.3z M61,45.8l-0.9-1c0,0-0.1,0-0.1-0.1c0-0.1,0.1-0.2,0.1-0.4l0.9,1.2C61.1,45.6,61.1,45.7,61,45.8z
			 M61.7,43.8c-0.1,0.2-0.1,0.4-0.2,0.7c0,0.2-0.1,0.3-0.2,0.5c0,0,0,0.1-0.1,0.1L60.4,44c0,0,0,0-0.1-0.1c0.1-0.4,0.3-0.8,0.4-1.2
			l1,0.5c0,0,0,0,0.1,0C61.8,43.5,61.7,43.7,61.7,43.8z M61.9,43l-1.1-0.5c0,0,0-0.1,0-0.1l1,0.5C61.9,42.9,61.9,42.9,61.9,43
			C61.9,42.9,61.9,42.9,61.9,43z M62,42.5L60.9,42c0,0,0,0-0.1,0c0-0.1,0-0.1,0-0.2c0-0.4,0-0.7-0.1-1.1l1.4,0.4c0,0,0,0,0,0
			C62.1,41.5,62.1,42,62,42.5z"/>
		<path class="st1" d="M63.3,22.3l-0.4-2.2c0-0.1-0.1-0.1-0.1-0.1l0,0c0.1,0,0.1-0.1,0.1-0.2c-0.1-0.3-0.2-0.5-0.3-0.8
			c-0.3-0.6-0.5-1.2-0.8-1.8c-0.3-0.6-0.6-1.2-0.8-1.8c-0.1-0.3-0.3-0.6-0.4-0.8c0-0.1-0.1-0.1-0.2-0.1c-1.4-2.3-2.9-4.7-5.1-6.7
			c-0.3-0.3-0.7-0.6-1-0.9c-1.3-1.1-2.6-2.2-3.9-3.2c-1.5-1.1-3-2-4.5-2.6c-0.8-0.3-1.7-0.5-2.6-0.6c-0.4-0.1-0.9-0.1-1.3-0.2
			c-0.1,0-0.2,0-0.2,0.1l0,0.1c-1.2-0.1-2.1,0.3-2.7,1.2c0,0,0,0,0,0c-1.1,0.3-1.4,1.1-1.7,1.9C37,3.8,36.9,4,36.8,4.3
			c-0.1,0.3-0.1,0.3,0,0.4l0,0c0,0,0,0,0.1,0.1c0,0,0,0,0,0c-0.1,0-0.2,0.1-0.2,0.2L36.2,7c0,0.1,0.1,0.2,0.2,0.2c0,0,0,0,0,0
			c0.1,0,0.2-0.1,0.2-0.2l0.1-0.7c0,0,0,0,0.1,0h0.8c0.1,0,0.2-0.1,0.2-0.2c0-0.1-0.1-0.2-0.2-0.2h-0.8L37,5c0,0,0-0.1,0-0.1
			c0.2,0.2,0.5,0.5,1.2,0.9l0,0.2c0,0.1,0,0.2,0.1,0.2c0,0,0,0,0.1,0c0.1,0,0.2-0.1,0.2-0.1l0.3-1.3c0-0.1,0-0.1,0-0.2
			c0,0-0.1-0.1-0.1-0.1l1-1.3c2.3-1.5,4.6-0.7,6.6,0.3c0.3,0.2,0.6,0.3,0.9,0.4c0.1,0.1,0.3,0.1,0.4,0.2c0,0.1,0,0.1,0.1,0.2
			c2.9,1.7,5.2,4.1,7,6c0,0,0.1,0,0.1,0.1c0,0,0,0,0,0c0.3,0.4,0.6,0.8,1,1.2c0.7,0.9,1.4,1.9,2.1,2.8c0.7,1,1.3,2.1,1.9,3.1
			c0.3,0.4,0.5,0.9,0.7,1.2c0,0,0,0,0.1,0.1l0.2,0.1c0,0,0,0,0,0c-0.1,0-0.2,0.1-0.2,0.2c0,0.2,0.1,0.4,0.2,0.5c0,0,0,0.1,0,0.1
			l0.3,1.7c0,0,0,0.1,0.1,0.1l0,0c-0.1,0-0.1,0.1-0.2,0.2c-0.2,1.2-0.9,2.1-2.1,2.8l-0.2-0.1c-0.1,0-0.1,0-0.2,0l-1,0.8
			c-0.1,0.1-0.1,0.2,0,0.3s0.2,0.1,0.3,0l0.9-0.7h0v1.6c0,0-0.1,0-0.1,0l-2.1,0.1c-0.1,0-0.2,0.1-0.2,0.2c0,0.1,0.1,0.2,0.2,0.2
			l2.1-0.1c0.1,0,0.1,0,0.2-0.1c0,0,0,0,0,0c0,0,0.1,0,0.1,0c0,0,0,0,0,0c0.1,0,0.2-0.1,0.3-0.1c0.2-0.1,0.5-0.2,0.7-0.3
			c1.3-0.8,2.8-1.8,3.1-3.7l0.2-0.2C63.3,22.5,63.3,22.4,63.3,22.3z M38.3,5.4c-0.8-0.5-1.1-0.8-1.2-0.9c0,0,0,0,0,0
			c0.1-0.2,0.2-0.5,0.3-0.7c0.1-0.2,0.2-0.5,0.3-0.7l0.5,1.8c0,0.1,0.1,0.1,0.1,0.1L38.3,5.4z M38.5,4.2l-0.4-1.3
			c0-0.1-0.1-0.1-0.2-0.1c0.2-0.3,0.5-0.5,0.9-0.7l0.5,1c0,0,0,0,0,0.1L38.5,4.2z M40.8,2.4c-0.4,0.1-0.7,0.3-1.1,0.5l-0.5-1
			c0.4-0.6,0.9-0.9,1.6-1L40.8,2.4C40.8,2.3,40.8,2.3,40.8,2.4z M41.2,2.2C41.2,2.2,41.2,2.2,41.2,2.2l0-1.4c0.1,0,0.2,0,0.3,0
			l-0.3,1.2C41.2,2.1,41.2,2.2,41.2,2.2z M42.8,2.1c-0.4,0-0.8,0-1.2,0.1l0.3-1.3C42,0.8,42,0.8,42,0.7c0,0,0,0,0-0.1
			c0.4,0.1,0.8,0.1,1.1,0.2c0.1,0,0.2,0,0.4,0c0,0,0,0,0,0L42.8,2.1C42.8,2,42.8,2.1,42.8,2.1z M43.9,2.2l0.5-1c0-0.1,0-0.2-0.1-0.3
			c-0.1,0-0.2,0-0.3,0.1l-0.5,1.1c0,0,0,0,0,0c-0.1,0-0.2,0-0.3,0l0.6-1.1c0-0.1,0-0.1,0-0.2c0.7,0.1,1.3,0.2,1.8,0.5
			c0.2,0.1,0.3,0.1,0.5,0.2l-1.2,1C44.6,2.4,44.2,2.3,43.9,2.2z M45.7,2.8c-0.1-0.1-0.2-0.1-0.3-0.1l1.1-0.8c0.1,0,0.1-0.1,0.1-0.2
			c0.2,0.1,0.3,0.2,0.5,0.2L45.7,2.8C45.7,2.8,45.7,2.8,45.7,2.8z M47.1,3.5c-0.2-0.1-0.5-0.2-0.7-0.3c-0.1-0.1-0.2-0.1-0.4-0.2
			l1.1-0.7c0.1,0,0.1-0.1,0.1-0.2c0.3,0.2,0.7,0.4,1,0.6c0,0,0,0,0,0l-1,0.6C47.1,3.3,47.1,3.4,47.1,3.5z M47.7,3.8
			c-0.1,0-0.2-0.1-0.3-0.1c0,0,0,0,0,0l1-0.6c0.1,0,0.1-0.1,0.1-0.2c0.1,0.1,0.2,0.1,0.4,0.2c0,0,0,0-0.1,0L47.7,3.8
			C47.8,3.7,47.7,3.7,47.7,3.8z M49.1,4.7C49.1,4.7,49.1,4.7,49.1,4.7C48.7,4.5,48.4,4.3,48,4c0,0,0,0,0,0l1-0.6
			c0.1,0,0.1-0.1,0.1-0.2c0.3,0.2,0.7,0.4,1,0.7l-0.9,0.5C49.1,4.5,49,4.6,49.1,4.7z M49.5,5c-0.1-0.1-0.2-0.1-0.3-0.2
			c0,0,0.1,0,0.1,0c0,0,0.1,0,0.1,0l1-0.6c0,0,0,0,0,0c0.1,0.1,0.2,0.1,0.3,0.2L49.5,5C49.5,5,49.5,5,49.5,5z M50.8,6.1
			c-0.3-0.3-0.7-0.5-1-0.8L51,4.6c0.4,0.3,0.8,0.6,1.2,1L50.8,6.1C50.9,6,50.9,6,50.8,6.1z M51.2,6.3l1.3-0.4
			C52.6,6,52.7,6,52.7,6.1l-1.3,0.5C51.4,6.5,51.3,6.4,51.2,6.3z M53.3,8.3c-0.5-0.5-1-0.9-1.5-1.4l1.3-0.5c0.3,0.3,0.6,0.5,0.9,0.8
			c0.1,0.1,0.2,0.2,0.3,0.2c-0.1,0-0.3,0.1-0.3,0.3c0,0.1,0,0.2,0,0.3L53.3,8.3C53.3,8.2,53.3,8.2,53.3,8.3z M54.4,9.4
			C54.4,9.4,54.4,9.4,54.4,9.4c-0.3-0.3-0.5-0.5-0.8-0.8l0.7-0.3c0,0,0.1-0.1,0.1-0.1c0-0.1,0-0.1,0-0.2c-0.1-0.1-0.1-0.2-0.1-0.2
			c0,0,0.1-0.1,0.2-0.1c0,0,0.1,0,0.1,0c0.2,0.1,0.3,0.3,0.5,0.4c0.3,0.3,0.6,0.6,0.9,0.9L54.4,9.4z M54.7,9.7l1.5-0.4
			c0,0,0.1,0,0.1,0c0.1,0.1,0.2,0.3,0.3,0.4l-1.7,0.3C54.8,9.9,54.8,9.8,54.7,9.7z M55.9,11.1c-0.2-0.3-0.4-0.6-0.7-0.9l1.6-0.3
			c0,0,0,0,0,0c0.2,0.3,0.4,0.5,0.6,0.8L55.9,11.1C55.9,11.1,55.9,11.1,55.9,11.1z M56.4,11.8c-0.1-0.1-0.2-0.2-0.3-0.4l1.6-0.4
			c0,0,0,0,0,0c0.1,0.1,0.1,0.2,0.2,0.3l-1.4,0.3C56.5,11.6,56.4,11.7,56.4,11.8z M57.4,13.1c-0.3-0.4-0.6-0.8-0.9-1.2
			c0,0,0,0,0.1,0c0,0,0,0,0,0l1.5-0.3c0,0,0,0,0,0c0.2,0.3,0.5,0.7,0.7,1L57.4,13.1C57.5,13.1,57.4,13.1,57.4,13.1z M57.8,13.6
			c0-0.1-0.1-0.1-0.1-0.2l1.4-0.4c0,0,0,0,0,0c0,0.1,0.1,0.2,0.1,0.2l-1.3,0.3C57.9,13.5,57.8,13.6,57.8,13.6z M58.7,15
			c-0.2-0.3-0.3-0.6-0.5-0.8c-0.1-0.1-0.1-0.2-0.2-0.3c0,0,0,0,0,0l1.4-0.3c0,0,0,0,0,0c0.2,0.3,0.4,0.6,0.6,0.9l-1.2,0.3
			C58.8,14.9,58.7,15,58.7,15z M59,15.5c0-0.1-0.1-0.1-0.1-0.2c0,0,0.1,0,0.1,0l1.4-0.4c0,0.1,0.1,0.2,0.1,0.3L59,15.5
			C59,15.5,59,15.5,59,15.5z M59.9,16.9c-0.2-0.4-0.4-0.7-0.7-1.1l1.4-0.3c0,0,0,0,0,0c0.2,0.5,0.4,0.9,0.6,1.3H60
			C59.9,16.9,59.9,16.9,59.9,16.9z M60.2,17.5c0,0-0.1-0.1-0.1-0.1c0,0,0-0.1-0.1-0.1h1.3c0,0,0,0.1,0.1,0.1c0,0,0,0.1,0,0.1
			L60.2,17.5C60.2,17.5,60.2,17.5,60.2,17.5z M60.4,17.9h1.2c0.2,0.4,0.4,0.9,0.5,1.3c0.1,0.2,0.2,0.4,0.3,0.6l-1.6-1.2
			C60.7,18.3,60.6,18.1,60.4,17.9z M61,19.1C60.9,19.1,60.9,19.1,61,19.1l0.5,0.4c0,0,0,0,0,0C61.1,19.4,61,19.4,61,19.1z M59,26.4
			L59,26.4l0-1.6c0.1,0,0.1-0.1,0.2-0.1l0.1,1.6C59.2,26.3,59.1,26.3,59,26.4z M59.7,26.1l-0.1-1.5c0,0,0-0.1-0.1-0.1
			c0.3-0.2,0.6-0.5,0.9-0.8l0.5,1.5c0,0,0,0,0,0C60.5,25.6,60.1,25.9,59.7,26.1z M61.2,25l-0.4-1.4c0-0.1-0.1-0.1-0.2-0.1
			c0.1-0.1,0.1-0.2,0.2-0.3l0.7,1.5c0,0,0,0,0,0C61.4,24.8,61.3,24.9,61.2,25z M61.8,24.4L61.1,23c0-0.1-0.1-0.1-0.2-0.1
			c0.2-0.4,0.3-0.7,0.4-1.1c0,0,0,0,0,0l1.3,1C62.4,23.4,62.1,24,61.8,24.4z M62.7,22.3l-1.4-1.1l-0.2-1.5c0.1,0,0.2,0,0.3,0
			c0.1,0,0.2,0,0.3,0c0,0,0,0,0.1,0c0.1,0,0.1,0,0.2-0.1l0.4,0.3c0,0,0.1,0,0.1,0c0,0,0,0,0.1,0c0,0,0,0,0,0l0.4,2.1L62.7,22.3z"/>
		<path class="st1" d="M26.1,57.4c0-0.1-0.1-0.2-0.2-0.2c0-0.1-0.1-0.2-0.2-0.2L25,56.9c0.2-0.1,0.3-0.1,0.6-0.1c0.1,0,0.3,0,0.4,0
			c0.1,0,0.2-0.1,0.2-0.2c0-0.1-0.1-0.2-0.2-0.2c-0.1,0-0.2,0-0.3,0c-0.3,0-0.8,0-1.1,0.6c0,0.1,0,0.1,0,0.2c0,0,0,0,0,0.1l-0.2,1
			c0,0,0,0.1,0,0.1l0.1,0.2l-1.1,1.1c0,0-0.1,0.1,0,0.2l-1.3,0.6l-1.7,0.2c0,0-0.1,0-0.1,0.1l-0.5-0.3c0,0-0.1,0-0.2,0
			c0,0-0.1,0.1-0.1,0.1l0,0c0,0,0,0-0.1-0.1c-0.2,0-0.3-0.1-0.5-0.1c-0.4-0.1-0.7-0.2-1-0.3l-0.2-0.1c-1.6-0.8-3.3-1.6-4.6-2.9
			c-0.4-0.4-0.9-0.7-1.3-0.8c0-0.1,0-0.1,0-0.2l-4.6-5C7,51,6.9,51,6.8,51l-4.4-7c0,0,0-0.1,0-0.1c0-0.2,0-0.3,0-0.5
			c0-0.3,0-0.7-0.1-1.1c-0.1-0.3-0.1-0.6-0.3-0.8c0,0,0,0,0,0c0,0,0.1-0.1,0.1-0.1c0.1-0.1,0.3-0.2,0.3-0.4c0.1-1.1,0.8-1.7,1.8-2.4
			c0.4-0.3,0.8-0.4,1.3-0.6C5.7,38,6,37.9,6.2,37.8c0.1,0,0.2-0.2,0.1-0.3c-0.1-0.1-0.2-0.1-0.3-0.1c-0.2,0.1-0.4,0.2-0.6,0.3
			c-0.3,0.1-0.5,0.2-0.8,0.3l0.1-1.5c0.5-0.1,1.1,0,1.7,0.1c0.1,0,0.2,0,0.2-0.1c0-0.1,0-0.2-0.1-0.2c-1.6-0.5-3.1-0.1-4.3,1.1
			c0,0,0,0,0,0.1c0,0-0.1-0.1-0.1-0.1c-0.1,0-0.1,0.1-0.2,0.1l-0.3,0.5c0,0,0,0.1,0,0.2c-0.1,0-0.1,0-0.1,0
			c-1.5,1.2-1.6,3.8-0.3,6.9c0,0,0,0,0,0c0,0.1,0,0.1,0,0.2c1.4,3.2,3.3,6.1,5.5,8.6c0,0,0.1,0.1,0.2,0.1c0,0,0,0,0,0c0,0,0,0,0,0
			c0.3,0.3,0.7,0.7,1,1c0.7,0.8,1.5,1.6,2.3,2.2c2,1.6,4.1,3.2,6.6,4.3c0.4,0.2,0.9,0.3,1.3,0.5c0.2,0.1,0.4,0.2,0.7,0.2
			c0,0,0,0,0.1,0c0.1,0,0.1,0,0.2-0.1l0-0.1c0.5,0.5,1.1,0.6,1.7,0.6c0.4,0,0.8-0.1,1.1-0.1c2.2-0.3,3.7-1.6,4.4-3.7
			c0.1-0.4,0.1-0.8,0-1.2C26.1,57.7,26.1,57.5,26.1,57.4z M4.2,36.6l-0.1,1.6c0,0,0,0,0,0c-0.1,0-0.1,0.1-0.2,0.1c0,0,0,0,0,0
			c0,0,0-0.1,0-0.1l-0.1-1.5c0,0,0,0,0,0C4,36.7,4.1,36.7,4.2,36.6z M2.2,37.8c0,0,0.1,0,0.2,0c0.4-0.3,0.7-0.6,1.1-0.8l0.1,1.4
			c0,0.1,0.1,0.2,0.2,0.2c0,0,0,0,0,0c-0.3,0.2-0.6,0.5-0.9,0.8L2.2,37.8C2.2,37.8,2.2,37.8,2.2,37.8z M1.8,38.2l0.1-0.2l0.7,1.5
			c0,0,0,0,0,0c-0.1,0.1-0.1,0.1-0.2,0.2l-0.9-1.5C1.7,38.4,1.8,38.3,1.8,38.2z M1.4,38.7l0.9,1.4c0,0,0,0,0,0
			c-0.1,0.3-0.2,0.6-0.2,0.9c0,0-0.1,0.1-0.1,0.2c0,0,0,0,0,0C1.6,41,1.1,40.9,0.5,41C0.5,40.1,0.8,39.3,1.4,38.7z M0.7,43
			c-0.1-0.5-0.2-1.1-0.2-1.7c0,0,0,0,0,0c1-0.1,1.4,0.2,1.5,1.1c0,0.2,0.1,0.5,0.1,0.7L0.7,43C0.8,43,0.7,43,0.7,43z M0.9,43.5
			c0-0.1,0-0.1,0-0.2l1.3,0.2h0c0,0.1,0,0.1,0,0.2L0.9,43.5C0.9,43.5,0.9,43.5,0.9,43.5z M1.4,45C1.3,44.8,1.1,44.4,1,44l1.1,0.2
			l0.6,0.9L1.4,45C1.4,45.1,1.4,45.1,1.4,45z M1.7,45.7c0-0.1-0.1-0.1-0.1-0.2h1.3c0,0,0,0,0,0L3,45.7L1.7,45.7
			C1.7,45.7,1.7,45.7,1.7,45.7z M1.8,46.1h1.3c0,0,0.1,0,0.1,0L4,47.3c0,0,0,0,0,0l-1.3,0.4C2.4,47.1,2.1,46.6,1.8,46.1z M3,48.2
			c0-0.1-0.1-0.2-0.1-0.3l1.3-0.4c0,0,0.1,0,0.1-0.1l0.1,0.2c0,0-0.1,0-0.2,0L3,48.2C3,48.2,3,48.2,3,48.2z M3.8,49.6
			c-0.2-0.3-0.4-0.7-0.6-1l1.2-0.5c0.1,0,0.1-0.1,0.1-0.2l0.7,1.2c0,0,0,0,0,0l-1.3,0.4C3.8,49.5,3.8,49.5,3.8,49.6z M4.2,50.2
			C4.1,50,4,49.9,3.9,49.8c0,0,0,0,0,0c0,0,0,0,0.1,0l1.3-0.4c0,0,0.1,0,0.1-0.1l0.2,0.3L4.2,50.2C4.2,50.1,4.2,50.1,4.2,50.2z
			 M4.9,51.3c-0.2-0.3-0.4-0.5-0.6-0.8L5.7,50c0,0,0,0,0.1,0l0.7,1.1L4.9,51.3C5,51.3,5,51.3,4.9,51.3z M5.5,52
			c-0.1-0.1-0.2-0.2-0.3-0.4l1.6-0.2c0,0,0.1,0,0.1,0L7,51.6L5.5,52C5.5,52,5.5,52,5.5,52z M6.5,53.1C6.5,53.2,6.4,53.2,6.5,53.1
			c-0.3-0.2-0.6-0.5-0.8-0.8l1.6-0.5c0,0,0,0,0,0l0.8,0.8L6.5,53.1z M8.1,54.9c-0.3-0.3-0.5-0.6-0.8-0.8l1.3-0.4
			c0.1,0,0.2-0.1,0.1-0.2c0-0.1-0.1-0.2-0.2-0.1l-1.4,0.4c0,0-0.1,0-0.1,0.1c0,0,0,0-0.1,0c0,0,0,0,0,0c-0.1-0.1-0.1-0.2-0.2-0.3
			L8.2,53c0,0,0.1,0,0.1-0.1l1.4,1.5c-0.1,0-0.2,0-0.2,0.1l-0.3,0.4c0,0.1,0,0.1,0,0.2l-0.6,0.3C8.4,55.3,8.3,55.1,8.1,54.9z
			 M10,56.8c-0.4-0.3-0.8-0.7-1.2-1.1l0.8-0.4c0.1,0,0.1-0.1,0.1-0.2s0-0.1-0.1-0.2l0,0l0.2-0.2c0,0,0-0.1,0-0.1l1.5,1.6
			c-0.4,0-0.8,0.2-1.2,0.4C10.1,56.7,10,56.7,10,56.8z M10.6,57.3c-0.1-0.1-0.1-0.1-0.2-0.2c0,0-0.1-0.1-0.1-0.1c0,0,0.1,0,0.1,0
			c0.6-0.4,1.2-0.4,1.6-0.3L10.6,57.3C10.6,57.2,10.6,57.2,10.6,57.3z M12.2,58.5c-0.4-0.3-0.9-0.6-1.3-1l1.4-0.5c0,0,0.1,0,0.1,0
			c0.1,0.1,0.3,0.2,0.4,0.4c0.2,0.2,0.4,0.3,0.5,0.5l-1.1,0.6C12.2,58.4,12.2,58.4,12.2,58.5z M12.7,58.9c-0.1-0.1-0.2-0.1-0.3-0.2
			l1.2-0.6c0,0,0,0,0.1-0.1c0,0,0.1,0.1,0.1,0.1c0,0,0,0,0,0l-1,0.6C12.8,58.8,12.7,58.8,12.7,58.9z M14,59.7
			c-0.3-0.2-0.6-0.4-1-0.6c0,0,0,0,0,0l1-0.6c0,0,0.1-0.1,0.1-0.1c0.3,0.2,0.7,0.5,1,0.7L14,59.7C14,59.7,14,59.7,14,59.7z
			 M14.5,60.1c-0.1,0-0.2-0.1-0.2-0.1l1.1-0.7c0,0,0,0,0,0c0.1,0,0.2,0.1,0.3,0.1L14.5,60.1C14.6,60.1,14.6,60.1,14.5,60.1z
			 M15.9,60.9c-0.3-0.2-0.7-0.4-1-0.6l1.1-0.7c0,0,0-0.1,0.1-0.1c0.4,0.2,0.7,0.4,1.1,0.5L15.9,60.9C15.9,60.9,15.9,60.9,15.9,60.9z
			 M16.7,61.3c-0.1-0.1-0.2-0.1-0.4-0.2l1.2-0.8c0,0,0,0,0.1-0.1l0.1,0.1c0,0,0.1,0,0.1,0c0,0,0,0,0,0L16.7,61.3z M18.7,62
			c-0.2-0.1-0.3-0.1-0.5-0.2c-0.4-0.1-0.8-0.3-1.1-0.4l0.9-0.7c0.1,0,0.1-0.1,0.1-0.2c0.2,0.1,0.5,0.2,0.7,0.2
			c0.2,0,0.3,0.1,0.5,0.1c0,0,0,0,0,0L18.7,62z M19.3,62c-0.1,0-0.1-0.1-0.2-0.1l0.5-1l0.3,0.2l-0.6,0.8C19.3,61.9,19.3,62,19.3,62z
			 M19.5,62.2c0,0,0.1,0,0.1-0.1l0.8-1.1l1-0.1l-0.4,1.4c0,0,0,0.1,0,0.1C20.5,62.5,20,62.5,19.5,62.2z M21.9,62.3
			c-0.1,0-0.2,0-0.3,0c-0.1,0-0.1,0-0.2,0l0.5-1.5l0.2,0L21.9,62.3C21.9,62.3,21.9,62.3,21.9,62.3z M22.3,62.2l0.2-1.3
			c0,0,0-0.1-0.1-0.1l1.1-0.5l0.6,1.1C23.6,61.7,23,62,22.3,62.2z M24.5,61l-0.7-1.2l0.8-0.8l0.5,1.2C24.9,60.5,24.7,60.8,24.5,61z
			 M25.7,58.9c-0.1,0.3-0.2,0.6-0.4,0.9l-0.6-1.5l0.2-1l0.8,0.1h0c0,0,0,0,0,0c0,0.2,0,0.4,0.1,0.5C25.8,58.3,25.8,58.7,25.7,58.9z"
			/>
		<path class="st1" d="M26.4,2.8c-1.4-2.1-3-3-5.1-2.8c-0.3,0-0.7,0.1-1,0.2c-0.2,0-0.3,0.1-0.5,0.1c-0.1,0-0.1,0.1-0.2,0.2l0,0
			c0,0,0,0-0.1,0c-0.1,0-0.1,0-0.2,0.1c-0.1,0-0.2,0-0.3,0.1c0,0-0.1-0.1-0.2,0c-2,0.6-3.8,1.7-5.5,2.8l-0.1,0.1
			c-0.5,0.3-0.9,0.7-1.4,1c-0.2,0.2-0.5,0.3-0.7,0.5c-0.1,0-0.1,0.1-0.1,0.2l0,0L8.8,7C8.7,7.1,8.7,7.1,8.7,7.2l0,0c0,0,0,0-0.1,0
			l-3.3,3.5c0,0-0.1,0.1,0,0.2l0.1,0.1c-1,0.9-1.7,2.1-2.4,3.3c-0.3,0.4-0.5,0.9-0.8,1.3C2.1,16,2,16.2,1.9,16.4
			c0,0.1-0.1,0.2-0.1,0.2c0,0.1,0,0.2,0,0.2l0.1,0.1c-0.1,0-0.2,0.1-0.2,0.1c0,0.1-0.1,0.1-0.1,0.2c-0.1,0.1-0.2,0.3-0.1,0.4
			l-0.8,1.9c0,0.1,0,0.2,0.1,0.3l0.1,0.1c-1,2.2-0.1,5.2,1.8,6.4c0.3,0.2,0.6,0.3,0.9,0.5c0,0,0.1,0,0.1,0c0.1,0,0.1,0,0.2-0.1
			c0,0.1,0,0.1,0.1,0.2c0.3,0.3,0.7,0.3,1,0.3c0.4,0,0.7-0.1,1-0.2l0.1,0c0.1,0,0.2-0.1,0.1-0.2c0-0.1-0.1-0.2-0.2-0.1l-0.1,0
			c-0.6,0.2-1.2,0.3-1.8-0.1h0l0.4-0.6c0-0.1,0-0.1,0-0.2l0.1-0.1c0,0,0,0,0,0l0.2,0c0.7-0.2,1.1-0.3,1.4,0.5c0,0.1,0.1,0.1,0.2,0.1
			c0,0,0,0,0,0c0.1,0,0.2-0.1,0.1-0.2C6.3,25,5.6,25.1,5,25.2c0,0,0,0,0,0l-1.5-0.9c0,0,0,0-0.1,0c-0.1-0.2-0.1-0.3-0.2-0.5
			c-0.2-0.4-0.3-0.8-0.4-1.1c-0.5-1.4-0.1-2.9,0.4-4.2c0.8-2,2-4,3.6-6c0.6-0.7,1.3-1.4,1.9-2.2c0.3-0.3,0.6-0.7,0.9-1c0,0,0,0,0,0
			c0,0,0,0,0,0l0.5-0.4c0.4-0.4,0.8-0.7,1.3-1.1c0,0,0,0,0,0c0,0,0.1,0,0.1-0.1c1.9-1.6,3.8-3.1,6.1-4.3c0.1,0,0.1-0.1,0.1-0.2
			l0-0.1c0.1,0,0.1,0,0.2,0c0.2,0,0.3-0.1,0.5-0.2c0.2-0.1,0.3-0.2,0.5-0.3c0.3-0.2,0.5-0.3,0.7-0.3c0.8,0,1.4-0.2,1.8-0.5
			c0,0.1,0.1,0.1,0.1,0.2l1,0.4c0,0,0.1,0,0.1,0c0,0,0.1,0,0.1-0.1l0.1,0c0,0,0,0,0,0l0.4,0.3c0,0,0.1,0,0.1,0c0,0,0,0,0.1,0l0.1,0
			c0,0.1-0.1,0.2,0,0.2l2.2,3.2c0,0.1,0.1,0.1,0.2,0.1c0.1,0,0.1,0,0.1,0c0.1-0.1,0.1-0.2,0.1-0.3L25,4.3h1.7c0,0,0.1,0,0.1,0
			c0.1,0.4,0.1,0.8-0.2,1.3c-0.1,0.1,0,0.2,0.1,0.3c0,0,0.1,0,0.1,0c0.1,0,0.1,0,0.2-0.1C27.6,4.7,27,3.7,26.4,2.8L26.4,2.8z
			 M1,20.5l1.2,0.6c0,0.4,0,0.8,0.1,1.2L0.9,22c0,0-0.1,0-0.1,0C0.8,21.5,0.9,21,1,20.5z M1.2,20.1C1.2,20.1,1.2,20,1.2,20.1
			l1.1,0.4c0,0.1,0,0.1,0,0.2L1.2,20.1z M0.9,22.9c0-0.2-0.1-0.3-0.1-0.5l1.5,0.3c0,0,0,0,0,0c0,0.1,0,0.1,0,0.2c0,0,0,0,0,0
			L0.9,22.9C0.9,22.9,0.9,22.9,0.9,22.9z M2.6,23.3c0.1,0.2,0.2,0.5,0.3,0.7C3,24.1,3,24.3,3.1,24.4l-0.6,0.2
			c-0.1,0-0.2,0.2-0.1,0.3c0,0.1,0.2,0.2,0.3,0.1l0.7-0.3l1.1,0.6l-0.8,0.3c0,0-0.1,0.1-0.1,0.1c0,0.1,0,0.1,0,0.2l0.1,0.2
			c0,0,0,0,0,0c0,0-0.1,0-0.1,0.1c-0.3-0.1-0.5-0.3-0.7-0.4C2,25.4,1.3,24.4,1,23.3L2.6,23.3C2.5,23.3,2.6,23.3,2.6,23.3z M2.3,20.1
			l-1.3-0.6L1.7,18c0.2,0.2,0.4,0.5,0.6,0.7c0.1,0.1,0.2,0.2,0.3,0.3C2.5,19.3,2.4,19.7,2.3,20.1z M2.9,18.4c0,0.1,0,0.1-0.1,0.2
			c0,0-0.1-0.1-0.1-0.1c-0.3-0.3-0.6-0.6-0.8-0.9c0-0.1,0.1-0.1,0.1-0.2C2,17.3,2,17.2,2,17.2c0,0,0,0,0,0L2.9,18.4
			C2.9,18.3,2.9,18.4,2.9,18.4z M3,17.9l-0.9-1.2c0-0.1,0.1-0.1,0.1-0.1c0.1-0.2,0.2-0.4,0.3-0.6c0.1-0.1,0.1-0.2,0.2-0.3l0.8,1.1
			c0,0,0,0,0,0C3.3,17.2,3.2,17.5,3,17.9z M3.7,16.4L3,15.4c0,0,0,0,0,0c0-0.1,0.1-0.2,0.1-0.3l0.8,1.1C3.8,16.3,3.8,16.3,3.7,16.4z
			 M4.1,15.8l-0.7-1c0,0,0-0.1-0.1-0.1c0,0,0-0.1,0.1-0.1c0.2-0.3,0.3-0.6,0.5-0.9l0.8,1.1C4.4,15.2,4.2,15.5,4.1,15.8z M4.9,14.5
			l-0.7-1.1c0,0,0,0-0.1-0.1c0-0.1,0.1-0.2,0.2-0.2L5,14.4C4.9,14.4,4.9,14.5,4.9,14.5z M5.2,14l-0.7-1.2c0,0,0,0,0,0
			c0.3-0.4,0.7-0.9,1.1-1.2L6,12.9c0,0,0,0,0,0C5.7,13.3,5.5,13.7,5.2,14z M6.5,12.3c-0.1,0.1-0.1,0.2-0.2,0.3L5.7,11l0.2-0.2
			c0,0,0,0,0,0L6.5,12.3C6.5,12.3,6.5,12.3,6.5,12.3C6.5,12.3,6.5,12.3,6.5,12.3z M6.8,12l-0.5-1.3c0-0.1-0.1-0.1-0.1-0.1l1.1-1.2
			l0.4,1.2c0,0.1,0.1,0.1,0.2,0.1c0,0,0,0,0.1,0C8,10.7,8,10.5,8,10.4L7.5,9.1c0,0,0,0,0,0l0.2-0.2l0.4,1.5c0,0,0,0.1,0.1,0.1
			C7.7,11,7.3,11.5,6.8,12z M8.5,10.1C8.4,10.1,8.4,10.1,8.5,10.1L8,8.6c0,0,0,0,0-0.1l0.9-0.9l0.5,1.5C9,9.5,8.7,9.8,8.5,10.1z
			 M9.6,8.9L9.1,7.2L9.4,7l0.4,1.7L9.6,8.9z M10.1,8.4L9.7,6.8c0,0,0,0,0,0l0.9-0.7l0.6,1.4C10.8,7.8,10.5,8.1,10.1,8.4z M11.5,7.3
			l-0.5-1.4l0.3-0.2l0.3,1.2C11.5,7,11.6,7,11.7,7c0,0,0,0,0,0c0,0,0,0,0,0C11.7,7.1,11.6,7.2,11.5,7.3z M11.8,7c0,0,0-0.1,0-0.1
			l-0.3-1.6c0.2-0.1,0.4-0.3,0.6-0.4c0.1-0.1,0.2-0.2,0.3-0.3c0,0,0,0,0,0L13,6c0,0,0,0,0,0C12.6,6.3,12.2,6.6,11.8,7z M13.3,5.8
			l-0.4-1.3c0,0,0-0.1-0.1-0.1C12.9,4.3,13,4.2,13,4.2c0,0,0,0,0,0l0.5,1.4C13.4,5.7,13.4,5.7,13.3,5.8z M13.9,5.4l-0.4-1.3
			c0,0-0.1-0.1-0.1-0.1c0.1,0,0.1-0.1,0.2-0.1l0.1-0.1c0.3-0.2,0.5-0.3,0.8-0.5l0.5,1.4C14.5,4.9,14.2,5.1,13.9,5.4z M15.2,4.4
			l-0.4-1.3c0,0,0,0,0-0.1C14.8,3,14.9,2.9,15,2.9l0.4,1.3c0,0,0,0.1,0.1,0.1C15.3,4.3,15.3,4.4,15.2,4.4z M15.7,4.1l-0.4-1.4
			c0.5-0.3,1-0.6,1.5-0.8v1.5c0,0,0,0,0,0C16.4,3.6,16.1,3.9,15.7,4.1z M17.5,1.6l-0.1,1.6c-0.1,0-0.1,0.1-0.2,0.1V1.7
			c0,0,0,0,0-0.1C17.3,1.6,17.4,1.6,17.5,1.6C17.5,1.5,17.5,1.5,17.5,1.6z M18.8,2c0,0.1,0,0.3,0,0.4c0,0-0.1,0-0.1,0
			c-0.1,0.1-0.3,0.2-0.4,0.2c-0.1,0.1-0.3,0.1-0.4,0.1c0,0,0,0,0,0l0.1-1.2c0-0.1,0-0.2-0.1-0.2c0.4-0.2,0.8-0.3,1.1-0.4
			C18.8,1.3,18.8,1.6,18.8,2z M19.4,2.1c-0.1,0-0.2,0-0.3,0.1c0,0,0-0.1,0-0.1c0-0.4,0.1-0.7,0.2-1.1c0.1,0,0.2,0,0.2-0.1
			c0,0,0.1,0,0.1,0L19.4,2.1z M22.3,0.4c-0.1,0.1-0.1,0.2-0.2,0.3l0-0.3C22.1,0.4,22.2,0.4,22.3,0.4z M19.8,2.1L20,0.6
			c0.1,0,0.2-0.1,0.3-0.1c0.3-0.1,0.7-0.1,1-0.2c0.1,0,0.2,0,0.3,0c0,0,0,0,0,0l0.1,0.7c0,0,0,0,0,0C21.2,1.8,20.6,2.1,19.8,2.1z
			 M22.6,2.1l-0.9-0.4c0.4-0.4,0.7-0.8,1-1.2c0,0,0,0,0-0.1c0.6,0.1,1.2,0.4,1.8,0.8L22.6,2.1z M23.4,2.3l-0.2-0.1l1.5-0.7
			c0,0,0,0,0,0c0.1,0.1,0.2,0.2,0.3,0.3c0,0,0,0,0,0L23.4,2.3z M24.5,3.6l-0.6-0.9c0,0-0.1-0.1-0.1-0.1l1.4-0.5
			c0.1,0,0.1-0.1,0.1-0.1c0.3,0.3,0.5,0.7,0.8,1l0.1,0.1c0,0,0,0.1,0.1,0.1l-1.6,0.3C24.5,3.5,24.5,3.5,24.5,3.6z M24.9,4
			c-0.1,0-0.1,0-0.1,0.1l-0.1-0.2l1.7-0.3c0,0,0,0,0,0c0.1,0.1,0.1,0.3,0.2,0.4H24.9z"/>
	</g>
	<circle class="st0" cx="31.4" cy="31.5" r="25.9"/>
	<g>
		<g>
			<defs>
				<circle id="SVGID_1_" cx="31.6" cy="33.3" r="18.5"/>
			</defs>
			<clipPath id="SVGID_2_">
				<use xlink:href="#SVGID_1_"  style="overflow:visible;"/>
			</clipPath>
			<g class="st2">
				<path class="st3" d="M38,33c-1.4,0-1.6,0.3-1.7,1.8c1.3,0,2.5,0,3.7,0c0.5,0,1.1-0.1,1.6-0.3c0.3-0.1,0.4-0.5,0.6-0.8
					c-0.3-0.2-0.5-0.5-0.7-0.5C40.4,33,39.2,33,38,33z"/>
				<path class="st3" d="M38.8,29.8c-0.1,0-0.2,0.1-0.3,0.1c0,0.5,0,1.1,0,1.6c0.3,0,0.6,0,0.9,0C39.2,30.8,39,30.3,38.8,29.8z"/>
				<path class="st3" d="M43.5,33.8c0,0.2,0.3,0.6,0.5,0.7c0.8,0.2,2-0.5,1.9-1.2c0-0.4-0.4-0.9-0.6-1.1
					C44.2,32,43.6,32.7,43.5,33.8z"/>
				<path class="st4" d="M49.9,32.7c0.1-0.3,0.2-0.6,0.3-0.9c-0.3,0-0.7-0.1-1,0.1c-0.3,0.2-0.5,0.5-0.7,0.8
					c-0.3,0.5-1.4,0.7-1.7,0.3c-0.5-0.6-0.9-1.2-1.4-1.8c0.6-1,0.6-1,0.3-1.4c-0.4,0.4-0.9,0.8-1.3,1.2c-1.6-0.9-1.6-0.9-2.1-0.5
					c0.3,0.2,0.5,0.4,0.7,0.7c0.2,0.2,0.5,0.4,0.7,0.6c-1.3,1.4-2.3,1.3-2.8,0c-0.9-0.2-0.9-0.2-1.1-1.2c-0.4-1.4-0.4-1.4-1.8-1.1
					c-0.2,0.8-0.4,1.5-0.6,2.5c-0.8-0.9-0.1-2-0.8-2.6c-0.3,1.7-0.7,3.4-1,5c-0.1,0.7-0.3,0.9-0.9,0.6c-0.3-2.2-0.3-4.3,1.6-6
					c0.2-0.2,0.3-0.4,0.4-0.6c0.1-0.2,0-0.4,0-0.6c-2.6,2-3.2,4.5-2.6,7.5c-1,0-1.9,0-2.7,0c0.2-0.5,0.3-0.8,0.4-1.2
					c-0.4,0-0.8,0-1.3,0c0.3-0.5,0.4-0.9,0.6-1.2c0.9-1,1.9-2,2.7-2.9c0.2-0.2,0.3-0.5,0.4-0.8c-0.1,0-0.1,0-0.2-0.1
					c-1.1,1-2.2,2.1-3.4,3.2c-0.1-1.3-0.2-2.5-0.3-3.7c-0.2,0-0.3,0-0.4,0c0,1.2,0,2.3,0,3.8c-1.1-1-2.1-1.8-3-2.6
					c-0.1,0-0.2,0.1-0.3,0.1c0.1,0.3,0.1,0.7,0.3,0.9c0.8,0.8,1.7,1.5,2.6,2.3c0.3,0.3,0.5,0.6,0.9,1.1c-0.6,0-0.9,0-1.3,0
					c0.2,0.5,0.3,0.9,0.4,1.4c-1.1,0-2.2,0-3.3,0c0-1.3,0-2.4,0-3.6c0-0.3-0.3-0.5-0.4-0.8c-0.1,0-0.2,0.1-0.3,0.1
					c0,1.1-0.1,2.3,0,3.4c0.1,0.9-0.4,1.1-1.1,0.9c-0.9-0.3-1.8-0.7-2.8-1.1c1-0.7,2-1.4,2.9-2.1c0.2-0.2,0.3-0.5,0.4-0.7
					c-0.1,0-0.2-0.1-0.3-0.1c-1,0.6-2,1.3-3.1,2c-0.1-1.5-0.1-2.8-0.3-4.2c0-0.3-0.2-0.5-0.3-0.8c-0.1,0-0.3,0.1-0.4,0.1
					c0,1.9,0,3.8,0,5.8c-1.2,0-2.3,0-3.4,0c-0.1-1.3-0.1-2.5-0.2-3.8c-0.1,0-0.3,0-0.4,0c0,1.2,0,2.4,0,3.7c-1.4,0-2.5,0-3.8,0
					c0.3,0.7,0.6,1.4,1,1.9c0.2,0.3,0.6,0.5,0.9,0.6c0.9,0.3,1.8,0.6,2.7,0.9c0,0.1,2,0.3,2.5,0c2-1.1,4-1,6.1-0.4
					c1.6,0.5,3.2,0.4,4.8-0.3c1.6-0.8,3.4-0.9,5.1-0.5c1.9,0.4,3.7,0.4,5.5-0.3c1.3-0.5,2.7-0.8,4-0.1c1.4,0.7,2.7,0.7,4.1,0.5
					c0.2,0,0.5-0.3,0.5-0.5c0-0.8-0.2-1.7-0.2-2.5C49.8,33.3,49.9,33,49.9,32.7z M38.5,29.9c0.1,0,0.2-0.1,0.3-0.1
					c0.2,0.5,0.4,1.1,0.6,1.7c-0.4,0-0.7,0-0.9,0C38.5,30.9,38.5,30.4,38.5,29.9z M41.6,34.4c-0.5,0.2-1.1,0.3-1.6,0.3
					c-1.2,0-2.4,0-3.7,0c0-1.4,0.3-1.8,1.7-1.8c1.2,0,2.3,0.1,3.5,0.2c0.3,0,0.5,0.3,0.7,0.5C42.1,33.9,41.9,34.3,41.6,34.4z
					 M44,34.5c-0.2-0.1-0.5-0.5-0.5-0.7c0.1-1.1,0.7-1.8,1.9-1.6c0.1,0.3,0.5,0.7,0.6,1.1C46,33.9,44.8,34.6,44,34.5z"/>
				<path class="st5" d="M17.4,37.9c-1.2,0.1-2.4-0.1-3.3,1c1.3-0.6,2.3,0,3.4,0.4c1.4,0.6,2.7,0.6,4.1,0c1.4-0.6,2.9-0.7,4.5-0.2
					c1.7,0.6,3.5,0.7,5.2-0.3c1.5-0.8,3.1-1,4.7-0.4c1.4,0.5,2.9,0.5,4.4-0.1c1.8-0.6,3.5-0.8,5.4-0.1c0.9,0.3,2,0.3,3.1,0.5
					c0.7,0.1,1-0.3,0.9-0.8c-1.3-0.3-2.5-0.6-3.7-0.9c-0.5-0.1-1.1-0.2-1.6-0.1c-2.3,0.7-4.7,1.1-7,0.4C35.7,37,34,37.2,32.3,38
					c-1,0.5-2.5,0.5-3.6,0.2c-2-0.6-3.8-0.5-5.6,0.2c-1.8,0.7-3.3,0.6-4.6-0.3c0,0-0.1,0-0.1,0C18.2,38,17.4,37.9,17.4,37.9z"/>
				<path class="st5" d="M38,44.7c-2.3,0.6-4.5,0.6-6.7-0.1c-1.5-0.5-2.9-0.2-4.4,0.3c-1.1,0.3-2.3,0.5-3.4,0.4
					c-1.2-0.1-2.4-0.6-3.6-0.9c-0.9-0.2-2-0.1-3.1-0.2c0.3,0.7,0.5,1,0.7,1.4c2.1-0.7,4-0.2,5.9,0.5c1.8,0.7,3.7,0.8,5.4,0
					c2.1-1,4.1-0.8,6.2-0.1c1.6,0.6,3.2,0.7,4.8,0c1.9-0.8,3.7-0.8,5.7-0.4c0.7,0.2,1-0.1,1.2-0.7c-1.3-0.1-2.7,0-3.8-0.4
					C41,44.1,39.5,44.3,38,44.7z"/>
				<path class="st5" d="M42.9,39.6c-1.9,0.9-3.7,0.7-5.6,0.2c-1.1-0.3-2.4-0.4-3.3,0c-2.1,1-4.1,0.8-6.2,0.3
					c-1.3-0.3-2.8-0.4-3.9,0c-1.9,0.8-3.6,0.9-5.5,0.2c-1.2-0.5-2.5-0.5-3.7,0c0.1,0.3,0.2,0.6,0.3,0.9c1.9-0.8,3.6-0.5,5.3,0.1
					c1.4,0.5,2.9,0.6,4.2,0c1.8-0.8,3.6-0.8,5.4-0.3c1.7,0.5,3.4,0.6,5.2-0.1c1.6-0.6,3.2-0.6,4.9-0.1c1.1,0.3,2.5,0.3,3.6,0
					c1.9-0.6,3.7-1.2,5.7-0.5c0,0,0,0,0.1-0.1C47.2,39.1,45.1,38.6,42.9,39.6z"/>
				<path class="st5" d="M42.3,42.3c-0.7-0.2-1.5-0.3-2.2-0.6c-1.1-0.3-2-0.1-3,0.3c-0.9,0.4-1.9,0.7-2.8,0.7
					c-1.1,0-2.2-0.4-3.3-0.6c-1.4-0.3-2.7-0.4-4.1,0.3c-1.3,0.7-2.8,1-4.3,0.6c-1-0.3-2-0.7-3.1-0.9c-1.2-0.3-2.5-0.3-3.6,0.5
					c1.5-0.4,2.8,0.1,4,0.7c1.9,0.9,3.9,0.9,5.8,0.2c1.8-0.8,3.5-0.7,5.3,0c1.3,0.5,2.7,0.7,4,0.1c1.9-0.9,3.7-0.9,5.6-0.3
					c1.4,0.4,2.8,0.6,4.3-0.1c0.6-0.3,1.4-0.4,2.1-0.3c1.1,0.1,1.3-0.5,1.5-1.5c-0.8,0.2-1.5,0.3-2.1,0.6
					C45.1,42.7,43.7,42.7,42.3,42.3z"/>
				<path class="st5" d="M35,47.2c-1.5-0.5-3-0.4-4.6,0.3c-1,0.5-2.3,0.6-3.4,0.6c-0.9,0-1.8-0.6-2.7-0.8c-1.5-0.4-3.1-0.6-4.6,0
					c1.2,0.4,2.4,0.6,3.5,1.2c2.1,1,4.2,1.2,6.3,0.1c1.5-0.7,3-0.8,4.5,0c1.6,0.8,3.5,1,5.2,0.4c1.3-0.5,2.5-0.8,3.8-0.8
					c0.8,0,1.2-0.5,1.8-1.3c-1,0.2-1.8,0.1-2.4,0.4C39.9,48.3,37.4,48,35,47.2z"/>
			</g>
		</g>
	</g>
	<g>
		<g>
			<path class="st4" d="M31.7,57.8C17.2,57.8,5.4,46,5.4,31.5C5.4,17,17.2,5.2,31.7,5.2S58,17,58,31.5S46.2,57.8,31.7,57.8z M31.7,6
				C17.6,6,6.1,17.4,6.1,31.5s11.5,25.6,25.6,25.6s25.6-11.5,25.6-25.6S45.8,6,31.7,6z"/>
		</g>
		<g>
			<path class="st4" d="M31.7,51.6c-11.1,0-20-9-20-20s9-20.1,20-20.1s20,9,20,20.1C51.7,42.6,42.7,51.6,31.7,51.6z M31.7,12.2
				c-10.6,0-19.3,8.6-19.3,19.3s8.6,19.3,19.3,19.3S51,42.1,51,31.5S42.3,12.2,31.7,12.2z"/>
		</g>
	</g>
	<g>
		<g>
			<path class="st6" d="M26,13.1l-1.1-7c0,0,6.4-2.1,13.8,0l-1.2,7C37.4,13.1,32.3,11.2,26,13.1z"/>
			<path class="st6" d="M37.5,49.9l1.1,7c0,0-6.4,2.1-13.8,0l1.2-7C26,49.9,31.2,51.8,37.5,49.9z"/>
		</g>
		<g>
			<path class="st6" d="M13.3,37.3l-7,1.1c0,0-2.1-6.4,0-13.8l7,1.2C13.3,25.8,11.3,31,13.3,37.3z"/>
			<path class="st6" d="M50.1,25.7l7-1.1c0,0,2.1,6.4,0,13.8l-7-1.2C50.1,37.2,52.1,32,50.1,25.7z"/>
		</g>
	</g>
	<polygon points="30.8,13.1 31.3,13.6 32,13.5 31.7,14.2 32,14.8 31.3,14.7 30.8,15.2 30.7,14.5 30,14.1 30.7,13.8 	"/>
	<g>
		<path class="st5" d="M11.4,39.1c0.1,0.2,0.2,0.3,0.3,0.6c0.2,0.4,0.2,0.7,0.1,1c-0.1,0.3-0.3,0.5-0.7,0.6c-0.3,0.2-0.7,0.2-1,0
			c-0.3-0.1-0.5-0.4-0.7-0.8c-0.1-0.2-0.1-0.4-0.2-0.5L11.4,39.1z M9.6,40.2c0,0.1,0.1,0.2,0.1,0.3c0.3,0.6,0.7,0.8,1.3,0.5
			c0.5-0.2,0.7-0.6,0.5-1.2c-0.1-0.1-0.1-0.3-0.2-0.3L9.6,40.2z"/>
		<path class="st5" d="M11.8,42.8L11.4,42l-0.8,0.4l0.5,0.9l-0.2,0.1l-0.6-1.2l2.1-1.1l0.6,1.1l-0.2,0.1l-0.5-0.9l-0.7,0.3l0.4,0.8
			L11.8,42.8z"/>
		<path class="st5" d="M13.1,42.6c0.1,0.1,0.2,0.3,0.3,0.5c0.2,0.3,0.2,0.5,0.2,0.7c0,0.2-0.1,0.3-0.3,0.4c-0.2,0.1-0.3,0.2-0.5,0.1
			c-0.2,0-0.4-0.2-0.6-0.5c-0.1-0.1-0.1-0.2-0.1-0.2l-0.8,0.5l-0.2-0.3L13.1,42.6z M12.3,43.5c0,0.1,0.1,0.1,0.1,0.2
			c0.2,0.3,0.5,0.4,0.7,0.2c0.3-0.2,0.3-0.4,0.1-0.7c-0.1-0.1-0.1-0.2-0.2-0.2L12.3,43.5z"/>
		<path class="st5" d="M12.9,45.1l-0.7,0.3l-0.2-0.3l2.4-0.8l0.2,0.3l-1.4,2l-0.2-0.3l0.4-0.6L12.9,45.1z M13.5,45.6l0.4-0.6
			c0.1-0.1,0.2-0.3,0.3-0.3l0,0c-0.1,0.1-0.3,0.1-0.4,0.2L13.1,45L13.5,45.6z"/>
		<path class="st5" d="M15.2,45.5c0.1,0.1,0.3,0.3,0.4,0.4c0.2,0.2,0.3,0.4,0.3,0.6c0,0.2-0.1,0.3-0.2,0.4c-0.2,0.2-0.5,0.2-0.7,0.1
			l0,0c0.1,0.2,0,0.4-0.1,0.6c-0.2,0.3-0.3,0.5-0.4,0.6L14.2,48c0-0.1,0.1-0.3,0.3-0.5c0.2-0.3,0.2-0.4,0-0.7l-0.2-0.2l-0.8,0.7
			l-0.2-0.2L15.2,45.5z M14.6,46.5l0.2,0.2c0.2,0.2,0.5,0.3,0.7,0.1c0.2-0.2,0.2-0.4,0-0.7c-0.1-0.1-0.2-0.2-0.2-0.2L14.6,46.5z"/>
		<path class="st5" d="M16.6,47.3L16,46.9l0.2-0.2l1.3,1.2l-0.2,0.2l-0.5-0.5l-1.4,1.5l-0.2-0.2L16.6,47.3z"/>
		<path class="st5" d="M18.4,50.2c0.2-0.3,0.4-0.6,0.6-0.8l0,0c-0.2,0.2-0.5,0.3-0.8,0.5l-1,0.7L17,50.4l0.4-1.1
			c0.1-0.3,0.2-0.6,0.3-0.9l0,0c-0.2,0.2-0.4,0.5-0.7,0.8L16.4,50l-0.2-0.2l1.6-1.8l0.3,0.2l-0.4,1.1c-0.1,0.3-0.2,0.5-0.3,0.8l0,0
			c0.2-0.2,0.4-0.3,0.7-0.5l1-0.6l0.3,0.2l-1.3,2l-0.2-0.2L18.4,50.2z"/>
		<path class="st5" d="M20.2,51.3l-0.8-0.5l-0.4,0.7l0.9,0.5l-0.1,0.2l-1.1-0.7l1.2-2l1.1,0.7l-0.1,0.2l-0.8-0.5l-0.4,0.6l0.8,0.5
			L20.2,51.3z"/>
		<path class="st5" d="M20.1,52.5l1-2.1l0.3,0.2l0.2,1.4c0,0.3,0,0.6,0,0.9l0,0c0.1-0.3,0.2-0.6,0.4-0.9l0.4-0.9l0.3,0.1l-1,2.1
			l-0.3-0.1l-0.1-1.4c0-0.3-0.1-0.6,0-0.9h0c-0.1,0.3-0.2,0.5-0.4,0.9l-0.4,0.9L20.1,52.5z"/>
		<path class="st5" d="M23.5,51.8l-0.7-0.3l0.1-0.2l1.6,0.6l-0.1,0.2l-0.7-0.3l-0.8,2l-0.3-0.1L23.5,51.8z"/>
	</g>
	<g>
		<path class="st5" d="M11.9,18.6l-0.2,0L11.5,19c-0.1,0-0.2-0.1-0.3-0.1c-0.1,0-0.2,0-0.3,0.1c-0.1,0.1-0.2,0.1-0.3,0.3
			c-0.1,0.1-0.2,0.2-0.3,0.4c0,0-0.1,0.1-0.1,0.1c0,0.1-0.1,0.1-0.1,0.2c0,0.1-0.1,0.1-0.1,0.2S10,20.3,10,20.4
			c0,0.1-0.1,0.1-0.1,0.2s-0.1,0.1-0.1,0.1c-0.1,0-0.1,0.1-0.2,0.1c-0.1,0-0.1,0-0.2,0c0,0,0,0-0.1,0l-0.1,0.1c0,0,0,0,0,0
			c0,0,0,0,0.1,0c0.1,0.1,0.2,0.1,0.3,0.1c0.1,0,0.2,0,0.3-0.1c0.1,0,0.2-0.1,0.2-0.2c0.1-0.1,0.2-0.2,0.2-0.3
			c0.1-0.1,0.1-0.2,0.1-0.3c0-0.1,0.1-0.2,0.1-0.2c0-0.1,0.1-0.1,0.1-0.2c0-0.1,0.1-0.1,0.1-0.2c0-0.1,0.1-0.1,0.1-0.2
			c0-0.1,0.1-0.1,0.1-0.1c0,0,0.1-0.1,0.1-0.1c0,0,0.1,0,0.1,0c0,0,0.1,0.1,0.1,0.1l-0.1,0.2l0,0l-1.1,2.3l0,0l-0.2,0.5
			c0,0.1-0.1,0.1-0.1,0.2c0,0.1,0,0.1,0,0.2c0,0.1,0,0.1,0,0.2c0,0.1,0,0.1,0,0.2c0,0.1,0.1,0.2,0.1,0.2c0,0.1,0.1,0.2,0.2,0.2
			c0.1,0.1,0.1,0.1,0.2,0.2c0.1,0.1,0.2,0.1,0.3,0.1c0.1,0.1,0.3,0.1,0.4,0.1c0.1,0,0.2,0,0.3,0s0.2,0,0.3-0.1
			c0.1,0,0.1-0.1,0.2-0.1c0.1-0.1,0.1-0.1,0.2-0.2c0-0.1,0.1-0.1,0.1-0.2c0-0.1,0-0.1,0-0.2c0-0.1,0-0.1,0-0.1c0,0,0-0.1-0.1-0.1
			c0,0-0.1,0-0.1-0.1c0,0-0.1,0-0.1,0c0,0-0.1,0-0.1,0c0,0-0.1,0.1-0.1,0.1c0,0,0,0.1-0.1,0.1c0,0.1,0,0.2,0,0.3
			c0,0.1,0.1,0.1,0.2,0.1l0,0c0,0.1-0.1,0.1-0.2,0.2c-0.1,0-0.1,0.1-0.2,0.1c-0.1,0-0.2,0-0.2,0c-0.1,0-0.2,0-0.2-0.1
			c-0.2-0.1-0.3-0.2-0.4-0.3c-0.1-0.1-0.2-0.3-0.3-0.5c0-0.1,0-0.1-0.1-0.2c0-0.1,0-0.1,0-0.2c0-0.1,0-0.1,0-0.2
			c0-0.1,0-0.2,0.1-0.2l0.1-0.4l0,0l0.8-1.6l1.2,0.6c-0.1,0-0.3,0-0.4,0.1c-0.1,0-0.2,0.1-0.3,0.2c-0.1,0.1-0.2,0.1-0.2,0.2
			c-0.1,0.1-0.1,0.1-0.1,0.2c0,0.1-0.1,0.2-0.1,0.2c0,0.1,0,0.2,0,0.2c0,0.1,0,0.1,0.1,0.2c0,0.1,0.1,0.1,0.1,0.1c0,0,0.1,0,0.1,0
			c0.1,0,0.1,0,0.1,0c0,0,0.1-0.1,0.1-0.1c0,0,0.1-0.1,0.1-0.2c0,0,0-0.1,0-0.1c0-0.1,0-0.1,0-0.1c0,0,0-0.1,0-0.1
			c0,0-0.1-0.1-0.1-0.1c-0.1,0-0.1,0-0.2,0c0-0.1,0.1-0.1,0.2-0.2c0.1-0.1,0.1-0.1,0.2-0.2c0.1,0,0.2-0.1,0.3-0.1c0.1,0,0.2,0,0.3,0
			c0.1,0,0.2,0,0.3,0s0.2,0,0.3,0.1l0.1-0.1l-2-1l0.2-0.4l0,0l0.1-0.2l1.8,1.1l0.2-0.1l-2-1.1L11.9,18.6z"/>
		<rect x="12.8" y="18.9" transform="matrix(0.545 -0.8384 0.8384 0.545 -9.8281 19.8591)" class="st5" width="1.2" height="0.3"/>
		<path class="st5" d="M17.1,14.9c-0.1,0-0.1,0-0.2,0.1s-0.1,0.1-0.1,0.2c0,0.1,0,0.1,0,0.2c0,0,0.1,0.1,0.2,0.1
			c0.1,0,0.1,0,0.2-0.1c0.1-0.1,0.1-0.1,0.1-0.2c0-0.1,0-0.1,0-0.2C17.3,14.9,17.2,14.9,17.1,14.9z"/>
		<path class="st5" d="M23.2,8.8l-0.2-0.1l-2.2,1.1l0,0l-2.2,1.4l0,0l-1.8,1.4l0,0l-1.7,1.6l0,0l-0.3,0.3l-0.3,0
			c0-0.2,0-0.5,0.1-0.6c0.1-0.2,0.2-0.4,0.3-0.5c0.1-0.1,0.2-0.2,0.3-0.2c0.1-0.1,0.2-0.1,0.3-0.2c0.1,0,0.2-0.1,0.3-0.1
			c0.1,0,0.2-0.1,0.3-0.1L16,12.6c-0.2,0-0.3,0.1-0.4,0.1c-0.1,0-0.2,0.1-0.4,0.1c-0.1,0-0.2,0.1-0.3,0.2c-0.1,0.1-0.2,0.2-0.3,0.2
			c-0.1,0.1-0.2,0.2-0.2,0.3c-0.1,0.1-0.1,0.2-0.1,0.3c0,0.1-0.1,0.2-0.1,0.4c0,0.1,0,0.3,0,0.4l0.5,0l-0.2,0.3l-0.1,0l-0.3,0.3
			c0,0-0.1,0-0.1,0c0,0-0.1,0-0.1,0c0,0-0.1,0-0.1,0c0,0-0.1,0-0.1,0l0.8,0.6c-0.1,0-0.2,0-0.3,0c-0.1,0-0.2,0-0.3,0.1
			c-0.1,0-0.2,0.1-0.3,0.2c-0.1,0.1-0.2,0.2-0.3,0.3c-0.1,0.1-0.1,0.2-0.2,0.3c0,0.1-0.1,0.2-0.1,0.4c0,0.1,0,0.2,0,0.3
			c0,0.1,0.1,0.2,0.1,0.2c0,0,0.1,0,0.1,0.1c0,0,0.1,0,0.1,0c0,0,0.1,0,0.1,0c0,0,0,0,0.1-0.1c0,0,0-0.1,0.1-0.1c0,0,0-0.1,0-0.1
			c0,0,0-0.1,0-0.1c0,0,0-0.1,0.1-0.1c0,0,0.1-0.1,0.1-0.1c0.1,0,0.1,0,0.1,0c0,0,0,0.1,0,0.2c0,0.1,0,0.3,0,0.5l0.3-0.2l0-1.4
			c0,0,0.1,0,0.1,0c0,0,0.1,0,0.1,0c0,0,0.1,0,0.1,0c0,0,0.1,0,0.1,0l1,0.8l0.3-0.1l-1.8-1.4l0.3-0.4l0.1,0l0.2-0.2l1.6,1.4l0.3,0
			L15,14.6l0.4-0.4l0,0l1-1l0.1,0.1l-0.6,1.5l0.4,0c0.1-0.1,0.3-0.2,0.4-0.2c0.1-0.1,0.3-0.1,0.4-0.1c0.1,0,0.3,0,0.4,0
			c0.1,0,0.3,0.1,0.4,0.2l0.1,0l-1.6-1.6l0.4-0.3l0,0l1.2-1l0.1,0.1l-0.7,1.5l0.4,0.1c0.1-0.1,0.3-0.2,0.4-0.2
			c0.1,0,0.3-0.1,0.4-0.1s0.3,0,0.4,0.1c0.1,0,0.3,0.1,0.4,0.2l0.1,0l-1.4-1.8l0.4-0.3l0,0l0.6-0.4c0.1,0,0.1,0,0.2,0
			c0.1,0,0.1,0,0.1,0c0,0-0.1,0.1-0.1,0.2c0,0.1-0.1,0.1-0.1,0.2c0,0.1,0,0.1-0.1,0.2c0,0.1,0,0.1,0,0.2c0,0,0,0.1,0.1,0.1
			c0,0,0.1,0,0.1,0c0,0,0.1,0,0.1,0c0,0,0.1,0,0.1-0.1c0,0,0.1-0.1,0.1-0.1c0,0,0.1-0.1,0.1-0.2c0-0.1,0-0.1,0-0.2
			c0-0.1,0-0.1-0.1-0.2c0,0,0,0,0,0c0,0,0,0,0,0c0,0,0,0,0,0c0,0,0,0,0,0c0.1-0.1,0.3-0.1,0.4-0.1c0.1,0,0.2,0.1,0.3,0.2
			c0,0,0.1,0.1,0.1,0.2s0,0.2-0.1,0.3c0,0.1-0.1,0.2-0.2,0.3c-0.1,0.1-0.2,0.2-0.4,0.3c-0.1,0-0.2,0.1-0.2,0.1
			c-0.1,0-0.2,0.1-0.3,0.1l0.6,0.2c0.1-0.1,0.3-0.1,0.4-0.2c0.2,0,0.3-0.1,0.5-0.1c0.2,0,0.3,0,0.5,0c0.2,0,0.4,0,0.5,0L22,12.2
			c-0.2,0-0.4,0-0.7,0c-0.2,0-0.5,0-0.8,0c0.1-0.1,0.2-0.2,0.3-0.4c0.1-0.1,0.1-0.2,0.1-0.3c0-0.1,0-0.2,0-0.3c0-0.1,0-0.2-0.1-0.2
			c0-0.1-0.1-0.1-0.2-0.2c-0.1,0-0.2-0.1-0.3-0.1c-0.1,0-0.2,0-0.3,0c-0.1,0-0.2,0.1-0.4,0.2l-0.2-0.1l1.3-0.9l0,0l1.6-0.8l0.6,1.2
			c-0.1-0.1-0.2-0.1-0.4-0.2c-0.1,0-0.2-0.1-0.3-0.1c-0.1,0-0.2,0-0.3,0c-0.1,0-0.2,0.1-0.2,0.1c-0.1,0-0.1,0.1-0.2,0.1
			c-0.1,0.1-0.1,0.1-0.1,0.2s-0.1,0.1-0.1,0.2c0,0.1,0,0.1,0,0.2c0,0,0.1,0.1,0.1,0.1c0,0,0.1,0.1,0.1,0.1c0.1,0,0.1,0,0.2,0
			c0.1,0,0.1,0,0.2-0.1c0,0,0.1,0,0.1-0.1c0,0,0.1-0.1,0.1-0.1c0,0,0-0.1,0-0.1c0,0,0-0.1,0-0.1c0-0.1-0.1-0.1-0.2-0.2
			c0.1,0,0.2-0.1,0.2-0.1c0.1,0,0.2,0,0.3,0c0.1,0,0.2,0,0.3,0.1c0.1,0,0.2,0.1,0.3,0.1c0.1,0.1,0.2,0.1,0.2,0.2
			c0.1,0.1,0.1,0.2,0.2,0.2l0.1,0l-1-2L23.2,8.8z M14,16.8c-0.1,0-0.2,0-0.3,0c-0.1,0-0.1,0.1-0.2,0.2c0,0.1-0.1,0.1-0.1,0.2
			c0,0.1,0,0.1-0.1,0.2c0-0.1-0.1-0.2-0.1-0.3c0-0.1,0-0.2,0-0.2c0-0.1,0-0.1,0.1-0.2c0-0.1,0.1-0.1,0.1-0.2
			c0.1-0.1,0.1-0.2,0.2-0.2c0.1-0.1,0.2-0.1,0.3-0.1L14,16.8z M16.7,13.5l0.8,0.9c-0.1,0-0.2,0-0.3,0c-0.1,0-0.2,0-0.3,0
			c-0.1,0-0.2,0-0.3,0.1c-0.1,0-0.2,0.1-0.3,0.1L16.7,13.5z M18.4,12.1l0.8,1C19,13,18.9,13,18.9,13c-0.1,0-0.2,0-0.3,0
			c-0.1,0-0.2,0-0.3,0c-0.1,0-0.2,0-0.3,0.1L18.4,12.1z"/>
		<path class="st5" d="M45.7,12.4l0-0.2l-0.5-0.3l0-0.3c0.3,0,0.5,0,0.7,0c0.2,0.1,0.4,0.2,0.7,0.3c0.1,0.1,0.2,0.2,0.3,0.3
			c0.1,0.1,0.2,0.2,0.3,0.3c0.1,0.1,0.1,0.2,0.2,0.3c0.1,0.1,0.1,0.2,0.2,0.4l0.1-0.1c-0.1-0.2-0.1-0.3-0.2-0.4
			c-0.1-0.1-0.1-0.3-0.2-0.4S47,12,46.9,11.9c-0.1-0.1-0.2-0.2-0.3-0.3c-0.1-0.1-0.3-0.2-0.4-0.2c-0.1-0.1-0.3-0.1-0.4-0.1
			c-0.1,0-0.3,0-0.4-0.1c-0.1,0-0.3,0-0.5,0l0.1,0.5l-0.3-0.2l0-0.1l-3.6-2.1l0.1,0.2l0.9,0.5c0,0,0.1,0,0.1,0.1
			c0,0,0.1,0.1,0.1,0.1c0,0,0,0.1,0.1,0.1c0,0,0,0.1,0.1,0.1c-0.1,0-0.1,0-0.2,0c-0.1,0-0.1,0-0.2,0c-0.1,0-0.1,0-0.1,0
			c0,0-0.1,0.1-0.1,0.1c0,0,0,0.1,0,0.1c0,0,0,0.1,0,0.1c0,0,0.1,0.1,0.1,0.1c0,0,0.1,0.1,0.1,0.1c0.1,0,0.1,0.1,0.2,0.1
			c0.1,0,0.1,0,0.1,0c0,0,0.1,0,0.1,0c0,0,0.1,0,0.1-0.1c0,0,0-0.1,0-0.2c0,0,0.1,0,0.1,0c0.1,0,0.1,0.1,0.2,0.1
			c0,0.1,0.1,0.1,0.1,0.2c0,0.1,0,0.1,0,0.2c0,0.1,0,0.1,0,0.2c0,0.1-0.1,0.1-0.1,0.1c-0.1,0-0.1,0.1-0.2,0.1c-0.1,0-0.2,0-0.3,0
			c-0.1,0-0.2-0.1-0.3-0.1c-0.1-0.1-0.2-0.2-0.3-0.3c-0.1-0.1-0.2-0.2-0.3-0.4c-0.1-0.2-0.1-0.3-0.2-0.5c0-0.2,0-0.4,0-0.6l-0.1-0.1
			c0,0.1,0,0.2-0.1,0.4c0,0.1,0,0.3,0,0.4c0,0.1,0,0.3,0.1,0.4c0,0.1,0.1,0.3,0.1,0.4c0.1,0.1,0.2,0.2,0.3,0.4
			c0.1,0.1,0.2,0.2,0.4,0.3c0.2,0.1,0.4,0.2,0.6,0.2c0.2,0,0.4,0,0.5-0.1c0.1,0.1,0.1,0.2,0.1,0.3c0,0.1,0,0.2,0.1,0.3
			c0,0.1,0,0.2,0,0.3c0,0.1,0,0.2-0.1,0.2l0.1,0.2l1.2-2l0.4,0.3l0,0.1l0.3,0.2l-1.2,1.7l0.1,0.3l1.3-1.8L45.7,12.4z M43.3,12.4
			c0,0,0-0.1,0-0.1c0-0.1,0-0.1,0-0.2c0-0.1,0-0.1,0-0.2c0-0.1,0-0.1-0.1-0.2c0-0.1,0.1-0.2,0-0.4c0-0.1,0-0.2-0.1-0.3
			c-0.1-0.1-0.1-0.2-0.2-0.3c-0.1-0.1-0.2-0.1-0.2-0.2l0,0l-0.1-0.3l1.5,0.9L43.3,12.4z"/>
		<path class="st5" d="M48.8,15.5c-0.1,0-0.2-0.1-0.3-0.1c-0.1,0-0.2-0.1-0.4-0.1c-0.1,0-0.3,0-0.4-0.1c-0.1,0-0.3,0-0.4,0l0.8-0.8
			l1.7,1.8l0-0.2l-2.1-2.1l0,0l0,0l0,0l0,0l-0.5-0.4l-0.3,0.3c0,0-0.1,0-0.1,0c-0.1,0-0.1,0-0.2-0.1c-0.1,0-0.1,0-0.2-0.1
			c-0.1,0-0.1-0.1-0.1-0.1c0,0-0.1-0.1-0.1-0.1c0,0-0.1-0.1-0.1-0.1c0,0,0-0.1-0.1-0.1c0,0,0-0.1,0-0.2c0,0,0,0,0,0c0,0,0,0,0,0
			c0,0,0.1,0.1,0.1,0.1c0,0,0.1,0,0.1,0c0,0,0.1,0,0.1,0c0,0,0,0,0.1,0c0,0,0-0.1,0-0.2c0-0.1-0.1-0.1-0.1-0.2c0,0-0.1-0.1-0.2-0.1
			c-0.1,0-0.1,0-0.2,0c0,0-0.1,0-0.1,0c0,0-0.1,0-0.1,0.1c0,0-0.1,0.1-0.1,0.1c0,0.1,0,0.1,0,0.2c0,0.1,0.1,0.1,0.1,0.2
			c0,0.1,0.1,0.1,0.2,0.2c0,0,0.1,0.1,0.1,0.1l-1-0.3l0.1,0.4c0.1,0.1,0.1,0.1,0.2,0.2c0.1,0.1,0.1,0.1,0.2,0.2
			c0,0.1,0.1,0.2,0.1,0.2c0,0.1,0.1,0.2,0.1,0.2c0,0.1,0.1,0.2,0.1,0.3c0,0.1,0,0.2,0,0.2c0,0.1,0,0.1,0,0.2c0,0,0,0.1,0,0.1l0,0.2
			l1.4-1.7l0.5,0.4l0,0l0.2,0.2l-0.9,0.9l0.1,0.4c0.1,0,0.2,0,0.3,0c0.1,0,0.2,0,0.3,0c0.1,0,0.2,0,0.3,0c0.1,0,0.2,0.1,0.3,0.1
			c-0.1,0-0.2,0.1-0.3,0.1c-0.1,0-0.1,0.1-0.2,0.2c-0.1,0.1-0.2,0.3-0.3,0.5c-0.1,0.2-0.2,0.4-0.2,0.6l0.1,0.1
			c0-0.1,0.1-0.2,0.1-0.2c0-0.1,0.1-0.1,0.1-0.2c0-0.1,0.1-0.1,0.1-0.2c0-0.1,0.1-0.1,0.2-0.2c0.1-0.1,0.1-0.1,0.2-0.2
			c0.1,0,0.1-0.1,0.2-0.1c0.1,0,0.2-0.1,0.3-0.1c0.1,0,0.2,0,0.3,0L48.8,15.5z M46,14.8c0-0.1,0-0.3,0-0.4c0-0.1-0.1-0.2-0.1-0.3
			c0-0.1-0.1-0.2-0.1-0.3c-0.1-0.1-0.1-0.2-0.2-0.3l1.2,0.4L46,14.8z"/>
		<path class="st5" d="M51.1,20.9c-0.1,0-0.1,0-0.2,0c-0.1,0-0.1,0.1-0.1,0.2c0,0.1,0,0.2,0.1,0.2c0,0.1,0.1,0.1,0.2,0.2
			c0.1,0,0.1,0,0.2,0c0.1,0,0.1-0.1,0.1-0.2c0-0.1,0-0.2-0.1-0.2C51.2,21,51.1,20.9,51.1,20.9z"/>
		<path class="st5" d="M52.4,19.3L52.4,19.3l-0.5-0.7c0,0,0-0.1,0.1-0.1c0,0,0-0.1,0.1-0.1c0,0,0-0.1,0.1-0.1c0,0,0-0.1,0-0.1
			l-0.8,0.6c0-0.1,0-0.2,0-0.3c0-0.1,0-0.2,0-0.3c0-0.1,0-0.2-0.1-0.3c0-0.1-0.1-0.2-0.2-0.3c-0.1-0.1-0.2-0.2-0.3-0.3
			c-0.1-0.1-0.2-0.1-0.3-0.2c-0.1,0-0.2,0-0.3,0c-0.1,0-0.2,0-0.2,0.1c0,0,0,0,0,0.1s0,0,0,0.1c0,0,0,0.1,0,0.1c0,0,0,0.1,0,0.1
			c0,0,0.1,0.1,0.1,0.1c0,0,0.1,0,0.1,0.1c0,0,0.1,0,0.1,0.1c0,0,0.1,0,0.1,0.1c0,0.1,0.1,0.1,0.1,0.2c0,0.1,0,0.1-0.1,0.1l-0.4-0.2
			L50,18l1.2,0.5c0,0.1,0,0.2-0.1,0.3c0,0.1-0.1,0.1-0.1,0.2l-0.4,0.3c0-0.1-0.1-0.1-0.1-0.2c-0.1-0.1-0.2-0.2-0.3-0.3
			c-0.1,0-0.2,0-0.3,0c0,0-0.1,0.1-0.1,0.1c0,0,0,0.1,0,0.1c0,0,0,0.1,0,0.1c0,0.1,0.1,0.1,0.1,0.2c0.1,0.1,0.1,0.1,0.2,0.1
			c0.1,0,0.1,0,0.2,0c0,0,0.1-0.1,0.1-0.1c0.1,0.1,0.1,0.2,0.1,0.3c0,0.1,0,0.2-0.1,0.2c0,0-0.1,0-0.2,0.1c-0.1,0-0.1,0-0.2,0
			c-0.1,0-0.2-0.1-0.2-0.2c-0.1-0.1-0.2-0.2-0.3-0.3c-0.1-0.1-0.1-0.2-0.2-0.3c0-0.1-0.1-0.2-0.1-0.3c0-0.1,0-0.2-0.1-0.3
			c0-0.1,0-0.2,0-0.2c0-0.1,0-0.2,0-0.3c0-0.1,0-0.3,0.1-0.4c0-0.2,0.1-0.3,0.2-0.5c0.1-0.2,0.2-0.4,0.3-0.5l0-0.2
			c-0.1,0.1-0.2,0.3-0.3,0.5c-0.1,0.2-0.2,0.3-0.2,0.5c-0.1,0.2-0.1,0.4-0.2,0.6c0,0.2,0,0.4,0,0.6c0,0.2,0,0.3,0.1,0.5
			c0.1,0.2,0.2,0.4,0.3,0.6c0.1,0.2,0.2,0.3,0.3,0.3c0.1,0.1,0.2,0.1,0.3,0.1c0.1,0,0.2,0,0.3,0c0.1,0,0.2,0,0.2-0.1
			c0,0,0.1,0,0.1-0.1c0,0,0-0.1,0.1-0.1c0,0,0-0.1,0-0.1c0,0,0-0.1,0-0.2l1.1-0.8L52.4,19.3l-0.1,0.2l0.9,1.6L53,21.1L51.6,20
			l-0.1,0.4c0.1,0.2,0.1,0.3,0.2,0.5c0,0.2,0.1,0.3,0,0.5c0,0.2,0,0.3-0.1,0.5c-0.1,0.1-0.1,0.3-0.2,0.4l0,0.2l2-1.1l0.3,0.6
			l0.1-0.2L52.4,19.3z M50.4,17.9c0,0,0.1-0.1,0.1-0.1c0,0,0-0.1,0-0.1c0,0,0-0.1,0-0.1c0,0,0-0.1-0.1-0.1c0,0-0.1-0.1-0.1-0.1
			c0.1,0,0.1,0,0.2,0c0.1,0,0.1,0,0.2,0.1c0.1,0,0.1,0.1,0.2,0.1c0,0,0.1,0.1,0.1,0.1c0,0.1,0.1,0.1,0.1,0.2c0,0.1,0.1,0.1,0.1,0.2
			c0,0.1,0,0.1,0,0.1c0,0,0,0.1,0,0.1L50.4,17.9z M51.7,21.9c0-0.1,0.1-0.2,0.1-0.3c0-0.1,0-0.2,0-0.3c0-0.1,0-0.2,0-0.3
			c0-0.1,0-0.3-0.1-0.4l1,0.8L51.7,21.9z"/>
	</g>
	<g>
		<path class="st5" d="M17.1,21.8l-0.2,0.1l-0.2,0.4c0,0-0.1,0-0.1,0c0,0-0.1,0-0.1,0c0,0-0.1,0-0.1,0c0,0-0.1,0-0.1,0l0.5,0.3
			c0,0-0.1,0-0.1,0c0,0-0.1,0-0.1,0c0,0-0.1,0-0.1,0.1s-0.1,0.1-0.1,0.1l0,0.1l-0.1,0L15.4,25l0.2-0.1l0.6-1.4l0.1,0l0,1.6l0.3-0.2
			c0.1-0.1,0.2-0.3,0.2-0.4c0.1-0.1,0.2-0.2,0.3-0.3c0.1-0.1,0.2-0.1,0.3-0.2c0.1,0,0.2-0.1,0.4-0.1l0.1-0.1l-1.6-0.7l0.2-0.4l0.1,0
			l0-0.1c0,0,0,0,0.1-0.1c0,0,0.1,0,0.1-0.1c0,0,0.1,0,0.1,0c0,0,0.1,0,0.1,0l1.2,0.7l0.2-0.1l-1.6-0.9L17.1,21.8z M16.4,23.6
			l0.9,0.4c-0.1,0-0.2,0.1-0.2,0.1c-0.1,0-0.2,0.1-0.2,0.1c-0.1,0.1-0.1,0.1-0.2,0.2c-0.1,0.1-0.1,0.2-0.2,0.2L16.4,23.6z"/>
		<path class="st5" d="M19.3,21.5c-0.1,0-0.2,0-0.2,0.1c-0.1,0-0.2,0.1-0.3,0.1c-0.1,0-0.2,0.1-0.3,0.1c-0.1,0-0.2,0.1-0.3,0.1
			c-0.1,0-0.2,0.1-0.2,0.1l0.1,0.2c0.1-0.1,0.3-0.2,0.4-0.2c0.1-0.1,0.3-0.1,0.4-0.2c0.1-0.1,0.2-0.1,0.4-0.2c0.1,0,0.2-0.1,0.4-0.1
			l-0.1-0.1C19.4,21.5,19.4,21.5,19.3,21.5z"/>
		<path class="st5" d="M17.4,21.8c0,0,0.1,0,0.1,0s0.1,0,0.2,0c0.1,0,0.1-0.1,0.2-0.1c0.1,0,0.1-0.1,0.1-0.2c0-0.1,0.1-0.1,0.1-0.2
			c0-0.1,0-0.2,0-0.2c0-0.1,0-0.1,0-0.2c0-0.1-0.1-0.1-0.1-0.1c0,0-0.1,0-0.1,0c0,0-0.1,0-0.1,0c-0.1,0-0.1,0.1-0.2,0.1
			c-0.1,0-0.1,0.1-0.1,0.2c-0.1,0.1-0.1,0.2-0.1,0.2c0,0.1,0,0.2,0,0.2c0,0.1,0,0.1,0,0.2C17.3,21.7,17.4,21.8,17.4,21.8z
			 M17.5,21.2c0-0.1,0-0.1,0.1-0.2c0,0,0-0.1,0.1-0.1c0,0,0,0,0.1,0s0,0,0.1,0c0,0,0,0,0.1,0c0,0,0.1,0.1,0.1,0.1c0,0,0,0.1,0,0.2
			c0,0.1,0,0.1,0,0.2c0,0.1,0,0.1-0.1,0.2c0,0.1-0.1,0.1-0.1,0.1c-0.1,0-0.1,0-0.1,0c0,0,0,0-0.1-0.1c0,0,0-0.1,0-0.1
			C17.5,21.3,17.5,21.3,17.5,21.2z"/>
		<path class="st5" d="M27.9,14l-0.2-0.1l-0.4,0.1c0,0,0,0-0.1-0.1c0,0,0-0.1-0.1-0.1c0,0-0.1,0-0.1-0.1c0,0-0.1,0-0.1,0l0.3,0.7
			c0,0-0.1,0-0.2-0.1c-0.1,0-0.1,0-0.2-0.1c-0.1,0-0.1,0-0.2,0c-0.1,0-0.1,0-0.2,0c-0.1,0-0.1,0.1-0.2,0.2c-0.1,0.1-0.1,0.2-0.2,0.3
			c0,0-0.1-0.1-0.1-0.1c0,0-0.1,0-0.1-0.1c-0.1,0-0.1,0-0.2,0c-0.1,0-0.1,0-0.2,0L25,14.9l0,0l-2.3,1.2l0,0L21,17.3l0,0l-0.3,0.2
			c0,0,0,0-0.1,0c0,0-0.1,0-0.1-0.1c0,0-0.1,0-0.1,0c0,0-0.1,0-0.1,0l0.4,0.4c0,0-0.1,0-0.1,0c0,0-0.1,0-0.1,0c0,0-0.1,0-0.1,0
			c0,0-0.1,0-0.1,0.1l-0.1,0l-0.1,0L18,20.2l0.2,0l1.5-1.6l0.3,0.3c0,0-0.1,0-0.1,0c0,0-0.1,0-0.1,0c0,0-0.1,0-0.1,0.1
			c0,0-0.1,0.1-0.1,0.1c0,0,0,0.1-0.1,0.1c0,0,0,0.1,0,0.1c0,0,0,0.1,0,0.1c0,0,0,0.1,0.1,0.1c-0.1,0-0.2,0-0.2,0.1
			c-0.1,0-0.1,0-0.2,0.1c-0.1,0-0.1,0.1-0.1,0.1c0,0-0.1,0.1-0.1,0.1c-0.1,0.1-0.1,0.1-0.2,0.2c0,0.1-0.1,0.2-0.1,0.2
			c0,0.1,0,0.1,0,0.2c0,0.1,0.1,0.1,0.1,0.2c0.1,0.1,0.1,0.1,0.2,0.1c0.1,0,0.2,0,0.2,0c0.1,0,0.2-0.1,0.2-0.1
			c0.1,0,0.1-0.1,0.2-0.2c0,0,0.1-0.1,0.1-0.1c0,0,0-0.1,0.1-0.1c0,0,0-0.1,0-0.1c0,0,0-0.1,0-0.1c0,0,0,0-0.1,0c0,0-0.1,0-0.1,0
			c0,0-0.1,0-0.1,0c0,0-0.1,0.1-0.1,0.1c0,0-0.1,0.1-0.1,0.1c0,0,0,0.1,0,0.1c0,0,0,0.1,0,0.1c0,0,0,0.1,0.1,0.1
			c0,0-0.1,0.1-0.1,0.1c0,0-0.1,0-0.1,0c0,0-0.1,0-0.1,0c0,0,0,0-0.1,0c0,0-0.1-0.1-0.1-0.1c0-0.1,0-0.1,0-0.2c0-0.1,0-0.1,0.1-0.2
			c0-0.1,0.1-0.1,0.1-0.2c0,0,0.1-0.1,0.1-0.1c0.1,0,0.1-0.1,0.2-0.1c0.1,0,0.1,0,0.2,0c0.1,0,0.1,0,0.2,0l0.1-0.1c0,0,0,0-0.1,0
			c0,0,0,0,0,0c0,0-0.1-0.1-0.1-0.1c0,0,0-0.1,0-0.1c0,0,0-0.1,0-0.1c0,0,0,0,0-0.1c0,0,0.1-0.1,0.1-0.1c0,0,0.1,0,0.1,0
			c0,0,0.1,0,0.1,0c0,0,0.1,0,0.1,0l0.7,0.7l0.2-0.1l-1.3-1.2l0.3-0.3l0.1,0l0.1-0.1c0,0,0.1,0,0.1,0c0,0,0.1,0,0.1,0
			c0,0,0.1,0,0.1,0s0.1,0,0.1,0l0.9,1.1l0.2,0l-1.1-1.4l0.4-0.3l0,0l0.7-0.5c0,0.1-0.1,0.2-0.1,0.3c0,0.1,0,0.2,0,0.3
			c0,0.1,0,0.2,0,0.3c0,0.1,0.1,0.2,0.1,0.2c0,0.1,0.1,0.1,0.1,0.2c0.1,0,0.1,0.1,0.2,0.1c0,0,0.1,0.1,0.1,0.1c0,0,0.1,0,0.1,0
			c0.1,0,0.1,0,0.2,0c0.1,0,0.1,0,0.2,0c0.1,0,0.1,0,0.2-0.1c0.1,0,0.1-0.1,0.2-0.1c0.1,0,0.1-0.1,0.1-0.1c0,0,0.1-0.1,0.1-0.1
			c0,0,0-0.1,0-0.1c0,0,0-0.1,0-0.1c0,0,0,0-0.1-0.1c0,0-0.1,0-0.1,0c0,0-0.1,0-0.1,0c0,0-0.1,0-0.1,0.1c0,0-0.1,0-0.1,0.1
			c0,0-0.1,0.1-0.1,0.1c0,0,0,0.1,0,0.1c0,0,0,0.1,0,0.1c0,0,0,0,0,0c0,0,0,0,0,0c-0.1,0-0.1,0.1-0.2,0.1c-0.1,0-0.1,0-0.2,0
			c-0.1,0-0.1,0-0.2-0.1c-0.1,0-0.1-0.1-0.2-0.2c0-0.1-0.1-0.2-0.1-0.2c0-0.1,0-0.2,0-0.3c0-0.1,0-0.2,0.1-0.3
			c0-0.1,0.1-0.2,0.1-0.3c0.1-0.1,0.1-0.2,0.2-0.2c0.1-0.1,0.1-0.1,0.2-0.2l0.2-0.1l0,0l0.3-0.1l0.5,0.9l0.4,0
			c0-0.1,0.1-0.2,0.1-0.3c0-0.1,0.1-0.2,0.1-0.2c0-0.1,0.1-0.2,0.1-0.2c0-0.1,0.1-0.2,0.2-0.3c0,0.1,0,0.1,0,0.2
			c0,0.1,0,0.1,0.1,0.2c0.1,0.1,0.2,0.2,0.3,0.3c0.1,0.1,0.3,0.2,0.4,0.3l0.1,0c-0.1,0-0.1-0.1-0.2-0.1c-0.1,0-0.1-0.1-0.1-0.1
			c0,0-0.1-0.1-0.1-0.1s-0.1-0.1-0.1-0.2c0-0.1-0.1-0.1-0.1-0.2c0-0.1,0-0.1,0-0.2c0-0.1,0-0.1,0-0.2c0-0.1,0-0.2,0.1-0.2l-0.5,0.1
			c-0.1,0.1-0.1,0.1-0.2,0.2C24.1,16,24,16.1,24,16.2s-0.1,0.2-0.1,0.3s-0.1,0.2-0.1,0.3L23.3,16l1.8-1l0,0l0.3-0.1
			c0.1,0,0.1,0,0.2,0s0.1,0,0.1,0c0,0,0.1,0,0.1,0c0,0,0.1,0,0.1,0.1c0,0-0.1,0.1-0.1,0.1c0,0-0.1,0.1-0.1,0.1
			c0,0.1-0.1,0.1-0.1,0.2c0,0.1,0,0.1,0,0.1c0,0.1,0.1,0.1,0.1,0.1c0.1,0,0.1,0,0.2,0c0,0,0.1,0,0.1-0.1c0,0,0.1-0.1,0.1-0.1
			c0,0,0.1-0.1,0.1-0.1s0-0.1,0.1-0.1c0,0,0,0,0.1,0.1c0,0,0.1,0,0.1,0c0,0,0.1,0,0.1,0c0,0,0.1,0,0.1,0c0.1,0,0.1-0.1,0.2-0.1
			c0,0,0-0.1,0-0.1c0-0.1-0.1-0.1-0.2-0.1c-0.1,0-0.2-0.1-0.4-0.1c0,0,0-0.1,0-0.1c0,0,0-0.1,0-0.1c0,0,0,0,0.1-0.1
			c0,0,0.1,0,0.1-0.1c0,0,0.1,0,0.1,0c0.1,0,0.1,0,0.2,0c0,0,0.1,0,0.1,0c0,0,0.1,0,0.1,0.1c0,0,0.1,0,0.1,0.1c0,0,0,0,0,0l0.4,1
			l0.3,0l-0.6-1.6L27.9,14z"/>
		<path class="st5" d="M35.8,15.1c0,0-0.1-0.1-0.1-0.1c0,0-0.1-0.1-0.2-0.1c0.1,0,0.2,0,0.3-0.1c0.1-0.1,0.1-0.1,0.1-0.2
			c0-0.1,0-0.2,0-0.3c0,0,0-0.1-0.1-0.1c0,0-0.1-0.1-0.1-0.1c0,0-0.1,0-0.2-0.1c-0.1,0-0.1,0-0.2-0.1l-0.7-0.2l0,0l0.1,0
			c0.1,0,0.1,0,0.1,0.1c0,0,0,0.1,0,0.2l-0.2,1.1c0,0.1,0,0.2-0.1,0.2c0,0-0.1,0-0.2,0l-0.1,0l0,0l0.8,0.2c0.2,0,0.3,0.1,0.4,0
			c0.1,0,0.1,0,0.1,0c0,0,0.1,0,0.1-0.1c0,0,0.1-0.1,0.1-0.1c0,0,0-0.1,0-0.1c0,0,0-0.1,0-0.1C35.9,15.1,35.8,15.1,35.8,15.1z
			 M35,14c0.1,0,0.1,0,0.2,0c0.1,0,0.1,0,0.2,0.1c0.1,0,0.1,0.1,0.1,0.1c0,0,0.1,0.1,0.1,0.1c0,0,0,0.1,0,0.1c0,0.1,0,0.1-0.1,0.2
			c0,0-0.1,0.1-0.2,0.1c-0.1,0-0.2,0-0.3,0c-0.1,0-0.2,0-0.2-0.1L35,14z M35.6,15.3c0,0,0,0.1-0.1,0.1c0,0-0.1,0.1-0.1,0.1
			c0,0-0.1,0-0.2,0c-0.1,0-0.1,0-0.2,0c-0.1,0-0.2-0.1-0.3-0.1l0.1-0.7c0,0,0.1,0,0.1,0c0,0,0.1,0,0.1,0c0.1,0,0.2,0,0.2,0.1
			c0.1,0,0.1,0.1,0.1,0.1c0,0,0.1,0.1,0.1,0.1C35.6,15.2,35.6,15.2,35.6,15.3z"/>
		<path class="st5" d="M37.5,16.2c0,0,0-0.1-0.1-0.3l-0.1-1.5l0,0l-1,1.1c-0.1,0.1-0.2,0.2-0.2,0.2c0,0-0.1,0-0.1,0l0,0l0.5,0.2l0,0
			c-0.1,0-0.1-0.1-0.1-0.1c0,0,0-0.1,0-0.1c0,0,0-0.1,0.1-0.1l0.2-0.2l0.6,0.2l0,0.3c0,0.1,0,0.1,0,0.2c0,0,0,0,0,0c0,0,0,0,0,0
			c0,0,0,0-0.1,0c0,0-0.1,0-0.1,0l0,0l0.7,0.2l0,0C37.6,16.3,37.5,16.3,37.5,16.2z M36.6,15.3l0.5-0.6l0.1,0.7L36.6,15.3z"/>
		<path class="st5" d="M39.8,15.6C39.8,15.6,39.8,15.6,39.8,15.6c0.1,0,0.1,0,0.1,0l0.1,0l0,0l-0.6-0.2l0,0l0.1,0
			c0.1,0,0.1,0.1,0.1,0.1c0,0,0,0.1,0,0.2l-0.4,0.9L38.7,15l-0.4-0.2l0,0c0,0,0.1,0,0.1,0.1c0,0,0,0,0.1,0c0,0,0,0,0,0
			c0,0,0,0,0,0.1c0,0,0,0.1,0,0.1L38,16.2c0,0.1-0.1,0.1-0.1,0.2c0,0-0.1,0-0.2,0l-0.1,0l0,0l0.6,0.2l0,0l-0.1,0
			c-0.1,0-0.1-0.1-0.1-0.1c0,0,0-0.1,0-0.2l0.4-1L39,17l0,0l0.6-1.3C39.7,15.7,39.7,15.6,39.8,15.6C39.7,15.6,39.8,15.6,39.8,15.6z"
			/>
		<path class="st5" d="M41.2,17.3C41.2,17.3,41.2,17.2,41.2,17.3c0.1-0.1,0.1-0.1,0.1-0.1c0,0,0,0,0.1,0l0,0l0,0l-0.6-0.3l0,0
			c0.1,0,0.1,0.1,0.1,0.1c0,0,0,0,0,0c0,0,0,0,0,0c0,0,0,0,0,0.1c0,0,0,0.1,0,0.1l-0.2,0.4c-0.1,0-0.2,0-0.4-0.1
			c-0.1,0-0.1-0.1-0.2-0.2C40,17.3,40,17.3,40,17.2c0-0.1,0-0.2,0-0.3c0-0.1,0.1-0.2,0.1-0.3c0.1-0.1,0.1-0.2,0.2-0.2
			c0.1-0.1,0.1-0.1,0.2-0.1c0.1,0,0.2,0,0.3,0c0.1,0,0.2,0,0.3,0.1c0.1,0.1,0.2,0.2,0.3,0.3c0,0.1,0.1,0.2,0,0.4l0,0l0.2-0.5l0,0
			c0,0,0,0.1-0.1,0.1c0,0,0,0,0,0c0,0,0,0,0,0c0,0,0,0,0,0c0,0-0.1-0.1-0.1-0.1c0,0,0,0-0.1-0.1c0,0,0,0-0.1-0.1c0,0,0,0-0.1,0
			C40.9,16,40.8,16,40.6,16c-0.1,0-0.2,0-0.2,0c-0.1,0-0.2,0.1-0.2,0.1c-0.1,0-0.1,0.1-0.2,0.1c-0.1,0.1-0.1,0.1-0.1,0.2
			c-0.1,0.2-0.1,0.4-0.1,0.6c0,0.3,0.2,0.5,0.5,0.7c0.1,0,0.1,0.1,0.1,0.1c0,0,0.1,0,0.1,0.1c0,0,0.1,0,0.1,0c0.1,0,0.1,0,0.2,0
			l0.3-0.5C41.1,17.3,41.1,17.3,41.2,17.3z"/>
		<path class="st5" d="M42.4,18.5c0,0-0.1,0.1-0.1,0.1c0,0-0.1,0-0.1,0c0,0-0.1,0-0.1,0c0,0-0.1,0-0.1,0c0,0-0.1,0-0.1,0
			c0,0-0.1-0.1-0.1-0.1l-0.1-0.1c-0.1-0.1-0.1-0.1-0.2-0.1c0,0,0,0,0-0.1c0,0,0-0.1,0.1-0.1l0.6-0.9c0.1-0.1,0.1-0.1,0.1-0.1
			c0,0,0,0,0,0c0,0,0,0,0.1,0c0,0,0,0,0.1,0c0,0,0.1,0,0.1,0.1l0,0L42,16.7l0,0l0.1,0c0.1,0,0.1,0.1,0.1,0.1c0,0,0,0.1-0.1,0.2
			L41.4,18c-0.1,0.1-0.1,0.1-0.1,0.1c-0.1,0-0.1,0-0.2,0L41,18l0,0l1.1,0.8L42.4,18.5L42.4,18.5z"/>
		<path class="st5" d="M43.6,20c0-0.1,0-0.1,0-0.3l0.5-1.5l0,0l-1.4,0.6c-0.1,0.1-0.2,0.1-0.3,0.1c0,0-0.1,0-0.1-0.1l0,0l0.4,0.4
			l0,0c-0.1-0.1-0.1-0.1-0.1-0.1c0,0,0-0.1,0-0.1c0,0,0.1-0.1,0.1-0.1l0.3-0.1l0.5,0.4l-0.1,0.3c0,0.1-0.1,0.1-0.1,0.2c0,0,0,0,0,0
			c0,0,0,0,0,0c0,0,0,0-0.1,0c0,0,0,0-0.1,0l0,0l0.5,0.5l0,0C43.6,20.1,43.6,20,43.6,20z M43.1,18.8l0.7-0.3l-0.2,0.7L43.1,18.8z"/>
		<path class="st5" d="M45.5,20.9c0.1-0.1,0.2-0.3,0.3-0.4c0-0.1,0-0.1,0-0.2c0-0.1,0-0.1,0-0.2c0-0.1-0.1-0.2-0.1-0.2
			c-0.1-0.1-0.1-0.2-0.2-0.3L44.9,19l0,0l0,0c0,0,0.1,0.1,0.1,0.1c0,0,0,0.1-0.1,0.2L44,20.2c-0.1,0.1-0.1,0.1-0.2,0.1
			c-0.1,0-0.1,0-0.2-0.1l0,0l0,0l0.5,0.6c0.1,0.1,0.2,0.2,0.3,0.3c0.1,0.1,0.2,0.1,0.3,0.1c0.1,0,0.2,0,0.3,0
			C45.3,21,45.4,21,45.5,20.9z M44.7,20.9c-0.1,0-0.2,0-0.3-0.1c-0.1,0-0.2-0.1-0.2-0.2c0-0.1-0.1-0.1-0.2-0.2l1.1-1
			c0.1,0.1,0.2,0.1,0.2,0.2c0.1,0.1,0.1,0.2,0.2,0.2c0,0.1,0,0.2,0,0.3c0,0.1,0,0.2-0.1,0.3c0,0.1-0.1,0.2-0.2,0.3
			c-0.1,0.1-0.2,0.1-0.3,0.2C44.9,20.9,44.8,20.9,44.7,20.9z"/>
		<path class="st5" d="M46.1,22.5c-0.1,0-0.2,0-0.3,0c0,0-0.1,0-0.1,0c0,0,0,0-0.1,0c0,0,0,0-0.1-0.1c0,0,0-0.1-0.1-0.1L45.3,22
			c0,0,0,0,0-0.1c0,0,0,0,0,0c0,0,0,0,0,0c0,0,0,0,0,0c0,0,0,0,0.1-0.1l0.5-0.3l0.2,0.3c0,0,0.1,0.1,0.1,0.1c0,0,0,0.1,0,0.1
			c0,0,0,0.1,0,0.1c0,0,0,0.1-0.1,0.1l0,0l0.5-0.3l0,0c0,0-0.1,0-0.1,0.1c0,0-0.1,0-0.1,0c0,0-0.1,0-0.1,0c0,0-0.1-0.1-0.1-0.1
			l-0.2-0.3l0.5-0.4l0.3,0.4c0,0,0.1,0.1,0.1,0.1c0,0,0,0.1,0,0.1c0,0,0,0.1,0,0.1c0,0-0.1,0.1-0.1,0.1l0,0l0.3-0.2l-0.8-1.1l0,0
			l0,0c0,0.1,0.1,0.1,0.1,0.2c0,0,0,0,0,0.1c0,0-0.1,0.1-0.1,0.1l-0.9,0.6c-0.1,0-0.1,0.1-0.1,0.1c0,0,0,0,0,0c0,0,0,0,0,0
			c0,0,0,0,0,0c0,0,0,0,0,0l0,0l0,0l0.8,1.1L46.1,22.5L46.1,22.5z"/>
		<path class="st5" d="M46.8,23.7c0.1,0,0.1-0.1,0.1-0.1c0-0.1,0.1-0.1,0.1-0.2c0-0.1,0-0.2,0-0.4c0-0.1,0-0.2,0-0.2
			c0-0.1,0-0.1,0-0.2c0,0,0-0.1,0-0.1c0,0,0,0,0.1-0.1c0,0,0.1,0,0.1,0c0,0,0.1,0,0.1,0c0,0,0.1,0,0.1,0.1c0,0,0.1,0.1,0.1,0.1
			c0,0.1,0.1,0.1,0.1,0.2c0,0,0,0.1,0,0.1c0,0,0,0.1,0,0.1c0,0,0,0.1-0.1,0.1c0,0-0.1,0.1-0.1,0.1l0,0l0.5-0.3l0,0c0,0-0.1,0-0.1,0
			c0,0,0,0,0,0c0,0,0,0,0-0.1c0-0.1,0-0.2-0.1-0.3c0-0.1-0.1-0.1-0.1-0.2c-0.1,0-0.1-0.1-0.2-0.1c-0.1,0-0.1,0-0.2,0
			c-0.1,0-0.1,0-0.2,0.1c-0.1,0-0.1,0.1-0.1,0.1c0,0.1-0.1,0.1-0.1,0.2c0,0,0,0,0,0.1c0,0,0,0.1,0,0.1c0,0,0,0.1,0,0.2
			c0,0.1,0,0.1,0,0.1c0,0,0,0.1,0,0.1c0,0,0,0.1,0,0.1c0,0.1,0,0.1,0,0.2c0,0-0.1,0.1-0.1,0.1c0,0-0.1,0-0.1,0c0,0-0.1,0-0.1,0
			c0,0-0.1,0-0.1-0.1c0,0-0.1-0.1-0.1-0.1c0-0.1-0.1-0.2-0.1-0.2c0,0,0-0.1,0-0.1c0,0,0-0.1,0-0.1c0,0,0-0.1,0.1-0.1
			c0,0,0.1-0.1,0.1-0.1l0,0L45.8,23l0,0c0,0,0.1,0,0.1,0c0,0,0,0,0,0c0,0,0,0,0,0.1c0,0,0,0.1,0,0.1c0,0,0,0.1,0,0.1
			c0,0,0,0.1,0,0.1c0,0,0,0,0,0.1c0,0,0,0,0,0.1c0,0.1,0.1,0.1,0.1,0.2c0.1,0,0.1,0.1,0.2,0.1c0.1,0,0.1,0,0.2,0
			C46.7,23.8,46.8,23.7,46.8,23.7z"/>
		<path class="st5" d="M48.5,24.3L48.5,24.3L48.5,24.3c0,0.1,0,0.2,0,0.2c0,0,0,0,0,0c0,0,0,0,0,0c0,0,0,0-0.1,0c0,0-0.1,0-0.1,0
			l-0.4,0.2l-0.3-0.7l0.4-0.2c0.1,0,0.1-0.1,0.2-0.1c0,0,0.1,0,0.1,0c0,0,0,0.1,0.1,0.1l0,0.1l0,0l-0.3-0.7l0,0l0,0.1
			c0,0,0,0.1,0,0.1c0,0,0,0,0,0c0,0,0,0,0,0c0,0,0,0-0.1,0c0,0-0.1,0-0.1,0l-1,0.5c-0.1,0-0.2,0.1-0.2,0.1c-0.1,0-0.1-0.1-0.1-0.1
			l0-0.1l0,0l0.3,0.7l0,0l0-0.1c0,0,0-0.1,0-0.1c0,0,0,0,0,0c0,0,0,0,0,0c0,0,0,0,0.1,0c0,0,0.1,0,0.1,0l0.5-0.2l0.3,0.7l-0.5,0.2
			c-0.1,0-0.2,0.1-0.2,0.1c-0.1,0-0.1-0.1-0.1-0.1l0-0.1l0,0l0.3,0.7l0,0l0-0.1c0,0,0-0.1,0-0.1c0,0,0,0,0,0c0,0,0,0,0,0
			c0,0,0,0,0.1,0c0,0,0.1,0,0.1,0l1-0.5c0.1,0,0.1-0.1,0.2-0.1c0,0,0,0,0,0c0,0,0,0,0,0c0,0,0,0,0,0c0,0,0,0,0,0l0,0.1l0,0
			L48.5,24.3z"/>
	</g>
	<g>
		<path class="st5" d="M41.6,52.2c0.3,0.8,0,1.3-0.6,1.5c-0.6,0.2-1.2-0.1-1.4-0.7c-0.3-0.7,0-1.3,0.6-1.5
			C40.8,51.3,41.3,51.6,41.6,52.2z M39.9,52.9c0.2,0.5,0.6,0.8,1,0.6c0.4-0.2,0.5-0.7,0.3-1.2c-0.2-0.4-0.6-0.8-1-0.6
			C39.8,51.9,39.7,52.4,39.9,52.9z"/>
		<path class="st5" d="M41.4,51l1.1-0.6l0.1,0.2l-0.9,0.4l0.3,0.7l0.8-0.4l0.1,0.2L42.3,52l0.5,0.9l-0.3,0.1L41.4,51z"/>
		<path class="st5" d="M45.2,51.1c0.2,0,0.4-0.1,0.5-0.2c0.3-0.2,0.3-0.4,0.2-0.6c-0.1-0.2-0.3-0.2-0.6-0.1
			c-0.4,0.1-0.7,0.1-0.9-0.2c-0.2-0.3-0.1-0.7,0.3-1c0.2-0.1,0.4-0.2,0.5-0.2l0.1,0.3c-0.1,0-0.3,0-0.4,0.2
			c-0.3,0.2-0.3,0.4-0.2,0.5c0.1,0.2,0.3,0.2,0.6,0.1c0.4-0.1,0.7-0.1,0.9,0.2c0.2,0.3,0.2,0.7-0.3,1c-0.2,0.1-0.4,0.2-0.6,0.2
			L45.2,51.1z"/>
		<path class="st5" d="M45.6,48.4l0.6,0.7l0.9-0.8l-0.6-0.7l0.2-0.2l1.5,1.8L48,49.4l-0.7-0.8l-0.9,0.8l0.7,0.8l-0.2,0.2l-1.5-1.8
			L45.6,48.4z"/>
		<path class="st5" d="M47.2,46.9l1.7,1.6l-0.2,0.2L47,47.1L47.2,46.9z"/>
		<path class="st5" d="M47.6,46.5c0.1-0.1,0.2-0.3,0.3-0.5c0.2-0.2,0.4-0.3,0.6-0.4c0.2,0,0.3,0,0.5,0.2s0.3,0.3,0.3,0.5
			c0,0.2-0.1,0.5-0.3,0.7c-0.1,0.1-0.1,0.1-0.2,0.2l0.7,0.6l-0.2,0.2L47.6,46.5z M48.6,47.1c0.1,0,0.1-0.1,0.2-0.2
			c0.2-0.3,0.3-0.6,0-0.8c-0.2-0.2-0.5-0.1-0.7,0.1c-0.1,0.1-0.2,0.2-0.2,0.2L48.6,47.1z"/>
		<path class="st5" d="M48.7,45.2c0.1-0.1,0.2-0.3,0.3-0.5c0.2-0.3,0.4-0.4,0.5-0.4c0.2,0,0.3,0,0.5,0.1c0.2,0.1,0.3,0.3,0.3,0.4
			c0,0.2,0,0.5-0.2,0.7c-0.1,0.1-0.1,0.1-0.2,0.2l0.8,0.6l-0.2,0.3L48.7,45.2z M49.8,45.6c0.1,0,0.1-0.1,0.2-0.2
			c0.2-0.3,0.2-0.6-0.1-0.8c-0.3-0.2-0.5-0.1-0.7,0.2c-0.1,0.1-0.1,0.2-0.2,0.3L49.8,45.6z"/>
		<path class="st5" d="M49.9,43.4l2,1.3L51.7,45l-2-1.3L49.9,43.4z"/>
		<path class="st5" d="M52.2,44.2l-2-1.1l0.2-0.3l1.4-0.1c0.3,0,0.6,0,0.9,0l0,0c-0.3-0.1-0.5-0.3-0.9-0.4l-0.9-0.5l0.1-0.3l2,1.1
			l-0.2,0.3L51.5,43c-0.3,0-0.6,0-0.9,0v0c0.3,0.1,0.5,0.3,0.9,0.4l0.9,0.5L52.2,44.2z"/>
		<path class="st5" d="M54,40.4c0,0.1,0,0.4-0.2,0.7c-0.1,0.3-0.3,0.6-0.6,0.7c-0.3,0.1-0.6,0.1-0.9,0c-0.6-0.3-0.9-0.9-0.6-1.6
			c0.1-0.3,0.3-0.4,0.3-0.5l0.2,0.2c-0.1,0.1-0.2,0.2-0.3,0.4c-0.2,0.5,0,1,0.5,1.2c0.5,0.2,1,0,1.2-0.5c0.1-0.2,0.1-0.3,0.1-0.4
			L53,40.3l-0.2,0.4l-0.2-0.1l0.3-0.7L54,40.4z"/>
	</g>
</g>
</svg>
