<?xml version="1.0" encoding="utf-8"?>
<!-- Generator: Adobe Illustrator 24.1.2, SVG Export Plug-In . SVG Version: 6.00 Build 0)  -->
<svg version="1.1" id="Layer_1" xmlns="http://www.w3.org/2000/svg" xmlns:xlink="http://www.w3.org/1999/xlink" x="0px" y="0px"
	 viewBox="0 0 68.4 63" style="enable-background:new 0 0 68.4 63;" xml:space="preserve">
<style type="text/css">
	.st0{fill:#FFFFFF;}
	.st1{fill:#00973D;}
</style>
<g>
	<g id="Group_523" transform="translate(2.211 36.965)">
		<g id="Group_487" transform="translate(0 0.1)">
			<path id="Path_2790" class="st0" d="M1.8,0.7H0.1V0.1h4.1v0.7H2.5v5.5H1.8V0.7z"/>
			<path id="Path_2791" class="st0" d="M2.6,6.3H1.7V0.8H0V0h4.3v0.8H2.6V6.3z M1.9,6.1h0.6V0.7h1.7V0.1h-4v0.5h1.7L1.9,6.1z"/>
		</g>
		<g id="Group_488" transform="translate(4.399 0)">
			<path id="Path_2792" class="st0" d="M5.2,3.2c0,2.1-1.2,3.2-2.6,3.2c-1.5,0-2.5-1.3-2.5-3.1c0-1.9,1.1-3.2,2.6-3.2
				C4.2,0.1,5.2,1.4,5.2,3.2z M0.8,3.3c0,1.3,0.6,2.5,1.8,2.5s1.8-1.2,1.8-2.5c0-1.2-0.6-2.5-1.8-2.5S0.8,1.9,0.8,3.3L0.8,3.3z"/>
			<path id="Path_2793" class="st0" d="M2.6,6.5C1.1,6.5,0,5.2,0,3.3C0,1.4,1.1,0,2.7,0c1.5,0,2.6,1.3,2.6,3.2
				C5.2,5.5,3.9,6.5,2.6,6.5z M2.7,0.1c-1.5,0-2.5,1.3-2.5,3.1c0,1.8,1,3,2.4,3c1.5,0,2.5-1.3,2.5-3.2C5.1,1.4,4.1,0.1,2.7,0.1
				L2.7,0.1z M2.6,5.8c-1.2,0-1.9-1.3-1.9-2.6c0-1.3,0.6-2.6,1.9-2.6c1.3,0,1.9,1.3,1.9,2.6C4.5,4.8,3.7,5.8,2.6,5.8L2.6,5.8z
				 M2.6,0.8C1.4,0.8,0.9,2,0.9,3.3c0,1.2,0.6,2.4,1.7,2.4c1.2,0,1.7-1.2,1.7-2.5C4.3,2,3.8,0.8,2.6,0.8L2.6,0.8z"/>
		</g>
		<g id="Group_489" transform="translate(10.62 0.1)">
			<path id="Path_2794" class="st0" d="M0.8,0.1v3.6c0,1.4,0.6,2,1.3,2c0.8,0,1.4-0.6,1.4-2V0.1h0.7v3.6c0,1.9-0.9,2.7-2.1,2.7
				c-1.1,0-2-0.7-2-2.6V0.1L0.8,0.1z"/>
			<path id="Path_2795" class="st0" d="M2.1,6.4C1.3,6.4,0,6,0,3.7V0h0.9v3.7c0,1.2,0.4,1.9,1.2,1.9c0.8,0,1.3-0.6,1.3-1.9V0h0.9
				v3.7C4.3,6,2.9,6.4,2.1,6.4z M0.2,0.1v3.5c0,1.7,0.7,2.5,1.9,2.5c1.3,0,2-0.9,2-2.6V0.2H3.5v3.6c0,1.8-0.9,2-1.4,2
				c-0.9,0-1.4-0.7-1.4-2V0.2L0.2,0.1z"/>
		</g>
		<g id="Group_490" transform="translate(16.176 0.051)">
			<path id="Path_2796" class="st0" d="M0.1,0.2C0.5,0.1,1,0.1,1.5,0.1C2,0,2.6,0.2,3.1,0.6C3.7,1.3,3.6,2.4,2.9,3
				C2.8,3.1,2.6,3.2,2.5,3.3v0C2.9,3.6,3.2,4,3.3,4.6c0.1,0.6,0.2,1.1,0.4,1.7H3c-0.2-0.5-0.3-1-0.4-1.5C2.4,3.9,2.1,3.6,1.5,3.6
				H0.8v2.7H0.1L0.1,0.2z M0.8,3h0.7c0.6,0.1,1.2-0.4,1.3-1c0-0.1,0-0.1,0-0.2c0-0.8-0.5-1.1-1.3-1.1c-0.2,0-0.5,0-0.7,0.1L0.8,3z"
				/>
			<path id="Path_2797" class="st0" d="M3.8,6.3H2.9l0,0c-0.2-0.5-0.3-1-0.4-1.5C2.4,4,2.1,3.7,1.5,3.7H0.9v2.7H0V0.1l0.1,0
				C0.5,0,1,0,1.5,0c0.6-0.1,1.2,0.1,1.7,0.5c0.3,0.3,0.5,0.8,0.5,1.2c0,0.7-0.4,1.3-1,1.6C3,3.6,3.3,4.1,3.4,4.6
				c0.1,0.6,0.2,1.1,0.4,1.7L3.8,6.3z M3,6.2h0.6C3.4,5.7,3.3,5.1,3.2,4.6c0-0.5-0.3-0.9-0.8-1.2l0,0V3.3l0,0
				c0.8-0.4,1.2-1.3,0.9-2.2C3.2,0.9,3.1,0.8,3,0.6C2.6,0.3,2,0.1,1.5,0.1c-0.4,0-0.9,0-1.3,0.1v5.9h0.6V3.5h0.8
				c0.7,0,1,0.4,1.2,1.3C2.7,5.2,2.9,5.7,3,6.2z M1.5,3.1H0.7V0.7l0.1,0C1,0.6,1.3,0.6,1.5,0.6c0.9,0,1.4,0.4,1.4,1.2
				c0,0.7-0.5,1.2-1.2,1.2C1.6,3.1,1.6,3.1,1.5,3.1L1.5,3.1z M0.9,2.9h0.7C2.1,3,2.6,2.6,2.7,2c0,0,0-0.1,0-0.1
				c0-0.9-0.7-1.1-1.2-1.1c-0.2,0-0.4,0-0.6,0.1L0.9,2.9z"/>
		</g>
		<g id="Group_491" transform="translate(22.46 0)">
			<path id="Path_2798" class="st0" d="M5.2,3.2c0,2.1-1.2,3.2-2.6,3.2c-1.5,0-2.5-1.3-2.5-3.1c0-1.9,1.1-3.2,2.6-3.2
				C4.2,0.1,5.2,1.4,5.2,3.2z M0.8,3.3c0,1.3,0.6,2.5,1.8,2.5s1.8-1.2,1.8-2.5c0-1.2-0.6-2.5-1.8-2.5S0.8,1.9,0.8,3.3L0.8,3.3z"/>
			<path id="Path_2799" class="st0" d="M2.6,6.5C1.1,6.5,0,5.2,0,3.3C0,1.4,1.1,0,2.7,0c1.5,0,2.6,1.3,2.6,3.2
				C5.2,5.5,3.9,6.5,2.6,6.5z M2.7,0.1c-1.5,0-2.5,1.3-2.5,3.1c0,1.8,1,3,2.4,3c1.5,0,2.5-1.3,2.5-3.2C5.1,1.4,4.1,0.1,2.7,0.1
				L2.7,0.1z M2.6,5.8c-1.2,0-1.9-1.3-1.9-2.6c0-1.3,0.6-2.6,1.9-2.6c1.3,0,1.9,1.3,1.9,2.6C4.5,4.8,3.7,5.8,2.6,5.8L2.6,5.8z
				 M2.6,0.8C1.4,0.8,0.9,2,0.9,3.3c0,1.2,0.6,2.4,1.7,2.4c1.2,0,1.7-1.2,1.7-2.5C4.3,2,3.8,0.8,2.6,0.8L2.6,0.8z"/>
		</g>
		<g id="Group_492" transform="translate(28.684 0.051)">
			<path id="Path_2800" class="st0" d="M0.1,0.2C0.5,0.1,1,0.1,1.5,0.1C2,0,2.6,0.2,3,0.6c0.3,0.3,0.5,0.8,0.5,1.3
				c0,0.5-0.1,0.9-0.4,1.3C2.6,3.6,2,3.9,1.4,3.9c-0.2,0-0.4,0-0.6-0.1v2.5H0.1L0.1,0.2z M0.8,3.2C1,3.2,1.2,3.2,1.4,3.2
				c0.7,0.1,1.3-0.4,1.4-1.1c0-0.1,0-0.2,0-0.2c0-0.6-0.4-1.2-1.1-1.2c-0.1,0-0.2,0-0.2,0c-0.2,0-0.5,0-0.7,0.1L0.8,3.2z"/>
			<path id="Path_2801" class="st0" d="M0.9,6.3H0V0.1l0.1,0C0.5,0,1,0,1.5,0c0.6,0,1.2,0.1,1.6,0.5c0.3,0.4,0.5,0.8,0.5,1.3
				c0,0.5-0.1,1-0.5,1.4C2.7,3.7,2,4,1.4,3.9c-0.2,0-0.3,0-0.5,0L0.9,6.3z M0.2,6.2h0.6V3.7l0.1,0C1.6,3.9,2.4,3.7,3,3.1
				c0.3-0.4,0.4-0.8,0.4-1.3C3.5,1.4,3.3,1,3,0.6C2.6,0.3,2,0.1,1.5,0.1c-0.4,0-0.9,0-1.3,0.1L0.2,6.2z M1.4,3.3
				c-0.2,0-0.4,0-0.6-0.1l-0.1,0V0.7l0.1,0c0.2,0,0.5-0.1,0.7-0.1c0.7-0.1,1.3,0.4,1.4,1c0,0.1,0,0.2,0,0.2c0,0.7-0.5,1.4-1.2,1.4
				C1.6,3.3,1.5,3.3,1.4,3.3L1.4,3.3z M0.9,3.1c0.2,0,0.3,0.1,0.5,0c0.6,0.1,1.2-0.4,1.3-1c0-0.1,0-0.2,0-0.2c0-0.7-0.4-1.1-1.2-1.1
				c-0.2,0-0.4,0-0.6,0L0.9,3.1z"/>
		</g>
		<g id="Group_493" transform="translate(33.287 0.1)">
			<path id="Path_2802" class="st0" d="M3,3.3H0.8v2.2h2.4v0.7H0.1V0.1h3v0.7H0.8v1.9H3V3.3z"/>
			<path id="Path_2803" class="st0" d="M3.3,6.3H0V0h3.2v0.8H0.9v1.8H3v0.8H0.9v2.1h2.4L3.3,6.3z M0.2,6.1h3V5.6H0.7V3.3h2.2V2.8
				H0.7V0.7H3V0.2H0.2L0.2,6.1z"/>
		</g>
		<g id="Group_494" transform="translate(37.558 0.051)">
			<path id="Path_2804" class="st0" d="M0.1,0.2C0.5,0.1,1,0.1,1.5,0.1C2,0,2.6,0.2,3.1,0.6C3.7,1.3,3.6,2.4,2.9,3
				C2.8,3.1,2.6,3.2,2.5,3.3v0C2.9,3.6,3.2,4,3.3,4.6c0.1,0.6,0.2,1.1,0.4,1.7H3c-0.2-0.5-0.3-1-0.4-1.5C2.4,3.9,2.1,3.6,1.5,3.6
				H0.8v2.7H0.1L0.1,0.2z M0.8,3h0.7c0.6,0.1,1.2-0.4,1.3-1c0-0.1,0-0.1,0-0.2c0-0.8-0.5-1.1-1.3-1.1c-0.2,0-0.5,0-0.7,0.1V3z"/>
			<path id="Path_2805" class="st0" d="M3.8,6.3H2.9l0,0c-0.2-0.5-0.3-1-0.4-1.5C2.4,4,2.1,3.7,1.5,3.7H0.9v2.7H0V0.1l0.1,0
				C0.5,0,1,0,1.5,0c0.6-0.1,1.2,0.1,1.7,0.5c0.3,0.3,0.5,0.8,0.5,1.2c0,0.7-0.4,1.3-1,1.6C3,3.6,3.3,4.1,3.4,4.6
				c0.1,0.6,0.2,1.1,0.4,1.7L3.8,6.3z M3,6.2h0.6C3.4,5.7,3.3,5.1,3.2,4.6c0-0.5-0.3-0.9-0.8-1.2l0,0V3.3l0,0c0.6-0.2,1-0.8,1-1.5
				c0-0.4-0.1-0.8-0.4-1.1C2.6,0.3,2,0.1,1.5,0.1c-0.4,0-0.9,0-1.3,0.1v5.9h0.6V3.5h0.8c0.7,0,1,0.4,1.2,1.3C2.7,5.2,2.9,5.7,3,6.2
				L3,6.2z M1.5,3.1H0.7V0.7l0.1,0C1,0.6,1.3,0.6,1.5,0.6c0.9,0,1.4,0.4,1.4,1.2c0,0.7-0.5,1.2-1.2,1.2C1.6,3.1,1.6,3.1,1.5,3.1
				L1.5,3.1z M0.9,2.9h0.7C2.1,3,2.6,2.6,2.7,2c0,0,0-0.1,0-0.1c0-0.9-0.7-1.1-1.2-1.1c-0.2,0-0.4,0-0.6,0.1L0.9,2.9z"/>
		</g>
		<g id="Group_495" transform="translate(41.806 0.1)">
			<path id="Path_2806" class="st0" d="M1.4,4.3L0.9,6.2H0.1L2,0.1h0.9l1.9,6.1H4L3.4,4.3H1.4z M3.3,3.7L2.7,1.9
				C2.6,1.5,2.5,1.1,2.4,0.8h0C2.3,1.1,2.2,1.5,2.1,1.9L1.6,3.7L3.3,3.7z"/>
			<path id="Path_2807" class="st0" d="M4.9,6.3H3.9L3.3,4.4H1.5L0.9,6.3H0L1.9,0h1l0,0.1L4.9,6.3z M4.1,6.1h0.6l-1.9-6H2.1l-1.8,6
				h0.6l0.6-1.9h2.1L4.1,6.1z M3.4,3.7H1.5L2,1.9c0.1-0.4,0.2-0.8,0.3-1.1l0-0.1h0.1l0,0.2c0.1,0.3,0.2,0.7,0.3,1L3.4,3.7z M1.7,3.6
				h1.5L2.6,1.9C2.5,1.6,2.5,1.3,2.4,1.1C2.3,1.3,2.3,1.6,2.2,1.9L1.7,3.6z"/>
		</g>
		<g id="Group_496" transform="translate(46.244 0.1)">
			<path id="Path_2808" class="st0" d="M1.8,0.7H0.1V0.1h4.1v0.7H2.5v5.5H1.8V0.7z"/>
			<path id="Path_2809" class="st0" d="M2.6,6.3H1.7V0.8H0V0h4.3v0.8H2.6L2.6,6.3z M1.9,6.1h0.6V0.7h1.7V0.1h-4v0.5h1.7L1.9,6.1z"/>
		</g>
		<g id="Group_497" transform="translate(50.642 0)">
			<path id="Path_2810" class="st0" d="M5.2,3.2c0,2.1-1.2,3.2-2.6,3.2c-1.5,0-2.5-1.3-2.5-3.1c0-1.9,1.1-3.2,2.6-3.2
				C4.2,0.1,5.2,1.4,5.2,3.2z M0.8,3.3c0,1.3,0.6,2.5,1.8,2.5s1.8-1.2,1.8-2.5c0-1.2-0.6-2.5-1.8-2.5S0.8,1.9,0.8,3.3L0.8,3.3z"/>
			<path id="Path_2811" class="st0" d="M2.6,6.5C1.1,6.5,0,5.2,0,3.3C0,1.4,1.1,0,2.7,0c1.5,0,2.6,1.3,2.6,3.2
				C5.2,5.5,3.9,6.5,2.6,6.5z M2.7,0.1c-1.5,0-2.5,1.3-2.5,3.1c0,1.8,1,3,2.4,3c1.5,0,2.5-1.3,2.5-3.2C5.1,1.4,4.1,0.1,2.7,0.1
				L2.7,0.1z M2.6,5.8c-1.2,0-1.9-1.3-1.9-2.6c0-1.3,0.6-2.6,1.9-2.6c1.3,0,1.9,1.3,1.9,2.6C4.5,4.8,3.7,5.8,2.6,5.8L2.6,5.8z
				 M2.6,0.8C1.4,0.8,0.9,2,0.9,3.3c0,1.2,0.6,2.4,1.7,2.4c1.2,0,1.7-1.2,1.7-2.5C4.3,2,3.8,0.8,2.6,0.8L2.6,0.8z"/>
		</g>
		<g id="Group_498" transform="translate(56.867 0.051)">
			<path id="Path_2812" class="st0" d="M0.1,0.2C0.5,0.1,1,0.1,1.5,0.1C2,0,2.6,0.2,3.1,0.6C3.7,1.3,3.6,2.4,2.9,3
				C2.8,3.1,2.6,3.2,2.5,3.3v0C2.9,3.6,3.2,4,3.3,4.6c0.1,0.6,0.2,1.1,0.4,1.7H3c-0.2-0.5-0.3-1-0.4-1.5C2.4,3.9,2.1,3.6,1.5,3.6
				H0.8v2.7H0.1V0.2z M0.8,3h0.7c0.6,0.1,1.2-0.4,1.3-1c0-0.1,0-0.1,0-0.2c0-0.8-0.5-1.1-1.3-1.1c-0.2,0-0.5,0-0.7,0.1V3z"/>
			<path id="Path_2813" class="st0" d="M3.8,6.3H2.9l0,0c-0.2-0.5-0.3-1-0.4-1.5C2.4,4,2.1,3.7,1.5,3.7H0.9v2.7H0V0.1l0.1,0
				C0.5,0,1,0,1.5,0c0.6-0.1,1.2,0.1,1.7,0.5c0.3,0.3,0.5,0.8,0.5,1.2c0,0.7-0.4,1.3-1,1.6C3,3.6,3.3,4.1,3.4,4.6
				c0.1,0.6,0.2,1.1,0.4,1.7L3.8,6.3z M3,6.2h0.6C3.4,5.7,3.3,5.1,3.2,4.6c0-0.5-0.3-0.9-0.8-1.2l0,0V3.3l0,0c0.6-0.2,1-0.8,1-1.5
				c0-0.4-0.1-0.8-0.4-1.1C2.6,0.3,2,0.1,1.5,0.1c-0.4,0-0.9,0-1.3,0.1v5.9h0.6V3.5h0.8c0.7,0,1,0.4,1.2,1.3C2.7,5.2,2.9,5.7,3,6.2z
				 M1.5,3.1H0.7V0.7l0.1,0C1,0.6,1.3,0.6,1.5,0.6c0.9,0,1.4,0.4,1.4,1.2c0,0.7-0.5,1.2-1.2,1.2C1.6,3.1,1.6,3.1,1.5,3.1L1.5,3.1z
				 M0.9,2.9h0.7C2.1,3,2.6,2.6,2.7,2c0,0,0-0.1,0-0.1c0-0.9-0.7-1.1-1.2-1.1c-0.2,0-0.4,0-0.6,0.1L0.9,2.9z"/>
		</g>
		<g id="Group_499" transform="translate(61.225 0.004)">
			<path id="Path_2814" class="st0" d="M0.3,5.3c0.4,0.3,0.8,0.4,1.3,0.4c0.6,0.1,1.1-0.3,1.2-0.9c0,0,0-0.1,0-0.1
				c0-0.6-0.3-0.9-1.1-1.2C0.8,3.1,0.2,2.6,0.2,1.7c0-0.9,0.7-1.7,1.7-1.7c0,0,0.1,0,0.1,0c0.4,0,0.9,0.1,1.2,0.3L3,1
				C2.7,0.8,2.4,0.7,2,0.7C1.5,0.7,1,1,0.9,1.5c0,0,0,0.1,0,0.1c0,0.6,0.3,0.9,1.1,1.2C3,3.2,3.5,3.7,3.5,4.6c0,1-0.7,1.8-1.7,1.8
				c-0.1,0-0.2,0-0.2,0C1,6.4,0.5,6.3,0.1,6L0.3,5.3z"/>
			<path id="Path_2815" class="st0" d="M1.5,6.5C1,6.5,0.5,6.3,0,6.1l0,0l0.2-0.8l0.1,0.1c0.4,0.2,0.8,0.4,1.2,0.4
				c0.5,0.1,1-0.3,1.1-0.8c0,0,0-0.1,0-0.1c0-0.5-0.3-0.8-1-1.1c-1-0.4-1.5-1-1.5-1.8c0-1,0.8-1.7,1.7-1.7C1.9,0,2,0,2,0
				c0.4,0,0.9,0.1,1.3,0.3l0,0L3.1,1.1L3,1.1C2.7,0.9,2.3,0.8,2,0.8C1.5,0.7,1.1,1.1,1,1.5c0,0,0,0.1,0,0.1c0,0.5,0.3,0.8,1.1,1.1
				c1,0.5,1.5,1,1.5,1.9c0,1-0.8,1.8-1.8,1.9C1.7,6.5,1.6,6.5,1.5,6.5z M0.2,6C0.6,6.2,1,6.3,1.5,6.3c0.9,0.1,1.8-0.5,1.9-1.5
				c0-0.1,0-0.2,0-0.2C3.4,3.8,3,3.3,2,2.9C1.3,2.6,0.9,2.3,0.9,1.6c0-0.6,0.5-1,1-1c0,0,0.1,0,0.1,0c0.4,0,0.7,0.1,1,0.3l0.2-0.5
				C2.8,0.2,2.4,0.1,2,0.1C1.1,0.1,0.4,0.7,0.3,1.6c0,0,0,0.1,0,0.1c0,0.8,0.5,1.3,1.4,1.7c0.8,0.3,1.1,0.7,1.1,1.3
				c0,0.6-0.5,1.1-1.1,1.1c0,0-0.1,0-0.1,0c-0.4,0-0.9-0.1-1.2-0.4L0.2,6z"/>
		</g>
		<g id="Group_500" transform="translate(0.19 9.811)">
			<path id="Path_2816" class="st0" d="M1.4,4.3L0.8,6.2H0.1L2,0.1h0.9l1.9,6.1H4L3.4,4.3H1.4z M3.3,3.7L2.7,1.9
				C2.6,1.5,2.5,1.1,2.4,0.8h0C2.3,1.1,2.2,1.5,2.1,1.9L1.6,3.7L3.3,3.7z"/>
			<path id="Path_2817" class="st0" d="M4.9,6.3H3.9L3.3,4.4H1.5L0.9,6.3H0L1.9,0h1l0,0.1L4.9,6.3z M4.1,6.1h0.6l-1.9-6H2.1l-1.8,6
				h0.6l0.6-1.9h2.1L4.1,6.1z M3.4,3.7H1.5L2,1.9c0.1-0.4,0.2-0.8,0.3-1.1l0-0.1h0.1l0,0.2c0.1,0.3,0.2,0.6,0.3,1L3.4,3.7z M1.7,3.6
				h1.5L2.6,1.9C2.5,1.6,2.5,1.3,2.4,1.1C2.3,1.3,2.3,1.6,2.2,1.9L1.7,3.6z"/>
		</g>
		<g id="Group_501" transform="translate(5.81 9.716)">
			<path id="Path_2818" class="st0" d="M0.3,5.3c0.4,0.3,0.8,0.4,1.3,0.4c0.6,0.1,1.1-0.3,1.2-0.9c0,0,0-0.1,0-0.2
				c0-0.6-0.3-0.9-1.1-1.2C0.8,3.1,0.2,2.6,0.2,1.7c0-0.9,0.7-1.7,1.7-1.7c0,0,0.1,0,0.1,0c0.4,0,0.9,0.1,1.2,0.3L3,1
				C2.7,0.8,2.4,0.7,2,0.7C1.5,0.7,1,1,0.9,1.5c0,0,0,0.1,0,0.1c0,0.6,0.3,0.9,1.1,1.2C3,3.2,3.5,3.7,3.5,4.6c0,1-0.7,1.8-1.7,1.8
				c-0.1,0-0.2,0-0.2,0C1,6.4,0.5,6.3,0.1,6L0.3,5.3z"/>
			<path id="Path_2819" class="st0" d="M1.5,6.5C1,6.5,0.5,6.3,0,6.1l0,0l0.2-0.8l0.1,0.1c0.4,0.2,0.8,0.4,1.2,0.4
				c0.5,0.1,1-0.3,1.1-0.8c0,0,0-0.1,0-0.1c0-0.5-0.3-0.8-1-1.1c-1-0.4-1.5-1-1.5-1.8c0-1,0.8-1.7,1.7-1.7C1.9,0,2,0,2,0
				c0.4,0,0.9,0.1,1.3,0.3l0,0L3.1,1.1L3,1.1C2.7,0.9,2.3,0.8,2,0.8C1.5,0.7,1.1,1.1,1,1.5c0,0,0,0.1,0,0.1c0,0.5,0.3,0.8,1.1,1.1
				c1,0.5,1.5,1,1.5,1.9c0,1-0.8,1.8-1.8,1.9C1.7,6.5,1.6,6.5,1.5,6.5z M0.2,6C0.6,6.2,1,6.3,1.5,6.3c0.9,0.1,1.8-0.5,1.9-1.5
				c0-0.1,0-0.2,0-0.2C3.4,3.8,3,3.3,2,2.9C1.3,2.6,0.9,2.3,0.9,1.6c0-0.6,0.5-1,1-1c0,0,0.1,0,0.1,0c0.4,0,0.7,0.1,1,0.3l0.2-0.5
				C2.8,0.2,2.4,0.1,2,0.1C1.1,0.1,0.4,0.7,0.3,1.6c0,0,0,0.1,0,0.1c0,0.8,0.5,1.3,1.4,1.7c0.8,0.3,1.1,0.7,1.1,1.3
				c0,0.6-0.5,1.1-1.1,1.1c0,0-0.1,0-0.1,0c-0.4,0-0.9-0.1-1.2-0.4L0.2,6z"/>
		</g>
		<g id="Group_502" transform="translate(10.297 9.716)">
			<path id="Path_2820" class="st0" d="M0.3,5.3c0.4,0.3,0.8,0.4,1.3,0.4c0.6,0.1,1.1-0.3,1.2-0.9c0,0,0-0.1,0-0.2
				c0-0.6-0.3-0.9-1.1-1.2C0.8,3.1,0.2,2.6,0.2,1.7c0-0.9,0.7-1.7,1.7-1.7c0,0,0.1,0,0.1,0c0.4,0,0.9,0.1,1.2,0.3L3,1
				C2.7,0.8,2.4,0.7,2,0.7C1.5,0.7,1,1,0.9,1.5c0,0,0,0.1,0,0.1c0,0.6,0.3,0.9,1.1,1.2C3,3.2,3.5,3.7,3.5,4.6c0,1-0.7,1.8-1.7,1.8
				c-0.1,0-0.2,0-0.2,0C1,6.4,0.5,6.3,0.1,6L0.3,5.3z"/>
			<path id="Path_2821" class="st0" d="M1.5,6.5C1,6.5,0.5,6.3,0,6.1l0,0l0.2-0.8l0.1,0.1c0.4,0.2,0.8,0.4,1.2,0.4
				c0.5,0.1,1-0.3,1.1-0.8c0,0,0-0.1,0-0.1c0-0.5-0.3-0.8-1-1.1c-1-0.4-1.5-1-1.5-1.8c0-1,0.8-1.7,1.7-1.7C1.9,0,2,0,2,0
				c0.4,0,0.9,0.1,1.3,0.3l0,0L3.1,1.1L3,1.1C2.7,0.9,2.3,0.8,2,0.8C1.5,0.7,1.1,1.1,1,1.5c0,0,0,0.1,0,0.1c0,0.5,0.3,0.8,1.1,1.1
				c1,0.5,1.5,1,1.5,1.9c0,1-0.8,1.8-1.8,1.9C1.7,6.5,1.6,6.5,1.5,6.5z M0.2,6C0.6,6.2,1,6.3,1.5,6.3c0.9,0.1,1.8-0.5,1.9-1.5
				c0-0.1,0-0.2,0-0.2C3.4,3.8,3,3.3,2,2.9C1.3,2.6,0.9,2.3,0.9,1.6c0-0.6,0.5-1,1-1c0,0,0.1,0,0.1,0c0.4,0,0.7,0.1,1,0.3l0.2-0.5
				C2.8,0.2,2.4,0.1,2,0.1C1.1,0.1,0.4,0.7,0.3,1.6c0,0,0,0.1,0,0.1c0,0.8,0.5,1.3,1.4,1.7c0.8,0.3,1.1,0.7,1.1,1.3
				c0,0.6-0.5,1.1-1.1,1.1c0,0-0.1,0-0.1,0c-0.4,0-0.9-0.1-1.2-0.4L0.2,6z"/>
		</g>
		<g id="Group_503" transform="translate(14.751 9.711)">
			<path id="Path_2822" class="st0" d="M5.2,3.2c0,2.1-1.2,3.2-2.6,3.2c-1.5,0-2.5-1.3-2.5-3.1c0-1.9,1.1-3.2,2.6-3.2
				C4.2,0.1,5.2,1.4,5.2,3.2z M0.8,3.3c0,1.3,0.6,2.5,1.8,2.5s1.8-1.2,1.8-2.6c0-1.2-0.6-2.5-1.8-2.5S0.8,1.9,0.8,3.3L0.8,3.3z"/>
			<path id="Path_2823" class="st0" d="M2.6,6.5C1.1,6.5,0,5.2,0,3.3C0,1.4,1.1,0,2.7,0c1.5,0,2.6,1.3,2.6,3.2
				C5.2,5.5,3.9,6.5,2.6,6.5z M2.7,0.1c-1.5,0-2.5,1.3-2.5,3.1c0,1.8,1,3,2.4,3c1.5,0,2.5-1.2,2.5-3.2C5.1,1.4,4.1,0.1,2.7,0.1
				L2.7,0.1z M2.6,5.8c-1.2,0-1.9-1.3-1.9-2.6c0-1.3,0.6-2.6,1.9-2.6c1.3,0,1.9,1.3,1.9,2.6C4.5,4.8,3.7,5.8,2.6,5.8L2.6,5.8z
				 M2.6,0.8C1.4,0.8,0.9,2,0.9,3.3c0,1.2,0.6,2.4,1.7,2.4c1.2,0,1.7-1.2,1.7-2.5C4.3,2,3.8,0.8,2.6,0.8L2.6,0.8z"/>
		</g>
		<g id="Group_504" transform="translate(20.858 9.716)">
			<path id="Path_2824" class="st0" d="M4.3,6.1c-0.5,0.2-1,0.3-1.5,0.3c-1.6,0-2.7-1.1-2.7-3.1c-0.2-1.6,1-3,2.6-3.2
				c0.1,0,0.2,0,0.3,0c0.5,0,0.9,0.1,1.3,0.3L4.1,1C3.8,0.8,3.4,0.7,3,0.7c-1.3,0-2.2,0.9-2.2,2.5c0,1.5,0.8,2.5,2.1,2.5
				c0.4,0,0.8-0.1,1.2-0.3L4.3,6.1z"/>
			<path id="Path_2825" class="st0" d="M2.8,6.5C1.1,6.5,0,5.2,0,3.3C-0.2,1.7,1,0.2,2.7,0C2.8,0,2.9,0,3,0c0.5,0,0.9,0.1,1.4,0.3
				l0.1,0L4.2,1.1L4.1,1C3.8,0.9,3.4,0.8,3,0.8c-1.3,0-2.1,0.9-2.1,2.5c0,1.5,0.8,2.4,2.1,2.4c0.4,0,0.8-0.1,1.1-0.2l0.1,0l0.2,0.8
				l0,0C3.9,6.4,3.3,6.5,2.8,6.5z M3,0.1C1.4,0.1,0.1,1.4,0.1,3c0,0.1,0,0.2,0,0.3c0,1.8,1,3,2.7,3c0.5,0,0.9-0.1,1.4-0.3L4.1,5.6
				C3.7,5.7,3.4,5.8,3,5.8c-1.4,0-2.2-1-2.2-2.5c0-1.6,0.9-2.6,2.3-2.6c0.4,0,0.7,0.1,1.1,0.2l0.1-0.5C3.8,0.2,3.4,0.1,3,0.1L3,0.1z
				"/>
		</g>
		<g id="Group_505" transform="translate(26.387 9.811)">
			<path id="Path_2826" class="st0" d="M0.8,0.1v6.1H0.1V0.1H0.8z"/>
			<path id="Path_2827" class="st0" d="M0.9,6.3H0V0h0.9V6.3z M0.2,6.1h0.6v-6H0.2V6.1z"/>
		</g>
		<g id="Group_506" transform="translate(28.331 9.811)">
			<path id="Path_2828" class="st0" d="M1.4,4.3L0.8,6.2H0.1L2,0.1h0.9l1.9,6.1H4L3.4,4.3H1.4z M3.3,3.7L2.7,1.9
				C2.6,1.5,2.5,1.1,2.4,0.8h0C2.3,1.1,2.2,1.5,2.1,1.9L1.6,3.7L3.3,3.7z"/>
			<path id="Path_2829" class="st0" d="M4.9,6.3H3.9L3.3,4.4H1.5L0.9,6.3H0L1.9,0h1l0,0.1L4.9,6.3z M4.1,6.1h0.6l-1.9-6H2.1l-1.8,6
				h0.6l0.6-1.9h2.1L4.1,6.1z M3.4,3.7H1.5L2,1.9c0.1-0.4,0.2-0.8,0.3-1.1l0-0.1h0.1l0,0.2c0.1,0.3,0.2,0.6,0.3,1L3.4,3.7z M1.7,3.6
				h1.5L2.6,1.9C2.5,1.6,2.5,1.3,2.4,1.1C2.3,1.3,2.3,1.6,2.2,1.9L1.7,3.6z"/>
		</g>
		<g id="Group_507" transform="translate(32.974 9.811)">
			<path id="Path_2830" class="st0" d="M1.8,0.7H0.1V0.1h4.1v0.7H2.5v5.5H1.8L1.8,0.7z"/>
			<path id="Path_2831" class="st0" d="M2.6,6.3H1.7V0.8H0V0h4.3v0.8H2.6L2.6,6.3z M1.9,6.1h0.6V0.7h1.7V0.1h-4v0.5h1.7L1.9,6.1z"/>
		</g>
		<g id="Group_508" transform="translate(38.128 9.811)">
			<path id="Path_2832" class="st0" d="M0.8,0.1v6.1H0.1V0.1H0.8z"/>
			<path id="Path_2833" class="st0" d="M0.9,6.3H0V0h0.9V6.3z M0.2,6.1h0.6v-6H0.2V6.1z"/>
		</g>
		<g id="Group_509" transform="translate(40.191 9.711)">
			<path id="Path_2834" class="st0" d="M5.2,3.2c0,2.1-1.2,3.2-2.6,3.2c-1.5,0-2.5-1.3-2.5-3.1c0-1.9,1.1-3.2,2.6-3.2
				C4.2,0.1,5.2,1.4,5.2,3.2z M0.8,3.3c0,1.3,0.6,2.5,1.8,2.5s1.8-1.2,1.8-2.6c0-1.2-0.6-2.5-1.8-2.5S0.8,1.9,0.8,3.3L0.8,3.3z"/>
			<path id="Path_2835" class="st0" d="M2.6,6.5C1.1,6.5,0,5.2,0,3.3C0,1.4,1.1,0,2.7,0c1.5,0,2.6,1.3,2.6,3.2
				C5.2,5.5,3.9,6.5,2.6,6.5z M2.7,0.1c-1.5,0-2.5,1.3-2.5,3.1c0,1.8,1,3,2.4,3c1.5,0,2.5-1.2,2.5-3.2C5.1,1.4,4.1,0.1,2.7,0.1
				L2.7,0.1z M2.6,5.8c-1.2,0-1.9-1.3-1.9-2.6c0-1.3,0.6-2.6,1.9-2.6c1.3,0,1.9,1.3,1.9,2.6C4.5,4.8,3.7,5.8,2.6,5.8L2.6,5.8z
				 M2.6,0.8C1.4,0.8,0.9,2,0.9,3.3c0,1.2,0.6,2.4,1.7,2.4c1.2,0,1.7-1.2,1.7-2.5C4.3,2,3.8,0.8,2.6,0.8z"/>
		</g>
		<g id="Group_510" transform="translate(46.622 9.811)">
			<path id="Path_2836" class="st0" d="M0.1,6.2V0.1h0.8l1.8,3.1c0.4,0.6,0.7,1.3,1,2l0,0C3.6,4.3,3.6,3.6,3.6,2.6V0.1h0.7v6.1H3.5
				L1.8,3.1C1.4,2.4,1,1.7,0.7,1l0,0c0,0.8,0.1,1.5,0.1,2.5v2.6L0.1,6.2z"/>
			<path id="Path_2837" class="st0" d="M4.3,6.3H3.5L1.7,3.1C1.4,2.6,1.1,2,0.8,1.4c0,0.7,0,1.4,0,2.2v2.7H0V0h0.9l1.8,3.1
				c0.3,0.6,0.6,1.1,0.8,1.6c0-0.7-0.1-1.3-0.1-2.1V0h0.8L4.3,6.3z M3.6,6.1h0.6v-6H3.7v2.5c0,0.9,0,1.7,0.1,2.5v0.1L3.6,5.3l0-0.1
				c-0.3-0.7-0.6-1.3-1-2L0.8,0.2H0.2v6h0.5V3.6c0-1,0-1.7-0.1-2.5V1L0.8,1l0,0.1c0.3,0.7,0.7,1.4,1,2L3.6,6.1z"/>
		</g>
		<g id="Group_511" transform="translate(54.311 9.711)">
			<path id="Path_2838" class="st0" d="M5.2,3.2c0,2.1-1.2,3.2-2.6,3.2c-1.5,0-2.5-1.3-2.5-3.1c0-1.9,1.1-3.2,2.6-3.2
				C4.2,0.1,5.2,1.4,5.2,3.2z M0.8,3.3c0,1.3,0.6,2.5,1.8,2.5s1.8-1.2,1.8-2.6c0-1.2-0.6-2.5-1.8-2.5S0.8,1.9,0.8,3.3L0.8,3.3z"/>
			<path id="Path_2839" class="st0" d="M2.6,6.5C1.1,6.5,0,5.2,0,3.3C0,1.4,1.1,0,2.7,0c1.5,0,2.6,1.3,2.6,3.2
				C5.2,5.5,3.9,6.5,2.6,6.5z M2.7,0.1c-1.5,0-2.5,1.3-2.5,3.1c0,1.8,1,3,2.4,3c1.5,0,2.5-1.2,2.5-3.2C5.1,1.4,4.1,0.1,2.7,0.1
				L2.7,0.1z M2.6,5.8c-1.2,0-1.9-1.3-1.9-2.6c0-1.3,0.6-2.6,1.9-2.6c1.3,0,1.9,1.3,1.9,2.6C4.5,4.8,3.7,5.8,2.6,5.8L2.6,5.8z
				 M2.6,0.8C1.4,0.8,0.9,2,0.9,3.3c0,1.2,0.6,2.4,1.7,2.4c1.2,0,1.7-1.2,1.7-2.5C4.3,2,3.8,0.8,2.6,0.8L2.6,0.8z"/>
		</g>
		<g id="Group_512" transform="translate(60.742 9.811)">
			<path id="Path_2840" class="st0" d="M0.1,0.1h3v0.7H0.8v2h2.1v0.7H0.8v2.8H0.1L0.1,0.1z"/>
			<path id="Path_2841" class="st0" d="M0.9,6.3H0V0h3.2v0.8H0.9v1.9H3v0.8H0.9L0.9,6.3z M0.2,6.1h0.6V3.4h2.1V2.9H0.7V0.7H3V0.1
				H0.2L0.2,6.1z"/>
		</g>
		<g id="Group_513" transform="translate(0.634 19.476)">
			<path id="Path_2842" class="st0" d="M0.1,0.2c0.4-0.1,0.9-0.1,1.3-0.1C1.9,0,2.5,0.2,2.9,0.5c0.3,0.3,0.5,0.7,0.5,1.1
				c0,0.6-0.4,1.1-0.9,1.3v0c0.7,0.2,1.2,0.8,1.2,1.5c0,0.5-0.2,0.9-0.5,1.2C2.6,6.2,1.9,6.4,1.2,6.3c-0.4,0-0.7,0-1.1-0.1V0.2z
				 M0.8,2.7h0.7C2,2.8,2.6,2.4,2.6,1.8c0,0,0-0.1,0-0.1c0-0.7-0.5-1-1.2-1c-0.2,0-0.4,0-0.6,0.1L0.8,2.7z M0.8,5.7
				c0.2,0,0.4,0,0.6,0c0.7,0,1.4-0.3,1.4-1.2c0-0.8-0.7-1.2-1.4-1.2H0.8L0.8,5.7z"/>
			<path id="Path_2843" class="st0" d="M1.2,6.4c-0.4,0-0.8,0-1.1-0.1L0,6.3V0.1l0.1,0C0.5,0,0.9,0,1.4,0C2-0.1,2.5,0.1,3,0.5
				c0.3,0.3,0.5,0.7,0.5,1.1c0,0.6-0.3,1.1-0.8,1.3c0.6,0.2,1.1,0.9,1,1.6c0,0.5-0.2,0.9-0.5,1.3C2.6,6.2,1.9,6.5,1.2,6.4z M0.2,6.2
				c0.3,0,0.7,0.1,1,0.1c0.7,0.1,1.3-0.1,1.9-0.6c0.3-0.3,0.5-0.7,0.5-1.2c0-0.7-0.4-1.3-1.1-1.5L2.4,3V2.9l0,0
				C3,2.7,3.3,2.2,3.3,1.6c0-0.4-0.1-0.8-0.4-1c-0.4-0.3-1-0.5-1.5-0.4c-0.4,0-0.8,0-1.2,0.1L0.2,6.2z M1.4,5.8c-0.2,0-0.4,0-0.6,0
				l-0.1,0V3.2h0.7c1,0,1.5,0.5,1.5,1.3C2.9,5.3,2.4,5.8,1.4,5.8L1.4,5.8z M0.9,5.6c0.2,0,0.4,0,0.5,0c0.5,0,1.4-0.1,1.4-1.1
				c0-1-1-1.1-1.4-1.1H0.9L0.9,5.6z M1.5,2.8H0.7V0.7l0.1,0c0.2,0,0.4-0.1,0.7-0.1c0.8,0,1.3,0.4,1.3,1.1c0,0.6-0.5,1.1-1.2,1.1
				C1.5,2.8,1.5,2.8,1.5,2.8L1.5,2.8z M0.9,2.6h0.6c0.7,0,1.1-0.4,1.1-1c0-0.6-0.4-0.9-1.1-0.9c-0.2,0-0.4,0-0.6,0L0.9,2.6z"/>
		</g>
		<g id="Group_514" transform="translate(6.477 19.523)">
			<path id="Path_2844" class="st0" d="M1.4,4.3L0.8,6.2H0.1L2,0.1h0.9l1.9,6.1H4L3.4,4.3H1.4z M3.3,3.7L2.7,1.9
				C2.6,1.5,2.5,1.1,2.4,0.8h0C2.3,1.1,2.2,1.5,2.1,1.9L1.6,3.7H3.3z"/>
			<path id="Path_2845" class="st0" d="M4.9,6.3H3.9L3.3,4.4H1.5L0.9,6.3H0L1.9,0h1l0,0.1L4.9,6.3z M4.1,6.1h0.6l-1.9-6H2.1l-1.8,6
				h0.6l0.6-1.9h2.1L4.1,6.1z M3.4,3.7H1.5L2,1.9c0.1-0.4,0.2-0.8,0.3-1.1l0-0.1h0.1l0,0.2c0.1,0.3,0.2,0.7,0.3,1L3.4,3.7z M1.7,3.6
				h1.5L2.6,1.9C2.5,1.6,2.5,1.3,2.4,1.1C2.3,1.3,2.3,1.6,2.2,1.9L1.7,3.6z"/>
		</g>
		<g id="Group_515" transform="translate(13.795 19.523)">
			<path id="Path_2846" class="st0" d="M0.1,6.2V0.1h0.8l1.8,3.1c0.4,0.6,0.7,1.3,1,2l0,0C3.6,4.3,3.6,3.6,3.6,2.6V0.1h0.7v6.1H3.5
				L1.8,3.1C1.4,2.4,1,1.7,0.7,1l0,0c0,0.8,0.1,1.5,0.1,2.5v2.6L0.1,6.2z"/>
			<path id="Path_2847" class="st0" d="M4.3,6.3H3.5L1.7,3.1C1.4,2.6,1.1,2,0.8,1.4c0,0.7,0,1.4,0,2.2v2.7H0V0h0.9l1.8,3.1
				c0.3,0.6,0.6,1.1,0.8,1.6c0-0.7-0.1-1.3-0.1-2.1V0h0.8L4.3,6.3z M3.6,6.1h0.6v-6H3.7v2.5c0,0.9,0,1.7,0.1,2.5v0.1L3.6,5.3l0-0.1
				c-0.3-0.7-0.6-1.3-1-2L0.8,0.2H0.1v6h0.5V3.6c0-1,0-1.7-0.1-2.5V1l0.1-0.1l0,0.1c0.3,0.7,0.7,1.4,1,2L3.6,6.1z"/>
		</g>
		<g id="Group_516" transform="translate(20.725 19.461)">
			<path id="Path_2848" class="st0" d="M4.6,6C4.1,6.2,3.5,6.3,2.9,6.3c-0.8,0-1.5-0.3-2.1-0.8C0.3,4.9,0,4.1,0.1,3.2
				c-0.1-1.6,1.1-3,2.7-3.2c0.1,0,0.2,0,0.3,0c0.5,0,1,0.1,1.4,0.3L4.3,1C3.9,0.8,3.5,0.7,3.1,0.7c-1.2,0-2.2,0.9-2.3,2.1
				c0,0.1,0,0.2,0,0.3c0,1.6,0.8,2.5,2.2,2.5c0.3,0,0.7,0,1-0.2V3.7H2.8V3.1h1.8L4.6,6z"/>
			<path id="Path_2849" class="st0" d="M2.9,6.4c-0.8,0-1.6-0.3-2.1-0.8C0.2,4.9,0,4.1,0,3.2C-0.1,1.6,1.1,0.1,2.8,0
				C2.9,0,3,0,3.1,0c0.5,0,1,0.1,1.4,0.3l0.1,0L4.4,1.1l-0.1,0C3.9,0.9,3.5,0.8,3.1,0.8c-1.2,0-2.1,0.9-2.2,2.1c0,0.1,0,0.2,0,0.3
				c0,1.5,0.8,2.4,2.1,2.4c0.3,0,0.6,0,0.9-0.1V3.8H2.7V3h2V6l0,0C4.1,6.3,3.5,6.4,2.9,6.4z M3.1,0.1c-1.6,0-2.9,1.2-2.9,2.8
				c0,0.1,0,0.2,0,0.3c0,0.8,0.2,1.6,0.8,2.2c0.5,0.5,1.3,0.8,2,0.8c0.6,0,1.1-0.1,1.6-0.3V3.1H2.9v0.5H4v2l0,0
				C3.7,5.7,3.3,5.8,3,5.8c-1.4,0-2.2-1-2.2-2.6C0.6,2,1.5,0.8,2.8,0.7c0.1,0,0.2,0,0.3,0c0.4,0,0.8,0.1,1.2,0.2l0.1-0.5
				C4,0.2,3.5,0.1,3.1,0.1L3.1,0.1z"/>
		</g>
		<g id="Group_517" transform="translate(28.206 19.523)">
			<path id="Path_2850" class="st0" d="M0.1,0.1h0.7v5.5h2.4v0.7H0.1L0.1,0.1z"/>
			<path id="Path_2851" class="st0" d="M3.3,6.3H0V0h0.9v5.5h2.4V6.3z M0.2,6.1h3V5.6H0.7V0.1H0.2L0.2,6.1z"/>
		</g>
		<g id="Group_518" transform="translate(33.495 19.523)">
			<path id="Path_2852" class="st0" d="M1.4,4.3L0.8,6.2H0.1L2,0.1h0.9l1.9,6.1H4L3.4,4.3H1.4z M3.3,3.7L2.7,1.9
				C2.6,1.5,2.5,1.1,2.4,0.8h0C2.3,1.1,2.2,1.5,2.1,1.9L1.6,3.7H3.3z"/>
			<path id="Path_2853" class="st0" d="M4.9,6.3H3.9L3.3,4.4H1.5L0.9,6.3H0L1.9,0h1l0,0.1L4.9,6.3z M4.1,6.1h0.6l-1.9-6H2.1l-1.8,6
				h0.6l0.6-1.9h2.1L4.1,6.1z M3.4,3.7H1.5L2,1.9c0.1-0.4,0.2-0.8,0.3-1.1l0-0.1h0.1l0,0.2c0.1,0.3,0.2,0.6,0.3,1L3.4,3.7z M1.7,3.6
				h1.5L2.6,1.9C2.5,1.6,2.5,1.3,2.4,1.1C2.4,1.3,2.3,1.6,2.2,1.9L1.7,3.6z"/>
		</g>
		<g id="Group_519" transform="translate(40.813 19.476)">
			<path id="Path_2854" class="st0" d="M0.1,0.2c0.5-0.1,1-0.1,1.5-0.1C2.4,0,3.3,0.3,3.9,0.8C4.4,1.4,4.7,2.2,4.7,3
				c0,0.9-0.2,1.7-0.8,2.4C3.2,6.1,2.3,6.4,1.4,6.3c-0.4,0-0.9,0-1.3-0.1L0.1,0.2z M0.8,5.6c0.2,0,0.5,0,0.7,0
				c1.5,0,2.4-0.9,2.4-2.6c0.2-1.1-0.6-2.2-1.8-2.4c-0.2,0-0.3,0-0.5,0c-0.3,0-0.6,0-0.8,0.1V5.6z"/>
			<path id="Path_2855" class="st0" d="M1.4,6.4c-0.4,0-0.9,0-1.3-0.1L0,6.3V0.1l0.1,0C0.6,0,1.1,0,1.6,0c0.8-0.1,1.7,0.2,2.3,0.8
				C4.5,1.4,4.8,2.2,4.7,3c0,0.9-0.3,1.8-0.8,2.4C3.2,6.1,2.3,6.5,1.4,6.4z M0.2,6.2c0.4,0,0.8,0.1,1.2,0.1C2.3,6.3,3.1,6,3.8,5.4
				C4.3,4.7,4.6,3.9,4.6,3c0-0.8-0.2-1.6-0.8-2.1C3.2,0.4,2.4,0.1,1.6,0.1c-0.5,0-1,0-1.5,0.1L0.2,6.2z M1.5,5.7c-0.2,0-0.5,0-0.7,0
				l-0.1,0v-5l0.1,0c0.3-0.1,0.6-0.1,0.9-0.1c0.6,0,1.2,0.2,1.7,0.6C3.8,1.7,4,2.4,4,3.1c0.1,0.7-0.2,1.5-0.7,2
				C2.8,5.6,2.2,5.8,1.5,5.7L1.5,5.7z M0.9,5.6c0.2,0,0.4,0,0.7,0c0.6,0,1.2-0.2,1.6-0.6c0.5-0.5,0.7-1.2,0.7-1.9
				c0-0.6-0.2-1.3-0.6-1.7c-0.4-0.4-1-0.6-1.6-0.6c-0.3,0-0.5,0-0.8,0.1L0.9,5.6z"/>
		</g>
		<g id="Group_520" transform="translate(48.134 19.523)">
			<path id="Path_2856" class="st0" d="M3,3.3H0.8v2.2h2.4v0.7H0.1V0.1h3v0.7H0.8v1.9H3L3,3.3z"/>
			<path id="Path_2857" class="st0" d="M3.3,6.3H0V0h3.2v0.8H0.9v1.8H3v0.8H0.9v2.1h2.4L3.3,6.3z M0.2,6.1h3V5.6H0.7V3.3h2.2V2.8
				H0.7V0.7H3V0.1H0.2V6.1z"/>
		</g>
		<g id="Group_521" transform="translate(53.722 19.427)">
			<path id="Path_2858" class="st0" d="M0.3,5.3c0.4,0.3,0.8,0.4,1.3,0.4c0.6,0.1,1.1-0.3,1.2-0.9c0-0.1,0-0.1,0-0.2
				c0-0.6-0.3-0.9-1.1-1.2C0.8,3.1,0.2,2.6,0.2,1.7c0-0.9,0.7-1.7,1.7-1.7c0,0,0.1,0,0.1,0c0.4,0,0.9,0.1,1.2,0.3L3,1
				C2.7,0.8,2.4,0.7,2,0.7C1.5,0.7,1,1,0.9,1.5c0,0,0,0.1,0,0.1c0,0.6,0.3,0.9,1.1,1.2C3,3.2,3.5,3.7,3.5,4.6c0,1-0.7,1.8-1.7,1.8
				c-0.1,0-0.2,0-0.2,0C1,6.4,0.5,6.3,0.1,6L0.3,5.3z"/>
			<path id="Path_2859" class="st0" d="M1.5,6.5C1,6.5,0.5,6.3,0,6.1l0,0l0.2-0.8l0.1,0.1c0.4,0.2,0.8,0.4,1.2,0.4
				c0.5,0.1,1-0.3,1.1-0.8c0,0,0-0.1,0-0.1c0-0.5-0.3-0.8-1-1.1c-1-0.4-1.5-1-1.5-1.8c0-1,0.8-1.7,1.7-1.7C1.9,0,2,0,2,0
				c0.4,0,0.9,0.1,1.3,0.3l0,0L3.1,1.1L3,1.1C2.7,0.9,2.3,0.8,2,0.8C1.5,0.7,1.1,1.1,1,1.5c0,0,0,0.1,0,0.1c0,0.5,0.3,0.8,1.1,1.1
				c1,0.5,1.5,1,1.5,1.9c0,1-0.8,1.8-1.8,1.9C1.7,6.5,1.6,6.5,1.5,6.5z M0.2,6C0.6,6.2,1,6.3,1.5,6.3c0.9,0.1,1.8-0.5,1.9-1.5
				c0-0.1,0-0.2,0-0.2C3.4,3.8,3,3.3,2,2.9C1.3,2.6,0.9,2.3,0.9,1.6c0-0.6,0.5-1,1-1c0,0,0.1,0,0.1,0c0.4,0,0.7,0.1,1,0.3l0.2-0.5
				C2.8,0.2,2.4,0.1,2,0.1C1.1,0.1,0.4,0.7,0.3,1.6c0,0,0,0.1,0,0.1c0,0.8,0.5,1.3,1.4,1.7c0.8,0.3,1.1,0.7,1.1,1.3
				c0,0.6-0.5,1.1-1.1,1.1c0,0-0.1,0-0.1,0c-0.4,0-0.9-0.1-1.2-0.4L0.2,6z"/>
		</g>
		<g id="Group_522" transform="translate(59.908 19.523)">
			<path id="Path_2860" class="st0" d="M0.8,0.1v2.6h2.7V0.1h0.7v6.1H3.5V3.3H0.8v2.9H0.1V0.1H0.8z"/>
			<path id="Path_2861" class="st0" d="M4.3,6.3H3.4V3.4H0.9v2.9H0V0h0.9v2.6h2.5V0h0.9L4.3,6.3z M3.6,6.1h0.6v-6H3.6v2.6H0.7V0.1
				H0.1v6h0.6V3.3h2.8L3.6,6.1z"/>
		</g>
	</g>
	<path id="Path_2862" class="st1" d="M11.4,15.6h-0.5v2H11C11.1,17,11.2,16.3,11.4,15.6"/>
	<path id="Path_2863" class="st1" d="M10.9,22.2v0.5H11C10.9,22.4,10.9,22.2,10.9,22.2"/>
	<path id="Path_2864" class="st1" d="M10.9,19.4c0-0.3,0-0.5,0-0.7h0V19.4"/>
	<path id="Path_2865" class="st1" d="M16.1,12.3h-3.2c-0.5,0.8-0.9,1.6-1.2,2.5h3.1C15.1,13.8,15.6,13,16.1,12.3"/>
	<rect id="Rectangle_29" x="4.4" y="30.9" class="st1" width="6.5" height="0.8"/>
	<rect id="Rectangle_30" x="4.4" y="29.4" class="st1" width="6.5" height="0.9"/>
	<rect id="Rectangle_31" x="4.4" y="27.6" class="st1" width="6.5" height="1"/>
	<path id="Path_2866" class="st1" d="M10.9,22.2c0,0,0,0.2,0.1,0.5h4.8l-0.1-0.1c-0.2-0.5-0.4-0.9-0.6-1.4H4.4v1.5h6.5V22.2"/>
	<path id="Path_2867" class="st1" d="M14.5,15.6h-3.2c-0.2,0.6-0.3,1.3-0.4,2h3.3C14.3,17,14.4,16.3,14.5,15.6"/>
	<rect id="Rectangle_32" x="4.4" y="25.9" class="st1" width="6.5" height="0.9"/>
	<path id="Path_2868" class="st1" d="M14.8,29.4c0.4,0.4,1,0.7,1.5,0.9h6.5c0.5-0.2,0.9-0.5,1.3-0.9H14.8"/>
	<rect id="Rectangle_33" x="4.4" y="23.7" class="st1" width="6.5" height="1.2"/>
	<path id="Path_2869" class="st1" d="M16.3,23.7h-5c0.1,0.4,0.3,0.8,0.4,1.2h5.4C16.8,24.5,16.6,24.1,16.3,23.7"/>
	<path id="Path_2870" class="st1" d="M27.3,24.9c0.2-0.4,0.3-0.8,0.4-1.2h-7.9c-0.1,0.4-0.1,0.8-0.1,1.2H27.3"/>
	<rect id="Rectangle_34" x="0" y="0" class="st1" width="19.9" height="3.6"/>
	<path id="Path_2871" class="st1" d="M25.8,27.6H13.2c0.2,0.3,0.5,0.7,0.7,1H25C25.3,28.2,25.6,27.9,25.8,27.6"/>
	<path id="Path_2872" class="st1" d="M28.6,19.4c0-0.3,0-0.6,0-0.8h-7c-0.4,0.5-0.6,1-0.9,1.6h7.8C28.5,19.9,28.6,19.7,28.6,19.4"/>
	<path id="Path_2873" class="st1" d="M28.1,15.6h-4.9l0.7,0.9c-0.5,0.3-1.1,0.6-1.5,1.1h6.1C28.4,17,28.3,16.3,28.1,15.6"/>
	<path id="Path_2874" class="st1" d="M28.3,21.2h-8c-0.2,0.5-0.3,1-0.4,1.5h8C28.1,22.2,28.3,21.7,28.3,21.2"/>
	<path id="Path_2875" class="st1" d="M17,11.3c0.6-0.6,1.2-1.1,1.9-1.6l1.2,1.6h5.8C24.6,9.9,23,9,21.3,8.6h-3.4
		c-1.6,0.5-3.1,1.4-4.2,2.6H17"/>
	<rect id="Rectangle_35" x="4.4" y="8.6" class="st1" width="6.5" height="2.6"/>
	<path id="Path_2876" class="st1" d="M19.7,25.9c0,0.4,0,0.7,0,0.9h6.6c0.2-0.3,0.4-0.6,0.5-0.9H19.7"/>
	<path id="Path_2877" class="st1" d="M14.4,18.6h-3.5c0,0.2,0,0.5,0,0.7v-0.7H4.4v1.6h10.3C14.6,19.7,14.5,19.1,14.4,18.6"/>
	<path id="Path_2878" class="st1" d="M19.9,4.7H0v2.9h4.4v0h15.5V4.7"/>
	<rect id="Rectangle_36" x="4.4" y="12.3" class="st1" width="6.5" height="2.5"/>
	<path id="Path_2879" class="st1" d="M27.8,14.7c-0.3-0.9-0.7-1.7-1.2-2.5h-5.8l1.8,2.5H27.8"/>
	<rect id="Rectangle_37" x="4.4" y="15.6" class="st1" width="6.5" height="2"/>
	<path id="Path_2880" class="st1" d="M17.9,25.9h-5.7c0.1,0.3,0.3,0.6,0.5,0.9h6.2C18.5,26.5,18.2,26.2,17.9,25.9"/>
	<path id="Path_2881" class="st1" d="M59.5,30.3h5.4c0.3-0.3,0.7-0.6,0.9-0.9h-6.3L59.5,30.3"/>
	<path id="Path_2882" class="st1" d="M29.9,24.9h9.2v-0.9c-0.9,0.4-2,0.3-2.8-0.3h-6.8C29.6,24.1,29.7,24.5,29.9,24.9"/>
	<path id="Path_2883" class="st1" d="M50.4,14.7H56c0-0.9,0-1.8,0-2.5h-5.6V14.7"/>
	<path id="Path_2884" class="st1" d="M50.4,11.3H56c0-0.2,0-0.4,0-0.5c-0.1-0.7,0-1.4,0.1-2.1h-5.6c0,0.1,0,0.1,0,0.2L50.4,11.3"/>
	<path id="Path_2885" class="st1" d="M41.3,22.7h5.6l0-1.5h-5.6C41.3,21.7,41.3,22.2,41.3,22.7"/>
	<path id="Path_2886" class="st1" d="M37.4,8.7c-2,0.3-3.8,1.2-5.2,2.6H44C42.2,9.5,39.8,8.6,37.4,8.7"/>
	<path id="Path_2887" class="st1" d="M29.3,17.6h6c0.4-0.7,1-1.2,1.7-1.5c2.7-1,3.7,0.4,4.1,1.5h5.7c-0.1-0.7-0.2-1.3-0.4-2H29.7
		C29.5,16.3,29.4,17,29.3,17.6"/>
	<path id="Path_2888" class="st1" d="M41.2,18.7c0,0,0,0.6,0,1.5h5.6l0-1.6L41.2,18.7L41.2,18.7"/>
	<path id="Path_2889" class="st1" d="M50.4,17.6H56v-2h-5.6V17.6"/>
	<path id="Path_2890" class="st1" d="M41.3,28.5h14.6c0.1-0.3,0.1-0.6,0.1-1H41.2C41.2,27.9,41.3,28.3,41.3,28.5"/>
	<path id="Path_2891" class="st1" d="M50.4,24.9H56c0-0.4,0-0.8,0-1.2h-5.6V24.9"/>
	<path id="Path_2892" class="st1" d="M41.3,26.8H56c0-0.2,0-0.6,0-0.9H41.3C41.3,26.2,41.3,26.5,41.3,26.8"/>
	<path id="Path_2893" class="st1" d="M58.5,0c-3.5,0.2-5.5,1.7-6.6,3.6h12.7C63.5,1.3,61.1-0.1,58.5,0"/>
	<path id="Path_2894" class="st1" d="M30.7,26.8h8.4v-0.9h-8.9C30.4,26.2,30.5,26.5,30.7,26.8"/>
	<path id="Path_2895" class="st1" d="M50.4,20.2H56c0-0.5,0-1,0-1.6h-5.6L50.4,20.2"/>
	<path id="Path_2896" class="st1" d="M50.5,7.6h5.9c0.1-0.2,0.2-0.4,0.4-0.5c2.4-1.7,3.7-0.4,4.2,0.5h5.1c0-0.2-0.1-0.4-0.1-0.5
		c-0.2-0.8-0.4-1.6-0.8-2.4H51.3C51,5.7,50.7,6.6,50.5,7.6"/>
	<path id="Path_2897" class="st1" d="M50.4,22.7H56c0-0.5,0-1,0-1.5h-5.6V22.7"/>
	<path id="Path_2898" class="st1" d="M41.4,29.4c0.1,0.3,0.2,0.6,0.3,0.9h13.5c0.2-0.3,0.3-0.6,0.4-0.9H41.4"/>
	<path id="Path_2899" class="st1" d="M57.9,13.9v0.9h7.9c0.2-0.8,0.4-1.6,0.4-2.5h-5C60.4,14.4,57.9,13.9,57.9,13.9"/>
	<path id="Path_2900" class="st1" d="M46.1,14.7c-0.3-0.9-0.7-1.7-1.2-2.5H31.3c-0.5,0.8-1,1.6-1.3,2.5H46.1"/>
	<path id="Path_2901" class="st1" d="M57.9,17.6h9.5c-0.3-0.7-0.7-1.4-1.1-2h-8.3L57.9,17.6"/>
	<path id="Path_2902" class="st1" d="M32.6,29.4c0.3,0.3,0.7,0.6,1.1,0.9h5.4v-0.9H32.6"/>
	<path id="Path_2903" class="st1" d="M59.5,31.9c1.6,0.2,3.1-0.1,4.5-0.9h-4.5V31.9"/>
	<path id="Path_2904" class="st1" d="M61.6,11.3h4.8c0-0.9,0-1.8-0.1-2.6h-4.8C61.6,9.5,61.7,10.4,61.6,11.3"/>
	<path id="Path_2905" class="st1" d="M34.9,18.6h-5.8c0,0.6-0.1,1.1-0.1,1.6h5.7C34.7,19.7,34.8,19.1,34.9,18.6"/>
	<path id="Path_2906" class="st1" d="M41.3,23.7v1.2h5.7l0-1.2H41.3"/>
	<path id="Path_2907" class="st1" d="M35.2,22.3c-0.1-0.4-0.2-0.8-0.3-1.2h-5.8c0,0.7,0.1,1.2,0.1,1.2c0,0.1,0,0.2,0.1,0.3h6.2
		C35.3,22.6,35.3,22.5,35.2,22.3"/>
	<path id="Path_2908" class="st1" d="M59.5,28.5h7c0.2-0.3,0.4-0.6,0.6-1h-7.7V28.5"/>
	<path id="Path_2909" class="st1" d="M62.1,22.7h6.4c0-0.5,0-1-0.1-1.5h-6.6C61.9,21.7,62,22.2,62.1,22.7"/>
	<path id="Path_2910" class="st1" d="M57.9,19.8c1-0.3,2.1-0.1,3,0.4h7.3c-0.1-0.5-0.3-1.1-0.4-1.6h-9.8L57.9,19.8"/>
	<path id="Path_2911" class="st1" d="M61.4,24.9h6.8c0.1-0.4,0.2-0.8,0.2-1.2H62C61.9,24.1,61.7,24.5,61.4,24.9"/>
	<path id="Path_2912" class="st1" d="M31.1,27.6c0.2,0.3,0.4,0.7,0.7,1h7.3v-1H31.1"/>
	<path id="Path_2913" class="st1" d="M59.5,26.2v0.6h8c0.1-0.2,0.2-0.3,0.2-0.5c0.1-0.2,0.1-0.3,0.2-0.4h-7.6
		C60,26,59.7,26.1,59.5,26.2"/>
	<path id="Path_2914" class="st1" d="M22.9,30.3h-6.5l0.2,0.1c0.4,0.3,0.9,0.5,1.4,0.6h3.3c0.5-0.1,1-0.3,1.4-0.6L22.9,30.3"/>
	<path id="Path_2915" class="st1" d="M55.3,30.3H41.7c0.1,0.2,0.3,0.5,0.4,0.7h12.6C55,30.8,55.1,30.5,55.3,30.3"/>
	<path id="Path_2916" class="st1" d="M33.7,30.3c0.3,0.2,0.7,0.5,1.1,0.7h4.3v-0.7H33.7"/>
</g>
</svg>
