<svg version="1.1" id="Layer_1" xmlns="http://www.w3.org/2000/svg" xmlns:xlink="http://www.w3.org/1999/xlink" x="0" y="0" viewBox="0 0 63.3 63" style="enable-background:new 0 0 63.3 63" xml:space="preserve"><style>.st0{fill:#fff}.st4{fill:#241e22}.st5{fill:#30388d}</style><path class="st0" d="m6.5 12.2-.6-1.4-.2.2.6 1.6c.1-.1.1-.2.2-.4 0 .1 0 .1 0 0 0 .1 0 .1 0 0zM11.7 7c-.1 0-.2-.1-.2-.2l-.3-1.2-.3.2.5 1.4c.2 0 .3-.1.3-.2zm-7.6 6.4.8 1.1.1-.1-.7-1.2c-.1 0-.2.1-.2.2zM8 8.6l.5 1.6c.2-.4.5-.7.8-1l-.5-1.5-.8.9zm-.3.3-.2.2.5 1.3c0 .1 0 .2-.1.3h-.1c-.1 0-.2-.1-.2-.1l-.4-1.2-1.1 1.2c.1 0 .1.1.1.1l.6 1.3c.4-.5.9-1 1.4-1.5l-.1-.1-.4-1.5zm2-2.1.4 1.6c.3-.3.7-.6 1-.9l-.6-1.4-.8.7zm-.6.4.5 1.7.2-.2L9.4 7zm-3.6 4.3c-.4.4-.7.8-1.1 1.2l.8 1.3c.3-.4.5-.7.8-1.1l-.5-1.4zM1 23.3c.3 1.1 1 2.1 1.9 2.6.2.1.5.3.7.4l.1-.1-.1-.2v-.2c0-.1.1-.1.1-.1l.8-.3-1.1-.6-.8.2c-.1 0-.2 0-.3-.1 0-.1 0-.2.1-.3l.6-.2c0-.1 0-.3-.1-.4-.1-.2-.2-.5-.3-.7H1zm2.3-8.7s0 .1-.1.1c0 0 .1 0 .1.1l.7 1 .6-.9-.8-1.1c-.1.2-.3.5-.5.8zm-.9 8.2v-.2l-1.5-.3c0 .2 0 .3.1.5h1.4c0 .1 0 .1 0 0zM1.7 18 1 19.6l1.3.6.3-1.2-.3-.3c-.1-.3-.4-.5-.6-.7zm1.2-2.7s.1 0 0 0l.8 1.1c0-.1.1-.2.1-.3L3 15c0 .1 0 .2-.1.3zm-.2.4c-.1.1-.1.2-.2.3-.1.2-.3.4-.3.6 0 0 0 .1-.1.1l.9 1.2c.1-.4.3-.7.5-1.1l-.8-1.1zM2 17.2c0 .1-.1.1-.1.2 0 0-.1.1-.1.2.3.3.5.6.8.9l.1.1c0-.1 0-.1.1-.2v-.1L2 17.2zM13.7 3.7l-.1.1c-.1 0-.1.1-.2.1l.1.1.4 1.3c.3-.2.7-.5 1-.7l-.5-1.4c-.2.2-.5.4-.7.5zm-1.2.9c-.1.1-.2.1-.3.2-.2.1-.4.3-.6.4l.3 1.6v.1c.3-.3.7-.6 1.1-.9l-.5-1.4zm9.2-3.5-.1-.7h-.3c-.3 0-.7.1-1 .2-.1 0-.2.1-.3.1l-.2 1.4c.8 0 1.4-.3 1.9-1zm.6-.7H22v.3l.3-.3zM25 1.7l-.3-.3-1.5.7.2.1 1.6-.5zm13.2 57.4h-1.8l.2.4 1.6-.2c.1-.1 0-.2 0-.2zM26.4 3.6l-1.7.3.1.1.1-.1h1.7c0-.1-.1-.2-.2-.3zm-.3-.5c-.3-.5-.6-.8-.9-1.1 0 .1-.1.1-.1.1l-1.4.5s.1 0 .1.1l.6.9.1-.1 1.6-.4c.1.1.1 0 0 0zM22.7.4c0 .1 0 .1 0 0-.3.5-.6.9-1 1.3l.9.4 1.8-.9c-.5-.4-1.1-.7-1.7-.8zM2.2 20.5l-1-.5v.1l1.1.6c-.1-.1-.1-.1-.1-.2zM13 4.2c-.1.1-.2.1-.3.2l.1.1.4 1.3c.1-.1.2-.1.2-.2L13 4.2zm2-1.3c-.1 0-.2.1-.3.1v.1l.4 1.3c.1 0 .1-.1.2-.1l-.1-.1-.2-1.3zm1.8-1c-.5.3-1 .5-1.5.8l.4 1.4c.4-.2.7-.4 1.1-.7V1.9zm2.5-.9c-.1.3-.1.7-.2 1.1v.1c.1 0 .2-.1.3-.1l.2-1.2h-.1s-.1 0-.2.1zm-1.4.6-.1 1.2c.2 0 .3-.1.4-.1.1-.1.3-.1.4-.2h.1v-.4c0-.3.1-.7.1-1-.4.1-.8.3-1.1.4.1-.1.2 0 .2.1zm-.7.1v1.5c.1 0 .1-.1.2-.1l.1-1.6c-.1.1-.2.1-.3.2zm-3.1 56.7c0 .1 0 .1-.1.1l-1 .6c.3.2.6.4 1 .6l1.1-.7c-.4-.2-.7-.4-1-.6zM4.3 47.7l-.1-.2-.1.1-1.3.4c0 .1.1.2.1.3l1.2-.5c.1-.1.2-.1.2-.1zm.9 1.4-.7-1.2c0 .1 0 .1-.1.2l-1.2.5c.2.3.4.7.6 1l.1-.1 1.3-.4zm.2.3c-.1 0-.1 0 0 0l-1.4.4h-.1c.1.1.2.2.3.4l1.3-.5-.1-.3zM4 47.3 3.3 46H1.8c.3.5.5 1.1.8 1.6l1.4-.3zm2.9 4.1h-.1l-1.6.2c.1.1.2.2.3.4h.1l1.4-.4-.1-.2zm.4.5-1.6.5c.2.3.5.6.7.9 0 0 .1 0 .1-.1l1.6-.5-.8-.8zm-4.4-6.4H1.5c0 .1.1.1.1.2H3l-.1-.2zM5.7 50l-1.3.5c.2.3.4.6.6.8l1.4-.2-.7-1.1zm-3.6-5.8L1 44c.2.4.3.8.4 1.1v.1h1.3l-.6-1zm.5-4.6L1.9 38l-.1.2c0 .1-.1.1-.2.1l.9 1.5c0-.1.1-.1.1-.2zm1.2-1.1c-.1 0-.2-.1-.2-.2l-.1-1.4c-.4.2-.7.5-1.1.8h-.2l.7 1.5c.3-.2.6-.4.9-.7zm.2-.2c0 .1-.1.1 0 0-.1.1-.1.1 0 0 .1 0 .1 0 .2-.1l.1-1.6c-.1 0-.3.1-.4.1l.1 1.6zm-1.9 5.3-1.3-.2v.2l1.2.2c.1-.1.1-.2.1-.2zm7.1 11.3.3-.4c0-.1.1-.1.2-.1L8.3 53s-.1 0-.1.1l-1.6.5c.1.1.1.2.2.3h.1l.1-.1 1.4-.4c.1 0 .2 0 .2.1s0 .2-.1.2l-1.3.4c.3.3.5.6.8.8l.5.5.6-.3c.1 0 .1-.1.1-.2zM1.9 41.3c0-.1.1-.1.1-.2 0-.3.1-.6.2-.9l-.9-1.4c-.6.6-.9 1.4-.9 2.2.7-.1 1.2 0 1.5.3zm.1 1.2c-.2-.9-.5-1.2-1.5-1.1 0 .6.1 1.1.2 1.7h.1l1.3.2c0-.4 0-.6-.1-.8zm21.8 17.4.7 1.2c.2-.2.5-.5.7-.8l-.6-1.3-.8.9zm-1.9 1-.5 1.5h.5l.2-1.4-.2-.1zm-.8 1.4.4-1.4-1 .1-.8 1.1s-.1 0-.1.1c.5.3 1 .3 1.5.2 0 0-.1 0 0-.1zM9.9 54.6v.1l-.2.3c.1 0 .1.1.1.2s-.1.1-.1.2l-.8.4c.4.4.8.8 1.2 1.1 0-.1 0-.2.1-.2.4-.2.8-.4 1.2-.4l-1.5-1.7zM.9 22l1.4.3c-.1-.4-.1-.8-.1-1.2L1 20.5c-.1.5-.2 1-.1 1.5-.1 0 0 0 0 0zm21.6 38.7.1.1-.2 1.3c.7-.2 1.3-.5 1.8-.9l-.6-1.1-1.1.6zm3.2-3.3-.8-.1-.2 1 .6 1.5c.2-.3.3-.6.4-.9.1-.3 0-.6 0-1v-.5zm-6.4 3.5c-.2-.1-.3-.1-.5-.1-.2-.1-.5-.1-.7-.2 0 .1 0 .2-.1.2l-.9.7c.3.1.7.3 1.1.4.2.1.3.1.5.2l.6-1.2zm.4 0-.5 1c.1.1.1.1.2.1v-.1l.6-.8-.3-.2zm-5.9-2.7-.1-.1-.1.1-1.2.6c.1.1.2.1.3.2 0-.1 0-.1.1-.2l1-.6zm4 2.2c-.1 0-.1 0 0 0l-.2-.1-.1.1-1.2.8c.1.1.2.1.4.2l1.1-1c-.1 0 0 0 0 0zM10.3 57v.1l.2.2s0-.1.1-.1l1.3-.5c-.4-.2-.9-.1-1.6.3zm2.5.3-.4-.4h-.1l-1.4.5c.4.3.8.6 1.3 1 0-.1 0-.1.1-.1l1.1-.6c-.2-.1-.4-.2-.6-.4zm3.3 2.3-1.2.8c.3.2.7.4 1 .6l1.2-.8c-.3-.3-.7-.5-1-.6zm-.6-.4c0 .1 0 .1 0 0l-1.2.8c.1 0 .2.1.2.1l1.2-.7-.2-.2zm23.1.4-1.7.2.9 1.3h.1l1.4-.7c-.3-.3-.5-.5-.7-.8zm19.7-11.5c.1 0 .1.1 0 0l.8 1.1.6-.9-.8-1.1-.6.9zM50.4 4.2s-.1 0 0 0l-1 .6h-.2c.1.1.2.1.3.2 0 0 0-.1.1-.1l1.1-.6c-.2 0-.2-.1-.3-.1zm.6.4-1.2.6c.4.3.7.5 1 .8l.1-.1 1.2-.4c-.3-.2-.7-.6-1.1-.9zm1.5 1.3-1.3.4c.1.1.2.2.3.2l1.3-.5c-.1 0-.2 0-.3-.1zm-2.5-2c-.3-.2-.7-.5-1-.7 0 .1 0 .2-.1.2L48 4c.4.2.8.5 1.1.7-.1-.1 0-.2.1-.3l.8-.5zm5 4.2c-.2-.1-.3-.3-.5-.4h-.1c-.1 0-.1.1-.2.1 0 0 0 .1.1.2v.2c0 .1-.1.1-.1.1l-.7.3.8.8 1.5-.4c-.2-.4-.5-.7-.8-.9zm1.2 1.1c0 .1 0 .1 0 0l-1.5.5.2.2 1.7-.3c-.1-.1-.3-.2-.4-.4zM39.9 60.8c-.1-.1-.2-.1-.3-.2h-.1l-1.4.7.2.2c.1 0 .1-.1.1-.1l.6-.3.9-.3zm14-53.1c.1-.2.2-.2.3-.3-.1-.1-.2-.2-.3-.2-.3-.3-.6-.5-.9-.8l-1.3.5c.5.5 1 .9 1.5 1.4l.7-.3v-.3zm-5.1-4.6c-.1-.1-.2-.2-.4-.2 0 .1 0 .1-.1.2l-1 .6c.1 0 .2.1.3.1 0 0 0-.1.1-.1l1.1-.6zm-9.6-1.2.5 1c.4-.2.7-.4 1.1-.5v-.1l.1-1.4c-.7.1-1.3.4-1.7 1zm-.3.1c-.4.1-.7.4-.9.7.1 0 .2.1.2.1l.4 1.3.9-1.1v-.1l-.6-.9zM41.5.9h-.3l-.1 1.4h.1v-.2l.3-1.2zm2-.1h-.4c-.4-.1-.7-.1-1.1-.2v.1c0 .1-.1.1-.1.1l-.3 1.3c.4 0 .8-.1 1.2 0V2l.7-1.2c0 .1 0 .1 0 0zm3 .9c0 .1 0 .1-.1.2l-1.1.8c.1 0 .2.1.3.1l1.3-.8c-.1-.1-.3-.2-.4-.3zm-8.2 3.1L37.8 3c-.1.2-.2.5-.3.7-.1.2-.2.5-.3.7.1.1.4.4 1.2.9V5c0-.1-.1-.1-.1-.2zm9.9-2.1c-.3-.2-.7-.4-1-.6 0 .1 0 .1-.1.2l-1 .7c.1.1.3.1.4.2.2.1.4.2.7.3 0-.1 0-.2.1-.2l.9-.6zm-2.5-1.3c-.6-.2-1.2-.4-1.8-.5v.2l-.6 1.1h.3l.4-1.1c0-.1.1-.2.2-.1.1 0 .1.2.1.3l-.5 1c.4.1.7.2 1 .3l1.2-1c0-.1-.2-.2-.3-.2zm14.7 22.3c-.2.3-.5.5-.9.8l.1.1.1 1.5c.4-.3.8-.5 1.2-.8l-.5-1.6zm1.1-4.2-.5-.4c0 .3.1.3.5.4zm-.7 3.7c-.1.1-.1.2-.2.3.1 0 .1.1.2.1l.4 1.4.3-.3-.7-1.5zM59 24.8v1.6c.1 0 .2-.1.3-.1l-.1-1.6s-.1.1-.2.1zm2.3-3.1c-.1.4-.2.8-.4 1.1.1 0 .1 0 .2.1l.6 1.4c.4-.5.7-1 .8-1.7l-1.2-.9zm1.2-1.5h-.2l-.4-.3c0 .1-.1.1-.2.1H61l.2 1.5 1.4 1.1.1-.1-.2-2.3zM60 14.5l-.6-.9-1.4.3c.1.1.1.2.2.3.2.3.4.5.5.8 0-.1.1-.1.1-.1l1.2-.4zm-.9-1.5-1.5.4c.1.1.1.1.1.2 0-.1.1-.1.1-.1l1.3-.3c.1 0 0-.1 0-.2zm-1.2-1.7c-.1-.1-.1-.2-.2-.3l-1.6.4c.1.1.2.2.3.4 0-.1.1-.2.2-.2l1.3-.3zm.3.4-1.6.3h-.1l.9 1.2.1-.1 1.4-.4c-.2-.4-.5-.7-.7-1zm3.2 5.7s0-.1-.1-.1H60s0 .1.1.1l.1.1h.1l1.1-.1c.1.1 0 0 0 0zm.8 1.7c-.2-.4-.4-.9-.5-1.3h-1.2c.1.2.3.5.4.7l1.6 1.2c-.2-.2-.2-.4-.3-.6zm-1.9-4.2-1.4.4h-.1c0 .1.1.1.1.2h.1l1.4-.3c0-.1-.1-.2-.1-.3zm.3.7-1.4.3c.2.4.4.7.7 1.1l.1-.1h1.2c-.2-.4-.4-.9-.6-1.3zM56.9 10l-1.6.3c.2.3.4.6.7.9h.1l1.5-.4c-.3-.3-.5-.6-.7-.8zM46.3 59.5l-.1 1.6 1.5-.9-.3-1.4-1.1.7zm15.6-19.6c-.1-.6-.4-1.1-.7-1.6 0 .1-.1.1-.2.1l-1 .1-.2.3c.3.3.5.6.6.9h.1l1.4.2zM47.7 58.7l.3 1.4c.1-.1.2-.1.3-.2l-.4-1.3-.2.1zm.5-.3.5 1.4c.3-.2.7-.4 1-.6l-.4-1.4-1.1.6zm3-2.5c.1 0 .2 0 .2.1l.4 1.3c.1-.1.2-.2.3-.2l-.5-1.5-.4.3zm9-17.9.1.1.8-.1c-.3-.4-.7-.7-1.2-1 0 0-.1 0-.1.1l-1 .3h-.1l-.2.2 1.2.7.2-.3h.3zM49.6 57.4l.4 1.5.2-.1-.6-1.4zm1.9.1-.4-1.4V56L50 57l.6 1.4c.3-.3.6-.5.9-.9 0 .1 0 .1 0 0zm-10.6 5.1c.7 0 1.4-.1 2.2-.3l.2-1.3c-.4.1-.7.2-1.1.3-.8.1-1.1.7-1.3 1.3zm2.8-1.6-.2 1.3h.2l.2-1.4c-.1 0-.1.1-.2.1-.1-.1 0-.1 0 0zm-2.6.3c-.7-.4-1.2-.1-1.9.3l-.6.3c.6.4 1.2.7 1.8.8v-.1c.2-.4.4-.9.8-1.2 0-.1 0-.1-.1-.1zm4.5-1.3c0 .1 0 .1 0 0v1.4c.1 0 .1-.1.2-.1l.1-1.4c-.1.1-.2.1-.3.1zm-1.4.8-.1 1.2c.4-.1.8-.3 1.1-.4v-1.4c-.3.2-.7.3-1 .4v.2zm16.4-20.5s.1 0 0 0l1.5.4v-.3l-1.5-.2v.1zm-1.4-3.6-.1.1.3-.1c-.1.1-.1.1-.2 0zm1.6 5.7 1.1.6v-.1h-.1l-1-.5zm-1.4 3.8c.1 0 .1 0 .2.1l.7 1c.2-.4.4-.7.6-1.1l-.9-1c-.2.3-.4.6-.6 1zm1.3-5.5c0 .4.1.7.1 1.1v.2h.1l1.1.6c.1-.5.1-1 .1-1.5l-1.4-.4zM58 48.6l.7 1.2c0-.1.1-.1.1-.2l-.8-1.1c.1 0 .1 0 0 .1zm1.3-2.1c0 .1-.1.2-.1.3 0 0 .1 0 .1.1l.7 1c0-.1.1-.1.1-.2l-.8-1.2zm1.4-3.7c-.1.4-.2.8-.4 1.2 0 0 .1 0 .1.1l.8 1.1s0-.1.1-.1c.1-.2.2-.3.2-.5.1-.2.1-.4.2-.7 0-.2.1-.3.1-.5h-.1l-1-.6zm-8.8 12.6s.1 0 0 0l.6 1.5c.3-.2.6-.5.9-.7l-.6-1.5-.9.7zm8.2-10.7c0 .1 0 .1 0 0l1 1c0-.1.1-.1.1-.2l-.9-1.2c-.1.2-.2.3-.2.4zM55 54.2l-.5-1.4c-.3.3-.6.6-.8.9l.5 1.6c.3-.3.6-.6.9-1 0 .1-.1 0-.1-.1zm1.9-4.1c.1 0 .2 0 .2.1l.5 1.2c.3-.4.6-.9.9-1.3l-.7-1.2-.9 1.2zM55 52.4c0 .1-.1.1-.1.2l.1.1.5 1.4.1-.1-.6-1.6c0 .1-.1.1 0 0zm-2 2 .6 1.5.3-.3-.5-1.5-.4.3zm3.7-2.1-.5-1.3c-.3.4-.7.8-1.1 1.2.1 0 .2 0 .2.1l.4 1.3c.4-.4.7-.8 1.1-1.3 0 .1-.1.1-.1 0zm0-1.9c-.1.1-.2.3-.3.4 0 0 .1 0 .1.1l.6 1.3c.1-.1.2-.2.2-.3l-.6-1.5z"/><path d="M59.4 36.3c-.5-.2-1-.3-1.5-.4-.2 0-.5-.1-.7-.1-.1 0-.2.1-.2.2s.1.2.2.2c.2.1.5.1.7.1.4.1.7.1 1.1.2l-.7.8-1.5-.1c-.1 0-.2.1-.2.2s.1.2.2.2l1.5.1h.1l1.3.8-.1.1c-.1.1 0 .2 0 .3.9.7.9 1.7.9 2.8v.7l-.1.1c-1.2 4.6-4.1 8.1-7.1 11.1v.1l-.6.4s-.1.1-.1.2l-3.4 2.8s0 .1-.1.1l-1.8 1.2-.1.1-1.2.8c-.1 0-.1.1-.1.2v.1h-.1c-.2.1-.3.1-.5.2-1.1.5-2.1.9-3.2 1.1-.3 0-.5.1-.7.3 0-.1 0-.2-.1-.3-.3-.2-.6-.2-.9-.2 0 0 0-.1-.1-.1-1.2-.7-1.8-1.8-2.5-3-.2-.3-.3-.7-.5-1-.1-.1-.2-.1-.3-.1-.1.1-.1.2-.1.3.2.3.4.7.5 1 .2.3.3.6.5.9h-1.5v-.1l-.2-1.4c0-.1-.1-.2-.2-.2s-.2.1-.2.2l.2 1.4c-.1 0-.1 0-.2.1v.2l1.7 2.5s.1.1.2.1h.1l.3.4c0 .1.1.1.2.1h.1s0 .1.1.1c.9.7 1.8.9 2.7.9.7 0 1.4-.1 2.1-.3 2.7-.6 4.9-2.1 7.1-3.6l.2-.1c.1 0 .1-.1.1-.2 3.4-2.3 6.3-5.3 8.7-9.1v-.1c.8-1.2 1.5-2.6 2.2-4v-.2l-.1-.1c0-.1.1-.2.1-.2l.3-.6c.1-.2.1-.4.2-.7.3-1.2.6-2.4.4-3.7-.4-1.7-1.4-3-3.1-3.8zM36.7 59.4l-.2-.4h1.8c0 .1.1.1.1.2l-1.7.2zm1.2 1.7c-.1 0-.1 0 0 0l-1-1.3 1.7-.2c.2.3.4.5.7.8l-1.4.7zm.4.5-.2-.2 1.4-.7h.1c.1.1.2.1.3.2-.3.1-.5.2-.8.4l-.6.3c-.1-.1-.1-.1-.2 0zm2.2 1c-.6-.1-1.2-.3-1.8-.8l.6-.3c.6-.3 1.2-.6 1.9-.3h.1c-.4.4-.6.9-.8 1.4 0-.1 0 0 0 0zm2.6-.3c-.8.2-1.6.3-2.2.3.3-.6.6-1.2 1.3-1.3.4-.1.8-.2 1.1-.3l-.2 1.3zm.6-.1h-.2l.2-1.3v-.1c.1 0 .1-.1.2-.1l-.2 1.5zm1.5-.6c-.4.2-.7.3-1.1.4l.2-1.3v-.1c.3-.1.7-.3 1-.4v1.4zm.6-.2c-.1 0-.1.1-.2.1v-1.4c.1 0 .2-.1.3-.1l-.1 1.4c0-.1 0-.1 0 0zM62 40.3v.3l-1.4-.4h-.1V40l1.5.3zm-2.8-3.6s.1 0 .1.1l-.3.1.2-.2zm-.7.9.2-.2h.1l1-.3s.1 0 .1-.1c.5.3.9.6 1.2 1l-.8.1s0-.1-.1-.1c-.1-.1-.2 0-.3 0l-.2.3-1.2-.7zm1.9 2.1c-.1-.3-.3-.6-.6-.9l.2-.3 1-.1c.1 0 .2-.1.2-.1.3.5.6 1 .7 1.6l-1.5-.2c.1 0 .1 0 0 0zM46.2 61.2l.1-1.6 1.1-.6.3 1.4c-.5.2-1 .5-1.5.8zm1.8-1.1-.3-1.4.1-.1.4 1.3c0 .1-.1.1-.2.2zm.7-.4-.5-1.4 1-.7.4 1.4c-.3.3-.6.5-.9.7zm1.5-1-.2.1-.4-1.5.1-.1.5 1.5c.1 0 0 0 0 0zm.4-.3L50 57l1.1-.9v.1l.4 1.4s0 .1.1.1c-.4.2-.7.4-1 .7zm1.2-1-.4-1.3c0-.1-.1-.2-.2-.1l.4-.3.5 1.5s-.2.1-.3.2zm.7-.5-.5-1.4s0-.1-.1-.1l.9-.7.6 1.5c-.4.2-.6.5-.9.7zm1.1-1-.6-1.5.3-.3.5 1.5c0 .1-.1.2-.2.3zm.6-.6-.5-1.6c.3-.3.6-.6.8-.9l.5 1.4c0 .1.1.1.2.1l-1 1zm1.2-1.1c0-.1 0-.1 0 0l-.5-1.5s0-.1-.1-.1c0-.1.1-.1.1-.2v.1l.5 1.7c0-.1 0-.1 0 0zm.4-.5-.4-1.3c0-.1-.1-.2-.2-.1.4-.4.7-.8 1.1-1.2l.6 1.3c0 .1.1.1.1.1-.5.4-.9.8-1.2 1.2zm1.3-1.6-.6-1.3s0-.1-.1-.1c.1-.1.2-.2.3-.4l.6 1.4c-.1.2-.2.3-.2.4zm.5-.6-.5-1.2c0-.1-.1-.1-.2-.1l.9-1.2.7 1.2c-.3.4-.6.8-.9 1.3zm1.1-1.7-.7-1.2.1-.1.8 1.1c-.1 0-.1.1-.2.2zm.4-.6-.7-1-.1-.1c.2-.3.4-.7.6-1l.8 1.1c-.2.4-.4.7-.6 1zm.8-1.3-.7-1s0-.1-.1-.1c.1-.1.1-.2.1-.3l.8 1.1c0 .1-.1.2-.1.3zm.3-.6-.7-1c0-.1-.1-.1-.2-.1.2-.3.3-.7.5-1.1l.9 1c0 .4-.2.8-.5 1.2zm.8-1.5-.9-1s-.1 0-.1-.1.1-.2.1-.4l.9 1.2c.1.1.1.2 0 .3zm.7-2c-.1.2-.1.4-.2.7 0 .2-.1.3-.2.5 0 0 0 .1-.1.1l-.8-1.1-.1-.1c.1-.4.3-.8.4-1.2l1 .5h.1c0 .3-.1.5-.1.6zm.2-.8-1.1-.5v-.1l1 .5c.1 0 .1 0 .1.1 0-.1 0-.1 0 0zm.1-.5-1.1-.5h-.1v-.2c0-.4 0-.7-.1-1.1l1.4.4c0 .4 0 .9-.1 1.4zm1.3-20.2-.4-2.2c0-.1-.1-.1-.1-.1.1 0 .1-.1.1-.2-.1-.3-.2-.5-.3-.8-.3-.6-.5-1.2-.8-1.8-.3-.6-.6-1.2-.8-1.8-.1-.3-.3-.6-.4-.8 0-.1-.1-.1-.2-.1-1.4-2.3-2.9-4.7-5.1-6.7-.3-.3-.7-.6-1-.9-1.3-1.1-2.6-2.2-3.9-3.2-1.5-1.1-3-2-4.5-2.6-.8-.3-1.7-.5-2.6-.6-.4-.1-.9-.1-1.3-.2-.1 0-.2 0-.2.1v.1c-1.2-.1-2.1.3-2.7 1.2-1.1.3-1.4 1.1-1.7 1.9-.4.2-.5.4-.6.7-.1.3-.1.3 0 .4l.1.1c-.1 0-.2.1-.2.2l-.5 2c0 .1.1.2.2.2s.2-.1.2-.2l.1-.7h.9c.1 0 .2-.1.2-.2s-.1-.2-.2-.2h-.8L37 5v-.1c.2.2.5.5 1.2.9V6c0 .1 0 .2.1.2h.1c.1 0 .2-.1.2-.1l.3-1.3v-.2l-.1-.1 1-1.3c2.3-1.5 4.6-.7 6.6.3.3.2.6.3.9.4.1.1.3.1.4.2 0 .1 0 .1.1.2 2.9 1.7 5.2 4.1 7 6 0 0 .1 0 .1.1.3.4.6.8 1 1.2.7.9 1.4 1.9 2.1 2.8.7 1 1.3 2.1 1.9 3.1.3.4.5.9.7 1.2l.1.1.2.1c-.1 0-.2.1-.2.2 0 .2.1.4.2.5v.1l.3 1.7s0 .1.1.1c-.1 0-.1.1-.2.2-.2 1.2-.9 2.1-2.1 2.8l-.2-.1h-.2l-1 .8c-.1.1-.1.2 0 .3s.2.1.3 0l.9-.7v1.6h-.1l-2.1.1c-.1 0-.2.1-.2.2s.1.2.2.2l2.1-.1c.1 0 .1 0 .2-.1h.1c.1 0 .2-.1.3-.1.2-.1.5-.2.7-.3 1.3-.8 2.8-1.8 3.1-3.7l.2-.2v-.1zm-25-16.9c-.8-.5-1.1-.8-1.2-.9.1-.2.2-.5.3-.7.1-.2.2-.5.3-.7l.5 1.8c0 .1.1.1.1.1v.4zm.2-1.2-.4-1.3c0-.1-.1-.1-.2-.1.2-.3.5-.5.9-.7l.5 1v.1l-.8 1zm2.3-1.8c-.4.1-.7.3-1.1.5l-.5-1c.4-.6.9-.9 1.6-1v1.5c0-.1 0-.1 0 0zm.4-.2V.8h.3L41.2 2v.2zm1.6-.1c-.4 0-.8 0-1.2.1l.3-1.3c.1-.1.1-.1.1-.2V.6c.4.1.8.1 1.1.2h.4l-.7 1.3c0-.1 0 0 0 0zm1.1.1.5-1c0-.1 0-.2-.1-.3-.1 0-.2 0-.3.1l-.5 1.1h-.3l.6-1.1V.8c.7.1 1.3.2 1.8.5.2.1.3.1.5.2l-1.2 1c-.3-.1-.7-.2-1-.3zm1.8.6c-.1-.1-.2-.1-.3-.1l1.1-.8c.1 0 .1-.1.1-.2.2.1.3.2.5.2l-1.4.9zm1.4.7c-.2-.1-.5-.2-.7-.3-.1-.1-.2-.1-.4-.2l1.1-.7c.1 0 .1-.1.1-.2.3.2.7.4 1 .6l-1 .6c-.1 0-.1.1-.1.2zm.6.3c-.1 0-.2-.1-.3-.1l1-.6c.1 0 .1-.1.1-.2.1.1.2.1.4.2h-.1l-1.1.7c.1-.1 0-.1 0 0zm1.4.9c-.4-.2-.7-.4-1.1-.7l1-.6c.1 0 .1-.1.1-.2.3.2.7.4 1 .7l-.9.5c-.1.1-.2.2-.1.3zm.4.3c-.1-.1-.2-.1-.3-.2h.2l1-.6c.1.1.2.1.3.2l-1.2.6zm1.3 1.1c-.3-.3-.7-.5-1-.8l1.2-.7c.4.3.8.6 1.2 1l-1.4.5c.1-.1.1-.1 0 0zm.4.2 1.3-.4c.1.1.2.1.2.2l-1.3.5c0-.1-.1-.2-.2-.3zm2.1 2c-.5-.5-1-.9-1.5-1.4l1.3-.5c.3.3.6.5.9.8.1.1.2.2.3.2-.1 0-.3.1-.3.3V8l-.7.3c0-.1 0-.1 0 0zm1.1 1.1-.8-.8.7-.3.1-.1V8c-.1-.1-.1-.2-.1-.2s.1-.1.2-.1h.1c.2.1.3.3.5.4l.9.9-1.6.4zm.3.3 1.5-.4h.1c.1.1.2.3.3.4l-1.7.3c-.1-.1-.1-.2-.2-.3zm1.2 1.4c-.2-.3-.4-.6-.7-.9l1.6-.3c.2.3.4.5.6.8l-1.5.4zm.5.7c-.1-.1-.2-.2-.3-.4l1.6-.4c.1.1.1.2.2.3l-1.4.3s-.1.1-.1.2zm1 1.3-.9-1.2h.1l1.5-.3c.2.3.5.7.7 1l-1.4.5c.1 0 0 0 0 0zm.4.5c0-.1-.1-.1-.1-.2l1.4-.4c0 .1.1.2.1.2l-1.3.3-.1.1zm.9 1.4c-.2-.3-.3-.6-.5-.8-.1-.1-.1-.2-.2-.3l1.4-.3.6.9-1.2.3c0 .1-.1.2-.1.2zm.3.5c0-.1-.1-.1-.1-.2h.1l1.4-.4c0 .1.1.2.1.3l-1.5.3zm.9 1.4c-.2-.4-.4-.7-.7-1.1l1.4-.3c.2.5.4.9.6 1.3H60l-.1.1zm.3.6-.1-.1s0-.1-.1-.1h1.3s0 .1.1.1v.1h-1.2zm.2.4h1.2c.2.4.4.9.5 1.3l.3.6-1.6-1.2c-.1-.3-.2-.5-.4-.7zm.6 1.2c-.1 0-.1 0 0 0l.5.4c-.4-.1-.5-.1-.5-.4zm-2 7.3v-1.6c.1 0 .1-.1.2-.1l.1 1.6c-.1 0-.2 0-.3.1zm.7-.3-.1-1.5s0-.1-.1-.1c.3-.2.6-.5.9-.8l.5 1.5c-.4.4-.8.7-1.2.9zm1.5-1.1-.4-1.4c0-.1-.1-.1-.2-.1.1-.1.1-.2.2-.3l.7 1.5-.3.3zm.6-.6-.7-1.4c0-.1-.1-.1-.2-.1.2-.4.3-.7.4-1.1l1.3 1c-.2.6-.5 1.2-.8 1.6zm.9-2.1-1.4-1.1-.2-1.5h.7c.1 0 .1 0 .2-.1l.4.3h.2L63 22l-.3.3zM26.1 57.4c0-.1-.1-.2-.2-.2 0-.1-.1-.2-.2-.2l-.7-.1c.2-.1.3-.1.6-.1h.4c.1 0 .2-.1.2-.2s-.1-.2-.2-.2h-.3c-.3 0-.8 0-1.1.6v.3l-.2 1v.1l.1.2-1.1 1.1s-.1.1 0 .2l-1.3.6-1.7.2s-.1 0-.1.1l-.5-.3h-.2l-.1.1-.1-.1c-.2 0-.3-.1-.5-.1-.4-.1-.7-.2-1-.3l-.2-.1c-1.6-.8-3.3-1.6-4.6-2.9-.4-.4-.9-.7-1.3-.8v-.2l-4.6-5c-.2-.1-.3-.1-.4-.1l-4.4-7v-.6c0-.3 0-.7-.1-1.1-.1-.3-.1-.6-.3-.8l.1-.1c.1-.1.3-.2.3-.4.1-1.1.8-1.7 1.8-2.4.4-.3.8-.4 1.3-.6.2 0 .5-.1.7-.2.1 0 .2-.2.1-.3-.1-.1-.2-.1-.3-.1l-.6.3c-.3.1-.5.2-.8.3l.1-1.5c.5-.1 1.1 0 1.7.1.1 0 .2 0 .2-.1s0-.2-.1-.2c-1.6-.5-3.1-.1-4.3 1.1v.1l-.1-.1c-.1 0-.1.1-.2.1l-.3.5v.2h-.1C0 39.4-.1 42 1.2 45.1v.2c1.4 3.2 3.3 6.1 5.5 8.6 0 0 .1.1.2.1l1 1c.7.8 1.5 1.6 2.3 2.2 2 1.6 4.1 3.2 6.6 4.3.4.2.9.3 1.3.5.2.1.4.2.7.2h.1c.1 0 .1 0 .2-.1V62c.5.5 1.1.6 1.7.6.4 0 .8-.1 1.1-.1 2.2-.3 3.7-1.6 4.4-3.7.1-.4.1-.8 0-1.2-.2.1-.2-.1-.2-.2zM4.2 36.6l-.1 1.6c-.1 0-.1.1-.2.1v-.1l-.1-1.5c.2 0 .3 0 .4-.1zm-2 1.2h.2c.4-.3.7-.6 1.1-.8l.1 1.4c0 .1.1.2.2.2-.3.2-.6.5-.9.8l-.7-1.6zm-.4.4.1-.2.7 1.5-.2.2-.9-1.5c.2.2.3.1.3 0zm-.4.5.9 1.4c-.1.3-.2.6-.2.9 0 0-.1.1-.1.2-.4-.2-.9-.3-1.5-.2 0-.9.3-1.7.9-2.3zM.7 43c-.1-.5-.2-1.1-.2-1.7 1-.1 1.4.2 1.5 1.1 0 .2.1.5.1.7L.7 43c.1 0 0 0 0 0zm.2.5v-.2l1.3.2v.2l-1.3-.2zm.5 1.5c-.1-.2-.3-.6-.4-1l1.1.2.6.9-1.3-.1c0 .1 0 .1 0 0zm.3.7c0-.1-.1-.1-.1-.2h1.3l.1.2H1.7zm.1.4h1.4l.8 1.2-1.3.4c-.3-.6-.6-1.1-.9-1.6zM3 48.2c0-.1-.1-.2-.1-.3l1.3-.4s.1 0 .1-.1l.1.2h-.2l-1.2.6zm.8 1.4c-.2-.3-.4-.7-.6-1l1.2-.5c.1 0 .1-.1.1-.2l.7 1.2-1.3.4c-.1 0-.1 0-.1.1zm.4.6c-.1-.2-.2-.3-.3-.4H4l1.3-.4s.1 0 .1-.1l.2.3-1.4.6c0-.1 0-.1 0 0zm.7 1.1c-.2-.3-.4-.5-.6-.8l1.4-.5h.1l.7 1.1-1.6.2c.1 0 .1 0 0 0zm.6.7c-.1-.1-.2-.2-.3-.4l1.6-.2h.1l.1.2-1.5.4zm1 1.1c0 .1-.1.1 0 0-.3-.2-.6-.5-.8-.8l1.6-.5.8.8-1.6.5zm1.6 1.8c-.3-.3-.5-.6-.8-.8l1.3-.4c.1 0 .2-.1.1-.2 0-.1-.1-.2-.2-.1l-1.4.4s-.1 0-.1.1h-.1c-.1-.1-.1-.2-.2-.3l1.5-.6s.1 0 .1-.1l1.4 1.5c-.1 0-.2 0-.2.1l-.3.4v.2l-.6.3c-.2-.1-.3-.3-.5-.5zm1.9 1.9c-.4-.3-.8-.7-1.2-1.1l.8-.4c.1 0 .1-.1.1-.2s0-.1-.1-.2l.2-.2v-.1l1.5 1.6c-.4 0-.8.2-1.2.4 0 .1-.1.1-.1.2zm.6.5-.2-.2-.1-.1h.1c.6-.4 1.2-.4 1.6-.3l-1.4.6c0-.1 0-.1 0 0zm1.6 1.2c-.4-.3-.9-.6-1.3-1l1.4-.5h.1c.1.1.3.2.4.4.2.2.4.3.5.5l-1.1.6c0-.1 0-.1 0 0zm.5.4c-.1-.1-.2-.1-.3-.2l1.2-.6.1-.1.1.1-1 .6c0 .1-.1.1-.1.2zm1.3.8c-.3-.2-.6-.4-1-.6l1-.6.1-.1c.3.2.7.5 1 .7l-1.1.6zm.5.4c-.1 0-.2-.1-.2-.1l1.1-.7c.1 0 .2.1.3.1l-1.2.7c.1 0 .1 0 0 0zm1.4.8c-.3-.2-.7-.4-1-.6l1.1-.7s0-.1.1-.1c.4.2.7.4 1.1.5l-1.3.9zm.8.4c-.1-.1-.2-.1-.4-.2l1.2-.8.1-.1.1.1h.1l-1.1 1zm2 .7c-.2-.1-.3-.1-.5-.2-.4-.1-.8-.3-1.1-.4l.9-.7c.1 0 .1-.1.1-.2.2.1.5.2.7.2.2 0 .3.1.5.1l-.6 1.2zm.6 0c-.1 0-.1-.1-.2-.1l.5-1 .3.2-.6.8v.1zm.2.2s.1 0 .1-.1l.8-1.1 1-.1-.4 1.4v.1c-.5.1-1 .1-1.5-.2zm2.4.1h-.5l.5-1.5h.2l-.2 1.5zm.4-.1.2-1.3s0-.1-.1-.1l1.1-.5.6 1.1c-.5.3-1.1.6-1.8.8zm2.2-1.2-.7-1.2.8-.8.5 1.2c-.2.3-.4.6-.6.8zm1.2-2.1c-.1.3-.2.6-.4.9l-.6-1.5.2-1 .8.1c0 .2 0 .4.1.5 0 .4 0 .8-.1 1zm.7-56.1c-1.4-2.1-3-3-5.1-2.8-.3 0-.7.1-1 .2-.2 0-.3.1-.5.1-.1 0-.1.1-.2.2h-.1c-.1 0-.1 0-.2.1-.1 0-.2 0-.3.1 0 0-.1-.1-.2 0-2 .6-3.8 1.7-5.5 2.8l-.1.1c-.5.3-.9.7-1.4 1-.2.2-.5.3-.7.5-.1 0-.1.1-.1.2L8.8 7c-.1.1-.1.1-.1.2h-.1l-3.3 3.5s-.1.1 0 .2l.1.1c-1 .9-1.7 2.1-2.4 3.3-.3.4-.5.9-.8 1.3-.1.4-.2.6-.3.8 0 .1-.1.2-.1.2v.2l.1.1c-.1 0-.2.1-.2.1 0 .1-.1.1-.1.2-.1.1-.2.3-.1.4l-.8 1.9c0 .1 0 .2.1.3l.1.1c-1 2.2-.1 5.2 1.8 6.4.3.2.6.3.9.5h.1c.1 0 .1 0 .2-.1 0 .1 0 .1.1.2.3.3.7.3 1 .3.4 0 .7-.1 1-.2h.1c.1 0 .2-.1.1-.2 0-.1-.1-.2-.2-.1h-.1c-.6.2-1.2.3-1.8-.1l.4-.6v-.2l.1-.1h.2c.7-.2 1.1-.3 1.4.5 0 .1.1.1.2.1s.2-.1.1-.2c-.2-1.1-.9-1-1.5-.9l-1.5-.9h-.1c-.1-.2-.1-.3-.2-.5-.2-.4-.3-.8-.4-1.1-.5-1.4-.1-2.9.4-4.2.8-2 2-4 3.6-6 .6-.7 1.3-1.4 1.9-2.2.3-.3.6-.7.9-1l.5-.4c.4-.4.8-.7 1.3-1.1 0 0 .1 0 .1-.1 1.9-1.6 3.8-3.1 6.1-4.3.1 0 .1-.1.1-.2v-.1h.2c.2 0 .3-.1.5-.2s.3-.2.5-.3c.3-.2.5-.3.7-.3.8 0 1.4-.2 1.8-.5 0 .1.1.1.1.2l1 .4h.1s.1 0 .1-.1h.1l.4.3h.3c0 .1-.1.2 0 .2L25.7 6c0 .1.1.1.2.1h.1c.1-.1.1-.2.1-.3L25 4.3h1.8c.1.4.1.8-.2 1.3-.1.1 0 .2.1.3h.1c.1 0 .1 0 .2-.1.6-1.1 0-2.1-.6-3zM1 20.5l1.2.6c0 .4 0 .8.1 1.2L.9 22H.8c0-.5.1-1 .2-1.5zm.2-.4s0-.1 0 0l1.1.4v.2l-1.1-.6zm-.3 2.8c0-.2-.1-.3-.1-.5l1.5.3v.2H.9zm1.7.4c.1.2.2.5.3.7.1.1.1.3.2.4l-.6.2c-.1 0-.2.2-.1.3 0 .1.2.2.3.1l.7-.3 1.1.6-.8.3-.1.1v.2l.1.2s-.1 0-.1.1c-.3-.1-.5-.3-.7-.4-.9-.4-1.6-1.4-1.9-2.5h1.6c-.1 0 0 0 0 0zm-.3-3.2L1 19.5l.7-1.5c.2.2.4.5.6.7l.3.3c-.1.3-.2.7-.3 1.1zm.6-1.7c0 .1 0 .1-.1.2l-.1-.1c-.3-.3-.6-.6-.8-.9 0-.1.1-.1.1-.2v-.2l.9 1.2c0-.1 0 0 0 0zm.1-.5-.9-1.2c0-.1.1-.1.1-.1l.3-.6c.1-.1.1-.2.2-.3l.8 1.1c-.2.4-.3.7-.5 1.1zm.7-1.5-.7-1c0-.1.1-.2.1-.3l.8 1.1-.2.2zm.4-.6-.7-1s0-.1-.1-.1c0 0 0-.1.1-.1.2-.3.3-.6.5-.9l.8 1.1c-.3.4-.5.7-.6 1zm.8-1.3-.7-1.1-.1-.1c0-.1.1-.2.2-.2l.7 1.3c-.1 0-.1.1-.1.1zm.3-.5-.7-1.2c.3-.4.7-.9 1.1-1.2l.4 1.3c-.3.4-.5.8-.8 1.1zm1.3-1.7c-.1.1-.1.2-.2.3L5.7 11l.2-.2.6 1.5zm.3-.3-.5-1.3c0-.1-.1-.1-.1-.1l1.1-1.2.4 1.2c0 .1.1.1.2.1H8v-.3l-.5-1.3.2-.2.4 1.5s0 .1.1.1c-.5.5-.9 1-1.4 1.5zm1.7-1.9c-.1 0-.1 0 0 0L8 8.6v-.1l.9-.9.5 1.5c-.4.4-.7.7-.9 1zm1.1-1.2-.5-1.7.3-.2.4 1.7-.2.2zm.5-.5-.4-1.6.9-.7.6 1.4c-.4.3-.7.6-1.1.9zm1.4-1.1L11 5.9l.3-.2.3 1.2c-.1.1 0 .1.1.1 0 .1-.1.2-.2.3zm.3-.3v-.1l-.3-1.6c.2-.1.4-.3.6-.4l.3-.3L13 6c-.4.3-.8.6-1.2 1zm1.5-1.2-.4-1.3s0-.1-.1-.1l.2-.2.5 1.4-.2.2zm.6-.4-.4-1.3-.1-.1c.1 0 .1-.1.2-.1l.1-.1c.3-.2.5-.3.8-.5l.5 1.4c-.5.2-.8.4-1.1.7zm1.3-1-.4-1.3V3s.1-.1.2-.1l.4 1.3s0 .1.1.1c-.2 0-.2.1-.3.1zm.5-.3-.4-1.4c.5-.3 1-.6 1.5-.8v1.5c-.4.2-.7.5-1.1.7zm1.8-2.5-.1 1.6c-.1 0-.1.1-.2.1V1.6h.3c0-.1 0-.1 0 0zm1.3.4v.4h-.1c-.1.1-.3.2-.4.2-.1.1-.3.1-.4.1l.1-1.2c0-.1 0-.2-.1-.2.4-.2.8-.3 1.1-.4-.2.4-.2.7-.2 1.1zm.6.1c-.1 0-.2 0-.3.1v-.1c0-.4.1-.7.2-1.1.1 0 .2 0 .2-.1h.1l-.2 1.2zM22.3.4c-.1.1-.1.2-.2.3V.4h.2zm-2.5 1.7L20 .6c.1 0 .2-.1.3-.1.3-.1.7-.1 1-.2h.3l.1.7c-.5.8-1.1 1.1-1.9 1.1zm2.8 0-.9-.4c.4-.4.7-.8 1-1.2V.4c.6.1 1.2.4 1.8.8l-1.9.9zm.8.2-.2-.1 1.5-.7.3.3-1.6.5zm1.1 1.3-.6-.9-.1-.1 1.4-.5c.1 0 .1-.1.1-.1.3.3.5.7.8 1l.1.1s0 .1.1.1l-1.6.3c-.2 0-.2 0-.2.1zm.4.4c-.1 0-.1 0-.1.1l-.1-.2 1.7-.3c.1.1.1.3.2.4h-1.7z" style="fill:#9e1d20"/><circle class="st0" cx="31.4" cy="31.5" r="25.9"/><defs><circle id="SVGID_1_" cx="31.6" cy="33.3" r="18.5"/></defs><clipPath id="SVGID_2_"><use xlink:href="#SVGID_1_" style="overflow:visible"/></clipPath><g style="clip-path:url(#SVGID_2_)"><path d="M38 33c-1.4 0-1.6.3-1.7 1.8H40c.5 0 1.1-.1 1.6-.3.3-.1.4-.5.6-.8-.3-.2-.5-.5-.7-.5-1.1-.2-2.3-.2-3.5-.2zm.8-3.2c-.1 0-.2.1-.3.1v1.6h.9c-.2-.7-.4-1.2-.6-1.7zm4.7 4c0 .2.3.6.5.7.8.2 2-.5 1.9-1.2 0-.4-.4-.9-.6-1.1-1.1-.2-1.7.5-1.8 1.6z" style="fill:none"/><path class="st4" d="m49.9 32.7.3-.9c-.3 0-.7-.1-1 .1-.3.2-.5.5-.7.8-.3.5-1.4.7-1.7.3-.5-.6-.9-1.2-1.4-1.8.6-1 .6-1 .3-1.4-.4.4-.9.8-1.3 1.2-1.6-.9-1.6-.9-2.1-.5.3.2.5.4.7.7.2.2.5.4.7.6-1.3 1.4-2.3 1.3-2.8 0-.9-.2-.9-.2-1.1-1.2-.4-1.4-.4-1.4-1.8-1.1-.2.8-.4 1.5-.6 2.5-.8-.9-.1-2-.8-2.6-.3 1.7-.7 3.4-1 5-.1.7-.3.9-.9.6-.3-2.2-.3-4.3 1.6-6 .2-.2.3-.4.4-.6.1-.2 0-.4 0-.6-2.6 2-3.2 4.5-2.6 7.5h-2.7c.2-.5.3-.8.4-1.2h-1.3c.3-.5.4-.9.6-1.2.9-1 1.9-2 2.7-2.9.2-.2.3-.5.4-.8-.1 0-.1 0-.2-.1-1.1 1-2.2 2.1-3.4 3.2-.1-1.3-.2-2.5-.3-3.7h-.4v3.8c-1.1-1-2.1-1.8-3-2.6-.1 0-.2.1-.3.1.1.3.1.7.3.9.8.8 1.7 1.5 2.6 2.3.3.3.5.6.9 1.1h-1.3c.2.5.3.9.4 1.4h-3.3V32c0-.3-.3-.5-.4-.8-.1 0-.2.1-.3.1 0 1.1-.1 2.3 0 3.4.1.9-.4 1.1-1.1.9-.9-.3-1.8-.7-2.8-1.1 1-.7 2-1.4 2.9-2.1.2-.2.3-.5.4-.7-.1 0-.2-.1-.3-.1-1 .6-2 1.3-3.1 2-.1-1.5-.1-2.8-.3-4.2 0-.3-.2-.5-.3-.8-.1 0-.3.1-.4.1v5.8h-3.4c-.1-1.3-.1-2.5-.2-3.8h-.4v3.7h-3.8c.3.7.6 1.4 1 1.9.2.3.6.5.9.6l2.7.9c0 .1 2 .3 2.5 0 2-1.1 4-1 6.1-.4 1.6.5 3.2.4 4.8-.3 1.6-.8 3.4-.9 5.1-.5 1.9.4 3.7.4 5.5-.3 1.3-.5 2.7-.8 4-.1 1.4.7 2.7.7 4.1.5.2 0 .5-.3.5-.5 0-.8-.2-1.7-.2-2.5.1-.4.2-.7.2-1zm-11.4-2.8c.1 0 .2-.1.3-.1.2.5.4 1.1.6 1.7h-.9v-1.6zm3.1 4.5c-.5.2-1.1.3-1.6.3h-3.7c0-1.4.3-1.8 1.7-1.8 1.2 0 2.3.1 3.5.2.3 0 .5.3.7.5-.1.3-.3.7-.6.8zm2.4.1c-.2-.1-.5-.5-.5-.7.1-1.1.7-1.8 1.9-1.6.1.3.5.7.6 1.1 0 .6-1.2 1.3-2 1.2z"/><path class="st5" d="M17.4 37.9c-1.2.1-2.4-.1-3.3 1 1.3-.6 2.3 0 3.4.4 1.4.6 2.7.6 4.1 0 1.4-.6 2.9-.7 4.5-.2 1.7.6 3.5.7 5.2-.3 1.5-.8 3.1-1 4.7-.4 1.4.5 2.9.5 4.4-.1 1.8-.6 3.5-.8 5.4-.1.9.3 2 .3 3.1.5.7.1 1-.3.9-.8-1.3-.3-2.5-.6-3.7-.9-.5-.1-1.1-.2-1.6-.1-2.3.7-4.7 1.1-7 .4-1.8-.3-3.5-.1-5.2.7-1 .5-2.5.5-3.6.2-2-.6-3.8-.5-5.6.2-1.8.7-3.3.6-4.6-.3h-.1c-.2-.1-1-.2-1-.2zM38 44.7c-2.3.6-4.5.6-6.7-.1-1.5-.5-2.9-.2-4.4.3-1.1.3-2.3.5-3.4.4-1.2-.1-2.4-.6-3.6-.9-.9-.2-2-.1-3.1-.2.3.7.5 1 .7 1.4 2.1-.7 4-.2 5.9.5 1.8.7 3.7.8 5.4 0 2.1-1 4.1-.8 6.2-.1 1.6.6 3.2.7 4.8 0 1.9-.8 3.7-.8 5.7-.4.7.2 1-.1 1.2-.7-1.3-.1-2.7 0-3.8-.4-1.9-.4-3.4-.2-4.9.2z"/><path class="st5" d="M42.9 39.6c-1.9.9-3.7.7-5.6.2-1.1-.3-2.4-.4-3.3 0-2.1 1-4.1.8-6.2.3-1.3-.3-2.8-.4-3.9 0-1.9.8-3.6.9-5.5.2-1.2-.5-2.5-.5-3.7 0l.3.9c1.9-.8 3.6-.5 5.3.1 1.4.5 2.9.6 4.2 0 1.8-.8 3.6-.8 5.4-.3 1.7.5 3.4.6 5.2-.1 1.6-.6 3.2-.6 4.9-.1 1.1.3 2.5.3 3.6 0 1.9-.6 3.7-1.2 5.7-.5l.1-.1c-2.2-1.1-4.3-1.6-6.5-.6z"/><path class="st5" d="M42.3 42.3c-.7-.2-1.5-.3-2.2-.6-1.1-.3-2-.1-3 .3-.9.4-1.9.7-2.8.7-1.1 0-2.2-.4-3.3-.6-1.4-.3-2.7-.4-4.1.3-1.3.7-2.8 1-4.3.6-1-.3-2-.7-3.1-.9-1.2-.3-2.5-.3-3.6.5 1.5-.4 2.8.1 4 .7 1.9.9 3.9.9 5.8.2 1.8-.8 3.5-.7 5.3 0 1.3.5 2.7.7 4 .1 1.9-.9 3.7-.9 5.6-.3 1.4.4 2.8.6 4.3-.1.6-.3 1.4-.4 2.1-.3 1.1.1 1.3-.5 1.5-1.5-.8.2-1.5.3-2.1.6-1.3.7-2.7.7-4.1.3zM35 47.2c-1.5-.5-3-.4-4.6.3-1 .5-2.3.6-3.4.6-.9 0-1.8-.6-2.7-.8-1.5-.4-3.1-.6-4.6 0 1.2.4 2.4.6 3.5 1.2 2.1 1 4.2 1.2 6.3.1 1.5-.7 3-.8 4.5 0 1.6.8 3.5 1 5.2.4 1.3-.5 2.5-.8 3.8-.8.8 0 1.2-.5 1.8-1.3-1 .2-1.8.1-2.4.4-2.5 1-5 .7-7.4-.1z"/></g><path class="st4" d="M31.7 57.8C17.2 57.8 5.4 46 5.4 31.5S17.2 5.2 31.7 5.2 58 17 58 31.5 46.2 57.8 31.7 57.8zm0-51.8C17.6 6 6.1 17.4 6.1 31.5s11.5 25.6 25.6 25.6 25.6-11.5 25.6-25.6S45.8 6 31.7 6z"/><path class="st4" d="M31.7 51.6c-11.1 0-20-9-20-20s9-20.1 20-20.1 20 9 20 20.1c0 11-9 20-20 20zm0-39.4c-10.6 0-19.3 8.6-19.3 19.3S21 50.8 31.7 50.8 51 42.1 51 31.5s-8.7-19.3-19.3-19.3z"/><path d="m26 13.1-1.1-7s6.4-2.1 13.8 0l-1.2 7c-.1 0-5.2-1.9-11.5 0zm11.5 36.8 1.1 7s-6.4 2.1-13.8 0l1.2-7s5.2 1.9 11.5 0zM13.3 37.3l-7 1.1s-2.1-6.4 0-13.8l7 1.2s-2 5.2 0 11.5zm36.8-11.6 7-1.1s2.1 6.4 0 13.8l-7-1.2s2-5.2 0-11.5z" style="fill:#f36f22"/><path d="m30.8 13.1.5.5.7-.1-.3.7.3.6-.7-.1-.5.5-.1-.7-.7-.4.7-.3z"/><path class="st5" d="M11.4 39.1c.1.2.2.3.3.6.2.4.2.7.1 1-.1.3-.3.5-.7.6-.3.2-.7.2-1 0-.3-.1-.5-.4-.7-.8-.1-.2-.1-.4-.2-.5l2.2-.9zm-1.8 1.1c0 .1.1.2.1.3.3.6.7.8 1.3.5.5-.2.7-.6.5-1.2-.1-.1-.1-.3-.2-.3l-1.7.7zm2.2 2.6-.4-.8-.8.4.5.9-.2.1-.6-1.2 2.1-1.1.6 1.1-.2.1-.5-.9-.7.3.4.8-.2.3zm1.3-.2c.1.1.2.3.3.5.2.3.2.5.2.7 0 .2-.1.3-.3.4-.2.1-.3.2-.5.1-.2 0-.4-.2-.6-.5-.1-.1-.1-.2-.1-.2l-.8.5-.2-.3 2-1.2zm-.8.9c0 .1.1.1.1.2.2.3.5.4.7.2.3-.2.3-.4.1-.7-.1-.1-.1-.2-.2-.2l-.7.5zm.6 1.6-.7.3-.2-.3 2.4-.8.2.3-1.4 2-.2-.3.4-.6-.5-.6zm.6.5.4-.6c.1-.1.2-.3.3-.3-.1.1-.3.1-.4.2l-.7.1.4.6zm1.7-.1.4.4c.2.2.3.4.3.6 0 .2-.1.3-.2.4-.2.2-.5.2-.7.1.1.2 0 .4-.1.6-.2.3-.3.5-.4.6l-.3-.2c0-.1.1-.3.3-.5.2-.3.2-.4 0-.7l-.2-.2-.8.7-.2-.2 1.9-1.6zm-.6 1 .2.2c.2.2.5.3.7.1.2-.2.2-.4 0-.7l-.2-.2-.7.6zm2 .8-.6-.4.2-.2 1.3 1.2-.2.2-.5-.5-1.4 1.5-.2-.2 1.4-1.6zm1.8 2.9c.2-.3.4-.6.6-.8-.2.2-.5.3-.8.5l-1 .7-.2-.2.4-1.1.3-.9c-.2.2-.4.5-.7.8l-.6.8-.2-.2 1.6-1.8.3.2-.4 1.1c-.1.3-.2.5-.3.8.2-.2.4-.3.7-.5l1-.6.3.2-1.3 2-.2-.2.5-.8zm1.8 1.1-.8-.5-.4.7.9.5-.1.2-1.1-.7 1.2-2 1.1.7-.1.2-.8-.5-.4.6.8.5-.3.3zm-.1 1.2 1-2.1.3.2.2 1.4v.9c.1-.3.2-.6.4-.9l.4-.9.3.1-1 2.1-.3-.1-.1-1.4c0-.3-.1-.6 0-.9-.1.3-.2.5-.4.9l-.4.9-.4-.2zm3.4-.7-.7-.3.1-.2 1.6.6-.1.2-.7-.3-.8 2-.3-.1.9-1.9zM11.9 18.6h-.2l-.2.4c-.1 0-.2-.1-.3-.1-.1 0-.2 0-.3.1-.1.1-.2.1-.3.3-.1.1-.2.2-.3.4l-.1.1c0 .1-.1.1-.1.2s-.1.1-.1.2v.2c0 .1-.1.1-.1.2s-.1.1-.1.1c-.1 0-.1.1-.2.1h-.3l-.1.1h.1c.1.1.2.1.3.1.1 0 .2 0 .3-.1.1 0 .2-.1.2-.2.1-.1.2-.2.2-.3.1-.1.1-.2.1-.3 0-.1.1-.2.1-.2 0-.1.1-.1.1-.2s.1-.1.1-.2.1-.1.1-.2.1-.1.1-.1l.1-.1h.1l.1.1-.1.2-1.1 2.3-.2.5c0 .1-.1.1-.1.2v.6c0 .1.1.2.1.2 0 .1.1.2.2.2l.2.2c.1.1.2.1.3.1.1.1.3.1.4.1h.3c.1 0 .2 0 .3-.1.1 0 .1-.1.2-.1l.2-.2c0-.1.1-.1.1-.2v-.3s0-.1-.1-.1c0 0-.1 0-.1-.1h-.2l-.1.1s0 .1-.1.1v.3c0 .1.1.1.2.1 0 .1-.1.1-.2.2-.1 0-.1.1-.2.1H11c-.1 0-.2 0-.2-.1-.2-.1-.3-.2-.4-.3-.1-.1-.2-.3-.3-.5 0-.1 0-.1-.1-.2v-.4c0-.1 0-.2.1-.2l.1-.4.8-1.6 1.2.6c-.1 0-.3 0-.4.1-.1 0-.2.1-.3.2-.1.1-.2.1-.2.2-.1.1-.1.1-.1.2s-.1.2-.1.2v.2c0 .1 0 .1.1.2 0 .1.1.1.1.1h.2l.1-.1s.1-.1.1-.2v-.3l-.1-.1h-.2c0-.1.1-.1.2-.2l.2-.2c.1 0 .2-.1.3-.1h.6c.1 0 .2 0 .3.1l.1-.1-2-1 .2-.4.1-.2 1.8 1.1.2-.1-2-1.1.5-.4z"/><path transform="rotate(-56.974 13.384 18.986)" class="st5" d="M12.8 18.9H14v.3h-1.2z"/><path class="st5" d="M17.1 14.9c-.1 0-.1 0-.2.1s-.1.1-.1.2v.2s.1.1.2.1.1 0 .2-.1.1-.1.1-.2V15c0-.1-.1-.1-.2-.1z"/><path class="st5" d="m23.2 8.8-.2-.1-2.2 1.1-2.2 1.4-1.8 1.4-1.7 1.6-.3.3h-.3c0-.2 0-.5.1-.6.1-.2.2-.4.3-.5.1-.1.2-.2.3-.2.1-.1.2-.1.3-.2.1 0 .2-.1.3-.1.1 0 .2-.1.3-.1l-.1-.2c-.2 0-.3.1-.4.1-.1 0-.2.1-.4.1-.1 0-.2.1-.3.2-.1.1-.2.2-.3.2-.1.1-.2.2-.2.3-.1.1-.1.2-.1.3 0 .1-.1.2-.1.4v.4h.5l-.2.3h-.1l-.3.3h-.4l.8.6h-.3c-.1 0-.2 0-.3.1-.1 0-.2.1-.3.2l-.3.3c-.1.1-.1.2-.2.3 0 .1-.1.2-.1.4v.3c0 .1.1.2.1.2s.1 0 .1.1h.2l.1-.1s0-.1.1-.1v-.2s0-.1.1-.1l.1-.1h.1v.7l.3-.2v-1.4h.4l1 .8.3-.1-1.8-1.4.3-.4h.1l.2-.2 1.6 1.4h.3L15 14.6l.4-.4 1-1 .1.1-.6 1.5h.4c.1-.1.3-.2.4-.2.1-.1.3-.1.4-.1h.4c.1 0 .3.1.4.2h.1l-1.6-1.6.4-.3 1.2-1 .1.1-.7 1.5.4.1c.1-.1.3-.2.4-.2.1 0 .3-.1.4-.1s.3 0 .4.1c.1 0 .3.1.4.2h.1l-1.4-1.8.4-.3.6-.4h.3s-.1.1-.1.2-.1.1-.1.2 0 .1-.1.2v.2s0 .1.1.1h.2s.1 0 .1-.1l.1-.1s.1-.1.1-.2v-.2c0-.1 0-.1-.1-.2.1-.1.3-.1.4-.1.1 0 .2.1.3.2 0 0 .1.1.1.2s0 .2-.1.3c0 .1-.1.2-.2.3-.1.1-.2.2-.4.3-.1 0-.2.1-.2.1-.1 0-.2.1-.3.1l.6.2c.1-.1.3-.1.4-.2.2 0 .3-.1.5-.1h1l.3-.2h-1.5c.1-.1.2-.2.3-.4.1-.1.1-.2.1-.3v-.3c0-.1 0-.2-.1-.2 0-.1-.1-.1-.2-.2-.1 0-.2-.1-.3-.1H20c-.1 0-.2.1-.4.2l-.2-.1 1.3-.9 1.6-.8.6 1.2c-.1-.1-.2-.1-.4-.2-.1 0-.2-.1-.3-.1h-.3c-.1 0-.2.1-.2.1-.1 0-.1.1-.2.1-.1.1-.1.1-.1.2s-.1.1-.1.2v.2l.1.1.1.1h.2c.1 0 .1 0 .2-.1 0 0 .1 0 .1-.1l.1-.1v-.2c0-.1-.1-.1-.2-.2.1 0 .2-.1.2-.1h.3c.1 0 .2 0 .3.1.1 0 .2.1.3.1.1.1.2.1.2.2.1.1.1.2.2.2h.1l-1-2h.7zm-9.2 8h-.3c-.1 0-.1.1-.2.2 0 .1-.1.1-.1.2s0 .1-.1.2c0-.1-.1-.2-.1-.3v-.2c0-.1 0-.1.1-.2 0-.1.1-.1.1-.2.1-.1.1-.2.2-.2.1-.1.2-.1.3-.1l.1.6zm2.7-3.3.8.9h-.6c-.1 0-.2 0-.3.1-.1 0-.2.1-.3.1l.4-1.1zm1.7-1.4.8 1c-.2-.1-.3-.1-.3-.1h-.6c-.1 0-.2 0-.3.1l.4-1zm27.3.3v-.2l-.5-.3v-.3h.7c.2.1.4.2.7.3l.3.3.3.3c.1.1.1.2.2.3.1.1.1.2.2.4l.1-.1c-.1-.2-.1-.3-.2-.4-.1-.1-.1-.3-.2-.4l-.4-.4-.3-.3c-.1-.1-.3-.2-.4-.2-.1-.1-.3-.1-.4-.1-.1 0-.3 0-.4-.1h-.5l.1.5-.3-.2v-.1l-3.6-2.1.1.2.9.5s.1 0 .1.1l.1.1s0 .1.1.1c0 0 0 .1.1.1H42l-.1.1v.2l.1.1.1.1c.1 0 .1.1.2.1h.2s.1 0 .1-.1v-.2h.1c.1 0 .1.1.2.1 0 .1.1.1.1.2v.4c0 .1-.1.1-.1.1-.1 0-.1.1-.2.1h-.3c-.1 0-.2-.1-.3-.1l-.3-.3c-.1-.1-.2-.2-.3-.4-.1-.2-.1-.3-.2-.5v-.6l-.1-.1c0 .1 0 .2-.1.4v.4c0 .1 0 .3.1.4 0 .1.1.3.1.4.1.1.2.2.3.4.1.1.2.2.4.3.2.1.4.2.6.2.2 0 .4 0 .5-.1.1.1.1.2.1.3 0 .1 0 .2.1.3v.3c0 .1 0 .2-.1.2l.1.2 1.2-2 .4.3v.1l.3.2-1.2 1.7.1.3 1.3-1.8.3.3zm-2.4 0v-.5c0-.1 0-.1-.1-.2 0-.1.1-.2 0-.4 0-.1 0-.2-.1-.3-.1-.1-.1-.2-.2-.3-.1-.1-.2-.1-.2-.2l-.1-.3 1.5.9-.8 1.3z"/><path class="st5" d="M48.8 15.5c-.1 0-.2-.1-.3-.1-.1 0-.2-.1-.4-.1-.1 0-.3 0-.4-.1h-.4l.8-.8 1.7 1.8V16l-2.1-2.1-.5-.4-.3.3h-.1c-.1 0-.1 0-.2-.1-.1 0-.1 0-.2-.1-.1 0-.1-.1-.1-.1l-.1-.1-.1-.1s0-.1-.1-.1V13l.1.1h.3v-.2c0-.1-.1-.1-.1-.2 0 0-.1-.1-.2-.1h-.3s-.1 0-.1.1l-.1.1v.2c0 .1.1.1.1.2s.1.1.2.2l.1.1-1-.3.1.4.2.2.2.2c0 .1.1.2.1.2 0 .1.1.2.1.2 0 .1.1.2.1.3v.7l1.4-1.7.5.4.2.2-.9.9.1.4h.9c.1 0 .2.1.3.1-.1 0-.2.1-.3.1-.1 0-.1.1-.2.2s-.2.3-.3.5c-.1.2-.2.4-.2.6l.1.1c0-.1.1-.2.1-.2 0-.1.1-.1.1-.2s.1-.1.1-.2.1-.1.2-.2l.2-.2c.1 0 .1-.1.2-.1s.2-.1.3-.1h.3l-.1-.5zm-2.8-.7v-.4c0-.1-.1-.2-.1-.3 0-.1-.1-.2-.1-.3-.1-.1-.1-.2-.2-.3l1.2.4-.8.9zm5.1 6.1h-.2c-.1 0-.1.1-.1.2s0 .2.1.2c0 .1.1.1.2.2h.2c.1 0 .1-.1.1-.2s0-.2-.1-.2l-.2-.2z"/><path class="st5" d="m52.4 19.3-.5-.7s0-.1.1-.1c0 0 0-.1.1-.1 0 0 0-.1.1-.1v-.1l-.8.6v-.6c0-.1 0-.2-.1-.3 0-.1-.1-.2-.2-.3l-.3-.3c-.1-.1-.2-.1-.3-.2h-.3c-.1 0-.2 0-.2.1v.4l.1.1s.1 0 .1.1c0 0 .1 0 .1.1 0 0 .1 0 .1.1s.1.1.1.2 0 .1-.1.1l-.4-.2V18l1.2.5c0 .1 0 .2-.1.3 0 .1-.1.1-.1.2l-.4.3c0-.1-.1-.1-.1-.2l-.3-.3h-.3l-.1.1v.2c0 .1.1.1.1.2.1.1.1.1.2.1h.2l.1-.1c.1.1.1.2.1.3 0 .1 0 .2-.1.2 0 0-.1 0-.2.1H50c-.1 0-.2-.1-.2-.2l-.3-.3c-.1-.1-.1-.2-.2-.3 0-.1-.1-.2-.1-.3 0-.1 0-.2-.1-.3V18c0-.1 0-.3.1-.4 0-.2.1-.3.2-.5s.2-.4.3-.5v-.2c-.1.1-.2.3-.3.5-.1.2-.2.3-.2.5-.1.2-.1.4-.2.6v.6c0 .2 0 .3.1.5l.3.6c.1.2.2.3.3.3.1.1.2.1.3.1h.3c.1 0 .2 0 .2-.1 0 0 .1 0 .1-.1 0 0 0-.1.1-.1v-.3l1.1-.8.6.6-.1.2.9 1.6H53L51.6 20l-.1.4c.1.2.1.3.2.5 0 .2.1.3 0 .5 0 .2 0 .3-.1.5-.1.1-.1.3-.2.4v.2l2-1.1.3.6.1-.2-1.4-2.5zm-2-1.4.1-.1v-.2s0-.1-.1-.1l-.1-.1h.2c.1 0 .1 0 .2.1.1 0 .1.1.2.1l.1.1c0 .1.1.1.1.2s.1.1.1.2v.2l-.8-.4zm1.3 4c0-.1.1-.2.1-.3V21c0-.1 0-.3-.1-.4l1 .8-1 .5zm-34.6-.1-.2.1-.2.4h-.4l.5.3h-.2s-.1 0-.1.1-.1.1-.1.1v.1h-.1l-.9 2.1.2-.1.6-1.4h.1v1.6l.3-.2c.1-.1.2-.3.2-.4l.3-.3c.1-.1.2-.1.3-.2.1 0 .2-.1.4-.1l.1-.1-1.6-.7.2-.4h.1v-.1l.1-.1s.1 0 .1-.1h.2l1.2.7.2-.1-1.6-.9.3-.3zm-.7 1.8.9.4c-.1 0-.2.1-.2.1-.1 0-.2.1-.2.1l-.2.2c-.1.1-.1.2-.2.2l-.1-1zm2.9-2.1c-.1 0-.2 0-.2.1-.1 0-.2.1-.3.1-.1 0-.2.1-.3.1-.1 0-.2.1-.3.1-.1 0-.2.1-.2.1l.1.2c.1-.1.3-.2.4-.2.1-.1.3-.1.4-.2.1-.1.2-.1.4-.2.1 0 .2-.1.4-.1l-.1-.1c-.2.1-.2.1-.3.1zm-1.9.3h.3c.1 0 .1-.1.2-.1s.1-.1.1-.2.1-.1.1-.2v-.4c0-.1-.1-.1-.1-.1h-.2c-.1 0-.1.1-.2.1s-.1.1-.1.2c-.1.1-.1.2-.1.2v.4c-.1 0 0 .1 0 .1zm.1-.6c0-.1 0-.1.1-.2 0 0 0-.1.1-.1h.3l.1.1v.4c0 .1 0 .1-.1.2 0 .1-.1.1-.1.1h-.1l-.1-.1v-.1c-.2-.2-.2-.2-.2-.3zM27.9 14l-.2-.1-.4.1-.1-.1s0-.1-.1-.1c0 0-.1 0-.1-.1h-.1l.3.7s-.1 0-.2-.1c-.1 0-.1 0-.2-.1h-.4c-.1 0-.1.1-.2.2s-.1.2-.2.3l-.1-.1s-.1 0-.1-.1h-.4l-.4.4-2.3 1.2-1.7 1.2-.3.2h-.1s-.1 0-.1-.1h-.2l.4.4h-.3s-.1 0-.1.1h-.2L18 20.2h.2l1.5-1.6.3.3h-.2s-.1 0-.1.1l-.1.1s0 .1-.1.1v.2s0 .1.1.1c-.1 0-.2 0-.2.1-.1 0-.1 0-.2.1-.1 0-.1.1-.1.1l-.1.1-.2.2c0 .1-.1.2-.1.2v.2c0 .1.1.1.1.2.1.1.1.1.2.1h.2c.1 0 .2-.1.2-.1.1 0 .1-.1.2-.2l.1-.1s0-.1.1-.1v-.2h-.3l-.1.1-.1.1v.2s0 .1.1.1l-.1.1H19l-.1-.1v-.2c0-.1 0-.1.1-.2 0-.1.1-.1.1-.2l.1-.1c.1 0 .1-.1.2-.1h.4l.1-.1h-.1l-.1-.1v-.3l.1-.1h.3l.7.7.2-.1-1.3-1.2.3-.3h.1l.1-.1h.4l.9 1.1h.2l-1.1-1.4.4-.3.7-.5c0 .1-.1.2-.1.3v.6c0 .1.1.2.1.2 0 .1.1.1.1.2.1 0 .1.1.2.1l.1.1h.5c.1 0 .1 0 .2-.1.1 0 .1-.1.2-.1s.1-.1.1-.1l.1-.1V18l-.1-.1h-.2s-.1 0-.1.1c0 0-.1 0-.1.1l-.1.1v.2c-.1 0-.1.1-.2.1h-.2c-.1 0-.1 0-.2-.1-.1 0-.1-.1-.2-.2 0-.1-.1-.2-.1-.2v-.3c0-.1 0-.2.1-.3 0-.1.1-.2.1-.3.1-.1.1-.2.2-.2l.2-.2.2-.1.3-.1.5.9h.4c0-.1.1-.2.1-.3 0-.1.1-.2.1-.2 0-.1.1-.2.1-.2 0-.1.1-.2.2-.3v.2c0 .1 0 .1.1.2l.3.3c.1.1.3.2.4.3h.1c-.1 0-.1-.1-.2-.1s-.1-.1-.1-.1l-.1-.1s-.1-.1-.1-.2-.1-.1-.1-.2v-.4c0-.1 0-.2.1-.2l-.5.1-.2.2c.2-.4.1-.3.1-.2s-.1.2-.1.3-.1.2-.1.3l-.5-.8 1.8-1 .3-.1h.4s.1 0 .1.1l-.1.1-.1.1c0 .1-.1.1-.1.2v.1c0 .1.1.1.1.1h.2s.1 0 .1-.1l.1-.1.1-.1s0-.1.1-.1l.1.1h.3c.1 0 .1-.1.2-.1v-.1c0-.1-.1-.1-.2-.1s-.2-.1-.4-.1v-.2l.1-.1s.1 0 .1-.1h.4s.1 0 .1.1c0 0 .1 0 .1.1l.4 1h.3l-.6-1.6.7-.1zm7.9 1.1-.1-.1s-.1-.1-.2-.1c.1 0 .2 0 .3-.1.1-.1.1-.1.1-.2v-.3s0-.1-.1-.1l-.1-.1s-.1 0-.2-.1c-.1 0-.1 0-.2-.1l-.7-.2h.1c.1 0 .1 0 .1.1v.2l-.2 1.1c0 .1 0 .2-.1.2h-.3l.8.2c.2 0 .3.1.4 0h.1s.1 0 .1-.1l.1-.1v-.2h.1zM35 14h.2c.1 0 .1 0 .2.1.1 0 .1.1.1.1l.1.1v.1c0 .1 0 .1-.1.2 0 0-.1.1-.2.1H35c-.1 0-.2 0-.2-.1l.2-.6zm.6 1.3s0 .1-.1.1l-.1.1H35c-.1 0-.2-.1-.3-.1l.1-.7h.2c.1 0 .2 0 .2.1.1 0 .1.1.1.1l.1.1c.2.2.2.2.2.3zm1.9.9s0-.1-.1-.3l-.1-1.5-1 1.1-.2.2H36l.5.2c-.1 0-.1-.1-.1-.1v-.1s0-.1.1-.1l.2-.2.6.2v.5h-.2l.7.2c-.2 0-.3 0-.3-.1zm-.9-.9.5-.6.1.7-.6-.1z"/><path class="st5" d="M39.8 15.6h.2l-.6-.2h.1c.1 0 .1.1.1.1v.2l-.4.9-.5-1.6-.4-.2s.1 0 .1.1h.1v.2l-.5 1.1c0 .1-.1.1-.1.2h-.3l.6.2h-.1c-.1 0-.1-.1-.1-.1v-.2l.4-1L39 17l.6-1.3c.1 0 .1-.1.2-.1-.1 0 0 0 0 0zm1.4 1.7s0-.1 0 0l.1-.1h.1l-.6-.3c.1 0 .1.1.1.1v.2l-.2.4c-.1 0-.2 0-.4-.1-.1 0-.1-.1-.2-.2-.1 0-.1 0-.1-.1v-.3c0-.1.1-.2.1-.3.1-.1.1-.2.2-.2.1-.1.1-.1.2-.1h.3c.1 0 .2 0 .3.1l.3.3c0 .1.1.2 0 .4l.2-.5s0 .1-.1.1l-.1-.1-.1-.1-.1-.1h-.1c-.2-.4-.3-.4-.5-.4h-.2c-.1 0-.2.1-.2.1-.1 0-.1.1-.2.1-.1.1-.1.1-.1.2-.1.2-.1.4-.1.6 0 .3.2.5.5.7.1 0 .1.1.1.1s.1 0 .1.1h.3l.3-.5c0-.1 0-.1.1-.1zm1.2 1.2-.1.1h-.4l-.1-.1-.1-.1c-.1-.1-.1-.1-.2-.1v-.1s0-.1.1-.1l.6-.9.1-.1h.2s.1 0 .1.1l-.6-.5h.1c.1 0 .1.1.1.1s0 .1-.1.2l-.7 1-.1.1h-.2L41 18l1.1.8.3-.3zm1.2 1.5v-.3l.5-1.5-1.4.6c-.1.1-.2.1-.3.1 0 0-.1 0-.1-.1l.4.4-.1-.1V19l.1-.1.3-.1.5.4-.1.3c0 .1-.1.1-.1.2h-.2l.5.5V20zm-.5-1.2.7-.3-.2.7-.5-.4z"/><path class="st5" d="M45.5 20.9c.1-.1.2-.3.3-.4v-.4c0-.1-.1-.2-.1-.2-.1-.1-.1-.2-.2-.3l-.6-.6.1.1s0 .1-.1.2l-.9.9c-.1.1-.1.1-.2.1s-.1 0-.2-.1l.5.6.3.3c.1.1.2.1.3.1h.3c.3-.2.4-.2.5-.3zm-.8 0c-.1 0-.2 0-.3-.1-.1 0-.2-.1-.2-.2s-.1-.1-.2-.2l1.1-1c.1.1.2.1.2.2.1.1.1.2.2.2v.3c0 .1 0 .2-.1.3 0 .1-.1.2-.2.3-.1.1-.2.1-.3.2h-.2zm1.4 1.6h-.5l-.1-.1s0-.1-.1-.1l-.1-.3v-.1l.1-.1.5-.3.2.3.1.1v.2s0 .1-.1.1l.5-.3s-.1 0-.1.1h-.2l-.1-.1-.2-.3.5-.4.3.4.1.1v.2l-.1.1.3-.2-.8-1.1c0 .1.1.1.1.2v.1l-.1.1-.9.6c-.1 0-.1.1-.1.1l.8 1.1v-.4z"/><path class="st5" d="M46.8 23.7c.1 0 .1-.1.1-.1 0-.1.1-.1.1-.2v-.9l.1-.1h.2s.1 0 .1.1l.1.1c0 .1.1.1.1.2v.2s0 .1-.1.1l-.1.1.5-.3h-.1v-.1c0-.1 0-.2-.1-.3 0-.1-.1-.1-.1-.2-.1 0-.1-.1-.2-.1h-.2c-.1 0-.1 0-.2.1-.1 0-.1.1-.1.1 0 .1-.1.1-.1.2v.9l-.1.1h-.2s-.1 0-.1-.1l-.1-.1c0-.1-.1-.2-.1-.2V23s0-.1.1-.1l.1-.1-.6.2h.1v.6c0 .1.1.1.1.2.1 0 .1.1.2.1h.2c.3-.1.4-.2.4-.2z"/><path class="st5" d="M48.5 24.3v.2h-.2l-.4.2-.3-.7.4-.2c.1 0 .1-.1.2-.1h.1s0 .1.1.1v.1l-.3-.7v.2h-.2l-1 .5c-.1 0-.2.1-.2.1-.1 0-.1-.1-.1-.1v-.1l.3.7v-.2h.2l.5-.2.3.7-.5.2c-.1 0-.2.1-.2.1-.1 0-.1-.1-.1-.1v-.1l.3.7v-.2h.2l1-.5c.1 0 .1-.1.2-.1v.1l-.3-.6zm-6.9 27.9c.3.8 0 1.3-.6 1.5-.6.2-1.2-.1-1.4-.7-.3-.7 0-1.3.6-1.5.6-.2 1.1.1 1.4.7zm-1.7.7c.2.5.6.8 1 .6.4-.2.5-.7.3-1.2-.2-.4-.6-.8-1-.6-.4.2-.5.7-.3 1.2zm1.5-1.9 1.1-.6.1.2-.9.4.3.7.8-.4.1.2-.6.5.5.9-.3.1-1.1-2zm3.8.1c.2 0 .4-.1.5-.2.3-.2.3-.4.2-.6-.1-.2-.3-.2-.6-.1-.4.1-.7.1-.9-.2-.2-.3-.1-.7.3-1 .2-.1.4-.2.5-.2l.1.3c-.1 0-.3 0-.4.2-.3.2-.3.4-.2.5.1.2.3.2.6.1.4-.1.7-.1.9.2.2.3.2.7-.3 1-.2.1-.4.2-.6.2l-.1-.2zm.4-2.7.6.7.9-.8-.6-.7.2-.2 1.5 1.8-.2.2-.7-.8-.9.8.7.8-.2.2-1.5-1.8.2-.2zm1.6-1.5 1.7 1.6-.2.2-1.7-1.6.2-.2zm.4-.4c.1-.1.2-.3.3-.5.2-.2.4-.3.6-.4.2 0 .3 0 .5.2s.3.3.3.5-.1.5-.3.7l-.2.2.7.6-.2.2-1.7-1.5zm1 .6c.1 0 .1-.1.2-.2.2-.3.3-.6 0-.8-.2-.2-.5-.1-.7.1l-.2.2.7.7zm.1-1.9c.1-.1.2-.3.3-.5.2-.3.4-.4.5-.4.2 0 .3 0 .5.1s.3.3.3.4c0 .2 0 .5-.2.7l-.2.2.8.6-.2.3-1.8-1.4zm1.1.4c.1 0 .1-.1.2-.2.2-.3.2-.6-.1-.8-.3-.2-.5-.1-.7.2-.1.1-.1.2-.2.3l.8.5zm.1-2.2 2 1.3-.2.3-2-1.3.2-.3zm2.3.8-2-1.1.2-.3 1.4-.1h.9c-.3-.1-.5-.3-.9-.4l-.9-.5.1-.3 2 1.1-.2.3-1.3.1h-.9c.3.1.5.3.9.4l.9.5-.2.3zm1.8-3.8c0 .1 0 .4-.2.7-.1.3-.3.6-.6.7-.3.1-.6.1-.9 0-.6-.3-.9-.9-.6-1.6.1-.3.3-.4.3-.5l.2.2c-.1.1-.2.2-.3.4-.2.5 0 1 .5 1.2.5.2 1 0 1.2-.5.1-.2.1-.3.1-.4l-.7-.3-.2.4-.2-.1.3-.7 1.1.5z"/></svg>