<svg version="1.1" id="Layer_1" xmlns="http://www.w3.org/2000/svg" xmlns:xlink="http://www.w3.org/1999/xlink" x="0" y="0" viewBox="0 0 58.7 71.2" style="enable-background:new 0 0 58.7 71.2" xml:space="preserve"><style>.st2{fill:#483f18}.st9{fill:#63ad31}.st10{fill:#ffe900}.st11{fill:#e2041d}.st12{fill:#e3001b}</style><path id="Path_2917" d="M48.6 9.1H9.4v53h39.2v-53" style="fill:#fff"/><path d="M38.8 41.2c-1.3.8-3 .6-4-.5 0 0-.9.9-3.3-.7 0 0-1.6 2-4.3-.4l-1 .4h-2l-.8-.3-.4-.4-.3-.3-1-.2-1.4-.3-1.4.4-1.4.3-1.9-.6-.6-1.3.3-1.6.8-1 .8-.8.8-.4 1-.4-.9-1-.2-1.8.3-1.2s1.5-2.5 3.8-2.5c0 0 1.5-2.7 3.5-2.6 2.1.2 4.1.8 5 2.4 0 0 4-2.5 6.8.2l1.3 2.5s2.8-.8 2.2 2.2c.9 1.2.6 2.9-.6 3.9v1.4s3.7 2.2 2 4.6c-.4.4-.8.6-1.4.5-.6.1-1.2-.1-1.7-.5z" style="fill:none"/><path id="Path_2922" class="st2" d="M31.7 54.8s-2.3-9 .7-14c.8.5 1.7.6 2.6.3 1 1 2.6 1.2 3.9.5 0 0 2.6 1.6 3.7-.1 0 0 1.4-2.6-2.2-4.7 0 0 .6-5.5-6.8-5-1-.7-2.3-.8-3.4-.2l.1.4s2.1-.8 3.2.3c0 0 6.9-1 6.2 4.7 0 0 3.5 1.8 2 4 0 0-.9 1.5-3-.3-1.2 1-2.9.8-3.9-.3-.6.4-1.4.3-2-.1 0 0-.2-1.2 1.4-1.7 0 0 2.7-.4 3.3-2l-.2-.1c-.6.9-1.6 1.4-2.6 1.4.9-1.1 1.5-2.4 1.8-3.7l-.3-.1c-.4 1.5-1.3 2.9-2.6 3.9-1.9 1.3-1.6 1.9-1.6 1.9l-.8-.8H31c.6 1.1.4 2.4-.4 3.4l.1-1.4.9-.6-.3-.8-.8.6s-1.3.5-3.4-1.1c0 0-2.6 1.4-3.7.1 0 0 1.4-.2 1.9-1 .5.3 1.2.4 1.8.4v-.2c-.7 0-1.4-.4-1.8-1.1 0 0-1.6 2.2-5 .8 0 0-2.8 1.1-3.9.6-1-.4-1.5-1.5-1.2-2.5v-.1c.7-1.4 2.1-2.5 3.6-2.7 1.6-2 4.3-2.7 6.6-1.8 0 0 1.2-3.5 4.2-.9.8-.8 2.2-.9 3.1 0l.2.2c.7-.1 1.5.2 1.9.8l.4.1c-.4-.8-1.2-1.4-2.1-1.3l-.4-.4.7-.8c1-.1 2-.6 2.7-1.4h-.2s-1.2 1.1-2.1.7l.9-1.8-.2-.1c-.7 1.1-1.5 2.2-2.3 3.2-.9-.5-2-.4-2.7.3-1.1-1.1-2.9-1.1-4-.1l-1.2-1.5c-.5-.7-1.1-1.3-1.7-1.8.2.5.5 1 .8 1.4v.2l-.2.1-2.8-.9-.1.1c1 .5 2 .9 3.1 1.3h.1c.6.5 1 1.1 1.4 1.8-2.4-.4-4.8.4-6.5 2.2 0 0-3.2.7-3.9 3.4-.3 1.3.5 2.7 1.8 3 .1 0 .3.1.4.1.8 0 1.7-.1 2.5-.4l1.2-.3c.6-.2.8.4 2.2.5 0 0 1.5 2.1 4.4.6l.3.2s.1 4.7 0 5.2-1.2-2.6-1.2-3c.5 0 1 .1 1.4.5.6.6.1-1 .1-1-.6-.3-1.2-.4-1.8-.3-.3-.4-.5-.8-.7-1.3-.1-.4-.8-.1-.8-.1l.5 1.3c-1.9 0-3.7-1.1-4.6-2.8l-.9.3c1.4 2 3.6 3.2 6 3.4.3 1.6 1 3 2.1 4.3l-.5 6.2a4.8 4.8 0 0 1-2.3 3.1c0-.2 2.3.2 7.1-1.2z"/><path id="Path_2923" class="st2" d="M39.7 34.9s2.1-1.1.4-3.3c0 0 1.2-2.6-2.1-2 0 0-1.4-6.7-7.8-2.5-.8-.4-1.6-.7-2.5-1l.1-.3 1.6.2s-4.3-4.3-7.3 1c-1.3.1-2.5.7-3.4 1.6 0 0-2 2.7.2 4.4l-.7.4s-1.9-2.6-.3-4.8c.8-1.3 2.1-2 3.6-2.1 0 0 3-5.6 8.8-.5 0 0 5.9-3 8.3 3 1.1-.2 2.2.6 2.3 1.8 0 .3 0 .6-.1.9 1 1.4.7 3.3-.7 4.2-.1 0-.1.1-.2.1l-.2-1.1z"/><path id="Path_2924" class="st2" d="m30.5 23.6-.9 1.8 1.7-1.7.2-.2.6.3-2.1 1.9-.8-.5.5-1.6c-.5 0-.9-.1-1.4-.3l-.1 1.2-.3-.2v-1.2c-.5-.3-1-.6-1.5-1v.2s1.1.9 1.1 1.8l-.8-.2s.6-.4-.4-1.5c0 0-.2 2.1-2.9 1.5 0 0-3.1 2.6-5.5.3s.9-6.6.9-6.6c.7-.9 1.6-1.6 2.7-1.9.6-1.5 2.1-2.4 3.7-2.4 0 0 1.8-1.4 6-.4 2.3.4 4.1 2.2 4.5 4.6 0 0 4.9 1.3 5 5.7.8.4 1.2 1.5.7 2.3-.1.2-.3.4-.4.5 0 0-1.6 1.4-4.7-.9 0 0-1.8.6-4.1-1.3-.6-.4-1.3-.6-2-.5-1.4 0 0-.5 0-.5 1.1 0 2.1.4 3 1 .8 1 2.1 1.3 3.3.8 0 0 2 2.1 3.8 1.1s-.3-1.9-.3-1.9.8-3.8-5.1-5.8c0 0 1.1-2.4-4.1-4.3s-.1-.1-.1-.1-3.6-1-5.5.6c-1.6-.3-3.1.8-3.3 2.3 0 0-.5-.5-3 1.7 0 0-2.8 3.4-.7 5.8 0 0 1.6 2.3 4.9-.5 0 0 2 .5 2.3-.7 0 0 .8-1-1.8-1.9 0 0 .9-.7 3.1.9.9.8 2 1.2 3.1 1.1l1.4.2-.7.5z"/><g transform="translate(7.901 45.843)" id="Group_534"><defs><path id="SVGID_1_" d="M41.3 6.3c-5.3-.4-10.5.3-15.5 2.1-4.1 1.7-8.5 2.4-12.8 2.1-4.2-.2-8.3-1.6-11.8-4.1L1.1 11s3.6 2.6 12.6 1.6c2.8-.1 5.5-.5 8.2-1.1 3.8-.9 7.8-1.1 11.7-.4 2.8.5 5.4 1.6 7.7 3.3V6.3"/></defs><clipPath id="SVGID_2_"><use xlink:href="#SVGID_1_" style="overflow:visible"/></clipPath><g id="Group_533" style="clip-path:url(#SVGID_2_)"><path id="Path_2925" d="M40.7 16.2H1.5V6.1h39.2v10.1z" style="fill:#4e2610"/></g></g><g transform="translate(25.538 50.484)" id="Group_536"><defs><path id="SVGID_3_" d="M23.4 12.3S17.9 4.8 3.6 7.4c0 0 13 .1 15.5 4.9h4.3"/></defs><clipPath id="SVGID_4_"><use xlink:href="#SVGID_3_" style="overflow:visible"/></clipPath><g id="Group_535" style="clip-path:url(#SVGID_4_)"><path id="Path_2927" d="M23.1 11.6h-39.2V1.4h39.2v10.2z" style="fill:#007ab3"/></g></g><g transform="translate(7.961 51.314)" id="Group_538"><defs><path id="SVGID_5_" d="M1.2 6.9s1.3 1.1 10.2.6C15 7 18.6 6.9 22.2 7c0 0 8.9.4 13.2 4.4l-8.9.2s-.9-2.1-8.4-3.3C15 8 11.9 8.5 9 9.6c0 0-6 1.7-7.5 1.2l-.3-3.9"/></defs><clipPath id="SVGID_6_"><use xlink:href="#SVGID_5_" style="overflow:visible"/></clipPath><g id="Group_537" style="clip-path:url(#SVGID_6_)"><path id="Path_2929" d="M40.7 10.7H1.4V.6h39.2v10.1z" style="fill:#009ddd"/></g></g><g id="Group_539"><path id="Path_2931" class="st9" d="M9.4 50.7V27.6c.8-10.9 10.4-19.1 21.3-18.3h.4s8.3.8 13 6.9 4.6 11 4.6 11v24c4.2-3.8 7.3-8.7 8.9-14.2 1.4-4.8 1.4-10 .2-14.9C56.3 16 52.9 10.6 48 6.6 43 2.5 36.7.1 30.2 0c-5.9-.1-11.8 1.5-16.8 4.7C4.8 10 1.7 19.6 1.7 19.6-.1 24.9-.4 30.6.8 36c1.5 5.6 4.4 10.7 8.6 14.7"/></g><path class="st10" d="m4.9 31.7 2.3-.1v-.7l-3.3.1v-.6h-.5v.6h-.5v.7H4c-.2.2-.3.4-.4.6-.1.3-.1.6-.1.9 0 .4.1.7.3 1 .1.3.4.4.7.4.1 0 .3-.1.3-.2.2.1.2-.1.2-.3 0-.2-.1-.3-.1-.5-.1-.1-.1-.2-.1-.4 0-.1 0-.2.1-.2 0 0 .2.1.4.4.1.2.3.4.4.5l.3-.6c-.2-.2-.3-.4-.5-.7-.2-.3-.4-.4-.6-.4-.2 0-.3.1-.4.3-.1.2-.2.4-.2.6 0 .1.1.3.1.4.1.1.1.2.1.4-.1 0-.3-.1-.4-.2-.1-.1-.1-.3-.1-.4 0-.7.3-1.3.9-1.6zm-.6-6h-.5l-.1.9-.7-.1v.6l1.1.1c-.3.3-.5.7-.6 1.2-.1.4 0 .8.3 1.1.2.2.4.4.7.4.2 0 .5-.1.7-.3.2-.2.4-.5.4-.8v-.2l-.6-.3c0 .1.1.2.1.4 0 .1-.1.3-.2.4-.1.1-.2.1-.4.1-.4 0-.6-.4-.6-1 0-.3.2-.5.4-.7.2-.2.4-.3.6-.3 1.5.1 2.2.2 2.3.2l.1-.7-3.3-.3.3-.7z"/><path class="st10" d="m8.7 14.3.3-.6-.2-.1L13 9.3l-.3-.3-4.2 4.4.3.3-.2-.1-.3.4-.4-.3-.4.6.5.4c-.2.1-.4.3-.6.5l-.2.2h-.1L4.7 21h.1l-.1.7-.4-.1-.1.7 1.1.2c-.5.4-.9.9-1 1.6-.1.4-.1.7 0 1.1 0 .3.2.6.5.8l.4-.3v-.5c0-.1.1-.2.1-.2l.2-.1c.1 0 .2.1.2.2 0 0 .1.1.1.3l.4-.4c-.2-1-.5-1.7-.6-2 .3-.2.6-.3.6-.3l1.3.3c-.1.1-.2.3-.2.4-.1.2-.2.6-.5 1.3-.1.3-.2.5-.4.8-.1.2-.3.3-.5.2 0 0-.1 0-.2-.1l-.2-.1-.2.7c.3.2.7.2 1 .1.3-.2.5-.4.6-.7.1-.2.3-.6.5-1.3.1-.3.2-.6.4-.9l.3-.3h.2V23c.1 0 .1-.1.2-.1l-.1-.3v-.1h-.1v-.1h-.1l-3-.7.2-.7h-.1l.7-1.6c.1.3.3.6.6.8.2.1.4.1.6 0 .2-.1.4-.3.5-.6.1-.3.2-.5.1-.8.1-.1.2-.1.3 0 .1.1.2.2.2.4s0 .4-.1.6c-.2.3-.4.6-.8.7-.3.1-.6.2-.9.1-.3-.1-.5-.2-.8-.3l-.3.6c.4.2.8.3 1.2.3.4 0 .8-.1 1.1-.3.4-.2.8-.6.9-1 .4-.5.4-.9.4-1.2 0-.3-.2-.6-.5-.7-.2-.1-.3-.1-.5 0s-.4.2-.5.3l-.1.4c.1.2.1.4 0 .5 0 .1-.1.2-.2.2h-.3c-.3-.1-.4-.4-.4-.7.4-.1.7-.3.9-.6.2-.3.4-.7.6-1.1.2.3.5.5.8.7.4.2.9.3 1.4.2l.1-.7c-.3 0-.7 0-1-.1-.5-.2-.9-.6-1.2-1l-.4.2c-.2.4-.3.7-.3.7-.1.2-.2.5-.4.6-.1.2-.3.3-.6.3l1.1-2.5v-.1c.1-.2.4-.4.7-.5.2-.1.3-.1.3-.1l2.4 1.6.4-.6-2.6-1.4zM4.8 24.9c-.1-.3-.1-.7 0-1l.3-.6c.2.3.3.6.4.9-.4.1-.6.4-.7.7z"/><path class="st10" d="M13.6 11c-.2-.2-.4-.3-.6-.4-.3 0-.6 0-.8.1-.3.1-.6.2-.8.5-.2.2-.4.5-.5.7-.1.2-.1.5.1.7.2.1.4.2.6.2l.3-.6c-.1 0-.2 0-.3-.1-.1-.1-.1-.3 0-.5.3-.3.7-.5 1.2-.4.2.1.4.2.6.4.2.1.2.3.1.6s-.2.5-.4.7l-.2.2c-.1 0-.1.1-.2.1s-.2.1-.2.1c-.3.1-.6.1-.8 0 0 0-.2-.1-.7-.2-.3-.1-.7-.2-1-.4l-.4.6c.4.1.7.3 1.1.4.3.1.5.2.6.2.4.1.8.1 1.1 0 .4-.1.8-.4 1.1-.7.3-.2.5-.7.5-1.2 0-.4-.1-.7-.4-1zm5.9-5.1.7-.3-.2-.5-.6.3c-.4-.4-.9-.7-1.5-.7-.7-.1-1.3.1-2 .3-.3.1-.7.3-1 .6-.4.3-.5.6-.4.8.1.2.3.3.7.2.3 0 .6-.1.9-.2.2-.1.4-.2.6-.2.3-.2.5-.2.5-.1s-.1.1-.1.2v-.1l-4.3 2.5.2.5 3.1-1.8.3.5c-.5-.1-.9 0-1.3.2-.3.2-.6.5-.7.9-.1.3-.1.6.1.9.2.3.6.5.9.4l.2-.5c-.3 0-.5-.1-.5-.2-.2-.4 0-.7.5-1 .2-.1.4-.1.6-.1.2 0 .4.1.6.2l.1.1c-.1.1-.2.3-.3.5-.3.5-.3.8-.2 1 .1.1.2.2.3.2.2 0 .3 0 .5-.1s.3-.2.4-.4l-.4-.2-.2.1h-.1c-.1-.1 0-.3.2-.7.1-.2.3-.5.5-.6.1-.1.2-.1.3 0l.9 1.6c-.2 0-.4 0-.6.1l-.5.3s-.2.1-.5.3c-.2.1-.5.2-.7.3-.2.1-.4 0-.5-.2-.1-.2-.2-.5-.2-.7l-.6.1c0 .3 0 .6.1.8.2.3.5.5.8.6.4 0 .7-.1 1-.3.2-.1.3-.2.4-.2.2-.1.3-.2.4-.2.2-.1.5-.2.8-.2.2.1.4.2.5.4l.6-.3-1.5-2.6c-.1-.1-.3-.2-.4-.2-.2 0-.4 0-.6.1L16.7 7l.6-.4-.1-.2.5-.1c.1-.2.1-.4.1-.6-.1-.4-.6-.4-1.3-.2-.1 0-.4.1-.7.2-.2.3-.4.3-.6.5 0-.1.1-.2.4-.4l.6-.3c.5-.2 1-.3 1.5-.2.4 0 .8.2 1.1.5l-.9.2.1.4.8-.3L20 9.2l.6-.2-1.1-3.1zm9.6-2.3h-.7v-.5h-.7v.7c-.2-.1-.4-.2-.7-.2h-.7v.1l-3.5.6.1.5 3-.5v.1c-.9.3-1.7.8-2.4 1.4l.5.4c.4-.1.9 0 1.3.1s.8.3 1.1.6l.1.6.5-.1-.6-3.2.7-.2c.2 0 .3.1.4.2.2.1.2.2.2.2l.1 2.9h.7L28.4 4h.7v-.4zm-4.5 2c.4-.3.9-.5 1.3-.7l.2 1.1c-.5-.2-1-.3-1.5-.4zm4.5-.1 2.1 1.7.6-.3-2.1-1.8zm1.5-.3zm0 0c.3 0 .5 0 .8-.1.2-.1.3-.3.3-.5 0-.3-.1-.5-.3-.6-.2-.2-.6-.3-.9-.3-.3 0-.5 0-.8.1-.2.1-.3.3-.3.5 0 .3.1.5.3.6.3.2.6.3.9.3zm-.1-1c.1 0 .2 0 .3.1l.2.2c0 .1-.1.2-.3.2-.1 0-.2-.1-.3-.1l-.1-.2c-.1-.2 0-.2.2-.2zm18.8 7.1-.5-.5-.7.8c0-.4-.2-.7-.4-1-.3-.3-.6-.4-1-.3 0-.5-.2-1-.6-1.3l-.2-.2-.3-.3-.2.2.1-.2-3.8-2.3v.1l-2.4-1-.4-.2-.2-.1.2-.5-.7-.2-.2.7c-.2-.2-.3-.3-.6-.4v-.1L32 3.7l-.1.5 3.9.8-.1.5c-.2-.2-.4-.3-.7-.3-.2 0-.4 0-.6.1-.1-.3-.4-.5-.7-.5-.4-.1-.7-.1-1.1.1-.2.1-.4.4-.5.7-.1.3.1.5.3.7.3.2.6.4.9.5l.3-.4c-.2 0-.5-.1-.7-.3-.2-.1-.2-.2-.2-.4s.1-.3.2-.4c.1-.1.3-.1.5-.1s.3.1.4.3c.1.1.1.3.1.5h.6c0-.2.1-.3.2-.4h.1c.1 0 .2.1.3.3.1.2.2.3.2.4l-.4 1.8.7.1.6-3.2.6.2c.1.1.3.2.4.4.1.2.2.3.2.3l-.9 2.7.7.2 1-3.1.8.2 1.3.5c-.3.1-.7.2-1 .3-.3.1-.5.4-.6.6-.1.2-.2.5-.2.7 0 .3.1.6.2.9.2.3.5.6.8.7.4.2.8.1 1.1-.1-.2-.2-.3-.3-.4-.5-.1 0-.2.1-.3.1-.1 0-.2 0-.3-.1-.2-.1-.4-.3-.4-.6-.1-.2-.1-.5 0-.7.1-.3.3-.5.6-.7.2-.2.5-.3.8-.3h1l.3.2-.9 1.6.3.6c.8 0 1.7-.1 2.4.2-.3.2-.5.5-.7.8-.2.4-.4.8-.4 1.2l.6.3c0-.4.2-.7.3-1 .1-.2.3-.4.4-.6.2-.2.4-.3.7-.4l-.2-.6c-.7-.4-1.5-.5-2.3-.4.2-.3.4-.7.6-1l2.6 1.5c.2.1.3.2.4.3.3.2.4.5.4.9 0 .1 0 .2-.1.3-.1.1-.3.1-.5 0l-.1-.1c-.1-.1-.1-.2-.1-.3l-.5.1c0 .3.2.5.4.7.2.2.6.3.9.3 0 .3.2.6.4.8.2.1.4.3.6.3v-.5c-.1 0-.2-.1-.3-.1-.1-.1-.1-.2-.2-.3v-.2c.3-.3.5-.4.6-.2l.1.1c.1.1.1.3.1.6 0 .2 0 .4-.1.6L45.9 14l.5.5 2.2-2.4.5.5.3-.4-.4-.5.3-.4zm2.1 11.3c.1 0 .2-.1.2-.3v-.4c0-.1-.1-.3-.2-.4 0 0-.1-.1-.2-.1-.2 0-.4.1-.4.3v.4c0 .1.1.3.2.4.1.1.3.1.4.1z"/><path class="st10" d="M55.5 30.6h.5v-.7h-.7c.1-.2.2-.4.2-.7h.1l-.8-6h-.1l-1.2-3.9-.2.1.2-.1-2.3-4.6-.3.3.2.5H51c.1.4.2.7.3 1.1 0 .3-.1.5-.4.7h-.3c-.1 0-.2 0-.3-.1-.1-.1-.1-.4 0-.5.1-.1.1-.2.2-.3l-.5-.5c-.1.2-.2.4-.2.7-.1.3 0 .5.1.8.1.2.3.4.6.5.1 0 .3.1.7.2.2 0 .3.1.5.2v.5c-.1.2-.1.3-.2.5L50 20l.3.6 2.9-1.5.2.4.8 2.9h-.1c-.5-.8-1-1.6-1.7-2.3-.1.1-.2.3-.3.5.1.4.1.9 0 1.3s-.2.8-.5 1.1l-.6.2.2.6 3.1-.9.2.6.3 2.8h-.1c-.3-.9-.7-1.7-1.2-2.4l-.5.5c.1.5 0 .9-.2 1.3-.1.4-.3.8-.6 1l-.6.1.1.6 2.6-.3c0 .3 0 .6-.2.8-.1.2-.3.4-.5.4l-.2-.1-.1-.1c0-.1.1-.3.1-.4l-.4-.3c-.1.2-.2.3-.2.4v.5s0 .1.1.3c.2.3.5.5.7.5.4 0 .7-.3.8-.6.2-.4.3-.8.2-1.3h.1l.3 2c0 .2-.1.4-.2.6-.1.2-.2.2-.2.2h-2.8v.7l3.2-.1v3.3h-.1c-.2-.9-.5-1.8-.9-2.7l-.4.4c0 .5-.2.9-.4 1.3s-.5.7-.8.9h-.6v.6l3.3.1v.7h.5l.2-4.3h-.1l-.2-.3zM52 18.8c.1-.3 0-.5-.1-.8-.1-.2-.2-.3-.4-.4.2-.3.3-.6.2-.9l.9 1.8-.6.3zm.5 2.5.9 1.2-1.1.3c.2-.4.3-1 .2-1.5zm.5 5.3c.3-.5.5-1 .5-1.6.3.4.5.9.7 1.4l-1.2.2zm.2 7.3c.4-.4.6-.9.8-1.4.2.5.4 1 .4 1.5l-1.2-.1z"/><path class="st10" d="M52.4 33.3c.1 0 .2-.1.3-.2.1-.1.1-.3.1-.4 0-.1 0-.3-.1-.4-.1-.1-.2-.2-.3-.2-.1 0-.2.1-.3.2-.1.1-.1.3-.1.4 0 .2 0 .3.1.4.1.1.2.2.3.2z"/><path class="st11" d="M7.6 65.6H2.2v1h3.9c-1.1.3-2.2.7-3.2 1.2l-.2.1.7.8h.3c.5 0 1.1.2 1.5.5.5.2.9.6 1.2 1v1h1.2v-4.6h4.8v.9c-.5-.3-1-.5-1.6-.5-.6 0-1.1.2-1.6.5-.4.3-.6.7-.6 1.2 0 .6.4 1.1.9 1.3h.1l.7-.6.2-.1-.2-.1c-.3-.2-.4-.4-.4-.5 0-.2.1-.4.3-.5.3-.1.6-.2.9-.2.3 0 .5.1.7.3.2.2.4.4.5.6l.1.2.1.1v2h1.3v-4.6h1v-1H7.6zm-1.2 1.9v1.2c-.5-.3-.9-.6-1.4-.7.4-.2.9-.4 1.4-.5zm21.9-2.2c0-.3.2-.5.5-.6.3-.2.7-.3 1.1-.3 1.3.1 2.5.5 3.5 1.3l.1.1.1-.1.7-.5.2-.1-.3-.1c-.6-.4-1.3-.8-2-1.1-.8-.3-1.6-.4-2.4-.4-.7 0-1.3.2-1.9.5-.5.3-.9.7-1.1 1.3v.1l.2.2h-9v1h.7v.1c.2.4.4.9.6 1.3.3.5.7 1 1.2 1.3.6.4 1.3.6 2 .6.5 0 1.1-.2 1.5-.5l.8.8v1H26v-4.6h1.5v4.6h1.3v-4.6h1v-1h-1.3c0-.1-.1-.2-.2-.3zm-4.9 1.2h1.4v1.9l-.1-.1v-.2c0-.5-.3-1-.7-1.2-.1-.2-.3-.3-.6-.4zm-2.6 1.1v.2l1.1.2h.1v-.1c0-.1.1-.2.2-.4.1-.1.2-.1.3-.1.3 0 .5.1.7.3.2.1.3.3.3.5s-.1.4-.2.5c-.2.2-.4.2-.7.2-.7 0-1.3-.3-1.7-.9-.4-.4-.6-.9-.8-1.4h1.6c-.5.2-.8.5-.9 1z"/><path class="st11" d="M40.7 66.8c-1 0-2 .4-2.9 1v-1.2H42v-1h-8v.8l-1.3.5c-.1 0-.2 0-.3-.1l.7-.3.2-.1-.1-.2c-.3-.4-.7-.7-1.2-.7-.3 0-.7.1-1 .3-.3.2-.4.5-.4.8 0 .2.1.5.3.6.1.1.3.2.5.3l-1.2.7.6.6c.4.1.9.2 1.3.4s.7.3 1.1.6c.2.1.4.3.6.4v.9H35v-4.6h1.3V69l.9.7.1-.1c.6-.8 1.4-1.4 2.3-1.7-.1.4-.2.8-.2 1.2 0 .6.1 1.3.4 1.9v.1l1-.1h.2l-.1-.2c-.2-.4-.3-.9-.3-1.4 0-.3 0-.7.1-1 .1-.4.3-.7.5-1l.1-.1-.6-.5zM34 69c-.5-.3-1.1-.6-1.7-.8.5-.3 1.1-.5 1.7-.8V69zm-2.1-2.5c.1 0 .2.1.3.1-.2 0-.3 0-.3-.1zm20.6 3c-.2-.1-.4-.2-.7-.2-.2 0-.5.1-.7.2-.2.1-.3.3-.3.5s.1.4.3.5c.2.1.4.2.7.2.2 0 .5-.1.7-.2.2-.1.3-.3.3-.5.1-.2-.1-.4-.3-.5zm-.6 1.1z"/><path class="st11" d="M55.5 65.6h-7.7v-.7h-1.2V66c-.6-.4-1.2-.5-1.9-.5-.5 0-.9.1-1.3.3-.4.2-.7.5-.8.9v.1l.3.2-.9.2-.2.1.1.2.9 1.5c.4.5.9 1 1.4 1.4.6.5 1.4.8 2.2.8.6 0 1.3-.1 1.8-.5.5-.2.9-.7.9-1.3 0-.3-.2-.7-.4-.9-.2-.3-.5-.5-.9-.6v-1.3H53c-1.1.3-2.2.7-3.3 1.3l-.2.1.1.1c.1.2.4.4.6.6h.3c.5 0 1.1.2 1.5.5.5.2.9.6 1.2 1v.9h1.2v-4.6h.9v-.9zm-7.8.8zm5.6 1.1v1.2c-.4-.3-.9-.5-1.4-.7.5-.2.9-.4 1.4-.5zm-8.4-1.2v.2c.2 0 .4.1.6.2-.1.1-.3.2-.4.3-.1-.2-.3-.3-.5-.4h.3v-.3zm-1.7 1h.9l.1.1v.1l-.3.2-.2.1.8.6.1.1 2-1.3.2.2v.4c-.3.1-.6.2-.9.4-.2.2-.4.5-.4.7 0 .4.2.7.6 1l.1.1.7-.5.1-.1-.1-.1-.4-.3v-.2l.1-.1c.1-.1.3-.1.4-.1.2 0 .4.1.5.2.1.1.2.3.2.4 0 .2-.2.4-.4.5-.3.2-.6.2-1 .2-1 .2-2.1-.7-3.1-2.6z"/><path id="Path_2972" class="st12" d="M3.2 39.2h4.7l-3.8 2.7 1.5-4.4L7 42l-3.8-2.8z"/><path id="Path_2973" class="st12" d="M50.5 39.2h4.7l-3.8 2.7 1.5-4.4 1.4 4.5-3.8-2.8z"/><path class="st9" d="m33 31-.2-.2c-.8-.8-2.2-.8-3.1 0-3.1-2.6-4.2.9-4.2.9-2.4-1-5.1-.2-6.6 1.8-1.6.2-2.9 1.2-3.6 2.7v.1c-.4 1 .1 2.1 1.2 2.5 1.1.5 3.9-.6 3.9-.6 3.4 1.4 5-.8 5-.8.4.6 1.1 1 1.8 1.1v.2c-.6 0-1.3-.1-1.8-.4-.4.7-1.9 1-1.9 1 1.1 1.2 3.7-.1 3.7-.1 2.1 1.6 3.4 1.1 3.4 1.1l.7-.5c-.1-.2-.1-.4-.2-.6h.1l.8.8s-.3-.6 1.6-1.9c1.2-1 2.1-2.3 2.6-3.9l.3.1c-.3 1.4-.9 2.7-1.8 3.7 1.1 0 2-.5 2.6-1.4l.2.1c-.6 1.6-3.3 2-3.3 2-1.6.5-1.4 1.7-1.4 1.7.6.4 1.4.4 2 .1 1 1.1 2.8 1.3 3.9.3 2.1 1.8 3 .3 3 .3 1.5-2.1-2-4-2-4 .7-5.7-6.2-4.7-6.2-4.7-1.2-1.1-3.2-.3-3.2-.3l-.1-.4c1.1-.6 2.4-.6 3.4.2h1.2c-.5-.7-1.2-1-1.8-.9z"/><path d="M31.2 23.3c.6.2 1.3.5 1.8.9.8 1 2.1 1.3 3.3.8 0 0 2 2.1 3.8 1.1 1.8-.9-.1-2.3-.1-2.3s.8-3.8-5.1-5.8c0 0 1.1-2.4-4.1-4.3-.1 0-.2-.1-.4-.1-.8-.2-3.6-.7-5.3.6-1.6-.3-3.1.8-3.3 2.3 0 0-.5-.5-3 1.7 0 0-2.8 3.4-.7 5.8 0 0 1.6 2.3 4.9-.5 0 0 2 .5 2.3-.7 0 0 .8-1-1.8-1.9 0 0 .9-.7 3.1.9.9.8 2 1.2 3.1 1.1l.8.1c.2 0 .3 0 .5.1l.2.2z" style="fill:#a4d873"/><path d="M40.2 31.6s1.2-2.6-2.1-2c0 0-1.4-6.7-7.8-2.5-.8-.4-1.6-.7-2.5-1l.1-.3 1.6.2s-4.3-4.3-7.3 1c-1.3.1-2.5.7-3.4 1.6 0 0-1.9 2.5 0 4.2 1.7-1.6 4-2.4 6.3-2-.3-.7-.8-1.3-1.4-1.8h-.1c-1.1-.3-2.1-.7-3.1-1.3l.1-.1 2.8.9.2-.1v-.2c-.3-.4-.6-.9-.8-1.4.6.5 1.2 1.2 1.7 1.8l1.2 1.5c1.2-1 2.9-1 4 .1.8-.7 1.9-.8 2.7-.3.8-1 1.6-2.1 2.3-3.2l.2.1-.9 1.8c.8.4 2.1-.7 2.1-.7l.2.1c-.7.8-1.6 1.3-2.7 1.4l-.7.8.4.4c.8-.1 1.6.4 2 1.1 3.1.2 4.4 1.7 4.8 3 .4-.3 1.4-1.4.1-3.1z" style="fill:#82ba56"/></svg>