<svg version="1.1" id="Layer_1" xmlns="http://www.w3.org/2000/svg" x="0" y="0" viewBox="0 0 68.4 63" style="enable-background:new 0 0 68.4 63" xml:space="preserve"><style>.st0{fill:#fff}.st1{fill:#00973d}</style><g id="Group_523" transform="translate(2.211 36.965)"><g id="Group_487" transform="translate(0 .1)"><path id="Path_2790" class="st0" d="M1.8.7H.1V.1h4.1v.7H2.5v5.5h-.7V.7z"/><path id="Path_2791" class="st0" d="M2.6 6.3h-.9V.8H0V0h4.3v.8H2.6v5.5zm-.7-.2h.6V.7h1.7V.1h-4v.5h1.7v5.5z"/></g><g id="Group_488" transform="translate(4.399)"><path id="Path_2792" class="st0" d="M5.2 3.2c0 2.1-1.2 3.2-2.6 3.2C1.1 6.4.1 5.1.1 3.3.1 1.4 1.2.1 2.7.1s2.5 1.3 2.5 3.1zm-4.4.1c0 1.3.6 2.5 1.8 2.5s1.8-1.2 1.8-2.5C4.4 2.1 3.8.8 2.6.8S.8 1.9.8 3.3z"/><path id="Path_2793" class="st0" d="M2.6 6.5C1.1 6.5 0 5.2 0 3.3 0 1.4 1.1 0 2.7 0c1.5 0 2.6 1.3 2.6 3.2-.1 2.3-1.4 3.3-2.7 3.3zM2.7.1C1.2.1.2 1.4.2 3.2s1 3 2.4 3c1.5 0 2.5-1.3 2.5-3.2 0-1.6-1-2.9-2.4-2.9zm-.1 5.7C1.4 5.8.7 4.5.7 3.2S1.3.6 2.6.6c1.3 0 1.9 1.3 1.9 2.6 0 1.6-.8 2.6-1.9 2.6zm0-5C1.4.8.9 2 .9 3.3c0 1.2.6 2.4 1.7 2.4 1.2 0 1.7-1.2 1.7-2.5C4.3 2 3.8.8 2.6.8z"/></g><g id="Group_489" transform="translate(10.62 .1)"><path id="Path_2794" class="st0" d="M.8.1v3.6c0 1.4.6 2 1.3 2 .8 0 1.4-.6 1.4-2V.1h.7v3.6c0 1.9-.9 2.7-2.1 2.7-1.1 0-2-.7-2-2.6V.1h.7z"/><path id="Path_2795" class="st0" d="M2.1 6.4C1.3 6.4 0 6 0 3.7V0h.9v3.7c0 1.2.4 1.9 1.2 1.9.8 0 1.3-.6 1.3-1.9V0h.9v3.7c0 2.3-1.4 2.7-2.2 2.7zM.2.1v3.5c0 1.7.7 2.5 1.9 2.5 1.3 0 2-.9 2-2.6V.2h-.6v3.6c0 1.8-.9 2-1.4 2-.9 0-1.4-.7-1.4-2V.2L.2.1z"/></g><g id="Group_490" transform="translate(16.176 .051)"><path id="Path_2796" class="st0" d="M.1.2C.5.1 1 .1 1.5.1 2 0 2.6.2 3.1.6c.6.7.5 1.8-.2 2.4-.1.1-.3.2-.4.3.4.3.7.7.8 1.3.1.6.2 1.1.4 1.7H3c-.2-.5-.3-1-.4-1.5-.2-.9-.5-1.2-1.1-1.2H.8v2.7H.1V.2zM.8 3h.7c.6.1 1.2-.4 1.3-1v-.2C2.8 1 2.3.7 1.5.7 1.3.7 1 .7.8.8V3z"/><path id="Path_2797" class="st0" d="M3.8 6.3h-.9c-.2-.5-.3-1-.4-1.5-.1-.8-.4-1.1-1-1.1H.9v2.7H0V.1h.1C.5 0 1 0 1.5 0c.6-.1 1.2.1 1.7.5.3.3.5.8.5 1.2 0 .7-.4 1.3-1 1.6.3.3.6.8.7 1.3.1.6.2 1.1.4 1.7zM3 6.2h.6c-.2-.5-.3-1.1-.4-1.6 0-.5-.3-.9-.8-1.2v-.1c.8-.4 1.2-1.3.9-2.2C3.2.9 3.1.8 3 .6 2.6.3 2 .1 1.5.1 1.1.1.6.1.2.2v5.9h.6V3.5h.8c.7 0 1 .4 1.2 1.3-.1.4.1.9.2 1.4zM1.5 3.1H.7V.7h.1c.2-.1.5-.1.7-.1.9 0 1.4.4 1.4 1.2 0 .7-.5 1.2-1.2 1.2-.1.1-.1.1-.2.1zm-.6-.2h.7c.5.1 1-.3 1.1-.9v-.1C2.7 1 2 .8 1.5.8c-.2 0-.4 0-.6.1v2z"/></g><g id="Group_491" transform="translate(22.46)"><path id="Path_2798" class="st0" d="M5.2 3.2c0 2.1-1.2 3.2-2.6 3.2C1.1 6.4.1 5.1.1 3.3.1 1.4 1.2.1 2.7.1s2.5 1.3 2.5 3.1zm-4.4.1c0 1.3.6 2.5 1.8 2.5s1.8-1.2 1.8-2.5C4.4 2.1 3.8.8 2.6.8S.8 1.9.8 3.3z"/><path id="Path_2799" class="st0" d="M2.6 6.5C1.1 6.5 0 5.2 0 3.3 0 1.4 1.1 0 2.7 0c1.5 0 2.6 1.3 2.6 3.2-.1 2.3-1.4 3.3-2.7 3.3zM2.7.1C1.2.1.2 1.4.2 3.2s1 3 2.4 3c1.5 0 2.5-1.3 2.5-3.2 0-1.6-1-2.9-2.4-2.9zm-.1 5.7C1.4 5.8.7 4.5.7 3.2S1.3.6 2.6.6c1.3 0 1.9 1.3 1.9 2.6 0 1.6-.8 2.6-1.9 2.6zm0-5C1.4.8.9 2 .9 3.3c0 1.2.6 2.4 1.7 2.4 1.2 0 1.7-1.2 1.7-2.5C4.3 2 3.8.8 2.6.8z"/></g><g id="Group_492" transform="translate(28.684 .051)"><path id="Path_2800" class="st0" d="M.1.2C.5.1 1 .1 1.5.1 2 0 2.6.2 3 .6c.3.3.5.8.5 1.3s-.1.9-.4 1.3c-.5.4-1.1.7-1.7.7-.2 0-.4 0-.6-.1v2.5H.1V.2zm.7 3h.6c.7.1 1.3-.4 1.4-1.1v-.2c0-.6-.4-1.2-1.1-1.2h-.2C1.3.7 1 .7.8.8v2.4z"/><path id="Path_2801" class="st0" d="M.9 6.3H0V.1h.1C.5 0 1 0 1.5 0c.6 0 1.2.1 1.6.5.3.4.5.8.5 1.3s-.1 1-.5 1.4c-.4.5-1.1.8-1.7.7H.9v2.4zm-.7-.1h.6V3.7h.1c.7.2 1.5 0 2.1-.6.3-.4.4-.8.4-1.3.1-.4-.1-.8-.4-1.2C2.6.3 2 .1 1.5.1 1.1.1.6.1.2.2v6zm1.2-2.9c-.2 0-.4 0-.6-.1H.7V.7h.1c.2 0 .5-.1.7-.1.7-.1 1.3.4 1.4 1v.2c0 .7-.5 1.4-1.2 1.4-.1.1-.2.1-.3.1zm-.5-.2c.2 0 .3.1.5 0 .6.1 1.2-.4 1.3-1v-.2c0-.7-.4-1.1-1.2-1.1H.9v2.3z"/></g><g id="Group_493" transform="translate(33.287 .1)"><path id="Path_2802" class="st0" d="M3 3.3H.8v2.2h2.4v.7H.1V.1h3v.7H.8v1.9H3v.6z"/><path id="Path_2803" class="st0" d="M3.3 6.3H0V0h3.2v.8H.9v1.8H3v.8H.9v2.1h2.4v.8zM.2 6.1h3v-.5H.7V3.3h2.2v-.5H.7V.7H3V.2H.2v5.9z"/></g><g id="Group_494" transform="translate(37.558 .051)"><path id="Path_2804" class="st0" d="M.1.2C.5.1 1 .1 1.5.1 2 0 2.6.2 3.1.6c.6.7.5 1.8-.2 2.4-.1.1-.3.2-.4.3.4.3.7.7.8 1.3.1.6.2 1.1.4 1.7H3c-.2-.5-.3-1-.4-1.5-.2-.9-.5-1.2-1.1-1.2H.8v2.7H.1V.2zM.8 3h.7c.6.1 1.2-.4 1.3-1v-.2C2.8 1 2.3.7 1.5.7 1.3.7 1 .7.8.8V3z"/><path id="Path_2805" class="st0" d="M3.8 6.3h-.9c-.2-.5-.3-1-.4-1.5-.1-.8-.4-1.1-1-1.1H.9v2.7H0V.1h.1C.5 0 1 0 1.5 0c.6-.1 1.2.1 1.7.5.3.3.5.8.5 1.2 0 .7-.4 1.3-1 1.6.3.3.6.8.7 1.3.1.6.2 1.1.4 1.7zM3 6.2h.6c-.2-.5-.3-1.1-.4-1.6 0-.5-.3-.9-.8-1.2v-.1c.6-.2 1-.8 1-1.5 0-.4-.1-.8-.4-1.1C2.6.3 2 .1 1.5.1 1.1.1.6.1.2.2v5.9h.6V3.5h.8c.7 0 1 .4 1.2 1.3-.1.4.1.9.2 1.4zM1.5 3.1H.7V.7h.1c.2-.1.5-.1.7-.1.9 0 1.4.4 1.4 1.2 0 .7-.5 1.2-1.2 1.2-.1.1-.1.1-.2.1zm-.6-.2h.7c.5.1 1-.3 1.1-.9v-.1C2.7 1 2 .8 1.5.8c-.2 0-.4 0-.6.1v2z"/></g><g id="Group_495" transform="translate(41.806 .1)"><path id="Path_2806" class="st0" d="M1.4 4.3.9 6.2H.1L2 .1h.9l1.9 6.1H4l-.6-1.9h-2zm1.9-.6-.6-1.8c-.1-.4-.2-.8-.3-1.1-.1.3-.2.7-.3 1.1l-.5 1.8h1.7z"/><path id="Path_2807" class="st0" d="M4.9 6.3h-1l-.6-1.9H1.5L.9 6.3H0L1.9 0h1v.1l2 6.2zm-.8-.2h.6L2.8.1h-.7l-1.8 6h.6l.6-1.9h2.1l.5 1.9zm-.7-2.4H1.5L2 1.9c.1-.4.2-.8.3-1.1V.7h.1v.2c.1.3.2.7.3 1l.7 1.8zm-1.7-.1h1.5l-.6-1.7c-.1-.3-.1-.6-.2-.8-.1.2-.1.5-.2.8l-.5 1.7z"/></g><g id="Group_496" transform="translate(46.244 .1)"><path id="Path_2808" class="st0" d="M1.8.7H.1V.1h4.1v.7H2.5v5.5h-.7V.7z"/><path id="Path_2809" class="st0" d="M2.6 6.3h-.9V.8H0V0h4.3v.8H2.6v5.5zm-.7-.2h.6V.7h1.7V.1h-4v.5h1.7v5.5z"/></g><g id="Group_497" transform="translate(50.642)"><path id="Path_2810" class="st0" d="M5.2 3.2c0 2.1-1.2 3.2-2.6 3.2C1.1 6.4.1 5.1.1 3.3.1 1.4 1.2.1 2.7.1s2.5 1.3 2.5 3.1zm-4.4.1c0 1.3.6 2.5 1.8 2.5s1.8-1.2 1.8-2.5C4.4 2.1 3.8.8 2.6.8S.8 1.9.8 3.3z"/><path id="Path_2811" class="st0" d="M2.6 6.5C1.1 6.5 0 5.2 0 3.3 0 1.4 1.1 0 2.7 0c1.5 0 2.6 1.3 2.6 3.2-.1 2.3-1.4 3.3-2.7 3.3zM2.7.1C1.2.1.2 1.4.2 3.2s1 3 2.4 3c1.5 0 2.5-1.3 2.5-3.2 0-1.6-1-2.9-2.4-2.9zm-.1 5.7C1.4 5.8.7 4.5.7 3.2S1.3.6 2.6.6c1.3 0 1.9 1.3 1.9 2.6 0 1.6-.8 2.6-1.9 2.6zm0-5C1.4.8.9 2 .9 3.3c0 1.2.6 2.4 1.7 2.4 1.2 0 1.7-1.2 1.7-2.5C4.3 2 3.8.8 2.6.8z"/></g><g id="Group_498" transform="translate(56.867 .051)"><path id="Path_2812" class="st0" d="M.1.2C.5.1 1 .1 1.5.1 2 0 2.6.2 3.1.6c.6.7.5 1.8-.2 2.4-.1.1-.3.2-.4.3.4.3.7.7.8 1.3.1.6.2 1.1.4 1.7H3c-.2-.5-.3-1-.4-1.5-.2-.9-.5-1.2-1.1-1.2H.8v2.7H.1V.2zM.8 3h.7c.6.1 1.2-.4 1.3-1v-.2C2.8 1 2.3.7 1.5.7 1.3.7 1 .7.8.8V3z"/><path id="Path_2813" class="st0" d="M3.8 6.3h-.9c-.2-.5-.3-1-.4-1.5-.1-.8-.4-1.1-1-1.1H.9v2.7H0V.1h.1C.5 0 1 0 1.5 0c.6-.1 1.2.1 1.7.5.3.3.5.8.5 1.2 0 .7-.4 1.3-1 1.6.3.3.6.8.7 1.3.1.6.2 1.1.4 1.7zM3 6.2h.6c-.2-.5-.3-1.1-.4-1.6 0-.5-.3-.9-.8-1.2v-.1c.6-.2 1-.8 1-1.5 0-.4-.1-.8-.4-1.1C2.6.3 2 .1 1.5.1 1.1.1.6.1.2.2v5.9h.6V3.5h.8c.7 0 1 .4 1.2 1.3-.1.4.1.9.2 1.4zM1.5 3.1H.7V.7h.1c.2-.1.5-.1.7-.1.9 0 1.4.4 1.4 1.2 0 .7-.5 1.2-1.2 1.2-.1.1-.1.1-.2.1zm-.6-.2h.7c.5.1 1-.3 1.1-.9v-.1C2.7 1 2 .8 1.5.8c-.2 0-.4 0-.6.1v2z"/></g><g id="Group_499" transform="translate(61.225 .004)"><path id="Path_2814" class="st0" d="M.3 5.3c.4.3.8.4 1.3.4.6.1 1.1-.3 1.2-.9v-.1c0-.6-.3-.9-1.1-1.2C.8 3.1.2 2.6.2 1.7S.9 0 1.9 0H2c.4 0 .9.1 1.2.3L3 1C2.7.8 2.4.7 2 .7c-.5 0-1 .3-1.1.8v.1c0 .6.3.9 1.1 1.2 1 .4 1.5.9 1.5 1.8 0 1-.7 1.8-1.7 1.8h-.2C1 6.4.5 6.3.1 6l.2-.7z"/><path id="Path_2815" class="st0" d="M1.5 6.5c-.5 0-1-.2-1.5-.4l.2-.8.1.1c.4.2.8.4 1.2.4.5.1 1-.3 1.1-.8v-.1c0-.5-.3-.8-1-1.1C.6 3.4.1 2.8.1 2 .1 1 .9.3 1.8.3 1.9 0 2 0 2 0c.4 0 .9.1 1.3.3l-.2.8H3C2.7.9 2.3.8 2 .8c-.5-.1-.9.3-1 .7v.1c0 .5.3.8 1.1 1.1 1 .5 1.5 1 1.5 1.9 0 1-.8 1.8-1.8 1.9h-.3zM.2 6c.4.2.8.3 1.3.3.9.1 1.8-.5 1.9-1.5v-.2c0-.8-.4-1.3-1.4-1.7C1.3 2.6.9 2.3.9 1.6c0-.6.5-1 1-1H2c.4 0 .7.1 1 .3l.2-.5C2.8.2 2.4.1 2 .1 1.1.1.4.7.3 1.6v.1c0 .8.5 1.3 1.4 1.7.8.3 1.1.7 1.1 1.3 0 .6-.5 1.1-1.1 1.1h-.1c-.4 0-.9-.1-1.2-.4L.2 6z"/></g><g id="Group_500" transform="translate(.19 9.811)"><path id="Path_2816" class="st0" d="M1.4 4.3.8 6.2H.1L2 .1h.9l1.9 6.1H4l-.6-1.9h-2zm1.9-.6-.6-1.8c-.1-.4-.2-.8-.3-1.1-.1.3-.2.7-.3 1.1l-.5 1.8h1.7z"/><path id="Path_2817" class="st0" d="M4.9 6.3h-1l-.6-1.9H1.5L.9 6.3H0L1.9 0h1v.1l2 6.2zm-.8-.2h.6L2.8.1h-.7l-1.8 6h.6l.6-1.9h2.1l.5 1.9zm-.7-2.4H1.5L2 1.9c.1-.4.2-.8.3-1.1V.7h.1v.2c.1.3.2.6.3 1l.7 1.8zm-1.7-.1h1.5l-.6-1.7c-.1-.3-.1-.6-.2-.8-.1.2-.1.5-.2.8l-.5 1.7z"/></g><g id="Group_501" transform="translate(5.81 9.716)"><path id="Path_2818" class="st0" d="M.3 5.3c.4.3.8.4 1.3.4.6.1 1.1-.3 1.2-.9v-.2c0-.6-.3-.9-1.1-1.2C.8 3.1.2 2.6.2 1.7.2.8.9 0 1.9 0H2c.4 0 .9.1 1.2.3L3 1C2.7.8 2.4.7 2 .7c-.5 0-1 .3-1.1.8v.1c0 .6.3.9 1.1 1.2 1 .4 1.5.9 1.5 1.8 0 1-.7 1.8-1.7 1.8h-.2C1 6.4.5 6.3.1 6l.2-.7z"/><path id="Path_2819" class="st0" d="M1.5 6.5c-.5 0-1-.2-1.5-.4l.2-.8.1.1c.4.2.8.4 1.2.4.5.1 1-.3 1.1-.8v-.1c0-.5-.3-.8-1-1.1C.6 3.4.1 2.8.1 2 .1 1 .9.3 1.8.3 1.9 0 2 0 2 0c.4 0 .9.1 1.3.3l-.2.8H3C2.7.9 2.3.8 2 .8c-.5-.1-.9.3-1 .7v.1c0 .5.3.8 1.1 1.1 1 .5 1.5 1 1.5 1.9 0 1-.8 1.8-1.8 1.9h-.3zM.2 6c.4.2.8.3 1.3.3.9.1 1.8-.5 1.9-1.5v-.2c0-.8-.4-1.3-1.4-1.7C1.3 2.6.9 2.3.9 1.6c0-.6.5-1 1-1H2c.4 0 .7.1 1 .3l.2-.5C2.8.2 2.4.1 2 .1 1.1.1.4.7.3 1.6v.1c0 .8.5 1.3 1.4 1.7.8.3 1.1.7 1.1 1.3 0 .6-.5 1.1-1.1 1.1h-.1c-.4 0-.9-.1-1.2-.4L.2 6z"/></g><g id="Group_502" transform="translate(10.297 9.716)"><path id="Path_2820" class="st0" d="M.3 5.3c.4.3.8.4 1.3.4.6.1 1.1-.3 1.2-.9v-.2c0-.6-.3-.9-1.1-1.2C.8 3.1.2 2.6.2 1.7.2.8.9 0 1.9 0H2c.4 0 .9.1 1.2.3L3 1C2.7.8 2.4.7 2 .7c-.5 0-1 .3-1.1.8v.1c0 .6.3.9 1.1 1.2 1 .4 1.5.9 1.5 1.8 0 1-.7 1.8-1.7 1.8h-.2C1 6.4.5 6.3.1 6l.2-.7z"/><path id="Path_2821" class="st0" d="M1.5 6.5c-.5 0-1-.2-1.5-.4l.2-.8.1.1c.4.2.8.4 1.2.4.5.1 1-.3 1.1-.8v-.1c0-.5-.3-.8-1-1.1C.6 3.4.1 2.8.1 2 .1 1 .9.3 1.8.3 1.9 0 2 0 2 0c.4 0 .9.1 1.3.3l-.2.8H3C2.7.9 2.3.8 2 .8c-.5-.1-.9.3-1 .7v.1c0 .5.3.8 1.1 1.1 1 .5 1.5 1 1.5 1.9 0 1-.8 1.8-1.8 1.9h-.3zM.2 6c.4.2.8.3 1.3.3.9.1 1.8-.5 1.9-1.5v-.2c0-.8-.4-1.3-1.4-1.7C1.3 2.6.9 2.3.9 1.6c0-.6.5-1 1-1H2c.4 0 .7.1 1 .3l.2-.5C2.8.2 2.4.1 2 .1 1.1.1.4.7.3 1.6v.1c0 .8.5 1.3 1.4 1.7.8.3 1.1.7 1.1 1.3 0 .6-.5 1.1-1.1 1.1h-.1c-.4 0-.9-.1-1.2-.4L.2 6z"/></g><g id="Group_503" transform="translate(14.751 9.711)"><path id="Path_2822" class="st0" d="M5.2 3.2c0 2.1-1.2 3.2-2.6 3.2C1.1 6.4.1 5.1.1 3.3.1 1.4 1.2.1 2.7.1s2.5 1.3 2.5 3.1zm-4.4.1c0 1.3.6 2.5 1.8 2.5s1.8-1.2 1.8-2.6C4.4 2 3.8.7 2.6.7S.8 1.9.8 3.3z"/><path id="Path_2823" class="st0" d="M2.6 6.5C1.1 6.5 0 5.2 0 3.3 0 1.4 1.1 0 2.7 0c1.5 0 2.6 1.3 2.6 3.2-.1 2.3-1.4 3.3-2.7 3.3zM2.7.1C1.2.1.2 1.4.2 3.2s1 3 2.4 3C4.1 6.2 5.1 5 5.1 3c0-1.6-1-2.9-2.4-2.9zm-.1 5.7C1.4 5.8.7 4.5.7 3.2S1.3.6 2.6.6c1.3 0 1.9 1.3 1.9 2.6 0 1.6-.8 2.6-1.9 2.6zm0-5C1.4.8.9 2 .9 3.3c0 1.2.6 2.4 1.7 2.4 1.2 0 1.7-1.2 1.7-2.5C4.3 2 3.8.8 2.6.8z"/></g><g id="Group_504" transform="translate(20.858 9.716)"><path id="Path_2824" class="st0" d="M4.3 6.1c-.5.2-1 .3-1.5.3C1.2 6.4.1 5.3.1 3.3c-.2-1.6 1-3 2.6-3.2H3c.5 0 .9.1 1.3.3l-.2.6C3.8.8 3.4.7 3 .7 1.7.7.8 1.6.8 3.2c0 1.5.8 2.5 2.1 2.5.4 0 .8-.1 1.2-.3l.2.7z"/><path id="Path_2825" class="st0" d="M2.8 6.5C1.1 6.5 0 5.2 0 3.3-.2 1.7 1 .2 2.7 0H3c.5 0 .9.1 1.4.3h.1l-.3.8-.1-.1C3.8.9 3.4.8 3 .8 1.7.8.9 1.7.9 3.3c0 1.5.8 2.4 2.1 2.4.4 0 .8-.1 1.1-.2h.1l.2.8c-.5.1-1.1.2-1.6.2zM3 .1C1.4.1.1 1.4.1 3v.3c0 1.8 1 3 2.7 3 .5 0 .9-.1 1.4-.3l-.1-.4c-.4.1-.7.2-1.1.2-1.4 0-2.2-1-2.2-2.5C.8 1.7 1.7.7 3.1.7c.4 0 .7.1 1.1.2l.1-.5C3.8.2 3.4.1 3 .1z"/></g><g id="Group_505" transform="translate(26.387 9.811)"><path id="Path_2826" class="st0" d="M.8.1v6.1H.1V.1h.7z"/><path id="Path_2827" class="st0" d="M.9 6.3H0V0h.9v6.3zm-.7-.2h.6v-6H.2v6z"/></g><g id="Group_506" transform="translate(28.331 9.811)"><path id="Path_2828" class="st0" d="M1.4 4.3.8 6.2H.1L2 .1h.9l1.9 6.1H4l-.6-1.9h-2zm1.9-.6-.6-1.8c-.1-.4-.2-.8-.3-1.1-.1.3-.2.7-.3 1.1l-.5 1.8h1.7z"/><path id="Path_2829" class="st0" d="M4.9 6.3h-1l-.6-1.9H1.5L.9 6.3H0L1.9 0h1v.1l2 6.2zm-.8-.2h.6L2.8.1h-.7l-1.8 6h.6l.6-1.9h2.1l.5 1.9zm-.7-2.4H1.5L2 1.9c.1-.4.2-.8.3-1.1V.7h.1v.2c.1.3.2.6.3 1l.7 1.8zm-1.7-.1h1.5l-.6-1.7c-.1-.3-.1-.6-.2-.8-.1.2-.1.5-.2.8l-.5 1.7z"/></g><g id="Group_507" transform="translate(32.974 9.811)"><path id="Path_2830" class="st0" d="M1.8.7H.1V.1h4.1v.7H2.5v5.5h-.7V.7z"/><path id="Path_2831" class="st0" d="M2.6 6.3h-.9V.8H0V0h4.3v.8H2.6v5.5zm-.7-.2h.6V.7h1.7V.1h-4v.5h1.7v5.5z"/></g><g id="Group_508" transform="translate(38.128 9.811)"><path id="Path_2832" class="st0" d="M.8.1v6.1H.1V.1h.7z"/><path id="Path_2833" class="st0" d="M.9 6.3H0V0h.9v6.3zm-.7-.2h.6v-6H.2v6z"/></g><g id="Group_509" transform="translate(40.191 9.711)"><path id="Path_2834" class="st0" d="M5.2 3.2c0 2.1-1.2 3.2-2.6 3.2C1.1 6.4.1 5.1.1 3.3.1 1.4 1.2.1 2.7.1s2.5 1.3 2.5 3.1zm-4.4.1c0 1.3.6 2.5 1.8 2.5s1.8-1.2 1.8-2.6C4.4 2 3.8.7 2.6.7S.8 1.9.8 3.3z"/><path id="Path_2835" class="st0" d="M2.6 6.5C1.1 6.5 0 5.2 0 3.3 0 1.4 1.1 0 2.7 0c1.5 0 2.6 1.3 2.6 3.2-.1 2.3-1.4 3.3-2.7 3.3zM2.7.1C1.2.1.2 1.4.2 3.2s1 3 2.4 3C4.1 6.2 5.1 5 5.1 3c0-1.6-1-2.9-2.4-2.9zm-.1 5.7C1.4 5.8.7 4.5.7 3.2S1.3.6 2.6.6c1.3 0 1.9 1.3 1.9 2.6 0 1.6-.8 2.6-1.9 2.6zm0-5C1.4.8.9 2 .9 3.3c0 1.2.6 2.4 1.7 2.4 1.2 0 1.7-1.2 1.7-2.5C4.3 2 3.8.8 2.6.8z"/></g><g id="Group_510" transform="translate(46.622 9.811)"><path id="Path_2836" class="st0" d="M.1 6.2V.1h.8l1.8 3.1c.4.6.7 1.3 1 2-.1-.9-.1-1.6-.1-2.6V.1h.7v6.1h-.8L1.8 3.1C1.4 2.4 1 1.7.7 1c0 .8.1 1.5.1 2.5v2.6l-.7.1z"/><path id="Path_2837" class="st0" d="M4.3 6.3h-.8L1.7 3.1c-.3-.5-.6-1.1-.9-1.7v4.9H0V0h.9l1.8 3.1c.3.6.6 1.1.8 1.6 0-.7-.1-1.3-.1-2.1V0h.8l.1 6.3zm-.7-.2h.6v-6h-.5v2.5c0 .9 0 1.7.1 2.5v.1l-.2.1v-.1c-.3-.7-.6-1.3-1-2L.8.2H.2v6h.5V3.6c0-1 0-1.7-.1-2.5V1h.2v.1c.3.7.7 1.4 1 2l1.8 3z"/></g><g id="Group_511" transform="translate(54.311 9.711)"><path id="Path_2838" class="st0" d="M5.2 3.2c0 2.1-1.2 3.2-2.6 3.2C1.1 6.4.1 5.1.1 3.3.1 1.4 1.2.1 2.7.1s2.5 1.3 2.5 3.1zm-4.4.1c0 1.3.6 2.5 1.8 2.5s1.8-1.2 1.8-2.6C4.4 2 3.8.7 2.6.7S.8 1.9.8 3.3z"/><path id="Path_2839" class="st0" d="M2.6 6.5C1.1 6.5 0 5.2 0 3.3 0 1.4 1.1 0 2.7 0c1.5 0 2.6 1.3 2.6 3.2-.1 2.3-1.4 3.3-2.7 3.3zM2.7.1C1.2.1.2 1.4.2 3.2s1 3 2.4 3C4.1 6.2 5.1 5 5.1 3c0-1.6-1-2.9-2.4-2.9zm-.1 5.7C1.4 5.8.7 4.5.7 3.2S1.3.6 2.6.6c1.3 0 1.9 1.3 1.9 2.6 0 1.6-.8 2.6-1.9 2.6zm0-5C1.4.8.9 2 .9 3.3c0 1.2.6 2.4 1.7 2.4 1.2 0 1.7-1.2 1.7-2.5C4.3 2 3.8.8 2.6.8z"/></g><g id="Group_512" transform="translate(60.742 9.811)"><path id="Path_2840" class="st0" d="M.1.1h3v.7H.8v2h2.1v.7H.8v2.8H.1V.1z"/><path id="Path_2841" class="st0" d="M.9 6.3H0V0h3.2v.8H.9v1.9H3v.8H.9v2.8zm-.7-.2h.6V3.4h2.1v-.5H.7V.7H3V.1H.2v6z"/></g><g id="Group_513" transform="translate(.634 19.476)"><path id="Path_2842" class="st0" d="M.1.2C.5.1 1 .1 1.4.1c.5-.1 1.1.1 1.5.4.3.3.5.7.5 1.1 0 .6-.4 1.1-.9 1.3.7.2 1.2.8 1.2 1.5 0 .5-.2.9-.5 1.2-.6.6-1.3.8-2 .7-.4 0-.7 0-1.1-.1v-6zm.7 2.5h.7c.5.1 1.1-.3 1.1-.9v-.1c0-.7-.5-1-1.2-1-.2 0-.4 0-.6.1v1.9zm0 3h.6c.7 0 1.4-.3 1.4-1.2 0-.8-.7-1.2-1.4-1.2H.8v2.4z"/><path id="Path_2843" class="st0" d="M1.2 6.4c-.4 0-.8 0-1.1-.1H0V.1h.1C.5 0 .9 0 1.4 0 2-.1 2.5.1 3 .5c.3.3.5.7.5 1.1 0 .6-.3 1.1-.8 1.3.6.2 1.1.9 1 1.6 0 .5-.2.9-.5 1.3-.6.4-1.3.7-2 .6zm-1-.2c.3 0 .7.1 1 .1.7.1 1.3-.1 1.9-.6.3-.3.5-.7.5-1.2 0-.7-.4-1.3-1.1-1.5h-.1v-.1c.6-.2.9-.7.9-1.3 0-.4-.1-.8-.4-1-.4-.3-1-.5-1.5-.4C1 .2.6.2.2.3v5.9zm1.2-.4H.7V3.2h.7c1 0 1.5.5 1.5 1.3s-.5 1.3-1.5 1.3zm-.5-.2h.5c.5 0 1.4-.1 1.4-1.1s-1-1.1-1.4-1.1H.9v2.2zm.6-2.8H.7V.7h.1c.2 0 .4-.1.7-.1.8 0 1.3.4 1.3 1.1 0 .6-.5 1.1-1.2 1.1h-.1zm-.6-.2h.6c.7 0 1.1-.4 1.1-1S2.2.7 1.5.7H.9v1.9z"/></g><g id="Group_514" transform="translate(6.477 19.523)"><path id="Path_2844" class="st0" d="M1.4 4.3.8 6.2H.1L2 .1h.9l1.9 6.1H4l-.6-1.9h-2zm1.9-.6-.6-1.8c-.1-.4-.2-.8-.3-1.1-.1.3-.2.7-.3 1.1l-.5 1.8h1.7z"/><path id="Path_2845" class="st0" d="M4.9 6.3h-1l-.6-1.9H1.5L.9 6.3H0L1.9 0h1v.1l2 6.2zm-.8-.2h.6L2.8.1h-.7l-1.8 6h.6l.6-1.9h2.1l.5 1.9zm-.7-2.4H1.5L2 1.9c.1-.4.2-.8.3-1.1V.7h.1v.2c.1.3.2.7.3 1l.7 1.8zm-1.7-.1h1.5l-.6-1.7c-.1-.3-.1-.6-.2-.8-.1.2-.1.5-.2.8l-.5 1.7z"/></g><g id="Group_515" transform="translate(13.795 19.523)"><path id="Path_2846" class="st0" d="M.1 6.2V.1h.8l1.8 3.1c.4.6.7 1.3 1 2-.1-.9-.1-1.6-.1-2.6V.1h.7v6.1h-.8L1.8 3.1C1.4 2.4 1 1.7.7 1c0 .8.1 1.5.1 2.5v2.6l-.7.1z"/><path id="Path_2847" class="st0" d="M4.3 6.3h-.8L1.7 3.1c-.3-.5-.6-1.1-.9-1.7v4.9H0V0h.9l1.8 3.1c.3.6.6 1.1.8 1.6 0-.7-.1-1.3-.1-2.1V0h.8l.1 6.3zm-.7-.2h.6v-6h-.5v2.5c0 .9 0 1.7.1 2.5v.1l-.2.1v-.1c-.3-.7-.6-1.3-1-2L.8.2H.1v6h.5V3.6c0-1 0-1.7-.1-2.5V1L.6.9V1c.3.7.7 1.4 1 2l2 3.1z"/></g><g id="Group_516" transform="translate(20.725 19.461)"><path id="Path_2848" class="st0" d="M4.6 6c-.5.2-1.1.3-1.7.3-.8 0-1.5-.3-2.1-.8C.3 4.9 0 4.1.1 3.2 0 1.6 1.2.2 2.8 0h.3c.5 0 1 .1 1.4.3l-.2.7C3.9.8 3.5.7 3.1.7 1.9.7.9 1.6.8 2.8v.3c0 1.6.8 2.5 2.2 2.5.3 0 .7 0 1-.2V3.7H2.8v-.6h1.8V6z"/><path id="Path_2849" class="st0" d="M2.9 6.4c-.8 0-1.6-.3-2.1-.8C.2 4.9 0 4.1 0 3.2-.1 1.6 1.1.1 2.8 0h.3c.5 0 1 .1 1.4.3h.1l-.2.8h-.1C3.9.9 3.5.8 3.1.8 1.9.8 1 1.7.9 2.9v.3c0 1.5.8 2.4 2.1 2.4.3 0 .6 0 .9-.1V3.8H2.7V3h2v3c-.6.3-1.2.4-1.8.4zM3.1.1C1.5.1.2 1.3.2 2.9v.3c0 .8.2 1.6.8 2.2.5.5 1.3.8 2 .8.6 0 1.1-.1 1.6-.3V3.1H2.9v.5H4v2c-.3.1-.7.2-1 .2-1.4 0-2.2-1-2.2-2.6C.6 2 1.5.8 2.8.7h.3c.4 0 .8.1 1.2.2l.1-.5C4 .2 3.5.1 3.1.1z"/></g><g id="Group_517" transform="translate(28.206 19.523)"><path id="Path_2850" class="st0" d="M.1.1h.7v5.5h2.4v.7H.1V.1z"/><path id="Path_2851" class="st0" d="M3.3 6.3H0V0h.9v5.5h2.4v.8zM.2 6.1h3v-.5H.7V.1H.2v6z"/></g><g id="Group_518" transform="translate(33.495 19.523)"><path id="Path_2852" class="st0" d="M1.4 4.3.8 6.2H.1L2 .1h.9l1.9 6.1H4l-.6-1.9h-2zm1.9-.6-.6-1.8c-.1-.4-.2-.8-.3-1.1-.1.3-.2.7-.3 1.1l-.5 1.8h1.7z"/><path id="Path_2853" class="st0" d="M4.9 6.3h-1l-.6-1.9H1.5L.9 6.3H0L1.9 0h1v.1l2 6.2zm-.8-.2h.6L2.8.1h-.7l-1.8 6h.6l.6-1.9h2.1l.5 1.9zm-.7-2.4H1.5L2 1.9c.1-.4.2-.8.3-1.1V.7h.1v.2c.1.3.2.6.3 1l.7 1.8zm-1.7-.1h1.5l-.6-1.7c-.1-.3-.1-.6-.2-.8 0 .2-.1.5-.2.8l-.5 1.7z"/></g><g id="Group_519" transform="translate(40.813 19.476)"><path id="Path_2854" class="st0" d="M.1.2C.6.1 1.1.1 1.6.1c.8-.1 1.7.2 2.3.7.5.6.8 1.4.8 2.2 0 .9-.2 1.7-.8 2.4-.7.7-1.6 1-2.5.9-.4 0-.9 0-1.3-.1v-6zm.7 5.4h.7C3 5.6 3.9 4.7 3.9 3 4.1 1.9 3.3.8 2.1.6h-.5C1.3.6 1 .6.8.7v4.9z"/><path id="Path_2855" class="st0" d="M1.4 6.4c-.4 0-.9 0-1.3-.1H0V.1h.1C.6 0 1.1 0 1.6 0c.8-.1 1.7.2 2.3.8.6.6.9 1.4.8 2.2 0 .9-.3 1.8-.8 2.4-.7.7-1.6 1.1-2.5 1zM.2 6.2c.4 0 .8.1 1.2.1.9 0 1.7-.3 2.4-.9.5-.7.8-1.5.8-2.4 0-.8-.2-1.6-.8-2.1C3.2.4 2.4.1 1.6.1 1.1.1.6.1.1.2l.1 6zm1.3-.5H.7v-5h.1c.3-.1.6-.1.9-.1.6 0 1.2.2 1.7.6.4.5.6 1.2.6 1.9.1.7-.2 1.5-.7 2-.5.5-1.1.7-1.8.6zm-.6-.1h.7c.6 0 1.2-.2 1.6-.6.5-.5.7-1.2.7-1.9 0-.6-.2-1.3-.6-1.7-.4-.4-1-.6-1.6-.6-.3 0-.5 0-.8.1v4.7z"/></g><g id="Group_520" transform="translate(48.134 19.523)"><path id="Path_2856" class="st0" d="M3 3.3H.8v2.2h2.4v.7H.1V.1h3v.7H.8v1.9H3v.6z"/><path id="Path_2857" class="st0" d="M3.3 6.3H0V0h3.2v.8H.9v1.8H3v.8H.9v2.1h2.4v.8zM.2 6.1h3v-.5H.7V3.3h2.2v-.5H.7V.7H3V.1H.2v6z"/></g><g id="Group_521" transform="translate(53.722 19.427)"><path id="Path_2858" class="st0" d="M.3 5.3c.4.3.8.4 1.3.4.6.1 1.1-.3 1.2-.9v-.2c0-.6-.3-.9-1.1-1.2C.8 3.1.2 2.6.2 1.7.2.8.9 0 1.9 0H2c.4 0 .9.1 1.2.3L3 1C2.7.8 2.4.7 2 .7c-.5 0-1 .3-1.1.8v.1c0 .6.3.9 1.1 1.2 1 .4 1.5.9 1.5 1.8 0 1-.7 1.8-1.7 1.8h-.2C1 6.4.5 6.3.1 6l.2-.7z"/><path id="Path_2859" class="st0" d="M1.5 6.5c-.5 0-1-.2-1.5-.4l.2-.8.1.1c.4.2.8.4 1.2.4.5.1 1-.3 1.1-.8v-.1c0-.5-.3-.8-1-1.1C.6 3.4.1 2.8.1 2 .1 1 .9.3 1.8.3 1.9 0 2 0 2 0c.4 0 .9.1 1.3.3l-.2.8H3C2.7.9 2.3.8 2 .8c-.5-.1-.9.3-1 .7v.1c0 .5.3.8 1.1 1.1 1 .5 1.5 1 1.5 1.9 0 1-.8 1.8-1.8 1.9h-.3zM.2 6c.4.2.8.3 1.3.3.9.1 1.8-.5 1.9-1.5v-.2c0-.8-.4-1.3-1.4-1.7C1.3 2.6.9 2.3.9 1.6c0-.6.5-1 1-1H2c.4 0 .7.1 1 .3l.2-.5C2.8.2 2.4.1 2 .1 1.1.1.4.7.3 1.6v.1c0 .8.5 1.3 1.4 1.7.8.3 1.1.7 1.1 1.3 0 .6-.5 1.1-1.1 1.1h-.1c-.4 0-.9-.1-1.2-.4L.2 6z"/></g><g id="Group_522" transform="translate(59.908 19.523)"><path id="Path_2860" class="st0" d="M.8.1v2.6h2.7V.1h.7v6.1h-.7V3.3H.8v2.9H.1V.1h.7z"/><path id="Path_2861" class="st0" d="M4.3 6.3h-.9V3.4H.9v2.9H0V0h.9v2.6h2.5V0h.9v6.3zm-.7-.2h.6v-6h-.6v2.6H.7V.1H.1v6h.6V3.3h2.8l.1 2.8z"/></g></g><path id="Path_2862" class="st1" d="M11.4 15.6h-.5v2h.1c.1-.6.2-1.3.4-2"/><path id="Path_2863" class="st1" d="M10.9 22.2v.5h.1c-.1-.3-.1-.5-.1-.5"/><path id="Path_2864" class="st1" d="M10.9 19.4v-.7.7"/><path id="Path_2865" class="st1" d="M16.1 12.3h-3.2c-.5.8-.9 1.6-1.2 2.5h3.1c.3-1 .8-1.8 1.3-2.5"/><path id="Rectangle_29" class="st1" d="M4.4 30.9h6.5v.8H4.4z"/><path id="Rectangle_30" class="st1" d="M4.4 29.4h6.5v.9H4.4z"/><path id="Rectangle_31" class="st1" d="M4.4 27.6h6.5v1H4.4z"/><path id="Path_2866" class="st1" d="M10.9 22.2s0 .2.1.5h4.8l-.1-.1c-.2-.5-.4-.9-.6-1.4H4.4v1.5h6.5v-.5"/><path id="Path_2867" class="st1" d="M14.5 15.6h-3.2c-.2.6-.3 1.3-.4 2h3.3c.1-.6.2-1.3.3-2"/><path id="Rectangle_32" class="st1" d="M4.4 25.9h6.5v.9H4.4z"/><path id="Path_2868" class="st1" d="M14.8 29.4c.4.4 1 .7 1.5.9h6.5c.5-.2.9-.5 1.3-.9h-9.3"/><path id="Rectangle_33" class="st1" d="M4.4 23.7h6.5v1.2H4.4z"/><path id="Path_2869" class="st1" d="M16.3 23.7h-5c.1.4.3.8.4 1.2h5.4c-.3-.4-.5-.8-.8-1.2"/><path id="Path_2870" class="st1" d="M27.3 24.9c.2-.4.3-.8.4-1.2h-7.9c-.1.4-.1.8-.1 1.2h7.6"/><path id="Rectangle_34" class="st1" d="M0 0h19.9v3.6H0z"/><path id="Path_2871" class="st1" d="M25.8 27.6H13.2c.2.3.5.7.7 1H25c.3-.4.6-.7.8-1"/><path id="Path_2872" class="st1" d="M28.6 19.4v-.8h-7c-.4.5-.6 1-.9 1.6h7.8c0-.3.1-.5.1-.8"/><path id="Path_2873" class="st1" d="M28.1 15.6h-4.9l.7.9c-.5.3-1.1.6-1.5 1.1h6.1c-.1-.6-.2-1.3-.4-2"/><path id="Path_2874" class="st1" d="M28.3 21.2h-8c-.2.5-.3 1-.4 1.5h8c.2-.5.4-1 .4-1.5"/><path id="Path_2875" class="st1" d="M17 11.3c.6-.6 1.2-1.1 1.9-1.6l1.2 1.6h5.8a9.1 9.1 0 0 0-4.6-2.7h-3.4c-1.6.5-3.1 1.4-4.2 2.6H17"/><path id="Rectangle_35" class="st1" d="M4.4 8.6h6.5v2.6H4.4z"/><path id="Path_2876" class="st1" d="M19.7 25.9v.9h6.6c.2-.3.4-.6.5-.9h-7.1"/><path id="Path_2877" class="st1" d="M14.4 18.6h-3.5v.7-.7H4.4v1.6h10.3c-.1-.5-.2-1.1-.3-1.6"/><path id="Path_2878" class="st1" d="M19.9 4.7H0v2.9h19.9V4.7"/><path id="Rectangle_36" class="st1" d="M4.4 12.3h6.5v2.5H4.4z"/><path id="Path_2879" class="st1" d="M27.8 14.7c-.3-.9-.7-1.7-1.2-2.5h-5.8l1.8 2.5h5.2"/><path id="Rectangle_37" class="st1" d="M4.4 15.6h6.5v2H4.4z"/><path id="Path_2880" class="st1" d="M17.9 25.9h-5.7c.1.3.3.6.5.9h6.2c-.4-.3-.7-.6-1-.9"/><path id="Path_2881" class="st1" d="M59.5 30.3h5.4c.3-.3.7-.6.9-.9h-6.3v.9"/><path id="Path_2882" class="st1" d="M29.9 24.9h9.2V24c-.9.4-2 .3-2.8-.3h-6.8c.1.4.2.8.4 1.2"/><path id="Path_2883" class="st1" d="M50.4 14.7H56v-2.5h-5.6v2.5"/><path id="Path_2884" class="st1" d="M50.4 11.3H56v-.5c-.1-.7 0-1.4.1-2.1h-5.6v.2l-.1 2.4"/><path id="Path_2885" class="st1" d="M41.3 22.7h5.6v-1.5h-5.6v1.5"/><path id="Path_2886" class="st1" d="M37.4 8.7c-2 .3-3.8 1.2-5.2 2.6H44a8.81 8.81 0 0 0-6.6-2.6"/><path id="Path_2887" class="st1" d="M29.3 17.6h6c.4-.7 1-1.2 1.7-1.5 2.7-1 3.7.4 4.1 1.5h5.7c-.1-.7-.2-1.3-.4-2H29.7c-.2.7-.3 1.4-.4 2"/><path id="Path_2888" class="st1" d="M41.2 18.7v1.5h5.6v-1.6l-5.6.1"/><path id="Path_2889" class="st1" d="M50.4 17.6H56v-2h-5.6v2"/><path id="Path_2890" class="st1" d="M41.3 28.5h14.6c.1-.3.1-.6.1-1H41.2c0 .4.1.8.1 1"/><path id="Path_2891" class="st1" d="M50.4 24.9H56v-1.2h-5.6v1.2"/><path id="Path_2892" class="st1" d="M41.3 26.8H56v-.9H41.3v.9"/><path id="Path_2893" class="st1" d="M58.5 0C55 .2 53 1.7 51.9 3.6h12.7C63.5 1.3 61.1-.1 58.5 0"/><path id="Path_2894" class="st1" d="M30.7 26.8h8.4v-.9h-8.9c.2.3.3.6.5.9"/><path id="Path_2895" class="st1" d="M50.4 20.2H56v-1.6h-5.6v1.6"/><path id="Path_2896" class="st1" d="M50.5 7.6h5.9c.1-.2.2-.4.4-.5 2.4-1.7 3.7-.4 4.2.5h5.1c0-.2-.1-.4-.1-.5-.2-.8-.4-1.6-.8-2.4H51.3c-.3 1-.6 1.9-.8 2.9"/><path id="Path_2897" class="st1" d="M50.4 22.7H56v-1.5h-5.6v1.5"/><path id="Path_2898" class="st1" d="m41.4 29.4.3.9h13.5c.2-.3.3-.6.4-.9H41.4"/><path id="Path_2899" class="st1" d="M57.9 13.9v.9h7.9c.2-.8.4-1.6.4-2.5h-5c-.8 2.1-3.3 1.6-3.3 1.6"/><path id="Path_2900" class="st1" d="M46.1 14.7c-.3-.9-.7-1.7-1.2-2.5H31.3c-.5.8-1 1.6-1.3 2.5h16.1"/><path id="Path_2901" class="st1" d="M57.9 17.6h9.5c-.3-.7-.7-1.4-1.1-2H58l-.1 2"/><path id="Path_2902" class="st1" d="M32.6 29.4c.3.3.7.6 1.1.9h5.4v-.9h-6.5"/><path id="Path_2903" class="st1" d="M59.5 31.9c1.6.2 3.1-.1 4.5-.9h-4.5v.9"/><path id="Path_2904" class="st1" d="M61.6 11.3h4.8c0-.9 0-1.8-.1-2.6h-4.8c.1.8.2 1.7.1 2.6"/><path id="Path_2905" class="st1" d="M34.9 18.6h-5.8c0 .6-.1 1.1-.1 1.6h5.7c0-.5.1-1.1.2-1.6"/><path id="Path_2906" class="st1" d="M41.3 23.7v1.2H47v-1.2h-5.7"/><path id="Path_2907" class="st1" d="m35.2 22.3-.3-1.2h-5.8c0 .7.1 1.2.1 1.2 0 .1 0 .2.1.3h6.2c-.2 0-.2-.1-.3-.3"/><path id="Path_2908" class="st1" d="M59.5 28.5h7c.2-.3.4-.6.6-1h-7.7v1"/><path id="Path_2909" class="st1" d="M62.1 22.7h6.4c0-.5 0-1-.1-1.5h-6.6l.3 1.5"/><path id="Path_2910" class="st1" d="M57.9 19.8c1-.3 2.1-.1 3 .4h7.3c-.1-.5-.3-1.1-.4-1.6H58l-.1 1.2"/><path id="Path_2911" class="st1" d="M61.4 24.9h6.8c.1-.4.2-.8.2-1.2H62c-.1.4-.3.8-.6 1.2"/><path id="Path_2912" class="st1" d="M31.1 27.6c.2.3.4.7.7 1h7.3v-1h-8"/><path id="Path_2913" class="st1" d="M59.5 26.2v.6h8c.1-.2.2-.3.2-.5.1-.2.1-.3.2-.4h-7.6c-.3.1-.6.2-.8.3"/><path id="Path_2914" class="st1" d="M22.9 30.3h-6.5l.2.1c.4.3.9.5 1.4.6h3.3c.5-.1 1-.3 1.4-.6l.2-.1"/><path id="Path_2915" class="st1" d="M55.3 30.3H41.7c.1.2.3.5.4.7h12.6c.3-.2.4-.5.6-.7"/><path id="Path_2916" class="st1" d="M33.7 30.3c.3.2.7.5 1.1.7h4.3v-.7h-5.4"/></svg>