<?xml version="1.0" encoding="utf-8"?>
<!-- Generator: Adobe Illustrator 24.1.2, SVG Export Plug-In . SVG Version: 6.00 Build 0)  -->
<svg version="1.1" id="Layer_1" xmlns="http://www.w3.org/2000/svg" xmlns:xlink="http://www.w3.org/1999/xlink" x="0px" y="0px"
	 viewBox="0 0 76 71.2" style="enable-background:new 0 0 76 71.2;" xml:space="preserve">
<style type="text/css">
	.st0{fill-rule:evenodd;clip-rule:evenodd;fill:#FFFFFF;}
</style>
<g id="Group_27" transform="translate(80.755 53.64)">
	<path id="Path_2697" class="st0" d="M-58.8,5.9l17.7-47.8c0,0,1.5-1.2,1.9-0.9C-38.8-42.5-43.6-6-43.6-6l2.4-28.8L-56.5,3.5
		l11.6-5.4l-12.6,7.8L-58.8,5.9z"/>
	<path id="Path_2698" class="st0" d="M-41.9-3.7l5.4-48.9c0,0,1.1-1.8,1.3-0.6S-28-9.7-28-9.7s-7.9-1.4-12.1,4.8
		c2.3-3.9,6.5-6.3,11-6.2l-6.6-35.3L-41.9-3.7z"/>
	<path id="Path_2699" class="st0" d="M-60.2,8.4c7.6-3.3,14.9-7.5,21.7-12.3c5.2-3.7,12.7-3.7,12.7-3.7C-21.5-6-19.1-1.5-19.9,3
		l-2.4,3.3l-8.2,0.5c0,0,4.4-2.5,4.7-13.3c-6.1,0.6-11.9,3-16.7,6.7c-5.2,3.9-11,6.9-17.2,8.9L-60.2,8.4z"/>
	<path id="Path_2700" class="st0" d="M-58.4,11.7c9.2-3.9,19.1-6,29.1-6c0,0,3-2.9,3.5-12.3c0,0-7.3-0.1-18.1,7.7
		c-4.9,3.6-10.2,6.3-16,8L-58.4,11.7z"/>
	<path id="Path_2701" class="st0" d="M-42.4,13.7c-1.2,0.4-2.3,0.8-3.5,1.1C-56.6,17.5-68,16-77.7,10.7c-0.3-0.2-3.1-2.3-3.1-2.3
		s14.7,15,39.1,6.7l0,0c24.9-8.9,36.9,2.2,36.9,2.2C-11.6,9.9-26.4,7.6-42.4,13.7z"/>
	<path id="Path_2702" class="st0" d="M-49.5,15.4l0.3,0.1C-49.3,15.5-49.4,15.5-49.5,15.4z"/>
	<path id="Path_2703" class="st0" d="M-42.2,12.1c26-8.1,37.4,5.2,37.4,5.2C-9,10.4-22.3,3-45.5,10.8C-66.8,18-80.8,8.4-80.8,8.4
		s3.2,3.3,11.5,5.7C-58.1,17-44.8,12.9-42.2,12.1z"/>
</g>
</svg>
