<?xml version="1.0" encoding="utf-8"?>
<!-- Generator: Adobe Illustrator 24.1.2, SVG Export Plug-In . SVG Version: 6.00 Build 0)  -->
<svg version="1.1" id="Layer_1" xmlns="http://www.w3.org/2000/svg" xmlns:xlink="http://www.w3.org/1999/xlink" x="0px" y="0px"
	 viewBox="0 0 243.8 71.2" style="enable-background:new 0 0 243.8 71.2;" xml:space="preserve">
<style type="text/css">
	.st0{fill-rule:evenodd;clip-rule:evenodd;fill:#009DC7;}
	.st1{fill-rule:evenodd;clip-rule:evenodd;fill:#0A0D30;}
	.st2{fill-rule:evenodd;clip-rule:evenodd;fill:#0E1D49;}
	.st3{fill:#0A0D30;}
</style>
<g id="Group_30" transform="translate(-80.755 -53.64)">
	<g id="Group_27" transform="translate(80.755 53.64)">
		<path id="Path_2697" class="st0" d="M22,59.5l17.7-47.8c0,0,1.5-1.2,1.9-0.9s-4.4,36.8-4.4,36.8l2.4-28.8L24.3,57.1l11.6-5.4
			l-12.6,7.8L22,59.5z"/>
		<path id="Path_2698" class="st1" d="M38.9,49.9L44.3,1c0,0,1.1-1.8,1.3-0.6c0.2,1.2,7.2,43.5,7.2,43.5s-7.9-1.4-12.1,4.8
			c2.3-3.9,6.5-6.3,11-6.2L45.1,7.2L38.9,49.9z"/>
		<path id="Path_2699" class="st1" d="M20.6,62c7.6-3.3,14.9-7.5,21.7-12.3C47.5,46,55,46,55,46c4.3,1.6,6.7,6.1,5.9,10.6l-2.4,3.3
			l-8.2,0.5c0,0,4.4-2.5,4.7-13.3c-6.1,0.6-11.9,3-16.7,6.7c-5.2,3.9-11,6.9-17.2,8.9L20.6,62z"/>
		<path id="Path_2700" class="st0" d="M22.4,65.3c9.2-3.9,19.1-6,29.1-6c0,0,3-2.9,3.5-12.3c0,0-7.3-0.1-18.1,7.7
			C32,58.3,26.7,61,20.9,62.7L22.4,65.3z"/>
		<path id="Path_2701" class="st1" d="M38.4,67.3c-1.2,0.4-2.3,0.8-3.5,1.1c-10.7,2.7-22.1,1.2-31.8-4.1C2.8,64.1,0,62,0,62
			s14.7,15,39.1,6.7h0C64,59.8,76,70.9,76,70.9C69.2,63.5,54.4,61.2,38.4,67.3z"/>
		<path id="Path_2702" class="st2" d="M31.3,69l0.3,0.1C31.5,69.1,31.4,69.1,31.3,69z"/>
		<path id="Path_2703" class="st0" d="M38.6,65.7c26-8.1,37.4,5.2,37.4,5.2c-4.2-6.9-17.5-14.3-40.7-6.5C14,71.6,0,62,0,62
			s3.2,3.3,11.5,5.7C22.7,70.6,36,66.5,38.6,65.7z"/>
	</g>
	<g id="Group_28" transform="translate(171.042 89.248)">
		<path id="Path_2704" class="st3" d="M11.8,6.3v11.4h-4V6.3H0V3.9h19.6v2.5H11.8z"/>
		<path id="Path_2705" class="st3" d="M22.7,17.6V3.8h3.9v5.4h12.1V3.8h3.9v13.9h-3.9v-6H26.6v6L22.7,17.6z"/>
		<path id="Path_2706" class="st3" d="M49.4,17.6V3.8h17.4v2.4H53.4v3.1h7.9v2.4h-7.9V15H67v2.6H49.4z"/>
		<path id="Path_2707" class="st3" d="M100.5,6.3H89.3v3h10.6c1.2-0.1,2.3,0.1,3.4,0.7c0.7,0.7,1,1.6,0.9,2.6v1.9
			c0.1,0.9-0.2,1.9-0.9,2.6c-1,0.6-2.2,0.8-3.4,0.7H89.4C88.2,17.9,87,17.6,86,17c-0.7-0.7-1-1.6-0.9-2.6v-0.4l3.5-0.6v1.6h12V12
			H90.1c-1.2,0.1-2.3-0.1-3.4-0.7c-0.7-0.7-1-1.6-0.9-2.6V7.1c-0.1-0.9,0.2-1.9,0.9-2.6c1-0.6,2.2-0.8,3.4-0.7h9.7
			c1.1-0.1,2.3,0.1,3.3,0.7c0.7,0.6,1,1.5,0.9,2.4v0.3l-3.5,0.7L100.5,6.3z"/>
		<path id="Path_2708" class="st3" d="M125,0l0,4.6l-0.8,0v13.2l-10.3,0v-2.2h6.9l0-10.3h-0.9l-1.3,0.6l-1.3,0.9l-0.9,0.8l-1.1,1
			l-1,1l-1.3,1.7l-1.2,1.8l-1,2.2l-0.7,2.3l-0.7,2.8l-0.4,2.4l-0.2,2.6l0.1,6.6l0.7,3.9l-0.3-0.5l-1.6-6l-0.5-4.5v-2.7l0.5-4.2
			l0.5-2.6l0.7-2.4l1-2.1l0.8-1.7l0.9-1.3l1.5-2.1l1.6-1.7l1.5-1.3l1.6-0.9l1.8-0.8l2.1-0.6l1.5-0.2L125,0z"/>
		<path id="Path_2709" class="st3" d="M129.5,17.6V3.7h4v13.9H129.5z"/>
		<path id="Path_2710" class="st3" d="M136.8,17.7V3.8h4v11.3h12.8v2.6L136.8,17.7z"/>
	</g>
</g>
</svg>
