<svg version="1.1" id="Layer_1" xmlns="http://www.w3.org/2000/svg" x="0" y="0" viewBox="0 0 44.7 42" style="enable-background:new 0 0 44.7 42" xml:space="preserve"><style>.st0{fill:#009dc7}</style><path class="st0" d="M44.7 19c-.1-1.3-.2-2.5-.4-3.8-.5-2.7-1.5-5.2-3-7.4-1.2-1.9-2.8-3.6-4.5-5.1C36 2 35.2 1.4 34.3.8c-.8-.5-1.5-.1-1.7.2-.4.4-.7.9-1 1.5-.3.7-.1 1.3.5 1.7.9.6 1.8 1.2 2.6 2 1.2 1.2 2.3 2.5 3.2 3.9 1.9 2.8 2.8 6 2.9 9.3V21c-.1 1.5-.4 3-.9 4.5-1.5 4.8-5 8.8-9.6 10.9-2.3 1-4.7 1.6-7.3 1.7-10 .4-18.5-7.4-18.9-17.4-.1-1.4 0-2.7.3-4.1.5-2.7 1.5-5.2 3-7.4C8.5 7.6 9.9 6.1 11.6 5c.7-.5 1.5-1 2.3-1.4.7-.4.8-1.1.6-1.6-.3-.6-.6-1.2-1.1-1.6-.4-.5-1.1-.5-1.7-.2C9.5 1.4 7.5 3 5.8 4.8 1.8 9.3-.3 15.3.2 21.4c.1 2 .5 3.9 1.2 5.8C4.6 36.1 13 42 22.5 42h.1c2.7 0 5.3-.5 7.8-1.5 1.9-.7 3.6-1.7 5.2-2.9 1.5-1.1 2.8-2.5 4-3.9 1.4-1.6 2.5-3.5 3.4-5.5 1.3-2.8 1.9-6 1.7-9.2z"/><path class="st0" d="M10.8 12.2v8.4c-.2 2 .3 4.1 1.4 5.8 1.2 1.8 2.7 3.3 4.4 4.4 1.6 1.1 3.3 2.1 5 2.9.3.1.5.2.8.2.3 0 .6-.1.9-.2l.3-.2c.7-.3 1.4-.7 2-1.1 2.2-1.2 4.2-2.7 5.9-4.5 1.7-1.9 2.7-4.3 2.6-6.9v-9.4c0-.8-.5-1.2-1.1-1.3-1.3-.1-2.5-.2-3.6-.4-1.5-.2-2.9-.7-4.1-1.4-.7-.4-1.4-1-1.9-1.6-.1-.1-.5-.5-1-.4-.3 0-.7.2-.9.5-.2.2-.4.4-.6.5-2.5 2-5.6 3.1-8.8 3.2-1 .2-1.3.9-1.3 1.5zm11.7-1.1c1.7 1.2 3.6 2 5.6 2.4.5.1 1.1.2 1.6.4.3.1.6.1.9.2v7.1c0 1.6-.5 3.1-1.6 4.3-1.3 1.5-2.9 2.7-4.7 3.7-.3.2-.7.4-1 .6l-.6.2c-.1.1-.3.1-.4 0-2.5-1.1-4.7-2.7-6.5-4.8-.8-.9-1.3-2.1-1.4-3.3v-7.5c1.6-.2 3.3-.7 4.8-1.4 1.1-.5 2.2-1.2 3.3-1.9z"/><path class="st0" d="M18 19.5h-.4l-.3.3-.1.1-.2.2-.5.5c-.5.3-.5.6-.5.8 0 .3.1.6.4.9 1.1 1.1 2.1 2.2 3.2 3.3.1.1.4.4.9.4.3 0 .6-.1.9-.4l5.7-5.7.7-.7 1.6-1.6c.1-.1.4-.4.4-.9 0-.3-.1-.6-.4-.9l-.6-.6c-.3-.3-.6-.5-.9-.5-.5 0-.9.3-1 .4l-6.4 6.4c-.4-.5-.9-.9-1.3-1.3l-.3-.3c-.1-.1-.4-.4-.9-.4z"/></svg>