<svg xmlns="http://www.w3.org/2000/svg" viewBox="0 0 59.6 37.1" style="enable-background:new 0 0 59.6 37.1" xml:space="preserve"><path d="M-40.1 56.8zm.2-.4zm97.1-25.3c-.5-.5-2.5-.9-3.9-.4 0 0 2.8-5.1 3.6-6.9 1.6-3.4 2.6-7 2.8-10.7 0-.4 0-.8-.1-1.2-.1-.7-.7-1.4-2-1.3h-.4c0-.4-.2-.9-.5-1.2s-.8-.5-1.2-.5h-.2c-.5 0-.9.2-1.2.6-.3.3-.4.8-.4 1.2v.1l-3.7.4V10c-.1-1.1-.8-1.9-1.8-1.9-.4 0-.9.2-1.2.5-.3.3-.5.8-.5 1.4v1.6c-.3 0-.6.1-.9.1l-.6.1c-1.4.2-2.9.3-4.3.5-.2-.7-.3-1.3-.5-2L39.9 9c-.4-2.3-2.5-4-4.8-3.9H24.3l-3.9-2.4c-1.3-.8-2.5-1.6-3.7-2.3-.3-.2-.7-.4-1.1-.4h-4.7c-.2 0-.3 0-.5.1C9.5.4 9 1.3 9.2 2.2l2.6 13c.1.1.1.2.1.3L1.6 16.8c-.9 0-1.7.9-1.6 1.8v6.8c0 .5.2.9.6 1.2.4.3.8.4 1.2.4h.5v6c-.6-.3-1.4 0-1.9.6l-.1.1c-.3.4-.3.8-.2 1.3 0 .5.3.9.6 1.1.6.5 1.2.8 2 .9 1.2.2 2.4 0 3.5-.5.3-.1.5-.2.8-.3.5-.2 1-.4 1.5-.7.4-.2.9-.1 1.3.3.5.4 1.1.7 1.8.8 1.1.3 2.4.1 3.4-.4.4-.1.7-.3 1.1-.4.4-.2.8-.3 1.3-.5s1.1-.1 1.5.2c.5.3 1 .6 1.5.7 1.2.4 2.5.3 3.6-.2.5-.1.9-.3 1.4-.6.2-.1.5-.3.9-.4.5-.3 1.2-.1 1.7.2.8.6 1.8.9 2.8.9h.5c.7-.1 1.4-.4 2-.6.4-.1.7-.3 1.1-.4.3-.1.7-.3 1.1-.4s.8 0 1.2.3c.4.4 1 .7 1.6.8 1.2.4 2.6.2 3.7-.3.4-.1.7-.3 1-.4.5-.1.9-.3 1.4-.6s1.1-.1 1.5.2c.4.3.9.6 1.5.7 1.2.3 2.5.2 3.6-.3.5-.2.9-.3 1.3-.5s.8-.3 1.3-.5c.4-.2 1-.2 1.4.1.8.6 1.9.4 2.5-.4.3-.4.5-.8.4-1.3-.1-.7-.4-1.1-.7-1.4zm-41.7-16L13.1 3.6h2c.9.5 1.7 1.1 2.6 1.6h-.6c-.8-.1-1.5.4-1.8 1.1 0 .2-.1.3-.1.5 0 .5.1.9.4 1.3.3.4.7.6 1.2.7h18.4c.4 0 .8.1 1 .5.1.2.9 2.6 1.1 3.4M3.3 20 56 14.2v.4c-.3 3.7-2.7 8.7-2.8 8.8H3.3V20zm45.6 11.9s-1-1.4-3.8-1.4c-.6 0-1.2.1-2 .5-.5.1-1 .3-1.4.6-.3.2-.6.3-.9.4s-.6.2-1 .3c-.3.1-.6 0-.8-.2-1.4-1.2-3.6-1.5-5.2-.7-.4.1-.8.2-1.2.4-.3.2-.6.3-.9.4h-.1c-.4.2-.8.3-1.2.2-.1-.1-.3-.1-.4-.2-1.5-1.2-3.7-1.5-5.4-.6-.4.1-.7.3-1.1.4-.4.2-.8.3-1.2.5-.5.3-1.2.2-1.7-.2-1.3-1-3.1-1.2-4.6-.5-.5.1-1 .3-1.5.6-.3.2-.6.3-.9.4h-.1c-.4.2-.8.3-1.2.2-.2 0-.4-.1-.5-.2-1.4-1.2-3.5-1.5-5.1-.7-.4.1-.7.3-1.1.4V27h45.9c.1.2-2.6 4.9-2.6 4.9zm-82.1 37.2s.1 0 0 0z" style="fill:#009dc7"/></svg>