<svg version="1.1" id="Layer_1" xmlns="http://www.w3.org/2000/svg" x="0" y="0" viewBox="0 0 42.1 40.6" style="enable-background:new 0 0 42.1 40.6" xml:space="preserve"><style>.st0{fill:#009dc7}</style><path id="Path_4455" class="st0" d="M15.8 31.6c.2-1.2.4-2.1.5-3.1 0-.5-.1-.9-.4-1.3-.5-.7-1.2-1.3-1.8-1.9-.6-.5-.7-1.5-.2-2.1.7-.7 2.4-.8 3.1-.8.8 0 1.5-.5 1.7-1.3.2-.7.6-1.5 1-2.1.3-.5.8-.9 1.4-.9.6 0 1 .4 1.3.8.5.8.9 1.6 1.2 2.4.2.5.7.9 1.3.9.8.1 1.6.2 2.4.4.8.1 1.4.8 1.3 1.6 0 .3-.2.6-.5.9-.6.7-1.2 1.3-1.8 1.9-.4.4-.6.9-.5 1.5.2.8.3 1.7.4 2.5 0 .6-.1 1.3-.5 1.6-.5.3-1.2.3-1.7.1-1-.4-1.9-1.4-2.9-1.4-.9 0-1.8 1-2.8 1.4-.5.2-1 .3-1.7.2-.5-.2-.9-.8-.8-1.3zm5.2-9.3c-.6 2.1-1.8 2.6-3.7 2.8 1.7 1.1 2 2.6 1.7 4.4 1.3-1 3-1 4.3 0-.4-1.7.1-3.6 1.7-4.7-1.9.4-3.6-.8-4-2.5z"/><path style="fill:none" d="M3.1 15.1h36v22.4h-36z"/><path class="st0" d="M38.6 3.1h-3.9V2c0-1.4-.5-1.9-1.9-1.9h-5.4c-1.3 0-1.8.6-1.8 1.8V3h-9V1.4C16.5.6 15.8 0 15 0H8.8C8 .1 7.4.9 7.5 1.7V3H2.8C1.1 3.2-.1 4.7 0 6.3c0 10.8 0 21.6.2 32.4 0 1.5.4 2 2 2h38c1.5 0 2-.5 2-2.1V6.7c0-2.5-1.1-3.6-3.6-3.6zm.5 34.4H4.4c-.7 0-1.3-.6-1.3-1.3V16.4c0-.7.6-1.3 1.3-1.3h33.4c.7 0 1.3.6 1.3 1.3v21.1zm-.4-25.8H3.5c-.2 0-.4-.2-.4-.4V6.7c0-.2.2-.4.4-.4h35.3c.2 0 .4.2.4.4v4.7c-.1.2-.3.3-.5.3zm-49.2 55.7zm-3.2-7.7s0 .1 0 0c0 .1 0 0 0 0z"/></svg>