<svg version="1.1" id="Layer_1" xmlns="http://www.w3.org/2000/svg" x="0" y="0" viewBox="0 0 51.7 51.7" style="enable-background:new 0 0 51.7 51.7" xml:space="preserve"><style>.st0{fill:#fff}</style><g id="Group_552" transform="translate(.589 .588)"><g id="Path_4445"><path class="st0" d="M14.7 24.9c0-.4.2-.9.6-1.2 2-1.9 3.9-3.9 5.8-5.8l3.1-3.1c.5-.6 1.5-.7 2.1-.2l.2.2 8.9 8.9c.7.5.8 1.4.3 2.1l-.3.3c-1 1-2.1 2-3.1 3-.7.7-1.4 1.5-2.1 2.2-.8.8-1.7 1.6-2.5 2.4-.5.5-1 1-1.5 1.4-.6.5-1.4.4-1.9-.1l-6.1-6.1-3-3c-.3-.2-.5-.6-.5-1zm3.6-.1 7.1 7.1 7-7-7.1-7.1-7 7z"/><path class="st0" d="M25.3 36c-.5 0-1-.2-1.3-.5l-9.1-9.1c-.4-.4-.6-.9-.6-1.5s.3-1.1.7-1.5l5.8-5.8 3.1-3.1c.3-.4.8-.6 1.3-.7.5-.1 1 .1 1.5.4l.3.3 8.9 8.9c.4.3.7.7.7 1.3.1.5-.1 1.1-.4 1.5-.1.2-.3.3-.4.4-.4.4-.9.8-1.3 1.3l-1.7 1.7-1.1 1.1c-.3.4-.7.7-1 1-.6.6-1.2 1.2-1.8 1.7l-1.1 1.1c-.3.3-.7.7-1.1 1-.5.4-.9.5-1.4.5zM15.2 24.9c0 .3.1.5.3.7l9.1 9.1c.3.3.9.3 1.2 0 .3-.3.7-.6 1-1l1.1-1.1c.6-.6 1.2-1.1 1.8-1.7l1-1c.4-.4.7-.8 1.1-1.1l1.7-1.7c.5-.4.9-.9 1.4-1.3l.3-.3c.2-.2.2-.5.2-.8s-.2-.5-.4-.7l-9-8.9c.1 0 0-.1 0-.1-.2-.2-.5-.2-.7-.2-.3 0-.5.2-.7.4l-3.1 3.1c-1.9 1.9-3.9 3.9-5.9 5.8-.2.2-.3.5-.4.8zm10.2 7.7-7.8-7.8 7.7-7.7 7.8 7.8-7.7 7.7zM19 24.8l6.3 6.4 6.3-6.3-6.4-6.4-6.2 6.3z"/></g><g id="Path_4446"><path class="st0" d="m25.2 10.1-2.8 2.8c-.3.3-.6.5-.9.6-.6.2-1.3-.1-1.6-.6-.4-.6-.3-1.3.2-1.8l2.4-2.4 1.6-1.6c.5-.6 1.5-.7 2.1-.2l.2.2 3.9 3.9c.6.5.6 1.5.1 2.1-.1.2-.3.3-.5.4-.6.2-1.2.1-1.7-.4l-2.6-2.6-.4-.4z"/><path class="st0" d="M21.1 14.1c-.7 0-1.3-.3-1.6-.9-.5-.7-.4-1.7.3-2.4.5-.6 1.1-1.1 1.7-1.7l2.3-2.3c.7-.8 1.9-.9 2.8-.2l.2.2L28 8.1l2.5 2.5c.4.3.6.8.6 1.3s-.2 1-.5 1.4c-.2.2-.4.4-.7.5-.8.3-1.7.1-2.2-.5l-2.5-2.5-.3.3-2.1 2.1c-.3.3-.7.6-1.1.7-.2.1-.4.2-.6.2zm4.1-7c-.3 0-.6.1-.7.3l-2.4 2.4c-.6.6-1.1 1.1-1.6 1.7-.3.3-.4.8-.1 1.1.2.4.7.5 1.1.4.2-.1.5-.3.7-.5l2.1-2.1 1.1-1.2.3.5c.1.1.2.2.2.3.8.9 1.7 1.7 2.6 2.6.3.3.7.4 1.1.3.1-.1.2-.1.3-.2.2-.2.3-.4.2-.7s-.1-.5-.3-.7l-2.5-2.5L26 7.5c-.1-.1-.1-.1-.1-.2-.2-.1-.5-.2-.7-.2z"/></g><g id="Path_4447"><path class="st0" d="m25.3 40.4 2.6-2.6.5-.5c.6-.5 1.4-.6 2 0 .6.5.6 1.5.1 2-1.4 1.4-2.7 2.8-4.1 4.1-.5.6-1.4.6-2 0-1.4-1.4-2.8-2.7-4.1-4.1-.5-.6-.5-1.4 0-2 .5-.6 1.4-.6 2-.1l2.7 2.7c.1.2.2.3.3.5z"/><path class="st0" d="M25.3 44.4c-.5 0-1-.2-1.3-.5-1.4-1.4-2.8-2.7-4.1-4.1-.7-.8-.7-2 0-2.7.7-.8 1.9-.8 2.7-.1.7.6 1.3 1.3 2 2l.7.7 2.2-2.2.5-.5c.7-.7 1.9-.7 2.7 0 .4.4.6.8.6 1.3s-.2 1-.5 1.4l-4.2 4.2c-.3.3-.8.5-1.3.5zm-4-6.9c-.2 0-.5.1-.7.3-.4.4-.4.9 0 1.3 1.3 1.4 2.7 2.7 4.1 4.1.4.3.9.3 1.3 0 1.4-1.4 2.8-2.7 4.1-4.1.2-.2.3-.4.3-.7s-.1-.5-.3-.7c-.4-.3-1-.3-1.3 0l-.5.5-2.9 3-.5-.6-.2-.2-.7-.7c-.6-.7-1.3-1.3-2-1.9-.3-.3-.5-.3-.7-.3z"/></g><g id="Path_4448"><path class="st0" d="M40.4 25.2c-1.1-1.1-2.1-2-3.1-3-.6-.5-.6-1.5-.1-2.1l.1-.1c.6-.5 1.4-.5 2 0l4.1 4.1c.6.5.6 1.4.1 2-1.3 1.4-2.7 2.7-4.1 4.1-.6.5-1.5.5-2.1-.1-.5-.6-.5-1.5 0-2l2.7-2.7c.2 0 .3-.1.4-.2z"/><path class="st0" d="M38.4 31.2c-.5 0-1.1-.2-1.4-.6-.7-.8-.7-2 .1-2.7l2.3-2.3.3-.3-.7-.8-2-2c-.8-.7-.8-1.9-.1-2.7l.1-.1c.7-.7 1.9-.7 2.7 0 1.4 1.4 2.8 2.7 4.1 4.1.4.3.6.8.6 1.3s-.2 1-.5 1.4l-4.1 4.1c-.4.4-.9.6-1.4.6zm0-11c-.2 0-.5.1-.6.3-.4.4-.4 1.1 0 1.4l2 2 1.5 1.5-.6.3c-.1.1-.2.1-.3.2l-.4.4-2.3 2.3c-.4.4-.4.9 0 1.3s1 .4 1.4.1l4-4c.2-.2.3-.5.3-.7 0-.2-.1-.5-.3-.6-1.4-1.4-2.7-2.8-4.1-4.1-.2-.3-.4-.4-.6-.4z"/></g><g id="Path_4449"><path class="st0" d="M10.2 25.3c1 1 1.9 2 2.9 2.9.6.5.7 1.5.2 2.1 0 .1-.1.1-.2.2-.6.5-1.4.5-2-.1-1.1-1-2.1-2.1-3.2-3.1l-.9-.9c-.6-.5-.7-1.5-.1-2.1l.1-.1 3.9-3.9c.5-.6 1.5-.6 2-.1.2.2.3.4.4.6.2.6 0 1.2-.4 1.6-.8 1-1.8 1.9-2.7 2.9z"/><path class="st0" d="M12.1 31.3c-.5 0-1-.2-1.4-.6l-2.1-2.1-1.9-1.9c-.4-.3-.6-.8-.6-1.3s.1-1 .5-1.4l.2-.2 2-2 1.8-1.8c.3-.4.8-.6 1.3-.6s1 .2 1.4.5c.2.2.4.5.5.8.3.8.1 1.6-.6 2.2l-2.5 2.5.5.5 2.1 2.1c.4.3.6.8.7 1.3.1.5-.1 1-.4 1.5-.1.1-.1.2-.2.2-.3.2-.8.3-1.3.3zm0-11s-.1 0 0 0c-.3 0-.5.1-.7.3l-1.8 1.8-2.1 2.1c-.1 0-.1.1-.1.1-.2.2-.3.4-.2.7 0 .3.1.5.3.7l1.9 2 2.1 2.1c.4.4.9.4 1.3 0l.1-.1c.2-.2.2-.5.2-.7 0-.3-.2-.5-.4-.7l-2.1-2.1-1.2-1.2 3.2-3.2c.3-.3.4-.7.3-1.1-.1-.2-.1-.3-.3-.4-.1-.2-.3-.3-.5-.3z"/></g><g id="Path_4450"><path class="st0" d="m25.2 3.4-2.4 2.4-.7.7c-.6.6-1.5.6-2 0-.6-.5-.6-1.5-.1-2L24.1.4c.5-.5 1.4-.6 2 0 1.3 1.2 2.7 2.4 4 3.7.6.5.7 1.5.1 2.1-.5.6-1.5.6-2.1.1-.9-1.1-1.8-2-2.9-2.9z"/><path class="st0" d="M21.1 7.4c-.5 0-1-.2-1.4-.6-.4-.4-.6-.8-.6-1.3s.2-1 .5-1.4L23.7 0c.7-.7 1.9-.7 2.7 0 1.3 1.2 2.7 2.4 4 3.7.4.3.6.8.6 1.3s-.1 1-.5 1.4c-.2.4-.7.6-1.2.6s-1-.2-1.4-.5c-.7-.6-1.4-1.3-2.1-2l-.5-.4L23 6.3l-.5.5c-.4.4-.9.6-1.4.6zm4.1-7c-.2 0-.5.1-.6.3l-4.1 4.1c-.2.2-.3.4-.3.7s.1.5.3.7c.4.4 1 .4 1.3 0 .2-.2.4-.4.5-.6l2.9-2.9 1.2 1.1c.7.7 1.4 1.3 2.1 2 .2.1.5.2.7.2.3 0 .5-.1.7-.3.2-.2.3-.5.3-.7 0-.3-.1-.5-.3-.7-1.3-1.2-2.7-2.5-4-3.7-.2-.1-.5-.2-.7-.2z"/></g><g id="Path_4451"><path class="st0" d="m47.1 25.2-2-2-1.1-1.1c-.6-.6-.6-1.5 0-2.1s1.5-.6 2.1 0l4 4c.6.5.6 1.4.1 2l-.1.1-3.6 3.9c-.5.6-1.4.7-2 .2 0 0-.1 0-.1-.1-.6-.6-.6-1.5-.1-2.1l.1-.1c.9-.7 1.8-1.7 2.7-2.7z"/><path class="st0" d="M45.5 31.2c-.4 0-.9-.1-1.2-.4l-.1-.1c-.4-.4-.6-.9-.6-1.4 0-.5.2-1 .5-1.4.8-.9 1.6-1.7 2.4-2.6l-1.9-1.8-.9-.9c-.4-.4-.6-.8-.6-1.4s.2-1 .6-1.4c.8-.8 2-.8 2.8 0 1.4 1.4 2.7 2.7 4 4.1.8.7.8 1.9.1 2.7l-.1.1-3.6 3.9c-.3.4-.8.6-1.3.7 0-.1-.1-.1-.1-.1zm-.5-11c-.3 0-.5.1-.7.3-.2.2-.3.4-.3.7s.1.5.3.7l.9.9 2.5 2.5-.3.4c-.9 1-1.8 1.9-2.6 2.9-.2.3-.3.5-.3.8 0 .3.1.5.3.7.3.2.5.3.8.3.3 0 .5-.2.6-.4l3.6-3.9c.4-.4.4-1 0-1.4-1.3-1.4-2.7-2.7-4-4-.3-.4-.5-.5-.8-.5z"/></g><g id="Path_4452"><path class="st0" d="m3.4 25.3 1 1c.7.7 1.4 1.3 2 2 .6.5.7 1.5.1 2.1-.2.2-.4.3-.7.4-.5.2-1 .1-1.4-.3C3 29.1 1.6 27.7.2 26.4c-.5-.5-.6-1.4 0-2 1.2-1.4 2.5-2.7 3.7-4 .5-.6 1.5-.6 2.1-.1.6.5.6 1.5.1 2.1-.8.9-1.6 1.7-2.4 2.6-.1 0-.2.1-.3.3z"/><path class="st0" d="M5.4 31.3c-.5 0-.9-.2-1.3-.5C2.7 29.4 1.4 28 0 26.6c-.7-.7-.8-1.9 0-2.7 1.2-1.4 2.5-2.7 3.7-4 .3-.3.8-.6 1.3-.6s1 .2 1.4.5c.4.4.6.9.6 1.4 0 .5-.2 1-.5 1.4-.5.6-1.1 1.2-1.6 1.8l-.8.9c.2.2.5.4.7.6l.4.4 1.6 1.6c.4.3.6.8.6 1.3s-.1 1-.5 1.4c-.2.3-.6.5-.9.6-.2.1-.4.1-.6.1zm-.3-11s-.1 0 0 0c-.3 0-.5.1-.7.3-1.2 1.3-2.5 2.7-3.7 4-.3.4-.3.9 0 1.3 1.4 1.4 2.8 2.8 4.2 4.1.2.2.6.3.9.2.2-.1.3-.2.5-.3.2-.2.3-.4.2-.7 0-.3-.1-.5-.3-.7-.7-.4-1.2-1-1.7-1.5l-.4-.4c-.2-.2-.4-.4-.7-.6l-.7-.7 1.4-1.6c.5-.6 1.1-1.2 1.6-1.8.2-.2.3-.4.3-.6 0-.3-.1-.5-.3-.7-.2-.2-.4-.3-.6-.3z"/></g><g id="Path_4453"><path class="st0" d="m25.3 47.1 3.1-3.1c.4-.4.9-.5 1.4-.4.8.2 1.2 1 1.1 1.7-.1.3-.2.5-.4.7-1.1 1.2-2.3 2.3-3.5 3.5l-.6.6c-.6.6-1.4.6-2 0-1.4-1.2-2.7-2.5-4-3.7-.6-.6-.6-1.5-.1-2.1s1.5-.6 2.1-.1c.9.8 1.7 1.6 2.6 2.4 0 .3.1.4.3.5z"/><path class="st0" d="M25.3 51.1c-.5 0-1-.2-1.3-.5-1.3-1.2-2.7-2.5-4-3.7-.4-.4-.6-.8-.6-1.4 0-.5.2-1 .5-1.4.4-.4.8-.6 1.4-.6.5 0 1 .2 1.4.5.6.5 1.2 1.1 1.8 1.7l.8.7.4-.4 2.4-2.4c.5-.5 1.2-.7 1.9-.5.5.1.9.4 1.2.9s.3 1 .2 1.5c-.1.4-.3.7-.5.9l-2.4 2.4-1.3 1.3-.4.4c-.5.4-1 .6-1.5.6zm-4-6.6c-.3 0-.5.1-.7.3s-.3.4-.3.7.1.5.3.7c1.3 1.2 2.7 2.5 4 3.7.4.4 1 .4 1.3 0l.4-.4 1.3-1.3 2.4-2.4c.1-.1.2-.3.3-.5.1-.2 0-.5-.1-.7s-.3-.4-.6-.4c-.3-.1-.7 0-.9.2l-2.4 2.4-1.1 1.1-1.5-1.4c-.6-.6-1.2-1.1-1.8-1.7-.2-.2-.4-.3-.6-.3z"/></g></g></svg>